G04 EAGLE Gerber RS-274X export*
G75*
%MOMM*%
%FSLAX34Y34*%
%LPD*%
%IN*%
%IPPOS*%
%AMOC8*
5,1,8,0,0,1.08239X$1,22.5*%
G01*
%ADD10C,0.254000*%


D10*
X0Y0D02*
X431600Y0D01*
X431600Y139500D01*
X431800Y173990D01*
X468630Y173990D01*
X468630Y0D01*
X654050Y0D01*
X654050Y579630D01*
X0Y579630D01*
X0Y0D01*
X386700Y277880D02*
X386700Y280920D01*
X386623Y283960D01*
X386469Y286996D01*
X386238Y290028D01*
X385931Y293053D01*
X385546Y296069D01*
X385086Y299074D01*
X384550Y302067D01*
X383938Y305045D01*
X383250Y308007D01*
X382488Y310950D01*
X381652Y313873D01*
X380742Y316774D01*
X379758Y319651D01*
X378702Y322502D01*
X377574Y325326D01*
X376375Y328120D01*
X375106Y330882D01*
X373767Y333612D01*
X372359Y336307D01*
X370884Y338965D01*
X369341Y341586D01*
X367733Y344166D01*
X366060Y346704D01*
X364323Y349200D01*
X362524Y351651D01*
X360663Y354055D01*
X358741Y356411D01*
X356761Y358718D01*
X354723Y360974D01*
X352628Y363178D01*
X350478Y365328D01*
X348274Y367423D01*
X346018Y369461D01*
X343711Y371441D01*
X341355Y373363D01*
X338951Y375224D01*
X336500Y377023D01*
X334004Y378760D01*
X331466Y380433D01*
X328886Y382041D01*
X326265Y383584D01*
X323607Y385059D01*
X320912Y386467D01*
X318182Y387806D01*
X315420Y389075D01*
X312626Y390274D01*
X309802Y391402D01*
X306951Y392458D01*
X304074Y393442D01*
X301173Y394352D01*
X298250Y395188D01*
X295307Y395950D01*
X292345Y396638D01*
X289367Y397250D01*
X286374Y397786D01*
X283369Y398246D01*
X280353Y398631D01*
X277328Y398938D01*
X274296Y399169D01*
X271260Y399323D01*
X268220Y399400D01*
X265180Y399400D01*
X262140Y399323D01*
X259104Y399169D01*
X256072Y398938D01*
X253047Y398631D01*
X250031Y398246D01*
X247026Y397786D01*
X244033Y397250D01*
X241055Y396638D01*
X238093Y395950D01*
X235150Y395188D01*
X232227Y394352D01*
X229326Y393442D01*
X226449Y392458D01*
X223598Y391402D01*
X220774Y390274D01*
X217980Y389075D01*
X215218Y387806D01*
X212488Y386467D01*
X209793Y385059D01*
X207135Y383584D01*
X204514Y382041D01*
X201934Y380433D01*
X199396Y378760D01*
X196900Y377023D01*
X194449Y375224D01*
X192045Y373363D01*
X189689Y371441D01*
X187382Y369461D01*
X185126Y367423D01*
X182922Y365328D01*
X180772Y363178D01*
X178678Y360974D01*
X176639Y358718D01*
X174659Y356411D01*
X172737Y354055D01*
X170876Y351651D01*
X169077Y349200D01*
X167340Y346704D01*
X165667Y344166D01*
X164059Y341586D01*
X162516Y338965D01*
X161041Y336307D01*
X159633Y333612D01*
X158294Y330882D01*
X157025Y328120D01*
X155826Y325326D01*
X154698Y322502D01*
X153642Y319651D01*
X152658Y316774D01*
X151748Y313873D01*
X150912Y310950D01*
X150150Y308007D01*
X149462Y305045D01*
X148850Y302067D01*
X148314Y299074D01*
X147854Y296069D01*
X147469Y293053D01*
X147162Y290028D01*
X146931Y286996D01*
X146777Y283960D01*
X146700Y280920D01*
X146700Y277880D01*
X146777Y274840D01*
X146931Y271804D01*
X147162Y268772D01*
X147469Y265747D01*
X147854Y262731D01*
X148314Y259726D01*
X148850Y256733D01*
X149462Y253755D01*
X150150Y250793D01*
X150912Y247850D01*
X151748Y244927D01*
X152658Y242026D01*
X153642Y239149D01*
X154698Y236298D01*
X155826Y233474D01*
X157025Y230680D01*
X158294Y227918D01*
X159633Y225188D01*
X161041Y222493D01*
X162516Y219835D01*
X164059Y217214D01*
X165667Y214634D01*
X167340Y212096D01*
X169077Y209600D01*
X170876Y207149D01*
X172737Y204745D01*
X174659Y202389D01*
X176639Y200082D01*
X178678Y197826D01*
X180772Y195622D01*
X182922Y193472D01*
X185126Y191378D01*
X187382Y189339D01*
X189689Y187359D01*
X192045Y185437D01*
X194449Y183576D01*
X196900Y181777D01*
X199396Y180040D01*
X201934Y178367D01*
X204514Y176759D01*
X207135Y175216D01*
X209793Y173741D01*
X212488Y172333D01*
X215218Y170994D01*
X217980Y169725D01*
X220774Y168526D01*
X223598Y167398D01*
X226449Y166342D01*
X229326Y165358D01*
X232227Y164448D01*
X235150Y163612D01*
X238093Y162850D01*
X241055Y162162D01*
X244033Y161550D01*
X247026Y161014D01*
X250031Y160554D01*
X253047Y160169D01*
X256072Y159862D01*
X259104Y159631D01*
X262140Y159477D01*
X265180Y159400D01*
X268220Y159400D01*
X271260Y159477D01*
X274296Y159631D01*
X277328Y159862D01*
X280353Y160169D01*
X283369Y160554D01*
X286374Y161014D01*
X289367Y161550D01*
X292345Y162162D01*
X295307Y162850D01*
X298250Y163612D01*
X301173Y164448D01*
X304074Y165358D01*
X306951Y166342D01*
X309802Y167398D01*
X312626Y168526D01*
X315420Y169725D01*
X318182Y170994D01*
X320912Y172333D01*
X323607Y173741D01*
X326265Y175216D01*
X328886Y176759D01*
X331466Y178367D01*
X334004Y180040D01*
X336500Y181777D01*
X338951Y183576D01*
X341355Y185437D01*
X343711Y187359D01*
X346018Y189339D01*
X348274Y191378D01*
X350478Y193472D01*
X352628Y195622D01*
X354723Y197826D01*
X356761Y200082D01*
X358741Y202389D01*
X360663Y204745D01*
X362524Y207149D01*
X364323Y209600D01*
X366060Y212096D01*
X367733Y214634D01*
X369341Y217214D01*
X370884Y219835D01*
X372359Y222493D01*
X373767Y225188D01*
X375106Y227918D01*
X376375Y230680D01*
X377574Y233474D01*
X378702Y236298D01*
X379758Y239149D01*
X380742Y242026D01*
X381652Y244927D01*
X382488Y247850D01*
X383250Y250793D01*
X383938Y253755D01*
X384550Y256733D01*
X385086Y259726D01*
X385546Y262731D01*
X385931Y265747D01*
X386238Y268772D01*
X386469Y271804D01*
X386623Y274840D01*
X386700Y277880D01*
M02*
