G04 EAGLE Gerber RS-274X export*
G75*
%MOMM*%
%FSLAX34Y34*%
%LPD*%
%INSilkscreen Bottom*%
%IPPOS*%
%AMOC8*
5,1,8,0,0,1.08239X$1,22.5*%
G01*
%ADD10C,0.101600*%
%ADD11C,0.076200*%
%ADD12C,0.152400*%
%ADD13C,0.203200*%


D10*
X639572Y43688D02*
X635169Y56896D01*
X630767Y43688D01*
X631867Y46990D02*
X638471Y46990D01*
X625532Y43688D02*
X625532Y56896D01*
X621863Y56896D01*
X621743Y56894D01*
X621623Y56888D01*
X621503Y56878D01*
X621384Y56865D01*
X621265Y56847D01*
X621147Y56826D01*
X621030Y56800D01*
X620913Y56771D01*
X620798Y56738D01*
X620684Y56701D01*
X620571Y56661D01*
X620459Y56617D01*
X620349Y56569D01*
X620240Y56518D01*
X620133Y56463D01*
X620029Y56404D01*
X619926Y56343D01*
X619825Y56278D01*
X619726Y56209D01*
X619629Y56138D01*
X619535Y56063D01*
X619444Y55986D01*
X619355Y55905D01*
X619269Y55821D01*
X619185Y55735D01*
X619104Y55646D01*
X619027Y55555D01*
X618952Y55461D01*
X618881Y55364D01*
X618812Y55265D01*
X618747Y55164D01*
X618686Y55061D01*
X618627Y54957D01*
X618572Y54850D01*
X618521Y54741D01*
X618473Y54631D01*
X618429Y54519D01*
X618389Y54406D01*
X618352Y54292D01*
X618319Y54177D01*
X618290Y54060D01*
X618264Y53943D01*
X618243Y53825D01*
X618225Y53706D01*
X618212Y53587D01*
X618202Y53467D01*
X618196Y53347D01*
X618194Y53227D01*
X618196Y53107D01*
X618202Y52987D01*
X618212Y52867D01*
X618225Y52748D01*
X618243Y52629D01*
X618264Y52511D01*
X618290Y52394D01*
X618319Y52277D01*
X618352Y52162D01*
X618389Y52048D01*
X618429Y51935D01*
X618473Y51823D01*
X618521Y51713D01*
X618572Y51604D01*
X618627Y51497D01*
X618686Y51392D01*
X618747Y51290D01*
X618812Y51189D01*
X618881Y51090D01*
X618952Y50993D01*
X619027Y50899D01*
X619104Y50808D01*
X619185Y50719D01*
X619269Y50633D01*
X619355Y50549D01*
X619444Y50468D01*
X619535Y50391D01*
X619629Y50316D01*
X619726Y50245D01*
X619825Y50176D01*
X619926Y50111D01*
X620029Y50050D01*
X620133Y49991D01*
X620240Y49936D01*
X620349Y49885D01*
X620459Y49837D01*
X620571Y49793D01*
X620684Y49753D01*
X620798Y49716D01*
X620913Y49683D01*
X621030Y49654D01*
X621147Y49628D01*
X621265Y49607D01*
X621384Y49589D01*
X621503Y49576D01*
X621623Y49566D01*
X621743Y49560D01*
X621863Y49558D01*
X625532Y49558D01*
X621129Y49558D02*
X618194Y43688D01*
X612382Y43688D02*
X612382Y56896D01*
X605044Y43688D01*
X605044Y56896D01*
X595484Y56896D02*
X599887Y43688D01*
X591082Y43688D02*
X595484Y56896D01*
X592182Y46990D02*
X598786Y46990D01*
X585901Y43688D02*
X585901Y56896D01*
X585901Y43688D02*
X580031Y43688D01*
X574830Y43688D02*
X574830Y56896D01*
X571161Y56896D01*
X571041Y56894D01*
X570921Y56888D01*
X570801Y56878D01*
X570682Y56865D01*
X570563Y56847D01*
X570445Y56826D01*
X570328Y56800D01*
X570211Y56771D01*
X570096Y56738D01*
X569982Y56701D01*
X569869Y56661D01*
X569757Y56617D01*
X569647Y56569D01*
X569538Y56518D01*
X569431Y56463D01*
X569327Y56404D01*
X569224Y56343D01*
X569123Y56278D01*
X569024Y56209D01*
X568927Y56138D01*
X568833Y56063D01*
X568742Y55986D01*
X568653Y55905D01*
X568567Y55821D01*
X568483Y55735D01*
X568402Y55646D01*
X568325Y55555D01*
X568250Y55461D01*
X568179Y55364D01*
X568110Y55265D01*
X568045Y55164D01*
X567984Y55061D01*
X567925Y54957D01*
X567870Y54850D01*
X567819Y54741D01*
X567771Y54631D01*
X567727Y54519D01*
X567687Y54406D01*
X567650Y54292D01*
X567617Y54177D01*
X567588Y54060D01*
X567562Y53943D01*
X567541Y53825D01*
X567523Y53706D01*
X567510Y53587D01*
X567500Y53467D01*
X567494Y53347D01*
X567492Y53227D01*
X567493Y53227D02*
X567493Y47357D01*
X567492Y47357D02*
X567494Y47237D01*
X567500Y47117D01*
X567510Y46997D01*
X567523Y46878D01*
X567541Y46759D01*
X567562Y46641D01*
X567588Y46524D01*
X567617Y46407D01*
X567650Y46292D01*
X567687Y46178D01*
X567727Y46065D01*
X567771Y45953D01*
X567819Y45843D01*
X567870Y45734D01*
X567925Y45627D01*
X567984Y45522D01*
X568045Y45420D01*
X568110Y45319D01*
X568179Y45220D01*
X568250Y45123D01*
X568325Y45029D01*
X568402Y44938D01*
X568483Y44849D01*
X568567Y44763D01*
X568653Y44679D01*
X568742Y44598D01*
X568833Y44521D01*
X568927Y44446D01*
X569024Y44375D01*
X569123Y44306D01*
X569224Y44241D01*
X569327Y44180D01*
X569431Y44121D01*
X569538Y44066D01*
X569647Y44015D01*
X569757Y43967D01*
X569869Y43923D01*
X569982Y43883D01*
X570096Y43846D01*
X570211Y43813D01*
X570328Y43784D01*
X570445Y43758D01*
X570563Y43737D01*
X570682Y43719D01*
X570801Y43706D01*
X570921Y43696D01*
X571041Y43690D01*
X571161Y43688D01*
X574830Y43688D01*
X561602Y47357D02*
X561602Y53227D01*
X561600Y53347D01*
X561594Y53467D01*
X561584Y53587D01*
X561571Y53706D01*
X561553Y53825D01*
X561532Y53943D01*
X561506Y54060D01*
X561477Y54177D01*
X561444Y54292D01*
X561407Y54406D01*
X561367Y54519D01*
X561323Y54631D01*
X561275Y54741D01*
X561224Y54850D01*
X561169Y54957D01*
X561110Y55062D01*
X561049Y55164D01*
X560984Y55265D01*
X560915Y55364D01*
X560844Y55461D01*
X560769Y55555D01*
X560692Y55646D01*
X560611Y55735D01*
X560527Y55821D01*
X560441Y55905D01*
X560352Y55986D01*
X560261Y56063D01*
X560167Y56138D01*
X560070Y56209D01*
X559971Y56278D01*
X559870Y56343D01*
X559768Y56404D01*
X559663Y56463D01*
X559556Y56518D01*
X559447Y56569D01*
X559337Y56617D01*
X559225Y56661D01*
X559112Y56701D01*
X558998Y56738D01*
X558883Y56771D01*
X558766Y56800D01*
X558649Y56826D01*
X558531Y56847D01*
X558412Y56865D01*
X558293Y56878D01*
X558173Y56888D01*
X558053Y56894D01*
X557933Y56896D01*
X557813Y56894D01*
X557693Y56888D01*
X557573Y56878D01*
X557454Y56865D01*
X557335Y56847D01*
X557217Y56826D01*
X557100Y56800D01*
X556983Y56771D01*
X556868Y56738D01*
X556754Y56701D01*
X556641Y56661D01*
X556529Y56617D01*
X556419Y56569D01*
X556310Y56518D01*
X556203Y56463D01*
X556099Y56404D01*
X555996Y56343D01*
X555895Y56278D01*
X555796Y56209D01*
X555699Y56138D01*
X555605Y56063D01*
X555514Y55986D01*
X555425Y55905D01*
X555339Y55821D01*
X555255Y55735D01*
X555174Y55646D01*
X555097Y55555D01*
X555022Y55461D01*
X554951Y55364D01*
X554882Y55265D01*
X554817Y55164D01*
X554756Y55061D01*
X554697Y54957D01*
X554642Y54850D01*
X554591Y54741D01*
X554543Y54631D01*
X554499Y54519D01*
X554459Y54406D01*
X554422Y54292D01*
X554389Y54177D01*
X554360Y54060D01*
X554334Y53943D01*
X554313Y53825D01*
X554295Y53706D01*
X554282Y53587D01*
X554272Y53467D01*
X554266Y53347D01*
X554264Y53227D01*
X554264Y47357D01*
X554266Y47237D01*
X554272Y47117D01*
X554282Y46997D01*
X554295Y46878D01*
X554313Y46759D01*
X554334Y46641D01*
X554360Y46524D01*
X554389Y46407D01*
X554422Y46292D01*
X554459Y46178D01*
X554499Y46065D01*
X554543Y45953D01*
X554591Y45843D01*
X554642Y45734D01*
X554697Y45627D01*
X554756Y45522D01*
X554817Y45420D01*
X554882Y45319D01*
X554951Y45220D01*
X555022Y45123D01*
X555097Y45029D01*
X555174Y44938D01*
X555255Y44849D01*
X555339Y44763D01*
X555425Y44679D01*
X555514Y44598D01*
X555605Y44521D01*
X555699Y44446D01*
X555796Y44375D01*
X555895Y44306D01*
X555996Y44241D01*
X556099Y44180D01*
X556203Y44121D01*
X556310Y44066D01*
X556419Y44015D01*
X556529Y43967D01*
X556641Y43923D01*
X556754Y43883D01*
X556868Y43846D01*
X556983Y43813D01*
X557100Y43784D01*
X557217Y43758D01*
X557335Y43737D01*
X557454Y43719D01*
X557573Y43706D01*
X557693Y43696D01*
X557813Y43690D01*
X557933Y43688D01*
X558053Y43690D01*
X558173Y43696D01*
X558293Y43706D01*
X558412Y43719D01*
X558531Y43737D01*
X558649Y43758D01*
X558766Y43784D01*
X558883Y43813D01*
X558998Y43846D01*
X559112Y43883D01*
X559225Y43923D01*
X559337Y43967D01*
X559447Y44015D01*
X559556Y44066D01*
X559663Y44121D01*
X559768Y44180D01*
X559870Y44241D01*
X559971Y44306D01*
X560070Y44375D01*
X560167Y44446D01*
X560261Y44521D01*
X560352Y44598D01*
X560441Y44679D01*
X560527Y44763D01*
X560611Y44849D01*
X560692Y44938D01*
X560769Y45029D01*
X560844Y45123D01*
X560915Y45220D01*
X560984Y45319D01*
X561049Y45420D01*
X561110Y45523D01*
X561169Y45627D01*
X561224Y45734D01*
X561275Y45843D01*
X561323Y45953D01*
X561367Y46065D01*
X561407Y46178D01*
X561444Y46292D01*
X561477Y46407D01*
X561506Y46524D01*
X561532Y46641D01*
X561553Y46759D01*
X561571Y46878D01*
X561584Y46997D01*
X561594Y47117D01*
X561600Y47237D01*
X561602Y47357D01*
X542707Y56896D02*
X538304Y43688D01*
X533901Y56896D01*
X528063Y56896D02*
X528063Y43688D01*
X529530Y43688D02*
X526595Y43688D01*
X526595Y56896D02*
X529530Y56896D01*
X517822Y56896D02*
X522224Y43688D01*
X513419Y43688D02*
X517822Y56896D01*
X514520Y46990D02*
X521124Y46990D01*
X508262Y43688D02*
X508262Y56896D01*
X500924Y43688D01*
X500924Y56896D01*
X491365Y56896D02*
X495768Y43688D01*
X486962Y43688D02*
X491365Y56896D01*
X488063Y46990D02*
X494667Y46990D01*
X639572Y31496D02*
X639572Y18288D01*
X633702Y18288D01*
X627819Y18288D02*
X627819Y31496D01*
X629287Y18288D02*
X626352Y18288D01*
X626352Y31496D02*
X629287Y31496D01*
X618347Y18288D02*
X615412Y18288D01*
X618347Y18288D02*
X618454Y18290D01*
X618561Y18296D01*
X618668Y18306D01*
X618774Y18319D01*
X618880Y18337D01*
X618985Y18358D01*
X619089Y18383D01*
X619193Y18412D01*
X619295Y18445D01*
X619395Y18482D01*
X619495Y18522D01*
X619593Y18566D01*
X619689Y18613D01*
X619783Y18664D01*
X619876Y18718D01*
X619966Y18775D01*
X620055Y18836D01*
X620141Y18900D01*
X620224Y18967D01*
X620306Y19037D01*
X620384Y19110D01*
X620460Y19186D01*
X620533Y19264D01*
X620603Y19346D01*
X620670Y19429D01*
X620734Y19515D01*
X620795Y19604D01*
X620852Y19694D01*
X620906Y19787D01*
X620957Y19881D01*
X621005Y19977D01*
X621048Y20075D01*
X621088Y20175D01*
X621125Y20275D01*
X621158Y20377D01*
X621187Y20481D01*
X621212Y20585D01*
X621233Y20690D01*
X621251Y20796D01*
X621264Y20902D01*
X621274Y21009D01*
X621280Y21116D01*
X621282Y21223D01*
X621282Y28561D01*
X621280Y28668D01*
X621274Y28775D01*
X621264Y28882D01*
X621251Y28988D01*
X621233Y29094D01*
X621212Y29199D01*
X621187Y29303D01*
X621158Y29407D01*
X621125Y29509D01*
X621088Y29609D01*
X621048Y29709D01*
X621004Y29807D01*
X620957Y29903D01*
X620906Y29997D01*
X620852Y30090D01*
X620795Y30180D01*
X620734Y30269D01*
X620670Y30355D01*
X620603Y30438D01*
X620533Y30520D01*
X620460Y30598D01*
X620384Y30674D01*
X620306Y30747D01*
X620224Y30817D01*
X620141Y30884D01*
X620055Y30948D01*
X619966Y31009D01*
X619876Y31066D01*
X619783Y31120D01*
X619689Y31171D01*
X619593Y31218D01*
X619495Y31262D01*
X619396Y31302D01*
X619295Y31339D01*
X619193Y31372D01*
X619089Y31401D01*
X618985Y31426D01*
X618880Y31447D01*
X618774Y31465D01*
X618668Y31478D01*
X618561Y31488D01*
X618454Y31494D01*
X618347Y31496D01*
X615412Y31496D01*
X609471Y31496D02*
X609471Y18288D01*
X610938Y18288D02*
X608003Y18288D01*
X608003Y31496D02*
X610938Y31496D01*
X599229Y31496D02*
X603632Y18288D01*
X594827Y18288D02*
X599229Y31496D01*
X595927Y21590D02*
X602531Y21590D01*
X579293Y18288D02*
X579186Y18290D01*
X579079Y18296D01*
X578972Y18306D01*
X578866Y18319D01*
X578760Y18337D01*
X578655Y18358D01*
X578551Y18383D01*
X578447Y18412D01*
X578345Y18445D01*
X578245Y18482D01*
X578145Y18522D01*
X578047Y18566D01*
X577951Y18613D01*
X577857Y18664D01*
X577764Y18718D01*
X577674Y18775D01*
X577585Y18836D01*
X577499Y18900D01*
X577416Y18967D01*
X577334Y19037D01*
X577256Y19110D01*
X577180Y19186D01*
X577107Y19264D01*
X577037Y19346D01*
X576970Y19429D01*
X576906Y19515D01*
X576845Y19604D01*
X576788Y19694D01*
X576734Y19787D01*
X576683Y19881D01*
X576636Y19977D01*
X576592Y20075D01*
X576552Y20175D01*
X576515Y20275D01*
X576482Y20377D01*
X576453Y20481D01*
X576428Y20585D01*
X576407Y20690D01*
X576389Y20796D01*
X576376Y20902D01*
X576366Y21009D01*
X576360Y21116D01*
X576358Y21223D01*
X579293Y18288D02*
X579446Y18290D01*
X579599Y18296D01*
X579752Y18305D01*
X579904Y18318D01*
X580056Y18335D01*
X580208Y18356D01*
X580359Y18380D01*
X580509Y18408D01*
X580659Y18440D01*
X580807Y18476D01*
X580955Y18515D01*
X581102Y18558D01*
X581248Y18604D01*
X581392Y18654D01*
X581536Y18708D01*
X581678Y18765D01*
X581818Y18826D01*
X581957Y18890D01*
X582094Y18957D01*
X582230Y19028D01*
X582364Y19102D01*
X582496Y19179D01*
X582626Y19260D01*
X582754Y19344D01*
X582880Y19431D01*
X583003Y19521D01*
X583125Y19614D01*
X583244Y19710D01*
X583360Y19809D01*
X583475Y19910D01*
X583586Y20015D01*
X583695Y20122D01*
X583329Y28561D02*
X583327Y28668D01*
X583321Y28775D01*
X583311Y28882D01*
X583298Y28988D01*
X583280Y29094D01*
X583259Y29199D01*
X583234Y29303D01*
X583205Y29407D01*
X583172Y29509D01*
X583135Y29609D01*
X583095Y29709D01*
X583051Y29807D01*
X583004Y29903D01*
X582953Y29997D01*
X582899Y30090D01*
X582842Y30180D01*
X582781Y30269D01*
X582717Y30355D01*
X582650Y30438D01*
X582580Y30520D01*
X582507Y30598D01*
X582431Y30674D01*
X582353Y30747D01*
X582271Y30817D01*
X582188Y30884D01*
X582102Y30948D01*
X582013Y31009D01*
X581923Y31066D01*
X581830Y31120D01*
X581736Y31171D01*
X581640Y31218D01*
X581542Y31262D01*
X581442Y31302D01*
X581342Y31339D01*
X581240Y31372D01*
X581136Y31401D01*
X581032Y31426D01*
X580927Y31447D01*
X580821Y31465D01*
X580715Y31478D01*
X580608Y31488D01*
X580501Y31494D01*
X580394Y31496D01*
X580246Y31494D01*
X580099Y31488D01*
X579952Y31478D01*
X579805Y31464D01*
X579658Y31447D01*
X579513Y31425D01*
X579367Y31399D01*
X579223Y31370D01*
X579079Y31337D01*
X578936Y31299D01*
X578794Y31258D01*
X578654Y31214D01*
X578514Y31165D01*
X578376Y31113D01*
X578240Y31057D01*
X578105Y30997D01*
X577972Y30934D01*
X577840Y30867D01*
X577710Y30797D01*
X577582Y30724D01*
X577457Y30646D01*
X577333Y30566D01*
X577211Y30482D01*
X577092Y30395D01*
X581861Y25993D02*
X581952Y26049D01*
X582041Y26108D01*
X582128Y26170D01*
X582212Y26235D01*
X582295Y26303D01*
X582374Y26374D01*
X582451Y26448D01*
X582525Y26525D01*
X582597Y26604D01*
X582665Y26686D01*
X582731Y26770D01*
X582794Y26857D01*
X582853Y26945D01*
X582909Y27036D01*
X582962Y27129D01*
X583012Y27223D01*
X583058Y27319D01*
X583101Y27417D01*
X583140Y27516D01*
X583176Y27617D01*
X583208Y27719D01*
X583236Y27822D01*
X583260Y27926D01*
X583281Y28030D01*
X583298Y28136D01*
X583312Y28241D01*
X583321Y28348D01*
X583327Y28454D01*
X583329Y28561D01*
X577826Y23791D02*
X577735Y23735D01*
X577646Y23676D01*
X577559Y23614D01*
X577475Y23549D01*
X577392Y23481D01*
X577313Y23410D01*
X577236Y23336D01*
X577162Y23259D01*
X577090Y23180D01*
X577022Y23098D01*
X576956Y23014D01*
X576893Y22927D01*
X576834Y22839D01*
X576778Y22748D01*
X576725Y22655D01*
X576675Y22561D01*
X576629Y22465D01*
X576586Y22367D01*
X576547Y22268D01*
X576511Y22167D01*
X576479Y22065D01*
X576451Y21962D01*
X576427Y21858D01*
X576406Y21754D01*
X576389Y21648D01*
X576375Y21543D01*
X576366Y21436D01*
X576360Y21330D01*
X576358Y21223D01*
X577826Y23791D02*
X581861Y25993D01*
X572055Y18288D02*
X567652Y31496D01*
X563249Y18288D01*
X564350Y21590D02*
X570954Y21590D01*
X558069Y18288D02*
X558069Y31496D01*
X558069Y18288D02*
X552198Y18288D01*
X546974Y18288D02*
X541104Y18288D01*
X546974Y18288D02*
X546974Y31496D01*
X541104Y31496D01*
X542571Y25626D02*
X546974Y25626D01*
X532354Y18288D02*
X532247Y18290D01*
X532140Y18296D01*
X532033Y18306D01*
X531927Y18319D01*
X531821Y18337D01*
X531716Y18358D01*
X531612Y18383D01*
X531508Y18412D01*
X531406Y18445D01*
X531306Y18482D01*
X531206Y18522D01*
X531108Y18566D01*
X531012Y18613D01*
X530918Y18664D01*
X530825Y18718D01*
X530735Y18775D01*
X530646Y18836D01*
X530560Y18900D01*
X530477Y18967D01*
X530395Y19037D01*
X530317Y19110D01*
X530241Y19186D01*
X530168Y19264D01*
X530098Y19346D01*
X530031Y19429D01*
X529967Y19515D01*
X529906Y19604D01*
X529849Y19694D01*
X529795Y19787D01*
X529744Y19881D01*
X529697Y19977D01*
X529653Y20075D01*
X529613Y20175D01*
X529576Y20275D01*
X529543Y20377D01*
X529514Y20481D01*
X529489Y20585D01*
X529468Y20690D01*
X529450Y20796D01*
X529437Y20902D01*
X529427Y21009D01*
X529421Y21116D01*
X529419Y21223D01*
X532354Y18288D02*
X532507Y18290D01*
X532660Y18296D01*
X532813Y18305D01*
X532965Y18318D01*
X533117Y18335D01*
X533269Y18356D01*
X533420Y18380D01*
X533570Y18408D01*
X533720Y18440D01*
X533868Y18476D01*
X534016Y18515D01*
X534163Y18558D01*
X534309Y18604D01*
X534453Y18654D01*
X534597Y18708D01*
X534739Y18765D01*
X534879Y18826D01*
X535018Y18890D01*
X535155Y18957D01*
X535291Y19028D01*
X535425Y19102D01*
X535557Y19179D01*
X535687Y19260D01*
X535815Y19344D01*
X535941Y19431D01*
X536064Y19521D01*
X536186Y19614D01*
X536305Y19710D01*
X536421Y19809D01*
X536536Y19910D01*
X536647Y20015D01*
X536756Y20122D01*
X536390Y28561D02*
X536388Y28668D01*
X536382Y28775D01*
X536372Y28882D01*
X536359Y28988D01*
X536341Y29094D01*
X536320Y29199D01*
X536295Y29303D01*
X536266Y29407D01*
X536233Y29509D01*
X536196Y29609D01*
X536156Y29709D01*
X536112Y29807D01*
X536065Y29903D01*
X536014Y29997D01*
X535960Y30090D01*
X535903Y30180D01*
X535842Y30269D01*
X535778Y30355D01*
X535711Y30438D01*
X535641Y30520D01*
X535568Y30598D01*
X535492Y30674D01*
X535414Y30747D01*
X535332Y30817D01*
X535249Y30884D01*
X535163Y30948D01*
X535074Y31009D01*
X534984Y31066D01*
X534891Y31120D01*
X534797Y31171D01*
X534701Y31218D01*
X534603Y31262D01*
X534503Y31302D01*
X534403Y31339D01*
X534301Y31372D01*
X534197Y31401D01*
X534093Y31426D01*
X533988Y31447D01*
X533882Y31465D01*
X533776Y31478D01*
X533669Y31488D01*
X533562Y31494D01*
X533455Y31496D01*
X533307Y31494D01*
X533160Y31488D01*
X533013Y31478D01*
X532866Y31464D01*
X532719Y31447D01*
X532574Y31425D01*
X532428Y31399D01*
X532284Y31370D01*
X532140Y31337D01*
X531997Y31299D01*
X531855Y31258D01*
X531715Y31214D01*
X531575Y31165D01*
X531437Y31113D01*
X531301Y31057D01*
X531166Y30997D01*
X531033Y30934D01*
X530901Y30867D01*
X530771Y30797D01*
X530643Y30724D01*
X530518Y30646D01*
X530394Y30566D01*
X530272Y30482D01*
X530153Y30395D01*
X534922Y25993D02*
X535013Y26049D01*
X535102Y26108D01*
X535189Y26170D01*
X535273Y26235D01*
X535356Y26303D01*
X535435Y26374D01*
X535512Y26448D01*
X535586Y26525D01*
X535658Y26604D01*
X535726Y26686D01*
X535792Y26770D01*
X535855Y26857D01*
X535914Y26945D01*
X535970Y27036D01*
X536023Y27129D01*
X536073Y27223D01*
X536119Y27319D01*
X536162Y27417D01*
X536201Y27516D01*
X536237Y27617D01*
X536269Y27719D01*
X536297Y27822D01*
X536321Y27926D01*
X536342Y28030D01*
X536359Y28136D01*
X536373Y28241D01*
X536382Y28348D01*
X536388Y28454D01*
X536390Y28561D01*
X530887Y23791D02*
X530796Y23735D01*
X530707Y23676D01*
X530620Y23614D01*
X530536Y23549D01*
X530453Y23481D01*
X530374Y23410D01*
X530297Y23336D01*
X530223Y23259D01*
X530151Y23180D01*
X530083Y23098D01*
X530017Y23014D01*
X529954Y22927D01*
X529895Y22839D01*
X529839Y22748D01*
X529786Y22655D01*
X529736Y22561D01*
X529690Y22465D01*
X529647Y22367D01*
X529608Y22268D01*
X529572Y22167D01*
X529540Y22065D01*
X529512Y21962D01*
X529488Y21858D01*
X529467Y21754D01*
X529450Y21648D01*
X529436Y21543D01*
X529427Y21436D01*
X529421Y21330D01*
X529419Y21223D01*
X530886Y23791D02*
X534922Y25993D01*
X596392Y140208D02*
X596392Y153416D01*
X596392Y140208D02*
X590522Y140208D01*
X586482Y140208D02*
X582079Y153416D01*
X577676Y140208D01*
X578777Y143510D02*
X585381Y143510D01*
X572340Y147546D02*
X568671Y147546D01*
X568551Y147544D01*
X568431Y147538D01*
X568311Y147528D01*
X568192Y147515D01*
X568073Y147497D01*
X567955Y147476D01*
X567838Y147450D01*
X567721Y147421D01*
X567606Y147388D01*
X567492Y147351D01*
X567379Y147311D01*
X567267Y147267D01*
X567157Y147219D01*
X567048Y147168D01*
X566941Y147113D01*
X566837Y147054D01*
X566734Y146993D01*
X566633Y146928D01*
X566534Y146859D01*
X566437Y146788D01*
X566343Y146713D01*
X566252Y146636D01*
X566163Y146555D01*
X566077Y146471D01*
X565993Y146385D01*
X565912Y146296D01*
X565835Y146205D01*
X565760Y146111D01*
X565689Y146014D01*
X565620Y145915D01*
X565555Y145814D01*
X565494Y145712D01*
X565435Y145607D01*
X565380Y145500D01*
X565329Y145391D01*
X565281Y145281D01*
X565237Y145169D01*
X565197Y145056D01*
X565160Y144942D01*
X565127Y144827D01*
X565098Y144710D01*
X565072Y144593D01*
X565051Y144475D01*
X565033Y144356D01*
X565020Y144237D01*
X565010Y144117D01*
X565004Y143997D01*
X565002Y143877D01*
X565004Y143757D01*
X565010Y143637D01*
X565020Y143517D01*
X565033Y143398D01*
X565051Y143279D01*
X565072Y143161D01*
X565098Y143044D01*
X565127Y142927D01*
X565160Y142812D01*
X565197Y142698D01*
X565237Y142585D01*
X565281Y142473D01*
X565329Y142363D01*
X565380Y142254D01*
X565435Y142147D01*
X565494Y142042D01*
X565555Y141940D01*
X565620Y141839D01*
X565689Y141740D01*
X565760Y141643D01*
X565835Y141549D01*
X565912Y141458D01*
X565993Y141369D01*
X566077Y141283D01*
X566163Y141199D01*
X566252Y141118D01*
X566343Y141041D01*
X566437Y140966D01*
X566534Y140895D01*
X566633Y140826D01*
X566734Y140761D01*
X566837Y140700D01*
X566941Y140641D01*
X567048Y140586D01*
X567157Y140535D01*
X567267Y140487D01*
X567379Y140443D01*
X567492Y140403D01*
X567606Y140366D01*
X567721Y140333D01*
X567838Y140304D01*
X567955Y140278D01*
X568073Y140257D01*
X568192Y140239D01*
X568311Y140226D01*
X568431Y140216D01*
X568551Y140210D01*
X568671Y140208D01*
X572340Y140208D01*
X572340Y153416D01*
X568671Y153416D01*
X568564Y153414D01*
X568457Y153408D01*
X568350Y153398D01*
X568244Y153385D01*
X568138Y153367D01*
X568033Y153346D01*
X567929Y153321D01*
X567825Y153292D01*
X567723Y153259D01*
X567623Y153222D01*
X567523Y153182D01*
X567425Y153138D01*
X567329Y153091D01*
X567235Y153040D01*
X567142Y152986D01*
X567052Y152929D01*
X566963Y152868D01*
X566877Y152804D01*
X566794Y152737D01*
X566712Y152667D01*
X566634Y152594D01*
X566558Y152518D01*
X566485Y152440D01*
X566415Y152358D01*
X566348Y152275D01*
X566284Y152189D01*
X566223Y152100D01*
X566166Y152010D01*
X566112Y151917D01*
X566061Y151823D01*
X566014Y151727D01*
X565970Y151629D01*
X565930Y151529D01*
X565893Y151429D01*
X565860Y151327D01*
X565831Y151223D01*
X565806Y151119D01*
X565785Y151014D01*
X565767Y150908D01*
X565754Y150802D01*
X565744Y150695D01*
X565738Y150588D01*
X565736Y150481D01*
X565738Y150374D01*
X565744Y150267D01*
X565754Y150160D01*
X565767Y150054D01*
X565785Y149948D01*
X565806Y149843D01*
X565831Y149739D01*
X565860Y149635D01*
X565893Y149533D01*
X565930Y149433D01*
X565970Y149333D01*
X566014Y149235D01*
X566061Y149139D01*
X566112Y149045D01*
X566166Y148952D01*
X566223Y148862D01*
X566284Y148773D01*
X566348Y148687D01*
X566415Y148604D01*
X566485Y148522D01*
X566558Y148444D01*
X566634Y148368D01*
X566712Y148295D01*
X566794Y148225D01*
X566877Y148158D01*
X566963Y148094D01*
X567052Y148033D01*
X567142Y147976D01*
X567235Y147922D01*
X567329Y147871D01*
X567425Y147824D01*
X567523Y147780D01*
X567623Y147740D01*
X567723Y147703D01*
X567825Y147670D01*
X567929Y147641D01*
X568033Y147616D01*
X568138Y147595D01*
X568244Y147577D01*
X568350Y147564D01*
X568457Y147554D01*
X568564Y147548D01*
X568671Y147546D01*
X560683Y140942D02*
X560683Y140208D01*
X560683Y140942D02*
X559950Y140942D01*
X559950Y140208D01*
X560683Y140208D01*
X555024Y143143D02*
X552089Y153416D01*
X555024Y143143D02*
X547686Y143143D01*
X549888Y146078D02*
X549888Y140208D01*
X542222Y146812D02*
X542219Y147072D01*
X542210Y147331D01*
X542194Y147591D01*
X542172Y147850D01*
X542145Y148108D01*
X542111Y148366D01*
X542070Y148622D01*
X542024Y148878D01*
X541972Y149133D01*
X541913Y149386D01*
X541849Y149637D01*
X541778Y149888D01*
X541702Y150136D01*
X541620Y150382D01*
X541532Y150627D01*
X541438Y150869D01*
X541338Y151109D01*
X541232Y151346D01*
X541121Y151581D01*
X541122Y151582D02*
X541087Y151677D01*
X541049Y151772D01*
X541007Y151865D01*
X540961Y151956D01*
X540912Y152046D01*
X540860Y152134D01*
X540805Y152219D01*
X540746Y152303D01*
X540684Y152384D01*
X540620Y152463D01*
X540552Y152539D01*
X540481Y152613D01*
X540408Y152684D01*
X540332Y152752D01*
X540254Y152818D01*
X540173Y152880D01*
X540090Y152940D01*
X540005Y152996D01*
X539918Y153049D01*
X539829Y153098D01*
X539738Y153144D01*
X539645Y153187D01*
X539551Y153226D01*
X539455Y153262D01*
X539358Y153294D01*
X539260Y153323D01*
X539161Y153347D01*
X539061Y153368D01*
X538961Y153385D01*
X538860Y153399D01*
X538758Y153408D01*
X538656Y153414D01*
X538554Y153416D01*
X538452Y153414D01*
X538350Y153408D01*
X538248Y153399D01*
X538147Y153385D01*
X538047Y153368D01*
X537947Y153347D01*
X537848Y153323D01*
X537750Y153294D01*
X537653Y153262D01*
X537557Y153226D01*
X537463Y153187D01*
X537370Y153144D01*
X537279Y153098D01*
X537190Y153049D01*
X537103Y152996D01*
X537018Y152940D01*
X536935Y152880D01*
X536854Y152818D01*
X536776Y152752D01*
X536700Y152684D01*
X536627Y152613D01*
X536556Y152539D01*
X536488Y152463D01*
X536424Y152384D01*
X536362Y152303D01*
X536303Y152219D01*
X536248Y152134D01*
X536196Y152046D01*
X536147Y151956D01*
X536101Y151865D01*
X536059Y151772D01*
X536021Y151677D01*
X535986Y151582D01*
X535986Y151581D02*
X535875Y151347D01*
X535769Y151109D01*
X535669Y150869D01*
X535575Y150627D01*
X535487Y150382D01*
X535405Y150136D01*
X535329Y149888D01*
X535258Y149638D01*
X535194Y149386D01*
X535135Y149133D01*
X535083Y148878D01*
X535037Y148622D01*
X534996Y148366D01*
X534962Y148108D01*
X534935Y147850D01*
X534913Y147591D01*
X534897Y147331D01*
X534888Y147072D01*
X534885Y146812D01*
X542223Y146812D02*
X542220Y146552D01*
X542211Y146292D01*
X542195Y146033D01*
X542173Y145774D01*
X542146Y145516D01*
X542112Y145258D01*
X542071Y145001D01*
X542025Y144746D01*
X541973Y144491D01*
X541914Y144238D01*
X541850Y143986D01*
X541779Y143736D01*
X541703Y143488D01*
X541621Y143241D01*
X541533Y142997D01*
X541439Y142755D01*
X541339Y142515D01*
X541233Y142277D01*
X541122Y142042D01*
X541087Y141947D01*
X541049Y141852D01*
X541007Y141759D01*
X540961Y141668D01*
X540912Y141578D01*
X540860Y141490D01*
X540805Y141405D01*
X540746Y141321D01*
X540684Y141240D01*
X540620Y141161D01*
X540552Y141085D01*
X540481Y141011D01*
X540408Y140940D01*
X540332Y140872D01*
X540254Y140806D01*
X540173Y140744D01*
X540090Y140684D01*
X540005Y140628D01*
X539918Y140575D01*
X539829Y140526D01*
X539738Y140480D01*
X539645Y140437D01*
X539551Y140398D01*
X539455Y140362D01*
X539358Y140330D01*
X539260Y140301D01*
X539161Y140277D01*
X539061Y140256D01*
X538961Y140239D01*
X538860Y140225D01*
X538758Y140216D01*
X538656Y140210D01*
X538554Y140208D01*
X535986Y142043D02*
X535875Y142278D01*
X535769Y142515D01*
X535669Y142755D01*
X535575Y142997D01*
X535487Y143242D01*
X535405Y143488D01*
X535329Y143736D01*
X535258Y143987D01*
X535194Y144238D01*
X535135Y144491D01*
X535083Y144746D01*
X535037Y145002D01*
X534996Y145258D01*
X534962Y145516D01*
X534935Y145774D01*
X534913Y146033D01*
X534897Y146293D01*
X534888Y146552D01*
X534885Y146812D01*
X535986Y142042D02*
X536021Y141947D01*
X536059Y141852D01*
X536101Y141759D01*
X536147Y141668D01*
X536196Y141578D01*
X536248Y141490D01*
X536303Y141405D01*
X536362Y141321D01*
X536424Y141240D01*
X536488Y141161D01*
X536556Y141085D01*
X536627Y141011D01*
X536700Y140940D01*
X536776Y140872D01*
X536854Y140806D01*
X536935Y140744D01*
X537018Y140684D01*
X537103Y140628D01*
X537190Y140575D01*
X537279Y140526D01*
X537370Y140480D01*
X537463Y140437D01*
X537557Y140398D01*
X537653Y140362D01*
X537750Y140330D01*
X537848Y140301D01*
X537947Y140277D01*
X538047Y140256D01*
X538147Y140239D01*
X538248Y140225D01*
X538350Y140216D01*
X538452Y140210D01*
X538554Y140208D01*
X541489Y143143D02*
X535619Y150481D01*
X526486Y153416D02*
X529421Y143143D01*
X522083Y143143D01*
X524285Y146078D02*
X524285Y140208D01*
D11*
X573744Y209028D02*
X573744Y214757D01*
X573744Y209028D02*
X573746Y208950D01*
X573751Y208872D01*
X573761Y208795D01*
X573774Y208718D01*
X573790Y208642D01*
X573810Y208567D01*
X573834Y208493D01*
X573861Y208420D01*
X573892Y208348D01*
X573926Y208278D01*
X573963Y208210D01*
X574004Y208143D01*
X574048Y208078D01*
X574094Y208016D01*
X574144Y207956D01*
X574196Y207898D01*
X574251Y207843D01*
X574309Y207791D01*
X574369Y207741D01*
X574431Y207695D01*
X574496Y207651D01*
X574563Y207610D01*
X574631Y207573D01*
X574701Y207539D01*
X574773Y207508D01*
X574846Y207481D01*
X574920Y207457D01*
X574995Y207437D01*
X575071Y207421D01*
X575148Y207408D01*
X575225Y207398D01*
X575303Y207393D01*
X575381Y207391D01*
X576199Y207391D01*
X569948Y207391D02*
X569948Y214757D01*
X567902Y214757D01*
X567813Y214755D01*
X567724Y214749D01*
X567635Y214739D01*
X567547Y214726D01*
X567459Y214709D01*
X567372Y214687D01*
X567287Y214662D01*
X567202Y214634D01*
X567119Y214601D01*
X567037Y214565D01*
X566957Y214526D01*
X566879Y214483D01*
X566803Y214437D01*
X566728Y214387D01*
X566656Y214334D01*
X566587Y214278D01*
X566520Y214219D01*
X566455Y214158D01*
X566394Y214093D01*
X566335Y214026D01*
X566279Y213957D01*
X566226Y213885D01*
X566176Y213810D01*
X566130Y213734D01*
X566087Y213656D01*
X566048Y213576D01*
X566012Y213494D01*
X565979Y213411D01*
X565951Y213326D01*
X565926Y213241D01*
X565904Y213154D01*
X565887Y213066D01*
X565874Y212978D01*
X565864Y212889D01*
X565858Y212800D01*
X565856Y212711D01*
X565858Y212622D01*
X565864Y212533D01*
X565874Y212444D01*
X565887Y212356D01*
X565904Y212268D01*
X565926Y212181D01*
X565951Y212096D01*
X565979Y212011D01*
X566012Y211928D01*
X566048Y211846D01*
X566087Y211766D01*
X566130Y211688D01*
X566176Y211612D01*
X566226Y211537D01*
X566279Y211465D01*
X566335Y211396D01*
X566394Y211329D01*
X566455Y211264D01*
X566520Y211203D01*
X566587Y211144D01*
X566656Y211088D01*
X566728Y211035D01*
X566803Y210985D01*
X566879Y210939D01*
X566957Y210896D01*
X567037Y210857D01*
X567119Y210821D01*
X567202Y210788D01*
X567287Y210760D01*
X567372Y210735D01*
X567459Y210713D01*
X567547Y210696D01*
X567635Y210683D01*
X567724Y210673D01*
X567813Y210667D01*
X567902Y210665D01*
X569948Y210665D01*
X562994Y209028D02*
X561357Y214757D01*
X562994Y209028D02*
X558902Y209028D01*
X560129Y210665D02*
X560129Y207391D01*
D12*
X50800Y97790D02*
X38100Y97790D01*
X50800Y97790D02*
X57150Y104140D01*
X57150Y116840D01*
X50800Y123190D01*
X31750Y116840D02*
X31750Y104140D01*
X38100Y97790D01*
X31750Y116840D02*
X38100Y123190D01*
X50800Y123190D01*
X57150Y104140D02*
X63500Y97790D01*
X76200Y97790D01*
X82550Y104140D01*
X82550Y116840D01*
X76200Y123190D01*
X63500Y123190D01*
X57150Y116840D01*
D11*
X59394Y91567D02*
X59394Y85838D01*
X59396Y85760D01*
X59401Y85682D01*
X59411Y85605D01*
X59424Y85528D01*
X59440Y85452D01*
X59460Y85377D01*
X59484Y85303D01*
X59511Y85230D01*
X59542Y85158D01*
X59576Y85088D01*
X59613Y85020D01*
X59654Y84953D01*
X59698Y84888D01*
X59744Y84826D01*
X59794Y84766D01*
X59846Y84708D01*
X59901Y84653D01*
X59959Y84601D01*
X60019Y84551D01*
X60081Y84505D01*
X60146Y84461D01*
X60213Y84420D01*
X60281Y84383D01*
X60351Y84349D01*
X60423Y84318D01*
X60496Y84291D01*
X60570Y84267D01*
X60645Y84247D01*
X60721Y84231D01*
X60798Y84218D01*
X60875Y84208D01*
X60953Y84203D01*
X61031Y84201D01*
X61849Y84201D01*
X55598Y84201D02*
X55598Y91567D01*
X53552Y91567D01*
X53463Y91565D01*
X53374Y91559D01*
X53285Y91549D01*
X53197Y91536D01*
X53109Y91519D01*
X53022Y91497D01*
X52937Y91472D01*
X52852Y91444D01*
X52769Y91411D01*
X52687Y91375D01*
X52607Y91336D01*
X52529Y91293D01*
X52453Y91247D01*
X52378Y91197D01*
X52306Y91144D01*
X52237Y91088D01*
X52170Y91029D01*
X52105Y90968D01*
X52044Y90903D01*
X51985Y90836D01*
X51929Y90767D01*
X51876Y90695D01*
X51826Y90620D01*
X51780Y90544D01*
X51737Y90466D01*
X51698Y90386D01*
X51662Y90304D01*
X51629Y90221D01*
X51601Y90136D01*
X51576Y90051D01*
X51554Y89964D01*
X51537Y89876D01*
X51524Y89788D01*
X51514Y89699D01*
X51508Y89610D01*
X51506Y89521D01*
X51508Y89432D01*
X51514Y89343D01*
X51524Y89254D01*
X51537Y89166D01*
X51554Y89078D01*
X51576Y88991D01*
X51601Y88906D01*
X51629Y88821D01*
X51662Y88738D01*
X51698Y88656D01*
X51737Y88576D01*
X51780Y88498D01*
X51826Y88422D01*
X51876Y88347D01*
X51929Y88275D01*
X51985Y88206D01*
X52044Y88139D01*
X52105Y88074D01*
X52170Y88013D01*
X52237Y87954D01*
X52306Y87898D01*
X52378Y87845D01*
X52453Y87795D01*
X52529Y87749D01*
X52607Y87706D01*
X52687Y87667D01*
X52769Y87631D01*
X52852Y87598D01*
X52937Y87570D01*
X53022Y87545D01*
X53109Y87523D01*
X53197Y87506D01*
X53285Y87493D01*
X53374Y87483D01*
X53463Y87477D01*
X53552Y87475D01*
X55598Y87475D01*
X48644Y89930D02*
X46598Y91567D01*
X46598Y84201D01*
X48644Y84201D02*
X44552Y84201D01*
X41329Y89930D02*
X39283Y91567D01*
X39283Y84201D01*
X41329Y84201D02*
X37237Y84201D01*
D12*
X565150Y121920D02*
X571500Y128270D01*
X584200Y128270D02*
X590550Y121920D01*
X596900Y128270D01*
X609600Y128270D02*
X615950Y121920D01*
X565150Y121920D02*
X565150Y83820D01*
X571500Y77470D01*
X584200Y77470D01*
X590550Y83820D01*
X596900Y77470D01*
X609600Y77470D01*
X615950Y83820D01*
X590550Y83820D02*
X590550Y121920D01*
X615950Y121920D02*
X615950Y83820D01*
X609600Y128270D02*
X596900Y128270D01*
X584200Y128270D02*
X571500Y128270D01*
X615950Y121920D02*
X622300Y128270D01*
X635000Y128270D02*
X641350Y121920D01*
X615950Y83820D02*
X622300Y77470D01*
X635000Y77470D01*
X641350Y83820D01*
X641350Y121920D01*
X635000Y128270D02*
X622300Y128270D01*
D11*
X606764Y123317D02*
X606764Y117588D01*
X606766Y117510D01*
X606771Y117432D01*
X606781Y117355D01*
X606794Y117278D01*
X606810Y117202D01*
X606830Y117127D01*
X606854Y117053D01*
X606881Y116980D01*
X606912Y116908D01*
X606946Y116838D01*
X606983Y116770D01*
X607024Y116703D01*
X607068Y116638D01*
X607114Y116576D01*
X607164Y116516D01*
X607216Y116458D01*
X607271Y116403D01*
X607329Y116351D01*
X607389Y116301D01*
X607451Y116255D01*
X607516Y116211D01*
X607583Y116170D01*
X607651Y116133D01*
X607721Y116099D01*
X607793Y116068D01*
X607866Y116041D01*
X607940Y116017D01*
X608015Y115997D01*
X608091Y115981D01*
X608168Y115968D01*
X608245Y115958D01*
X608323Y115953D01*
X608401Y115951D01*
X609219Y115951D01*
X602968Y115951D02*
X602968Y123317D01*
X600922Y123317D01*
X600833Y123315D01*
X600744Y123309D01*
X600655Y123299D01*
X600567Y123286D01*
X600479Y123269D01*
X600392Y123247D01*
X600307Y123222D01*
X600222Y123194D01*
X600139Y123161D01*
X600057Y123125D01*
X599977Y123086D01*
X599899Y123043D01*
X599823Y122997D01*
X599748Y122947D01*
X599676Y122894D01*
X599607Y122838D01*
X599540Y122779D01*
X599475Y122718D01*
X599414Y122653D01*
X599355Y122586D01*
X599299Y122517D01*
X599246Y122445D01*
X599196Y122370D01*
X599150Y122294D01*
X599107Y122216D01*
X599068Y122136D01*
X599032Y122054D01*
X598999Y121971D01*
X598971Y121886D01*
X598946Y121801D01*
X598924Y121714D01*
X598907Y121626D01*
X598894Y121538D01*
X598884Y121449D01*
X598878Y121360D01*
X598876Y121271D01*
X598878Y121182D01*
X598884Y121093D01*
X598894Y121004D01*
X598907Y120916D01*
X598924Y120828D01*
X598946Y120741D01*
X598971Y120656D01*
X598999Y120571D01*
X599032Y120488D01*
X599068Y120406D01*
X599107Y120326D01*
X599150Y120248D01*
X599196Y120172D01*
X599246Y120097D01*
X599299Y120025D01*
X599355Y119956D01*
X599414Y119889D01*
X599475Y119824D01*
X599540Y119763D01*
X599607Y119704D01*
X599676Y119648D01*
X599748Y119595D01*
X599823Y119545D01*
X599899Y119499D01*
X599977Y119456D01*
X600057Y119417D01*
X600139Y119381D01*
X600222Y119348D01*
X600307Y119320D01*
X600392Y119295D01*
X600479Y119273D01*
X600567Y119256D01*
X600655Y119243D01*
X600744Y119233D01*
X600833Y119227D01*
X600922Y119225D01*
X602968Y119225D01*
X596014Y121680D02*
X593968Y123317D01*
X593968Y115951D01*
X596014Y115951D02*
X591922Y115951D01*
X588699Y115951D02*
X586653Y115951D01*
X586564Y115953D01*
X586475Y115959D01*
X586386Y115969D01*
X586298Y115982D01*
X586210Y115999D01*
X586123Y116021D01*
X586038Y116046D01*
X585953Y116074D01*
X585870Y116107D01*
X585788Y116143D01*
X585708Y116182D01*
X585630Y116225D01*
X585554Y116271D01*
X585479Y116321D01*
X585407Y116374D01*
X585338Y116430D01*
X585271Y116489D01*
X585206Y116550D01*
X585145Y116615D01*
X585086Y116682D01*
X585030Y116751D01*
X584977Y116823D01*
X584927Y116898D01*
X584881Y116974D01*
X584838Y117052D01*
X584799Y117132D01*
X584763Y117214D01*
X584730Y117297D01*
X584702Y117382D01*
X584677Y117467D01*
X584655Y117554D01*
X584638Y117642D01*
X584625Y117730D01*
X584615Y117819D01*
X584609Y117908D01*
X584607Y117997D01*
X584609Y118086D01*
X584615Y118175D01*
X584625Y118264D01*
X584638Y118352D01*
X584655Y118440D01*
X584677Y118527D01*
X584702Y118612D01*
X584730Y118697D01*
X584763Y118780D01*
X584799Y118862D01*
X584838Y118942D01*
X584881Y119020D01*
X584927Y119096D01*
X584977Y119171D01*
X585030Y119243D01*
X585086Y119312D01*
X585145Y119379D01*
X585206Y119444D01*
X585271Y119505D01*
X585338Y119564D01*
X585407Y119620D01*
X585479Y119673D01*
X585554Y119723D01*
X585630Y119769D01*
X585708Y119812D01*
X585788Y119851D01*
X585870Y119887D01*
X585953Y119920D01*
X586038Y119948D01*
X586123Y119973D01*
X586210Y119995D01*
X586298Y120012D01*
X586386Y120025D01*
X586475Y120035D01*
X586564Y120041D01*
X586653Y120043D01*
X586243Y123317D02*
X588699Y123317D01*
X586243Y123317D02*
X586164Y123315D01*
X586085Y123309D01*
X586006Y123300D01*
X585928Y123287D01*
X585851Y123269D01*
X585775Y123249D01*
X585700Y123224D01*
X585626Y123196D01*
X585553Y123165D01*
X585482Y123129D01*
X585413Y123091D01*
X585346Y123049D01*
X585281Y123004D01*
X585218Y122956D01*
X585157Y122905D01*
X585100Y122851D01*
X585044Y122795D01*
X584992Y122736D01*
X584942Y122674D01*
X584896Y122610D01*
X584852Y122544D01*
X584812Y122476D01*
X584776Y122406D01*
X584742Y122334D01*
X584712Y122260D01*
X584686Y122186D01*
X584663Y122110D01*
X584645Y122033D01*
X584629Y121956D01*
X584618Y121877D01*
X584610Y121799D01*
X584606Y121720D01*
X584606Y121640D01*
X584610Y121561D01*
X584618Y121483D01*
X584629Y121404D01*
X584645Y121327D01*
X584663Y121250D01*
X584686Y121174D01*
X584712Y121100D01*
X584742Y121026D01*
X584776Y120954D01*
X584812Y120884D01*
X584852Y120816D01*
X584896Y120750D01*
X584942Y120686D01*
X584992Y120624D01*
X585044Y120565D01*
X585100Y120509D01*
X585157Y120455D01*
X585218Y120404D01*
X585281Y120356D01*
X585346Y120311D01*
X585413Y120269D01*
X585482Y120231D01*
X585553Y120195D01*
X585626Y120164D01*
X585700Y120136D01*
X585775Y120111D01*
X585851Y120091D01*
X585928Y120073D01*
X586006Y120060D01*
X586085Y120051D01*
X586164Y120045D01*
X586243Y120043D01*
X587880Y120043D01*
X524214Y117588D02*
X524214Y123317D01*
X524214Y117588D02*
X524216Y117510D01*
X524221Y117432D01*
X524231Y117355D01*
X524244Y117278D01*
X524260Y117202D01*
X524280Y117127D01*
X524304Y117053D01*
X524331Y116980D01*
X524362Y116908D01*
X524396Y116838D01*
X524433Y116770D01*
X524474Y116703D01*
X524518Y116638D01*
X524564Y116576D01*
X524614Y116516D01*
X524666Y116458D01*
X524721Y116403D01*
X524779Y116351D01*
X524839Y116301D01*
X524901Y116255D01*
X524966Y116211D01*
X525033Y116170D01*
X525101Y116133D01*
X525171Y116099D01*
X525243Y116068D01*
X525316Y116041D01*
X525390Y116017D01*
X525465Y115997D01*
X525541Y115981D01*
X525618Y115968D01*
X525695Y115958D01*
X525773Y115953D01*
X525851Y115951D01*
X526669Y115951D01*
X520418Y115951D02*
X520418Y123317D01*
X518372Y123317D01*
X518283Y123315D01*
X518194Y123309D01*
X518105Y123299D01*
X518017Y123286D01*
X517929Y123269D01*
X517842Y123247D01*
X517757Y123222D01*
X517672Y123194D01*
X517589Y123161D01*
X517507Y123125D01*
X517427Y123086D01*
X517349Y123043D01*
X517273Y122997D01*
X517198Y122947D01*
X517126Y122894D01*
X517057Y122838D01*
X516990Y122779D01*
X516925Y122718D01*
X516864Y122653D01*
X516805Y122586D01*
X516749Y122517D01*
X516696Y122445D01*
X516646Y122370D01*
X516600Y122294D01*
X516557Y122216D01*
X516518Y122136D01*
X516482Y122054D01*
X516449Y121971D01*
X516421Y121886D01*
X516396Y121801D01*
X516374Y121714D01*
X516357Y121626D01*
X516344Y121538D01*
X516334Y121449D01*
X516328Y121360D01*
X516326Y121271D01*
X516328Y121182D01*
X516334Y121093D01*
X516344Y121004D01*
X516357Y120916D01*
X516374Y120828D01*
X516396Y120741D01*
X516421Y120656D01*
X516449Y120571D01*
X516482Y120488D01*
X516518Y120406D01*
X516557Y120326D01*
X516600Y120248D01*
X516646Y120172D01*
X516696Y120097D01*
X516749Y120025D01*
X516805Y119956D01*
X516864Y119889D01*
X516925Y119824D01*
X516990Y119763D01*
X517057Y119704D01*
X517126Y119648D01*
X517198Y119595D01*
X517273Y119545D01*
X517349Y119499D01*
X517427Y119456D01*
X517507Y119417D01*
X517589Y119381D01*
X517672Y119348D01*
X517757Y119320D01*
X517842Y119295D01*
X517929Y119273D01*
X518017Y119256D01*
X518105Y119243D01*
X518194Y119233D01*
X518283Y119227D01*
X518372Y119225D01*
X520418Y119225D01*
X513464Y115951D02*
X511009Y115951D01*
X510929Y115953D01*
X510849Y115959D01*
X510769Y115969D01*
X510690Y115982D01*
X510611Y116000D01*
X510534Y116021D01*
X510458Y116047D01*
X510383Y116076D01*
X510309Y116108D01*
X510237Y116144D01*
X510167Y116184D01*
X510100Y116227D01*
X510034Y116273D01*
X509971Y116323D01*
X509910Y116375D01*
X509851Y116430D01*
X509796Y116489D01*
X509744Y116549D01*
X509694Y116613D01*
X509648Y116678D01*
X509605Y116746D01*
X509565Y116816D01*
X509529Y116888D01*
X509497Y116962D01*
X509468Y117036D01*
X509443Y117113D01*
X509421Y117190D01*
X509403Y117269D01*
X509390Y117348D01*
X509380Y117427D01*
X509374Y117508D01*
X509372Y117588D01*
X509372Y118406D01*
X509374Y118484D01*
X509379Y118562D01*
X509389Y118639D01*
X509402Y118716D01*
X509418Y118792D01*
X509438Y118867D01*
X509462Y118941D01*
X509489Y119014D01*
X509520Y119086D01*
X509554Y119156D01*
X509591Y119225D01*
X509632Y119291D01*
X509676Y119356D01*
X509722Y119418D01*
X509772Y119478D01*
X509824Y119536D01*
X509879Y119591D01*
X509937Y119643D01*
X509997Y119693D01*
X510059Y119739D01*
X510124Y119783D01*
X510191Y119824D01*
X510259Y119861D01*
X510329Y119895D01*
X510401Y119926D01*
X510474Y119953D01*
X510548Y119977D01*
X510623Y119997D01*
X510699Y120013D01*
X510776Y120026D01*
X510853Y120036D01*
X510931Y120041D01*
X511009Y120043D01*
X513464Y120043D01*
X513464Y123317D01*
X509372Y123317D01*
X171154Y78867D02*
X171154Y73138D01*
X171156Y73060D01*
X171161Y72982D01*
X171171Y72905D01*
X171184Y72828D01*
X171200Y72752D01*
X171220Y72677D01*
X171244Y72603D01*
X171271Y72530D01*
X171302Y72458D01*
X171336Y72388D01*
X171373Y72320D01*
X171414Y72253D01*
X171458Y72188D01*
X171504Y72126D01*
X171554Y72066D01*
X171606Y72008D01*
X171661Y71953D01*
X171719Y71901D01*
X171779Y71851D01*
X171841Y71805D01*
X171906Y71761D01*
X171973Y71720D01*
X172041Y71683D01*
X172111Y71649D01*
X172183Y71618D01*
X172256Y71591D01*
X172330Y71567D01*
X172405Y71547D01*
X172481Y71531D01*
X172558Y71518D01*
X172635Y71508D01*
X172713Y71503D01*
X172791Y71501D01*
X173609Y71501D01*
X167358Y71501D02*
X167358Y78867D01*
X165312Y78867D01*
X165223Y78865D01*
X165134Y78859D01*
X165045Y78849D01*
X164957Y78836D01*
X164869Y78819D01*
X164782Y78797D01*
X164697Y78772D01*
X164612Y78744D01*
X164529Y78711D01*
X164447Y78675D01*
X164367Y78636D01*
X164289Y78593D01*
X164213Y78547D01*
X164138Y78497D01*
X164066Y78444D01*
X163997Y78388D01*
X163930Y78329D01*
X163865Y78268D01*
X163804Y78203D01*
X163745Y78136D01*
X163689Y78067D01*
X163636Y77995D01*
X163586Y77920D01*
X163540Y77844D01*
X163497Y77766D01*
X163458Y77686D01*
X163422Y77604D01*
X163389Y77521D01*
X163361Y77436D01*
X163336Y77351D01*
X163314Y77264D01*
X163297Y77176D01*
X163284Y77088D01*
X163274Y76999D01*
X163268Y76910D01*
X163266Y76821D01*
X163268Y76732D01*
X163274Y76643D01*
X163284Y76554D01*
X163297Y76466D01*
X163314Y76378D01*
X163336Y76291D01*
X163361Y76206D01*
X163389Y76121D01*
X163422Y76038D01*
X163458Y75956D01*
X163497Y75876D01*
X163540Y75798D01*
X163586Y75722D01*
X163636Y75647D01*
X163689Y75575D01*
X163745Y75506D01*
X163804Y75439D01*
X163865Y75374D01*
X163930Y75313D01*
X163997Y75254D01*
X164066Y75198D01*
X164138Y75145D01*
X164213Y75095D01*
X164289Y75049D01*
X164367Y75006D01*
X164447Y74967D01*
X164529Y74931D01*
X164612Y74898D01*
X164697Y74870D01*
X164782Y74845D01*
X164869Y74823D01*
X164957Y74806D01*
X165045Y74793D01*
X165134Y74783D01*
X165223Y74777D01*
X165312Y74775D01*
X167358Y74775D01*
X160404Y77230D02*
X158358Y78867D01*
X158358Y71501D01*
X160404Y71501D02*
X156312Y71501D01*
X477675Y396621D02*
X480949Y396621D01*
X480949Y403987D01*
X477675Y403987D01*
X478494Y400713D02*
X480949Y400713D01*
X475278Y396621D02*
X470367Y403987D01*
X475278Y403987D02*
X470367Y396621D01*
X467192Y396621D02*
X467192Y403987D01*
X465146Y403987D01*
X465057Y403985D01*
X464968Y403979D01*
X464879Y403969D01*
X464791Y403956D01*
X464703Y403939D01*
X464616Y403917D01*
X464531Y403892D01*
X464446Y403864D01*
X464363Y403831D01*
X464281Y403795D01*
X464201Y403756D01*
X464123Y403713D01*
X464047Y403667D01*
X463972Y403617D01*
X463900Y403564D01*
X463831Y403508D01*
X463764Y403449D01*
X463699Y403388D01*
X463638Y403323D01*
X463579Y403256D01*
X463523Y403187D01*
X463470Y403115D01*
X463420Y403040D01*
X463374Y402964D01*
X463331Y402886D01*
X463292Y402806D01*
X463256Y402724D01*
X463223Y402641D01*
X463195Y402556D01*
X463170Y402471D01*
X463148Y402384D01*
X463131Y402296D01*
X463118Y402208D01*
X463108Y402119D01*
X463102Y402030D01*
X463100Y401941D01*
X463102Y401852D01*
X463108Y401763D01*
X463118Y401674D01*
X463131Y401586D01*
X463148Y401498D01*
X463170Y401411D01*
X463195Y401326D01*
X463223Y401241D01*
X463256Y401158D01*
X463292Y401076D01*
X463331Y400996D01*
X463374Y400918D01*
X463420Y400842D01*
X463470Y400767D01*
X463523Y400695D01*
X463579Y400626D01*
X463638Y400559D01*
X463699Y400494D01*
X463764Y400433D01*
X463831Y400374D01*
X463900Y400318D01*
X463972Y400265D01*
X464047Y400215D01*
X464123Y400169D01*
X464201Y400126D01*
X464281Y400087D01*
X464363Y400051D01*
X464446Y400018D01*
X464531Y399990D01*
X464616Y399965D01*
X464703Y399943D01*
X464791Y399926D01*
X464879Y399913D01*
X464968Y399903D01*
X465057Y399897D01*
X465146Y399895D01*
X467192Y399895D01*
X460648Y396621D02*
X458192Y403987D01*
X455737Y396621D01*
X456351Y398463D02*
X460034Y398463D01*
X452679Y396621D02*
X452679Y403987D01*
X448587Y396621D01*
X448587Y403987D01*
X443507Y396621D02*
X441870Y396621D01*
X443507Y396621D02*
X443585Y396623D01*
X443663Y396628D01*
X443740Y396638D01*
X443817Y396651D01*
X443893Y396667D01*
X443968Y396687D01*
X444042Y396711D01*
X444115Y396738D01*
X444187Y396769D01*
X444257Y396803D01*
X444326Y396840D01*
X444392Y396881D01*
X444457Y396925D01*
X444519Y396971D01*
X444579Y397021D01*
X444637Y397073D01*
X444692Y397128D01*
X444744Y397186D01*
X444794Y397246D01*
X444840Y397308D01*
X444884Y397373D01*
X444925Y397440D01*
X444962Y397508D01*
X444996Y397578D01*
X445027Y397650D01*
X445054Y397723D01*
X445078Y397797D01*
X445098Y397872D01*
X445114Y397948D01*
X445127Y398025D01*
X445137Y398102D01*
X445142Y398180D01*
X445144Y398258D01*
X445143Y398258D02*
X445143Y402350D01*
X445144Y402350D02*
X445142Y402428D01*
X445137Y402506D01*
X445127Y402583D01*
X445114Y402660D01*
X445098Y402736D01*
X445078Y402811D01*
X445054Y402885D01*
X445027Y402958D01*
X444996Y403030D01*
X444962Y403100D01*
X444925Y403169D01*
X444884Y403235D01*
X444840Y403300D01*
X444794Y403362D01*
X444744Y403422D01*
X444692Y403480D01*
X444637Y403535D01*
X444579Y403587D01*
X444519Y403637D01*
X444457Y403683D01*
X444392Y403727D01*
X444326Y403768D01*
X444257Y403805D01*
X444187Y403839D01*
X444115Y403870D01*
X444042Y403897D01*
X443968Y403921D01*
X443893Y403941D01*
X443817Y403957D01*
X443740Y403970D01*
X443663Y403980D01*
X443585Y403985D01*
X443507Y403987D01*
X441870Y403987D01*
X443302Y396621D02*
X443302Y395598D01*
X443097Y395598D01*
X443037Y395596D01*
X442977Y395590D01*
X442917Y395581D01*
X442859Y395567D01*
X442801Y395550D01*
X442744Y395529D01*
X442689Y395504D01*
X442636Y395476D01*
X442585Y395445D01*
X442535Y395410D01*
X442489Y395372D01*
X442444Y395331D01*
X442403Y395288D01*
X442364Y395241D01*
X442328Y395193D01*
X442296Y395142D01*
X442267Y395089D01*
X442241Y395035D01*
X442219Y394979D01*
X442201Y394921D01*
X442186Y394863D01*
X442175Y394803D01*
X442168Y394744D01*
X442165Y394683D01*
X442166Y394623D01*
X442171Y394563D01*
X442179Y394503D01*
X442192Y394444D01*
X442208Y394386D01*
X442228Y394330D01*
X442251Y394274D01*
X442279Y394220D01*
X442309Y394168D01*
X442343Y394118D01*
X442380Y394071D01*
X442420Y394026D01*
X442463Y393983D01*
X442508Y393944D01*
X442556Y393907D01*
X442606Y393874D01*
X442658Y393844D01*
X442712Y393817D01*
X442768Y393794D01*
X442825Y393775D01*
X442883Y393759D01*
X442942Y393747D01*
X443002Y393739D01*
X443062Y393735D01*
X443122Y393734D01*
X443183Y393738D01*
X443242Y393745D01*
X443302Y393757D01*
X439434Y396621D02*
X436978Y403987D01*
X434523Y396621D01*
X435137Y398463D02*
X438820Y398463D01*
X438410Y405829D02*
X438408Y405885D01*
X438402Y405940D01*
X438393Y405995D01*
X438380Y406050D01*
X438363Y406103D01*
X438342Y406155D01*
X438318Y406205D01*
X438291Y406254D01*
X438260Y406301D01*
X438227Y406345D01*
X438190Y406387D01*
X438150Y406427D01*
X438108Y406464D01*
X438064Y406497D01*
X438017Y406528D01*
X437968Y406555D01*
X437918Y406579D01*
X437866Y406600D01*
X437813Y406617D01*
X437758Y406630D01*
X437703Y406639D01*
X437648Y406645D01*
X437592Y406647D01*
X437543Y406645D01*
X437495Y406640D01*
X437447Y406631D01*
X437399Y406618D01*
X437353Y406603D01*
X437308Y406583D01*
X437265Y406561D01*
X437223Y406535D01*
X437183Y406507D01*
X437146Y406475D01*
X437111Y406441D01*
X437079Y406405D01*
X437049Y406366D01*
X437022Y406325D01*
X436999Y406282D01*
X436978Y406238D01*
X436979Y406238D02*
X436958Y406194D01*
X436935Y406151D01*
X436908Y406110D01*
X436878Y406071D01*
X436846Y406035D01*
X436811Y406001D01*
X436774Y405969D01*
X436734Y405941D01*
X436692Y405915D01*
X436649Y405893D01*
X436604Y405873D01*
X436558Y405858D01*
X436510Y405845D01*
X436462Y405836D01*
X436414Y405831D01*
X436365Y405829D01*
X436309Y405831D01*
X436254Y405837D01*
X436199Y405846D01*
X436144Y405859D01*
X436091Y405876D01*
X436039Y405897D01*
X435989Y405921D01*
X435940Y405948D01*
X435893Y405979D01*
X435849Y406012D01*
X435807Y406049D01*
X435767Y406089D01*
X435730Y406131D01*
X435697Y406175D01*
X435666Y406222D01*
X435639Y406271D01*
X435615Y406321D01*
X435594Y406373D01*
X435577Y406426D01*
X435564Y406481D01*
X435555Y406536D01*
X435549Y406591D01*
X435547Y406647D01*
X431709Y401941D02*
X431709Y398667D01*
X431709Y401941D02*
X431707Y402030D01*
X431701Y402119D01*
X431691Y402208D01*
X431678Y402296D01*
X431661Y402384D01*
X431639Y402471D01*
X431614Y402556D01*
X431586Y402641D01*
X431553Y402724D01*
X431517Y402806D01*
X431478Y402886D01*
X431435Y402964D01*
X431389Y403040D01*
X431339Y403115D01*
X431286Y403187D01*
X431230Y403256D01*
X431171Y403323D01*
X431110Y403388D01*
X431045Y403449D01*
X430978Y403508D01*
X430909Y403564D01*
X430837Y403617D01*
X430762Y403667D01*
X430686Y403713D01*
X430608Y403756D01*
X430528Y403795D01*
X430446Y403831D01*
X430363Y403864D01*
X430278Y403892D01*
X430193Y403917D01*
X430106Y403939D01*
X430018Y403956D01*
X429930Y403969D01*
X429841Y403979D01*
X429752Y403985D01*
X429663Y403987D01*
X429574Y403985D01*
X429485Y403979D01*
X429396Y403969D01*
X429308Y403956D01*
X429220Y403939D01*
X429133Y403917D01*
X429048Y403892D01*
X428963Y403864D01*
X428880Y403831D01*
X428798Y403795D01*
X428718Y403756D01*
X428640Y403713D01*
X428564Y403667D01*
X428489Y403617D01*
X428417Y403564D01*
X428348Y403508D01*
X428281Y403449D01*
X428216Y403388D01*
X428155Y403323D01*
X428096Y403256D01*
X428040Y403187D01*
X427987Y403115D01*
X427937Y403040D01*
X427891Y402964D01*
X427848Y402886D01*
X427809Y402806D01*
X427773Y402724D01*
X427740Y402641D01*
X427712Y402556D01*
X427687Y402471D01*
X427665Y402384D01*
X427648Y402296D01*
X427635Y402208D01*
X427625Y402119D01*
X427619Y402030D01*
X427617Y401941D01*
X427617Y398667D01*
X427619Y398578D01*
X427625Y398489D01*
X427635Y398400D01*
X427648Y398312D01*
X427665Y398224D01*
X427687Y398137D01*
X427712Y398052D01*
X427740Y397967D01*
X427773Y397884D01*
X427809Y397802D01*
X427848Y397722D01*
X427891Y397644D01*
X427937Y397568D01*
X427987Y397493D01*
X428040Y397421D01*
X428096Y397352D01*
X428155Y397285D01*
X428216Y397220D01*
X428281Y397159D01*
X428348Y397100D01*
X428417Y397044D01*
X428489Y396991D01*
X428564Y396941D01*
X428640Y396895D01*
X428718Y396852D01*
X428798Y396813D01*
X428880Y396777D01*
X428963Y396744D01*
X429048Y396716D01*
X429133Y396691D01*
X429220Y396669D01*
X429308Y396652D01*
X429396Y396639D01*
X429485Y396629D01*
X429574Y396623D01*
X429663Y396621D01*
X429752Y396623D01*
X429841Y396629D01*
X429930Y396639D01*
X430018Y396652D01*
X430106Y396669D01*
X430193Y396691D01*
X430278Y396716D01*
X430363Y396744D01*
X430446Y396777D01*
X430528Y396813D01*
X430608Y396852D01*
X430686Y396895D01*
X430762Y396941D01*
X430837Y396991D01*
X430909Y397044D01*
X430978Y397100D01*
X431045Y397159D01*
X431110Y397220D01*
X431171Y397285D01*
X431230Y397352D01*
X431286Y397421D01*
X431339Y397493D01*
X431389Y397568D01*
X431435Y397644D01*
X431478Y397722D01*
X431517Y397802D01*
X431553Y397884D01*
X431586Y397967D01*
X431614Y398052D01*
X431639Y398137D01*
X431661Y398224D01*
X431678Y398312D01*
X431691Y398400D01*
X431701Y398489D01*
X431707Y398578D01*
X431709Y398667D01*
X280374Y78867D02*
X280374Y73138D01*
X280376Y73060D01*
X280381Y72982D01*
X280391Y72905D01*
X280404Y72828D01*
X280420Y72752D01*
X280440Y72677D01*
X280464Y72603D01*
X280491Y72530D01*
X280522Y72458D01*
X280556Y72388D01*
X280593Y72320D01*
X280634Y72253D01*
X280678Y72188D01*
X280724Y72126D01*
X280774Y72066D01*
X280826Y72008D01*
X280881Y71953D01*
X280939Y71901D01*
X280999Y71851D01*
X281061Y71805D01*
X281126Y71761D01*
X281193Y71720D01*
X281261Y71683D01*
X281331Y71649D01*
X281403Y71618D01*
X281476Y71591D01*
X281550Y71567D01*
X281625Y71547D01*
X281701Y71531D01*
X281778Y71518D01*
X281855Y71508D01*
X281933Y71503D01*
X282011Y71501D01*
X282829Y71501D01*
X276578Y71501D02*
X276578Y78867D01*
X274532Y78867D01*
X274443Y78865D01*
X274354Y78859D01*
X274265Y78849D01*
X274177Y78836D01*
X274089Y78819D01*
X274002Y78797D01*
X273917Y78772D01*
X273832Y78744D01*
X273749Y78711D01*
X273667Y78675D01*
X273587Y78636D01*
X273509Y78593D01*
X273433Y78547D01*
X273358Y78497D01*
X273286Y78444D01*
X273217Y78388D01*
X273150Y78329D01*
X273085Y78268D01*
X273024Y78203D01*
X272965Y78136D01*
X272909Y78067D01*
X272856Y77995D01*
X272806Y77920D01*
X272760Y77844D01*
X272717Y77766D01*
X272678Y77686D01*
X272642Y77604D01*
X272609Y77521D01*
X272581Y77436D01*
X272556Y77351D01*
X272534Y77264D01*
X272517Y77176D01*
X272504Y77088D01*
X272494Y76999D01*
X272488Y76910D01*
X272486Y76821D01*
X272488Y76732D01*
X272494Y76643D01*
X272504Y76554D01*
X272517Y76466D01*
X272534Y76378D01*
X272556Y76291D01*
X272581Y76206D01*
X272609Y76121D01*
X272642Y76038D01*
X272678Y75956D01*
X272717Y75876D01*
X272760Y75798D01*
X272806Y75722D01*
X272856Y75647D01*
X272909Y75575D01*
X272965Y75506D01*
X273024Y75439D01*
X273085Y75374D01*
X273150Y75313D01*
X273217Y75254D01*
X273286Y75198D01*
X273358Y75145D01*
X273433Y75095D01*
X273509Y75049D01*
X273587Y75006D01*
X273667Y74967D01*
X273749Y74931D01*
X273832Y74898D01*
X273917Y74870D01*
X274002Y74845D01*
X274089Y74823D01*
X274177Y74806D01*
X274265Y74793D01*
X274354Y74783D01*
X274443Y74777D01*
X274532Y74775D01*
X276578Y74775D01*
X269624Y75593D02*
X267169Y75593D01*
X267089Y75591D01*
X267009Y75585D01*
X266929Y75575D01*
X266850Y75562D01*
X266771Y75544D01*
X266694Y75523D01*
X266618Y75497D01*
X266543Y75468D01*
X266469Y75436D01*
X266397Y75400D01*
X266327Y75360D01*
X266260Y75317D01*
X266194Y75271D01*
X266131Y75221D01*
X266070Y75169D01*
X266011Y75114D01*
X265956Y75055D01*
X265904Y74995D01*
X265854Y74931D01*
X265808Y74865D01*
X265765Y74798D01*
X265725Y74728D01*
X265689Y74656D01*
X265657Y74582D01*
X265628Y74508D01*
X265602Y74431D01*
X265581Y74354D01*
X265563Y74275D01*
X265550Y74196D01*
X265540Y74116D01*
X265534Y74036D01*
X265532Y73956D01*
X265532Y73547D01*
X265534Y73458D01*
X265540Y73369D01*
X265550Y73280D01*
X265563Y73192D01*
X265580Y73104D01*
X265602Y73017D01*
X265627Y72932D01*
X265655Y72847D01*
X265688Y72764D01*
X265724Y72682D01*
X265763Y72602D01*
X265806Y72524D01*
X265852Y72448D01*
X265902Y72373D01*
X265955Y72301D01*
X266011Y72232D01*
X266070Y72165D01*
X266131Y72100D01*
X266196Y72039D01*
X266263Y71980D01*
X266332Y71924D01*
X266404Y71871D01*
X266479Y71821D01*
X266555Y71775D01*
X266633Y71732D01*
X266713Y71693D01*
X266795Y71657D01*
X266878Y71624D01*
X266963Y71596D01*
X267048Y71571D01*
X267135Y71549D01*
X267223Y71532D01*
X267311Y71519D01*
X267400Y71509D01*
X267489Y71503D01*
X267578Y71501D01*
X267667Y71503D01*
X267756Y71509D01*
X267845Y71519D01*
X267933Y71532D01*
X268021Y71549D01*
X268108Y71571D01*
X268193Y71596D01*
X268278Y71624D01*
X268361Y71657D01*
X268443Y71693D01*
X268523Y71732D01*
X268601Y71775D01*
X268677Y71821D01*
X268752Y71871D01*
X268824Y71924D01*
X268893Y71980D01*
X268960Y72039D01*
X269025Y72100D01*
X269086Y72165D01*
X269145Y72232D01*
X269201Y72301D01*
X269254Y72373D01*
X269304Y72448D01*
X269350Y72524D01*
X269393Y72602D01*
X269432Y72682D01*
X269468Y72764D01*
X269501Y72847D01*
X269529Y72932D01*
X269554Y73017D01*
X269576Y73104D01*
X269593Y73192D01*
X269606Y73280D01*
X269616Y73369D01*
X269622Y73458D01*
X269624Y73547D01*
X269624Y75593D01*
X269622Y75705D01*
X269616Y75816D01*
X269607Y75928D01*
X269594Y76039D01*
X269576Y76149D01*
X269556Y76259D01*
X269531Y76368D01*
X269503Y76476D01*
X269471Y76583D01*
X269435Y76689D01*
X269396Y76794D01*
X269353Y76897D01*
X269307Y76999D01*
X269257Y77099D01*
X269204Y77198D01*
X269147Y77294D01*
X269088Y77389D01*
X269025Y77481D01*
X268959Y77571D01*
X268890Y77659D01*
X268818Y77745D01*
X268743Y77828D01*
X268665Y77908D01*
X268585Y77986D01*
X268502Y78061D01*
X268416Y78133D01*
X268328Y78202D01*
X268238Y78268D01*
X268146Y78331D01*
X268051Y78390D01*
X267955Y78447D01*
X267856Y78500D01*
X267756Y78550D01*
X267654Y78596D01*
X267551Y78639D01*
X267446Y78678D01*
X267340Y78714D01*
X267233Y78746D01*
X267125Y78774D01*
X267016Y78799D01*
X266906Y78819D01*
X266796Y78837D01*
X266685Y78850D01*
X266573Y78859D01*
X266462Y78865D01*
X266350Y78867D01*
D12*
X308610Y121920D02*
X314960Y128270D01*
X327660Y128270D02*
X334010Y121920D01*
X340360Y128270D01*
X353060Y128270D02*
X359410Y121920D01*
X308610Y121920D02*
X308610Y83820D01*
X314960Y77470D01*
X327660Y77470D01*
X334010Y83820D01*
X340360Y77470D01*
X353060Y77470D01*
X359410Y83820D01*
X334010Y83820D02*
X334010Y121920D01*
X359410Y121920D02*
X359410Y83820D01*
X353060Y128270D02*
X340360Y128270D01*
X327660Y128270D02*
X314960Y128270D01*
X359410Y121920D02*
X365760Y128270D01*
X378460Y128270D02*
X384810Y121920D01*
X359410Y83820D02*
X365760Y77470D01*
X378460Y77470D01*
X384810Y83820D01*
X384810Y121920D01*
X378460Y128270D02*
X365760Y128270D01*
D11*
X354034Y73787D02*
X354034Y68058D01*
X354036Y67980D01*
X354041Y67902D01*
X354051Y67825D01*
X354064Y67748D01*
X354080Y67672D01*
X354100Y67597D01*
X354124Y67523D01*
X354151Y67450D01*
X354182Y67378D01*
X354216Y67308D01*
X354253Y67240D01*
X354294Y67173D01*
X354338Y67108D01*
X354384Y67046D01*
X354434Y66986D01*
X354486Y66928D01*
X354541Y66873D01*
X354599Y66821D01*
X354659Y66771D01*
X354721Y66725D01*
X354786Y66681D01*
X354853Y66640D01*
X354921Y66603D01*
X354991Y66569D01*
X355063Y66538D01*
X355136Y66511D01*
X355210Y66487D01*
X355285Y66467D01*
X355361Y66451D01*
X355438Y66438D01*
X355515Y66428D01*
X355593Y66423D01*
X355671Y66421D01*
X356489Y66421D01*
X350238Y66421D02*
X350238Y73787D01*
X348192Y73787D01*
X348103Y73785D01*
X348014Y73779D01*
X347925Y73769D01*
X347837Y73756D01*
X347749Y73739D01*
X347662Y73717D01*
X347577Y73692D01*
X347492Y73664D01*
X347409Y73631D01*
X347327Y73595D01*
X347247Y73556D01*
X347169Y73513D01*
X347093Y73467D01*
X347018Y73417D01*
X346946Y73364D01*
X346877Y73308D01*
X346810Y73249D01*
X346745Y73188D01*
X346684Y73123D01*
X346625Y73056D01*
X346569Y72987D01*
X346516Y72915D01*
X346466Y72840D01*
X346420Y72764D01*
X346377Y72686D01*
X346338Y72606D01*
X346302Y72524D01*
X346269Y72441D01*
X346241Y72356D01*
X346216Y72271D01*
X346194Y72184D01*
X346177Y72096D01*
X346164Y72008D01*
X346154Y71919D01*
X346148Y71830D01*
X346146Y71741D01*
X346148Y71652D01*
X346154Y71563D01*
X346164Y71474D01*
X346177Y71386D01*
X346194Y71298D01*
X346216Y71211D01*
X346241Y71126D01*
X346269Y71041D01*
X346302Y70958D01*
X346338Y70876D01*
X346377Y70796D01*
X346420Y70718D01*
X346466Y70642D01*
X346516Y70567D01*
X346569Y70495D01*
X346625Y70426D01*
X346684Y70359D01*
X346745Y70294D01*
X346810Y70233D01*
X346877Y70174D01*
X346946Y70118D01*
X347018Y70065D01*
X347093Y70015D01*
X347169Y69969D01*
X347247Y69926D01*
X347327Y69887D01*
X347409Y69851D01*
X347492Y69818D01*
X347577Y69790D01*
X347662Y69765D01*
X347749Y69743D01*
X347837Y69726D01*
X347925Y69713D01*
X348014Y69703D01*
X348103Y69697D01*
X348192Y69695D01*
X350238Y69695D01*
X341033Y73788D02*
X340948Y73786D01*
X340863Y73780D01*
X340779Y73770D01*
X340695Y73757D01*
X340611Y73739D01*
X340529Y73718D01*
X340448Y73693D01*
X340368Y73664D01*
X340289Y73631D01*
X340212Y73595D01*
X340137Y73555D01*
X340063Y73512D01*
X339992Y73466D01*
X339923Y73416D01*
X339856Y73363D01*
X339792Y73307D01*
X339731Y73248D01*
X339672Y73187D01*
X339616Y73123D01*
X339563Y73056D01*
X339513Y72987D01*
X339467Y72916D01*
X339424Y72842D01*
X339384Y72767D01*
X339348Y72690D01*
X339315Y72611D01*
X339286Y72531D01*
X339261Y72450D01*
X339240Y72368D01*
X339222Y72284D01*
X339209Y72200D01*
X339199Y72116D01*
X339193Y72031D01*
X339191Y71946D01*
X341033Y73787D02*
X341129Y73785D01*
X341225Y73779D01*
X341320Y73769D01*
X341415Y73756D01*
X341510Y73738D01*
X341603Y73717D01*
X341696Y73692D01*
X341787Y73663D01*
X341878Y73631D01*
X341967Y73595D01*
X342054Y73555D01*
X342140Y73512D01*
X342224Y73466D01*
X342306Y73416D01*
X342386Y73362D01*
X342463Y73306D01*
X342538Y73246D01*
X342611Y73184D01*
X342681Y73118D01*
X342749Y73050D01*
X342814Y72979D01*
X342875Y72906D01*
X342934Y72830D01*
X342990Y72751D01*
X343042Y72671D01*
X343091Y72588D01*
X343137Y72504D01*
X343179Y72418D01*
X343217Y72330D01*
X343252Y72241D01*
X343284Y72150D01*
X339806Y70514D02*
X339746Y70573D01*
X339689Y70635D01*
X339634Y70699D01*
X339583Y70766D01*
X339534Y70835D01*
X339488Y70905D01*
X339445Y70978D01*
X339405Y71052D01*
X339369Y71128D01*
X339336Y71206D01*
X339306Y71285D01*
X339279Y71365D01*
X339256Y71446D01*
X339237Y71528D01*
X339221Y71610D01*
X339208Y71694D01*
X339199Y71778D01*
X339194Y71862D01*
X339192Y71946D01*
X339806Y70513D02*
X343284Y66421D01*
X339192Y66421D01*
D13*
X90170Y554800D02*
X77470Y554800D01*
X33620Y450300D02*
X616620Y450300D01*
X616620Y540300D02*
X33620Y540300D01*
X33620Y451300D01*
X616620Y450300D02*
X616620Y540300D01*
X303120Y540300D02*
X303120Y525300D01*
X347120Y525300D02*
X347120Y540300D01*
X347120Y525300D02*
X303120Y525300D01*
D12*
X24384Y433347D02*
X24384Y431880D01*
X24386Y431806D01*
X24392Y431731D01*
X24401Y431658D01*
X24414Y431584D01*
X24431Y431512D01*
X24451Y431441D01*
X24475Y431370D01*
X24503Y431301D01*
X24534Y431234D01*
X24568Y431168D01*
X24606Y431103D01*
X24647Y431041D01*
X24691Y430981D01*
X24738Y430924D01*
X24788Y430869D01*
X24841Y430816D01*
X24896Y430766D01*
X24953Y430719D01*
X25013Y430675D01*
X25075Y430634D01*
X25140Y430596D01*
X25206Y430562D01*
X25273Y430531D01*
X25342Y430503D01*
X25413Y430479D01*
X25484Y430459D01*
X25556Y430442D01*
X25630Y430429D01*
X25703Y430420D01*
X25778Y430414D01*
X25852Y430412D01*
X29520Y430412D01*
X29594Y430414D01*
X29669Y430420D01*
X29742Y430429D01*
X29816Y430442D01*
X29888Y430459D01*
X29959Y430479D01*
X30030Y430503D01*
X30099Y430531D01*
X30166Y430562D01*
X30232Y430596D01*
X30297Y430634D01*
X30359Y430675D01*
X30419Y430719D01*
X30476Y430766D01*
X30531Y430816D01*
X30584Y430869D01*
X30634Y430924D01*
X30681Y430981D01*
X30725Y431041D01*
X30766Y431103D01*
X30804Y431168D01*
X30838Y431233D01*
X30869Y431301D01*
X30897Y431370D01*
X30921Y431441D01*
X30941Y431512D01*
X30958Y431584D01*
X30971Y431658D01*
X30980Y431731D01*
X30986Y431806D01*
X30988Y431880D01*
X30988Y433347D01*
X29154Y436544D02*
X26218Y436544D01*
X29154Y436544D02*
X29239Y436546D01*
X29323Y436552D01*
X29407Y436562D01*
X29491Y436575D01*
X29574Y436593D01*
X29656Y436614D01*
X29737Y436639D01*
X29817Y436668D01*
X29895Y436700D01*
X29971Y436736D01*
X30046Y436776D01*
X30119Y436819D01*
X30190Y436865D01*
X30259Y436914D01*
X30326Y436967D01*
X30390Y437023D01*
X30451Y437081D01*
X30509Y437142D01*
X30565Y437206D01*
X30618Y437273D01*
X30667Y437342D01*
X30713Y437413D01*
X30756Y437486D01*
X30796Y437561D01*
X30832Y437637D01*
X30864Y437715D01*
X30893Y437795D01*
X30918Y437876D01*
X30939Y437958D01*
X30957Y438041D01*
X30970Y438125D01*
X30980Y438209D01*
X30986Y438293D01*
X30988Y438378D01*
X30986Y438463D01*
X30980Y438547D01*
X30970Y438631D01*
X30957Y438715D01*
X30939Y438798D01*
X30918Y438880D01*
X30893Y438961D01*
X30864Y439041D01*
X30832Y439119D01*
X30796Y439195D01*
X30756Y439270D01*
X30713Y439343D01*
X30667Y439414D01*
X30618Y439483D01*
X30565Y439550D01*
X30509Y439614D01*
X30451Y439675D01*
X30390Y439733D01*
X30326Y439789D01*
X30259Y439842D01*
X30190Y439891D01*
X30119Y439937D01*
X30046Y439980D01*
X29971Y440020D01*
X29895Y440056D01*
X29817Y440088D01*
X29737Y440117D01*
X29656Y440142D01*
X29574Y440163D01*
X29491Y440181D01*
X29407Y440194D01*
X29323Y440204D01*
X29239Y440210D01*
X29154Y440212D01*
X29154Y440213D02*
X26218Y440213D01*
X26218Y440212D02*
X26133Y440210D01*
X26049Y440204D01*
X25965Y440194D01*
X25881Y440181D01*
X25798Y440163D01*
X25716Y440142D01*
X25635Y440117D01*
X25555Y440088D01*
X25477Y440056D01*
X25401Y440020D01*
X25326Y439980D01*
X25253Y439937D01*
X25182Y439891D01*
X25113Y439842D01*
X25046Y439789D01*
X24982Y439733D01*
X24921Y439675D01*
X24863Y439614D01*
X24807Y439550D01*
X24754Y439483D01*
X24705Y439414D01*
X24659Y439343D01*
X24616Y439270D01*
X24576Y439195D01*
X24540Y439119D01*
X24508Y439041D01*
X24479Y438961D01*
X24454Y438880D01*
X24433Y438798D01*
X24415Y438715D01*
X24402Y438631D01*
X24392Y438547D01*
X24386Y438463D01*
X24384Y438378D01*
X24386Y438293D01*
X24392Y438209D01*
X24402Y438125D01*
X24415Y438041D01*
X24433Y437958D01*
X24454Y437876D01*
X24479Y437795D01*
X24508Y437715D01*
X24540Y437637D01*
X24576Y437561D01*
X24616Y437486D01*
X24659Y437413D01*
X24705Y437342D01*
X24754Y437273D01*
X24807Y437206D01*
X24863Y437142D01*
X24921Y437081D01*
X24982Y437023D01*
X25046Y436967D01*
X25113Y436914D01*
X25182Y436865D01*
X25253Y436819D01*
X25326Y436776D01*
X25401Y436736D01*
X25477Y436700D01*
X25555Y436668D01*
X25635Y436639D01*
X25716Y436614D01*
X25798Y436593D01*
X25881Y436575D01*
X25965Y436562D01*
X26049Y436552D01*
X26133Y436546D01*
X26218Y436544D01*
X24384Y444103D02*
X30988Y444103D01*
X24384Y447772D01*
X30988Y447772D01*
X23650Y451297D02*
X23650Y454232D01*
X24384Y457837D02*
X30988Y457837D01*
X30988Y459671D01*
X30986Y459756D01*
X30980Y459840D01*
X30970Y459924D01*
X30957Y460008D01*
X30939Y460091D01*
X30918Y460173D01*
X30893Y460254D01*
X30864Y460334D01*
X30832Y460412D01*
X30796Y460488D01*
X30756Y460563D01*
X30713Y460636D01*
X30667Y460707D01*
X30618Y460776D01*
X30565Y460843D01*
X30509Y460907D01*
X30451Y460968D01*
X30390Y461026D01*
X30326Y461082D01*
X30259Y461135D01*
X30190Y461184D01*
X30119Y461230D01*
X30046Y461273D01*
X29971Y461313D01*
X29895Y461349D01*
X29817Y461381D01*
X29737Y461410D01*
X29656Y461435D01*
X29574Y461456D01*
X29491Y461474D01*
X29407Y461487D01*
X29323Y461497D01*
X29239Y461503D01*
X29154Y461505D01*
X29069Y461503D01*
X28985Y461497D01*
X28901Y461487D01*
X28817Y461474D01*
X28734Y461456D01*
X28652Y461435D01*
X28571Y461410D01*
X28491Y461381D01*
X28413Y461349D01*
X28337Y461313D01*
X28262Y461273D01*
X28189Y461230D01*
X28118Y461184D01*
X28049Y461135D01*
X27982Y461082D01*
X27918Y461026D01*
X27857Y460968D01*
X27799Y460907D01*
X27743Y460843D01*
X27690Y460776D01*
X27641Y460707D01*
X27595Y460636D01*
X27552Y460563D01*
X27512Y460488D01*
X27476Y460412D01*
X27444Y460334D01*
X27415Y460254D01*
X27390Y460173D01*
X27369Y460091D01*
X27351Y460008D01*
X27338Y459924D01*
X27328Y459840D01*
X27322Y459756D01*
X27320Y459671D01*
X27319Y459671D02*
X27319Y457837D01*
X27319Y460038D02*
X24384Y461506D01*
X24384Y464706D02*
X30988Y466907D01*
X24384Y469109D01*
X26035Y468558D02*
X26035Y465256D01*
X24384Y474346D02*
X24386Y474420D01*
X24392Y474495D01*
X24401Y474568D01*
X24414Y474642D01*
X24431Y474714D01*
X24451Y474785D01*
X24475Y474856D01*
X24503Y474925D01*
X24534Y474992D01*
X24568Y475058D01*
X24606Y475123D01*
X24647Y475185D01*
X24691Y475245D01*
X24738Y475302D01*
X24788Y475357D01*
X24841Y475410D01*
X24896Y475460D01*
X24953Y475507D01*
X25013Y475551D01*
X25075Y475592D01*
X25140Y475630D01*
X25206Y475664D01*
X25273Y475695D01*
X25342Y475723D01*
X25413Y475747D01*
X25484Y475767D01*
X25556Y475784D01*
X25630Y475797D01*
X25703Y475806D01*
X25778Y475812D01*
X25852Y475814D01*
X24384Y474346D02*
X24386Y474235D01*
X24392Y474124D01*
X24402Y474013D01*
X24416Y473902D01*
X24434Y473793D01*
X24456Y473684D01*
X24481Y473575D01*
X24511Y473468D01*
X24544Y473362D01*
X24582Y473257D01*
X24622Y473154D01*
X24667Y473052D01*
X24715Y472952D01*
X24767Y472853D01*
X24822Y472757D01*
X24881Y472662D01*
X24943Y472570D01*
X25009Y472480D01*
X25077Y472392D01*
X25149Y472307D01*
X25224Y472225D01*
X25301Y472145D01*
X29520Y472327D02*
X29594Y472329D01*
X29669Y472335D01*
X29742Y472344D01*
X29816Y472357D01*
X29888Y472374D01*
X29959Y472394D01*
X30030Y472418D01*
X30099Y472446D01*
X30166Y472477D01*
X30232Y472511D01*
X30297Y472549D01*
X30359Y472590D01*
X30419Y472634D01*
X30476Y472681D01*
X30531Y472731D01*
X30584Y472784D01*
X30634Y472839D01*
X30681Y472896D01*
X30725Y472956D01*
X30766Y473018D01*
X30804Y473083D01*
X30838Y473149D01*
X30869Y473216D01*
X30897Y473285D01*
X30921Y473356D01*
X30941Y473427D01*
X30958Y473499D01*
X30971Y473573D01*
X30980Y473646D01*
X30986Y473721D01*
X30988Y473795D01*
X30986Y473899D01*
X30980Y474003D01*
X30970Y474107D01*
X30957Y474210D01*
X30939Y474313D01*
X30917Y474415D01*
X30892Y474516D01*
X30863Y474616D01*
X30830Y474715D01*
X30793Y474812D01*
X30753Y474908D01*
X30709Y475003D01*
X30661Y475095D01*
X30611Y475186D01*
X30556Y475275D01*
X30499Y475362D01*
X30438Y475446D01*
X28235Y473061D02*
X28274Y472998D01*
X28316Y472938D01*
X28361Y472880D01*
X28409Y472823D01*
X28460Y472770D01*
X28513Y472719D01*
X28568Y472670D01*
X28626Y472625D01*
X28686Y472582D01*
X28748Y472542D01*
X28812Y472506D01*
X28878Y472472D01*
X28946Y472442D01*
X29014Y472415D01*
X29084Y472392D01*
X29155Y472372D01*
X29227Y472356D01*
X29300Y472343D01*
X29373Y472334D01*
X29446Y472329D01*
X29520Y472327D01*
X27137Y475080D02*
X27098Y475143D01*
X27056Y475203D01*
X27011Y475262D01*
X26963Y475318D01*
X26912Y475371D01*
X26859Y475422D01*
X26804Y475471D01*
X26746Y475516D01*
X26686Y475559D01*
X26624Y475599D01*
X26560Y475635D01*
X26494Y475669D01*
X26426Y475699D01*
X26358Y475726D01*
X26288Y475749D01*
X26217Y475769D01*
X26145Y475785D01*
X26072Y475798D01*
X25999Y475807D01*
X25926Y475812D01*
X25852Y475814D01*
X27136Y475079D02*
X28236Y473062D01*
X30988Y479641D02*
X24384Y479641D01*
X30988Y479641D02*
X30988Y481475D01*
X30986Y481560D01*
X30980Y481644D01*
X30970Y481728D01*
X30957Y481812D01*
X30939Y481895D01*
X30918Y481977D01*
X30893Y482058D01*
X30864Y482138D01*
X30832Y482216D01*
X30796Y482292D01*
X30756Y482367D01*
X30713Y482440D01*
X30667Y482511D01*
X30618Y482580D01*
X30565Y482647D01*
X30509Y482711D01*
X30451Y482772D01*
X30390Y482830D01*
X30326Y482886D01*
X30259Y482939D01*
X30190Y482988D01*
X30119Y483034D01*
X30046Y483077D01*
X29971Y483117D01*
X29895Y483153D01*
X29817Y483185D01*
X29737Y483214D01*
X29656Y483239D01*
X29574Y483260D01*
X29491Y483278D01*
X29407Y483291D01*
X29323Y483301D01*
X29239Y483307D01*
X29154Y483309D01*
X29069Y483307D01*
X28985Y483301D01*
X28901Y483291D01*
X28817Y483278D01*
X28734Y483260D01*
X28652Y483239D01*
X28571Y483214D01*
X28491Y483185D01*
X28413Y483153D01*
X28337Y483117D01*
X28262Y483077D01*
X28189Y483034D01*
X28118Y482988D01*
X28049Y482939D01*
X27982Y482886D01*
X27918Y482830D01*
X27857Y482772D01*
X27799Y482711D01*
X27743Y482647D01*
X27690Y482580D01*
X27641Y482511D01*
X27595Y482440D01*
X27552Y482367D01*
X27512Y482292D01*
X27476Y482216D01*
X27444Y482138D01*
X27415Y482058D01*
X27390Y481977D01*
X27369Y481895D01*
X27351Y481812D01*
X27338Y481728D01*
X27328Y481644D01*
X27322Y481560D01*
X27320Y481475D01*
X27319Y481475D02*
X27319Y479641D01*
X28053Y486956D02*
X28053Y488790D01*
X28052Y488790D02*
X28050Y488875D01*
X28044Y488959D01*
X28034Y489043D01*
X28021Y489127D01*
X28003Y489210D01*
X27982Y489292D01*
X27957Y489373D01*
X27928Y489453D01*
X27896Y489531D01*
X27860Y489607D01*
X27820Y489682D01*
X27777Y489755D01*
X27731Y489826D01*
X27682Y489895D01*
X27629Y489962D01*
X27573Y490026D01*
X27515Y490087D01*
X27454Y490145D01*
X27390Y490201D01*
X27323Y490254D01*
X27254Y490303D01*
X27183Y490349D01*
X27110Y490392D01*
X27035Y490432D01*
X26959Y490468D01*
X26881Y490500D01*
X26801Y490529D01*
X26720Y490554D01*
X26638Y490575D01*
X26555Y490593D01*
X26471Y490606D01*
X26387Y490616D01*
X26303Y490622D01*
X26218Y490624D01*
X26133Y490622D01*
X26049Y490616D01*
X25965Y490606D01*
X25881Y490593D01*
X25798Y490575D01*
X25716Y490554D01*
X25635Y490529D01*
X25555Y490500D01*
X25477Y490468D01*
X25401Y490432D01*
X25326Y490392D01*
X25253Y490349D01*
X25182Y490303D01*
X25113Y490254D01*
X25046Y490201D01*
X24982Y490145D01*
X24921Y490087D01*
X24863Y490026D01*
X24807Y489962D01*
X24754Y489895D01*
X24705Y489826D01*
X24659Y489755D01*
X24616Y489682D01*
X24576Y489607D01*
X24540Y489531D01*
X24508Y489453D01*
X24479Y489373D01*
X24454Y489292D01*
X24433Y489210D01*
X24415Y489127D01*
X24402Y489043D01*
X24392Y488959D01*
X24386Y488875D01*
X24384Y488790D01*
X24384Y486956D01*
X30988Y486956D01*
X30988Y488790D01*
X30986Y488866D01*
X30980Y488941D01*
X30971Y489016D01*
X30957Y489090D01*
X30940Y489164D01*
X30918Y489236D01*
X30894Y489308D01*
X30865Y489378D01*
X30833Y489446D01*
X30798Y489513D01*
X30759Y489578D01*
X30716Y489641D01*
X30671Y489701D01*
X30623Y489759D01*
X30571Y489815D01*
X30517Y489867D01*
X30460Y489917D01*
X30401Y489964D01*
X30340Y490008D01*
X30276Y490049D01*
X30210Y490086D01*
X30142Y490120D01*
X30073Y490150D01*
X30002Y490177D01*
X29930Y490200D01*
X29857Y490219D01*
X29783Y490234D01*
X29708Y490246D01*
X29633Y490254D01*
X29558Y490258D01*
X29482Y490258D01*
X29407Y490254D01*
X29332Y490246D01*
X29257Y490234D01*
X29183Y490219D01*
X29110Y490200D01*
X29038Y490177D01*
X28967Y490150D01*
X28898Y490120D01*
X28830Y490086D01*
X28764Y490049D01*
X28700Y490008D01*
X28639Y489964D01*
X28580Y489917D01*
X28523Y489867D01*
X28469Y489815D01*
X28417Y489759D01*
X28369Y489701D01*
X28324Y489641D01*
X28281Y489578D01*
X28242Y489513D01*
X28207Y489446D01*
X28175Y489378D01*
X28146Y489308D01*
X28122Y489236D01*
X28100Y489164D01*
X28083Y489090D01*
X28069Y489016D01*
X28060Y488941D01*
X28054Y488866D01*
X28052Y488790D01*
X24384Y494114D02*
X24384Y497049D01*
X24384Y494114D02*
X30988Y494114D01*
X30988Y497049D01*
X28053Y496315D02*
X28053Y494114D01*
X30988Y500509D02*
X24384Y500509D01*
X30988Y500509D02*
X30988Y502343D01*
X30986Y502428D01*
X30980Y502512D01*
X30970Y502596D01*
X30957Y502680D01*
X30939Y502763D01*
X30918Y502845D01*
X30893Y502926D01*
X30864Y503006D01*
X30832Y503084D01*
X30796Y503160D01*
X30756Y503235D01*
X30713Y503308D01*
X30667Y503379D01*
X30618Y503448D01*
X30565Y503515D01*
X30509Y503579D01*
X30451Y503640D01*
X30390Y503698D01*
X30326Y503754D01*
X30259Y503807D01*
X30190Y503856D01*
X30119Y503902D01*
X30046Y503945D01*
X29971Y503985D01*
X29895Y504021D01*
X29817Y504053D01*
X29737Y504082D01*
X29656Y504107D01*
X29574Y504128D01*
X29491Y504146D01*
X29407Y504159D01*
X29323Y504169D01*
X29239Y504175D01*
X29154Y504177D01*
X29069Y504175D01*
X28985Y504169D01*
X28901Y504159D01*
X28817Y504146D01*
X28734Y504128D01*
X28652Y504107D01*
X28571Y504082D01*
X28491Y504053D01*
X28413Y504021D01*
X28337Y503985D01*
X28262Y503945D01*
X28189Y503902D01*
X28118Y503856D01*
X28049Y503807D01*
X27982Y503754D01*
X27918Y503698D01*
X27857Y503640D01*
X27799Y503579D01*
X27743Y503515D01*
X27690Y503448D01*
X27641Y503379D01*
X27595Y503308D01*
X27552Y503235D01*
X27512Y503160D01*
X27476Y503084D01*
X27444Y503006D01*
X27415Y502926D01*
X27390Y502845D01*
X27369Y502763D01*
X27351Y502680D01*
X27338Y502596D01*
X27328Y502512D01*
X27322Y502428D01*
X27320Y502343D01*
X27319Y502343D02*
X27319Y500509D01*
X27319Y502710D02*
X24384Y504177D01*
X24384Y508068D02*
X30988Y508068D01*
X30988Y509902D01*
X30986Y509987D01*
X30980Y510071D01*
X30970Y510155D01*
X30957Y510239D01*
X30939Y510322D01*
X30918Y510404D01*
X30893Y510485D01*
X30864Y510565D01*
X30832Y510643D01*
X30796Y510719D01*
X30756Y510794D01*
X30713Y510867D01*
X30667Y510938D01*
X30618Y511007D01*
X30565Y511074D01*
X30509Y511138D01*
X30451Y511199D01*
X30390Y511257D01*
X30326Y511313D01*
X30259Y511366D01*
X30190Y511415D01*
X30119Y511461D01*
X30046Y511504D01*
X29971Y511544D01*
X29895Y511580D01*
X29817Y511612D01*
X29737Y511641D01*
X29656Y511666D01*
X29574Y511687D01*
X29491Y511705D01*
X29407Y511718D01*
X29323Y511728D01*
X29239Y511734D01*
X29154Y511736D01*
X29069Y511734D01*
X28985Y511728D01*
X28901Y511718D01*
X28817Y511705D01*
X28734Y511687D01*
X28652Y511666D01*
X28571Y511641D01*
X28491Y511612D01*
X28413Y511580D01*
X28337Y511544D01*
X28262Y511504D01*
X28189Y511461D01*
X28118Y511415D01*
X28049Y511366D01*
X27982Y511313D01*
X27918Y511257D01*
X27857Y511199D01*
X27799Y511138D01*
X27743Y511074D01*
X27690Y511007D01*
X27641Y510938D01*
X27595Y510867D01*
X27552Y510794D01*
X27512Y510719D01*
X27476Y510643D01*
X27444Y510565D01*
X27415Y510485D01*
X27390Y510404D01*
X27369Y510322D01*
X27351Y510239D01*
X27338Y510155D01*
X27328Y510071D01*
X27322Y509987D01*
X27320Y509902D01*
X27319Y509902D02*
X27319Y508068D01*
X27319Y510269D02*
X24384Y511736D01*
X27869Y517138D02*
X30988Y514937D01*
X27869Y517138D02*
X30988Y519340D01*
X27869Y517138D02*
X24384Y517138D01*
X25852Y522619D02*
X30988Y524087D01*
X25852Y522619D02*
X25852Y526288D01*
X27319Y525187D02*
X24384Y525187D01*
D11*
X636577Y339725D02*
X636577Y332359D01*
X636577Y339725D02*
X634531Y339725D01*
X634442Y339723D01*
X634353Y339717D01*
X634264Y339707D01*
X634176Y339694D01*
X634088Y339677D01*
X634001Y339655D01*
X633916Y339630D01*
X633831Y339602D01*
X633748Y339569D01*
X633666Y339533D01*
X633586Y339494D01*
X633508Y339451D01*
X633432Y339405D01*
X633357Y339355D01*
X633285Y339302D01*
X633216Y339246D01*
X633149Y339187D01*
X633084Y339126D01*
X633023Y339061D01*
X632964Y338994D01*
X632908Y338925D01*
X632855Y338853D01*
X632805Y338778D01*
X632759Y338702D01*
X632716Y338624D01*
X632677Y338544D01*
X632641Y338462D01*
X632608Y338379D01*
X632580Y338294D01*
X632555Y338209D01*
X632533Y338122D01*
X632516Y338034D01*
X632503Y337946D01*
X632493Y337857D01*
X632487Y337768D01*
X632485Y337679D01*
X632487Y337590D01*
X632493Y337501D01*
X632503Y337412D01*
X632516Y337324D01*
X632533Y337236D01*
X632555Y337149D01*
X632580Y337064D01*
X632608Y336979D01*
X632641Y336896D01*
X632677Y336814D01*
X632716Y336734D01*
X632759Y336656D01*
X632805Y336580D01*
X632855Y336505D01*
X632908Y336433D01*
X632964Y336364D01*
X633023Y336297D01*
X633084Y336232D01*
X633149Y336171D01*
X633216Y336112D01*
X633285Y336056D01*
X633357Y336003D01*
X633432Y335953D01*
X633508Y335907D01*
X633586Y335864D01*
X633666Y335825D01*
X633748Y335789D01*
X633831Y335756D01*
X633916Y335728D01*
X634001Y335703D01*
X634088Y335681D01*
X634176Y335664D01*
X634264Y335651D01*
X634353Y335641D01*
X634442Y335635D01*
X634531Y335633D01*
X636577Y335633D01*
X634122Y335633D02*
X632485Y332359D01*
X629313Y338088D02*
X627267Y339725D01*
X627267Y332359D01*
X629313Y332359D02*
X625221Y332359D01*
X637847Y311785D02*
X637847Y304419D01*
X637847Y311785D02*
X635801Y311785D01*
X635712Y311783D01*
X635623Y311777D01*
X635534Y311767D01*
X635446Y311754D01*
X635358Y311737D01*
X635271Y311715D01*
X635186Y311690D01*
X635101Y311662D01*
X635018Y311629D01*
X634936Y311593D01*
X634856Y311554D01*
X634778Y311511D01*
X634702Y311465D01*
X634627Y311415D01*
X634555Y311362D01*
X634486Y311306D01*
X634419Y311247D01*
X634354Y311186D01*
X634293Y311121D01*
X634234Y311054D01*
X634178Y310985D01*
X634125Y310913D01*
X634075Y310838D01*
X634029Y310762D01*
X633986Y310684D01*
X633947Y310604D01*
X633911Y310522D01*
X633878Y310439D01*
X633850Y310354D01*
X633825Y310269D01*
X633803Y310182D01*
X633786Y310094D01*
X633773Y310006D01*
X633763Y309917D01*
X633757Y309828D01*
X633755Y309739D01*
X633757Y309650D01*
X633763Y309561D01*
X633773Y309472D01*
X633786Y309384D01*
X633803Y309296D01*
X633825Y309209D01*
X633850Y309124D01*
X633878Y309039D01*
X633911Y308956D01*
X633947Y308874D01*
X633986Y308794D01*
X634029Y308716D01*
X634075Y308640D01*
X634125Y308565D01*
X634178Y308493D01*
X634234Y308424D01*
X634293Y308357D01*
X634354Y308292D01*
X634419Y308231D01*
X634486Y308172D01*
X634555Y308116D01*
X634627Y308063D01*
X634702Y308013D01*
X634778Y307967D01*
X634856Y307924D01*
X634936Y307885D01*
X635018Y307849D01*
X635101Y307816D01*
X635186Y307788D01*
X635271Y307763D01*
X635358Y307741D01*
X635446Y307724D01*
X635534Y307711D01*
X635623Y307701D01*
X635712Y307695D01*
X635801Y307693D01*
X637847Y307693D01*
X635392Y307693D02*
X633755Y304419D01*
X626491Y309944D02*
X626493Y310029D01*
X626499Y310114D01*
X626509Y310198D01*
X626522Y310282D01*
X626540Y310366D01*
X626561Y310448D01*
X626586Y310529D01*
X626615Y310609D01*
X626648Y310688D01*
X626684Y310765D01*
X626724Y310840D01*
X626767Y310914D01*
X626813Y310985D01*
X626863Y311054D01*
X626916Y311121D01*
X626972Y311185D01*
X627031Y311246D01*
X627092Y311305D01*
X627156Y311361D01*
X627223Y311414D01*
X627292Y311464D01*
X627363Y311510D01*
X627437Y311553D01*
X627512Y311593D01*
X627589Y311629D01*
X627668Y311662D01*
X627748Y311691D01*
X627829Y311716D01*
X627911Y311737D01*
X627995Y311755D01*
X628079Y311768D01*
X628163Y311778D01*
X628248Y311784D01*
X628333Y311786D01*
X628333Y311785D02*
X628429Y311783D01*
X628525Y311777D01*
X628620Y311767D01*
X628715Y311754D01*
X628810Y311736D01*
X628903Y311715D01*
X628996Y311690D01*
X629087Y311661D01*
X629178Y311629D01*
X629267Y311593D01*
X629354Y311553D01*
X629440Y311510D01*
X629524Y311464D01*
X629606Y311414D01*
X629686Y311360D01*
X629763Y311304D01*
X629838Y311244D01*
X629911Y311182D01*
X629981Y311116D01*
X630049Y311048D01*
X630114Y310977D01*
X630175Y310904D01*
X630234Y310828D01*
X630290Y310749D01*
X630342Y310669D01*
X630391Y310586D01*
X630437Y310502D01*
X630479Y310416D01*
X630517Y310328D01*
X630552Y310239D01*
X630584Y310148D01*
X627105Y308512D02*
X627045Y308571D01*
X626988Y308633D01*
X626933Y308697D01*
X626882Y308764D01*
X626833Y308833D01*
X626787Y308903D01*
X626744Y308976D01*
X626704Y309050D01*
X626668Y309126D01*
X626635Y309204D01*
X626605Y309283D01*
X626578Y309363D01*
X626555Y309444D01*
X626536Y309526D01*
X626520Y309608D01*
X626507Y309692D01*
X626498Y309776D01*
X626493Y309860D01*
X626491Y309944D01*
X627105Y308511D02*
X630583Y304419D01*
X626491Y304419D01*
X636577Y285115D02*
X636577Y277749D01*
X636577Y285115D02*
X634531Y285115D01*
X634442Y285113D01*
X634353Y285107D01*
X634264Y285097D01*
X634176Y285084D01*
X634088Y285067D01*
X634001Y285045D01*
X633916Y285020D01*
X633831Y284992D01*
X633748Y284959D01*
X633666Y284923D01*
X633586Y284884D01*
X633508Y284841D01*
X633432Y284795D01*
X633357Y284745D01*
X633285Y284692D01*
X633216Y284636D01*
X633149Y284577D01*
X633084Y284516D01*
X633023Y284451D01*
X632964Y284384D01*
X632908Y284315D01*
X632855Y284243D01*
X632805Y284168D01*
X632759Y284092D01*
X632716Y284014D01*
X632677Y283934D01*
X632641Y283852D01*
X632608Y283769D01*
X632580Y283684D01*
X632555Y283599D01*
X632533Y283512D01*
X632516Y283424D01*
X632503Y283336D01*
X632493Y283247D01*
X632487Y283158D01*
X632485Y283069D01*
X632487Y282980D01*
X632493Y282891D01*
X632503Y282802D01*
X632516Y282714D01*
X632533Y282626D01*
X632555Y282539D01*
X632580Y282454D01*
X632608Y282369D01*
X632641Y282286D01*
X632677Y282204D01*
X632716Y282124D01*
X632759Y282046D01*
X632805Y281970D01*
X632855Y281895D01*
X632908Y281823D01*
X632964Y281754D01*
X633023Y281687D01*
X633084Y281622D01*
X633149Y281561D01*
X633216Y281502D01*
X633285Y281446D01*
X633357Y281393D01*
X633432Y281343D01*
X633508Y281297D01*
X633586Y281254D01*
X633666Y281215D01*
X633748Y281179D01*
X633831Y281146D01*
X633916Y281118D01*
X634001Y281093D01*
X634088Y281071D01*
X634176Y281054D01*
X634264Y281041D01*
X634353Y281031D01*
X634442Y281025D01*
X634531Y281023D01*
X636577Y281023D01*
X634122Y281023D02*
X632485Y277749D01*
X629313Y277749D02*
X627267Y277749D01*
X627178Y277751D01*
X627089Y277757D01*
X627000Y277767D01*
X626912Y277780D01*
X626824Y277797D01*
X626737Y277819D01*
X626652Y277844D01*
X626567Y277872D01*
X626484Y277905D01*
X626402Y277941D01*
X626322Y277980D01*
X626244Y278023D01*
X626168Y278069D01*
X626093Y278119D01*
X626021Y278172D01*
X625952Y278228D01*
X625885Y278287D01*
X625820Y278348D01*
X625759Y278413D01*
X625700Y278480D01*
X625644Y278549D01*
X625591Y278621D01*
X625541Y278696D01*
X625495Y278772D01*
X625452Y278850D01*
X625413Y278930D01*
X625377Y279012D01*
X625344Y279095D01*
X625316Y279180D01*
X625291Y279265D01*
X625269Y279352D01*
X625252Y279440D01*
X625239Y279528D01*
X625229Y279617D01*
X625223Y279706D01*
X625221Y279795D01*
X625223Y279884D01*
X625229Y279973D01*
X625239Y280062D01*
X625252Y280150D01*
X625269Y280238D01*
X625291Y280325D01*
X625316Y280410D01*
X625344Y280495D01*
X625377Y280578D01*
X625413Y280660D01*
X625452Y280740D01*
X625495Y280818D01*
X625541Y280894D01*
X625591Y280969D01*
X625644Y281041D01*
X625700Y281110D01*
X625759Y281177D01*
X625820Y281242D01*
X625885Y281303D01*
X625952Y281362D01*
X626021Y281418D01*
X626093Y281471D01*
X626168Y281521D01*
X626244Y281567D01*
X626322Y281610D01*
X626402Y281649D01*
X626484Y281685D01*
X626567Y281718D01*
X626652Y281746D01*
X626737Y281771D01*
X626824Y281793D01*
X626912Y281810D01*
X627000Y281823D01*
X627089Y281833D01*
X627178Y281839D01*
X627267Y281841D01*
X626858Y285115D02*
X629313Y285115D01*
X626858Y285115D02*
X626779Y285113D01*
X626700Y285107D01*
X626621Y285098D01*
X626543Y285085D01*
X626466Y285067D01*
X626390Y285047D01*
X626315Y285022D01*
X626241Y284994D01*
X626168Y284963D01*
X626097Y284927D01*
X626028Y284889D01*
X625961Y284847D01*
X625896Y284802D01*
X625833Y284754D01*
X625772Y284703D01*
X625715Y284649D01*
X625659Y284593D01*
X625607Y284534D01*
X625557Y284472D01*
X625511Y284408D01*
X625467Y284342D01*
X625427Y284274D01*
X625391Y284204D01*
X625357Y284132D01*
X625327Y284058D01*
X625301Y283984D01*
X625278Y283908D01*
X625260Y283831D01*
X625244Y283754D01*
X625233Y283675D01*
X625225Y283597D01*
X625221Y283518D01*
X625221Y283438D01*
X625225Y283359D01*
X625233Y283281D01*
X625244Y283202D01*
X625260Y283125D01*
X625278Y283048D01*
X625301Y282972D01*
X625327Y282898D01*
X625357Y282824D01*
X625391Y282752D01*
X625427Y282682D01*
X625467Y282614D01*
X625511Y282548D01*
X625557Y282484D01*
X625607Y282422D01*
X625659Y282363D01*
X625715Y282307D01*
X625772Y282253D01*
X625833Y282202D01*
X625896Y282154D01*
X625961Y282109D01*
X626028Y282067D01*
X626097Y282029D01*
X626168Y281993D01*
X626241Y281962D01*
X626315Y281934D01*
X626390Y281909D01*
X626466Y281889D01*
X626543Y281871D01*
X626621Y281858D01*
X626700Y281849D01*
X626779Y281843D01*
X626858Y281841D01*
X628495Y281841D01*
X636577Y262255D02*
X636577Y254889D01*
X636577Y262255D02*
X634531Y262255D01*
X634442Y262253D01*
X634353Y262247D01*
X634264Y262237D01*
X634176Y262224D01*
X634088Y262207D01*
X634001Y262185D01*
X633916Y262160D01*
X633831Y262132D01*
X633748Y262099D01*
X633666Y262063D01*
X633586Y262024D01*
X633508Y261981D01*
X633432Y261935D01*
X633357Y261885D01*
X633285Y261832D01*
X633216Y261776D01*
X633149Y261717D01*
X633084Y261656D01*
X633023Y261591D01*
X632964Y261524D01*
X632908Y261455D01*
X632855Y261383D01*
X632805Y261308D01*
X632759Y261232D01*
X632716Y261154D01*
X632677Y261074D01*
X632641Y260992D01*
X632608Y260909D01*
X632580Y260824D01*
X632555Y260739D01*
X632533Y260652D01*
X632516Y260564D01*
X632503Y260476D01*
X632493Y260387D01*
X632487Y260298D01*
X632485Y260209D01*
X632487Y260120D01*
X632493Y260031D01*
X632503Y259942D01*
X632516Y259854D01*
X632533Y259766D01*
X632555Y259679D01*
X632580Y259594D01*
X632608Y259509D01*
X632641Y259426D01*
X632677Y259344D01*
X632716Y259264D01*
X632759Y259186D01*
X632805Y259110D01*
X632855Y259035D01*
X632908Y258963D01*
X632964Y258894D01*
X633023Y258827D01*
X633084Y258762D01*
X633149Y258701D01*
X633216Y258642D01*
X633285Y258586D01*
X633357Y258533D01*
X633432Y258483D01*
X633508Y258437D01*
X633586Y258394D01*
X633666Y258355D01*
X633748Y258319D01*
X633831Y258286D01*
X633916Y258258D01*
X634001Y258233D01*
X634088Y258211D01*
X634176Y258194D01*
X634264Y258181D01*
X634353Y258171D01*
X634442Y258165D01*
X634531Y258163D01*
X636577Y258163D01*
X634122Y258163D02*
X632485Y254889D01*
X629313Y256526D02*
X627676Y262255D01*
X629313Y256526D02*
X625221Y256526D01*
X626449Y258163D02*
X626449Y254889D01*
X281559Y19431D02*
X281559Y12065D01*
X281559Y19431D02*
X279513Y19431D01*
X279424Y19429D01*
X279335Y19423D01*
X279246Y19413D01*
X279158Y19400D01*
X279070Y19383D01*
X278983Y19361D01*
X278898Y19336D01*
X278813Y19308D01*
X278730Y19275D01*
X278648Y19239D01*
X278568Y19200D01*
X278490Y19157D01*
X278414Y19111D01*
X278339Y19061D01*
X278267Y19008D01*
X278198Y18952D01*
X278131Y18893D01*
X278066Y18832D01*
X278005Y18767D01*
X277946Y18700D01*
X277890Y18631D01*
X277837Y18559D01*
X277787Y18484D01*
X277741Y18408D01*
X277698Y18330D01*
X277659Y18250D01*
X277623Y18168D01*
X277590Y18085D01*
X277562Y18000D01*
X277537Y17915D01*
X277515Y17828D01*
X277498Y17740D01*
X277485Y17652D01*
X277475Y17563D01*
X277469Y17474D01*
X277467Y17385D01*
X277469Y17296D01*
X277475Y17207D01*
X277485Y17118D01*
X277498Y17030D01*
X277515Y16942D01*
X277537Y16855D01*
X277562Y16770D01*
X277590Y16685D01*
X277623Y16602D01*
X277659Y16520D01*
X277698Y16440D01*
X277741Y16362D01*
X277787Y16286D01*
X277837Y16211D01*
X277890Y16139D01*
X277946Y16070D01*
X278005Y16003D01*
X278066Y15938D01*
X278131Y15877D01*
X278198Y15818D01*
X278267Y15762D01*
X278339Y15709D01*
X278414Y15659D01*
X278490Y15613D01*
X278568Y15570D01*
X278648Y15531D01*
X278730Y15495D01*
X278813Y15462D01*
X278898Y15434D01*
X278983Y15409D01*
X279070Y15387D01*
X279158Y15370D01*
X279246Y15357D01*
X279335Y15347D01*
X279424Y15341D01*
X279513Y15339D01*
X281559Y15339D01*
X279104Y15339D02*
X277467Y12065D01*
X274295Y12065D02*
X271840Y12065D01*
X271760Y12067D01*
X271680Y12073D01*
X271600Y12083D01*
X271521Y12096D01*
X271442Y12114D01*
X271365Y12135D01*
X271289Y12161D01*
X271214Y12190D01*
X271140Y12222D01*
X271068Y12258D01*
X270998Y12298D01*
X270931Y12341D01*
X270865Y12387D01*
X270802Y12437D01*
X270741Y12489D01*
X270682Y12544D01*
X270627Y12603D01*
X270575Y12663D01*
X270525Y12727D01*
X270479Y12792D01*
X270436Y12860D01*
X270396Y12930D01*
X270360Y13002D01*
X270328Y13076D01*
X270299Y13150D01*
X270274Y13227D01*
X270252Y13304D01*
X270234Y13383D01*
X270221Y13462D01*
X270211Y13541D01*
X270205Y13622D01*
X270203Y13702D01*
X270203Y14520D01*
X270205Y14598D01*
X270210Y14676D01*
X270220Y14753D01*
X270233Y14830D01*
X270249Y14906D01*
X270269Y14981D01*
X270293Y15055D01*
X270320Y15128D01*
X270351Y15200D01*
X270385Y15270D01*
X270422Y15339D01*
X270463Y15405D01*
X270507Y15470D01*
X270553Y15532D01*
X270603Y15592D01*
X270655Y15650D01*
X270710Y15705D01*
X270768Y15757D01*
X270828Y15807D01*
X270890Y15853D01*
X270955Y15897D01*
X271022Y15938D01*
X271090Y15975D01*
X271160Y16009D01*
X271232Y16040D01*
X271305Y16067D01*
X271379Y16091D01*
X271454Y16111D01*
X271530Y16127D01*
X271607Y16140D01*
X271684Y16150D01*
X271762Y16155D01*
X271840Y16157D01*
X274295Y16157D01*
X274295Y19431D01*
X270203Y19431D01*
X303149Y19431D02*
X303149Y12065D01*
X303149Y19431D02*
X301103Y19431D01*
X301014Y19429D01*
X300925Y19423D01*
X300836Y19413D01*
X300748Y19400D01*
X300660Y19383D01*
X300573Y19361D01*
X300488Y19336D01*
X300403Y19308D01*
X300320Y19275D01*
X300238Y19239D01*
X300158Y19200D01*
X300080Y19157D01*
X300004Y19111D01*
X299929Y19061D01*
X299857Y19008D01*
X299788Y18952D01*
X299721Y18893D01*
X299656Y18832D01*
X299595Y18767D01*
X299536Y18700D01*
X299480Y18631D01*
X299427Y18559D01*
X299377Y18484D01*
X299331Y18408D01*
X299288Y18330D01*
X299249Y18250D01*
X299213Y18168D01*
X299180Y18085D01*
X299152Y18000D01*
X299127Y17915D01*
X299105Y17828D01*
X299088Y17740D01*
X299075Y17652D01*
X299065Y17563D01*
X299059Y17474D01*
X299057Y17385D01*
X299059Y17296D01*
X299065Y17207D01*
X299075Y17118D01*
X299088Y17030D01*
X299105Y16942D01*
X299127Y16855D01*
X299152Y16770D01*
X299180Y16685D01*
X299213Y16602D01*
X299249Y16520D01*
X299288Y16440D01*
X299331Y16362D01*
X299377Y16286D01*
X299427Y16211D01*
X299480Y16139D01*
X299536Y16070D01*
X299595Y16003D01*
X299656Y15938D01*
X299721Y15877D01*
X299788Y15818D01*
X299857Y15762D01*
X299929Y15709D01*
X300004Y15659D01*
X300080Y15613D01*
X300158Y15570D01*
X300238Y15531D01*
X300320Y15495D01*
X300403Y15462D01*
X300488Y15434D01*
X300573Y15409D01*
X300660Y15387D01*
X300748Y15370D01*
X300836Y15357D01*
X300925Y15347D01*
X301014Y15341D01*
X301103Y15339D01*
X303149Y15339D01*
X300694Y15339D02*
X299057Y12065D01*
X295885Y16157D02*
X293430Y16157D01*
X293350Y16155D01*
X293270Y16149D01*
X293190Y16139D01*
X293111Y16126D01*
X293032Y16108D01*
X292955Y16087D01*
X292879Y16061D01*
X292804Y16032D01*
X292730Y16000D01*
X292658Y15964D01*
X292588Y15924D01*
X292521Y15881D01*
X292455Y15835D01*
X292392Y15785D01*
X292331Y15733D01*
X292272Y15678D01*
X292217Y15619D01*
X292165Y15559D01*
X292115Y15495D01*
X292069Y15429D01*
X292026Y15362D01*
X291986Y15292D01*
X291950Y15220D01*
X291918Y15146D01*
X291889Y15072D01*
X291863Y14995D01*
X291842Y14918D01*
X291824Y14839D01*
X291811Y14760D01*
X291801Y14680D01*
X291795Y14600D01*
X291793Y14520D01*
X291793Y14111D01*
X291795Y14022D01*
X291801Y13933D01*
X291811Y13844D01*
X291824Y13756D01*
X291841Y13668D01*
X291863Y13581D01*
X291888Y13496D01*
X291916Y13411D01*
X291949Y13328D01*
X291985Y13246D01*
X292024Y13166D01*
X292067Y13088D01*
X292113Y13012D01*
X292163Y12937D01*
X292216Y12865D01*
X292272Y12796D01*
X292331Y12729D01*
X292392Y12664D01*
X292457Y12603D01*
X292524Y12544D01*
X292593Y12488D01*
X292665Y12435D01*
X292740Y12385D01*
X292816Y12339D01*
X292894Y12296D01*
X292974Y12257D01*
X293056Y12221D01*
X293139Y12188D01*
X293224Y12160D01*
X293309Y12135D01*
X293396Y12113D01*
X293484Y12096D01*
X293572Y12083D01*
X293661Y12073D01*
X293750Y12067D01*
X293839Y12065D01*
X293928Y12067D01*
X294017Y12073D01*
X294106Y12083D01*
X294194Y12096D01*
X294282Y12113D01*
X294369Y12135D01*
X294454Y12160D01*
X294539Y12188D01*
X294622Y12221D01*
X294704Y12257D01*
X294784Y12296D01*
X294862Y12339D01*
X294938Y12385D01*
X295013Y12435D01*
X295085Y12488D01*
X295154Y12544D01*
X295221Y12603D01*
X295286Y12664D01*
X295347Y12729D01*
X295406Y12796D01*
X295462Y12865D01*
X295515Y12937D01*
X295565Y13012D01*
X295611Y13088D01*
X295654Y13166D01*
X295693Y13246D01*
X295729Y13328D01*
X295762Y13411D01*
X295790Y13496D01*
X295815Y13581D01*
X295837Y13668D01*
X295854Y13756D01*
X295867Y13844D01*
X295877Y13933D01*
X295883Y14022D01*
X295885Y14111D01*
X295885Y16157D01*
X295883Y16269D01*
X295877Y16380D01*
X295868Y16492D01*
X295855Y16603D01*
X295837Y16713D01*
X295817Y16823D01*
X295792Y16932D01*
X295764Y17040D01*
X295732Y17147D01*
X295696Y17253D01*
X295657Y17358D01*
X295614Y17461D01*
X295568Y17563D01*
X295518Y17663D01*
X295465Y17762D01*
X295408Y17858D01*
X295349Y17953D01*
X295286Y18045D01*
X295220Y18135D01*
X295151Y18223D01*
X295079Y18309D01*
X295004Y18392D01*
X294926Y18472D01*
X294846Y18550D01*
X294763Y18625D01*
X294677Y18697D01*
X294589Y18766D01*
X294499Y18832D01*
X294407Y18895D01*
X294312Y18954D01*
X294216Y19011D01*
X294117Y19064D01*
X294017Y19114D01*
X293915Y19160D01*
X293812Y19203D01*
X293707Y19242D01*
X293601Y19278D01*
X293494Y19310D01*
X293386Y19338D01*
X293277Y19363D01*
X293167Y19383D01*
X293057Y19401D01*
X292946Y19414D01*
X292834Y19423D01*
X292723Y19429D01*
X292611Y19431D01*
X323469Y19431D02*
X323469Y12065D01*
X323469Y19431D02*
X321423Y19431D01*
X321334Y19429D01*
X321245Y19423D01*
X321156Y19413D01*
X321068Y19400D01*
X320980Y19383D01*
X320893Y19361D01*
X320808Y19336D01*
X320723Y19308D01*
X320640Y19275D01*
X320558Y19239D01*
X320478Y19200D01*
X320400Y19157D01*
X320324Y19111D01*
X320249Y19061D01*
X320177Y19008D01*
X320108Y18952D01*
X320041Y18893D01*
X319976Y18832D01*
X319915Y18767D01*
X319856Y18700D01*
X319800Y18631D01*
X319747Y18559D01*
X319697Y18484D01*
X319651Y18408D01*
X319608Y18330D01*
X319569Y18250D01*
X319533Y18168D01*
X319500Y18085D01*
X319472Y18000D01*
X319447Y17915D01*
X319425Y17828D01*
X319408Y17740D01*
X319395Y17652D01*
X319385Y17563D01*
X319379Y17474D01*
X319377Y17385D01*
X319379Y17296D01*
X319385Y17207D01*
X319395Y17118D01*
X319408Y17030D01*
X319425Y16942D01*
X319447Y16855D01*
X319472Y16770D01*
X319500Y16685D01*
X319533Y16602D01*
X319569Y16520D01*
X319608Y16440D01*
X319651Y16362D01*
X319697Y16286D01*
X319747Y16211D01*
X319800Y16139D01*
X319856Y16070D01*
X319915Y16003D01*
X319976Y15938D01*
X320041Y15877D01*
X320108Y15818D01*
X320177Y15762D01*
X320249Y15709D01*
X320324Y15659D01*
X320400Y15613D01*
X320478Y15570D01*
X320558Y15531D01*
X320640Y15495D01*
X320723Y15462D01*
X320808Y15434D01*
X320893Y15409D01*
X320980Y15387D01*
X321068Y15370D01*
X321156Y15357D01*
X321245Y15347D01*
X321334Y15341D01*
X321423Y15339D01*
X323469Y15339D01*
X321014Y15339D02*
X319377Y12065D01*
X316205Y18613D02*
X316205Y19431D01*
X312113Y19431D01*
X314159Y12065D01*
X347599Y12065D02*
X347599Y19431D01*
X345553Y19431D01*
X345464Y19429D01*
X345375Y19423D01*
X345286Y19413D01*
X345198Y19400D01*
X345110Y19383D01*
X345023Y19361D01*
X344938Y19336D01*
X344853Y19308D01*
X344770Y19275D01*
X344688Y19239D01*
X344608Y19200D01*
X344530Y19157D01*
X344454Y19111D01*
X344379Y19061D01*
X344307Y19008D01*
X344238Y18952D01*
X344171Y18893D01*
X344106Y18832D01*
X344045Y18767D01*
X343986Y18700D01*
X343930Y18631D01*
X343877Y18559D01*
X343827Y18484D01*
X343781Y18408D01*
X343738Y18330D01*
X343699Y18250D01*
X343663Y18168D01*
X343630Y18085D01*
X343602Y18000D01*
X343577Y17915D01*
X343555Y17828D01*
X343538Y17740D01*
X343525Y17652D01*
X343515Y17563D01*
X343509Y17474D01*
X343507Y17385D01*
X343509Y17296D01*
X343515Y17207D01*
X343525Y17118D01*
X343538Y17030D01*
X343555Y16942D01*
X343577Y16855D01*
X343602Y16770D01*
X343630Y16685D01*
X343663Y16602D01*
X343699Y16520D01*
X343738Y16440D01*
X343781Y16362D01*
X343827Y16286D01*
X343877Y16211D01*
X343930Y16139D01*
X343986Y16070D01*
X344045Y16003D01*
X344106Y15938D01*
X344171Y15877D01*
X344238Y15818D01*
X344307Y15762D01*
X344379Y15709D01*
X344454Y15659D01*
X344530Y15613D01*
X344608Y15570D01*
X344688Y15531D01*
X344770Y15495D01*
X344853Y15462D01*
X344938Y15434D01*
X345023Y15409D01*
X345110Y15387D01*
X345198Y15370D01*
X345286Y15357D01*
X345375Y15347D01*
X345464Y15341D01*
X345553Y15339D01*
X347599Y15339D01*
X345144Y15339D02*
X343507Y12065D01*
X340335Y14111D02*
X340333Y14200D01*
X340327Y14289D01*
X340317Y14378D01*
X340304Y14466D01*
X340287Y14554D01*
X340265Y14641D01*
X340240Y14726D01*
X340212Y14811D01*
X340179Y14894D01*
X340143Y14976D01*
X340104Y15056D01*
X340061Y15134D01*
X340015Y15210D01*
X339965Y15285D01*
X339912Y15357D01*
X339856Y15426D01*
X339797Y15493D01*
X339736Y15558D01*
X339671Y15619D01*
X339604Y15678D01*
X339535Y15734D01*
X339463Y15787D01*
X339388Y15837D01*
X339312Y15883D01*
X339234Y15926D01*
X339154Y15965D01*
X339072Y16001D01*
X338989Y16034D01*
X338904Y16062D01*
X338819Y16087D01*
X338732Y16109D01*
X338644Y16126D01*
X338556Y16139D01*
X338467Y16149D01*
X338378Y16155D01*
X338289Y16157D01*
X338200Y16155D01*
X338111Y16149D01*
X338022Y16139D01*
X337934Y16126D01*
X337846Y16109D01*
X337759Y16087D01*
X337674Y16062D01*
X337589Y16034D01*
X337506Y16001D01*
X337424Y15965D01*
X337344Y15926D01*
X337266Y15883D01*
X337190Y15837D01*
X337115Y15787D01*
X337043Y15734D01*
X336974Y15678D01*
X336907Y15619D01*
X336842Y15558D01*
X336781Y15493D01*
X336722Y15426D01*
X336666Y15357D01*
X336613Y15285D01*
X336563Y15210D01*
X336517Y15134D01*
X336474Y15056D01*
X336435Y14976D01*
X336399Y14894D01*
X336366Y14811D01*
X336338Y14726D01*
X336313Y14641D01*
X336291Y14554D01*
X336274Y14466D01*
X336261Y14378D01*
X336251Y14289D01*
X336245Y14200D01*
X336243Y14111D01*
X336245Y14022D01*
X336251Y13933D01*
X336261Y13844D01*
X336274Y13756D01*
X336291Y13668D01*
X336313Y13581D01*
X336338Y13496D01*
X336366Y13411D01*
X336399Y13328D01*
X336435Y13246D01*
X336474Y13166D01*
X336517Y13088D01*
X336563Y13012D01*
X336613Y12937D01*
X336666Y12865D01*
X336722Y12796D01*
X336781Y12729D01*
X336842Y12664D01*
X336907Y12603D01*
X336974Y12544D01*
X337043Y12488D01*
X337115Y12435D01*
X337190Y12385D01*
X337266Y12339D01*
X337344Y12296D01*
X337424Y12257D01*
X337506Y12221D01*
X337589Y12188D01*
X337674Y12160D01*
X337759Y12135D01*
X337846Y12113D01*
X337934Y12096D01*
X338022Y12083D01*
X338111Y12073D01*
X338200Y12067D01*
X338289Y12065D01*
X338378Y12067D01*
X338467Y12073D01*
X338556Y12083D01*
X338644Y12096D01*
X338732Y12113D01*
X338819Y12135D01*
X338904Y12160D01*
X338989Y12188D01*
X339072Y12221D01*
X339154Y12257D01*
X339234Y12296D01*
X339312Y12339D01*
X339388Y12385D01*
X339463Y12435D01*
X339535Y12488D01*
X339604Y12544D01*
X339671Y12603D01*
X339736Y12664D01*
X339797Y12729D01*
X339856Y12796D01*
X339912Y12865D01*
X339965Y12937D01*
X340015Y13012D01*
X340061Y13088D01*
X340104Y13166D01*
X340143Y13246D01*
X340179Y13328D01*
X340212Y13411D01*
X340240Y13496D01*
X340265Y13581D01*
X340287Y13668D01*
X340304Y13756D01*
X340317Y13844D01*
X340327Y13933D01*
X340333Y14022D01*
X340335Y14111D01*
X339926Y17794D02*
X339924Y17873D01*
X339918Y17952D01*
X339909Y18031D01*
X339896Y18109D01*
X339878Y18186D01*
X339858Y18262D01*
X339833Y18337D01*
X339805Y18411D01*
X339774Y18484D01*
X339738Y18555D01*
X339700Y18624D01*
X339658Y18691D01*
X339613Y18756D01*
X339565Y18819D01*
X339514Y18880D01*
X339460Y18937D01*
X339404Y18993D01*
X339345Y19045D01*
X339283Y19095D01*
X339219Y19141D01*
X339153Y19185D01*
X339085Y19225D01*
X339015Y19261D01*
X338943Y19295D01*
X338869Y19325D01*
X338795Y19351D01*
X338719Y19374D01*
X338642Y19392D01*
X338565Y19408D01*
X338486Y19419D01*
X338408Y19427D01*
X338329Y19431D01*
X338249Y19431D01*
X338170Y19427D01*
X338092Y19419D01*
X338013Y19408D01*
X337936Y19392D01*
X337859Y19374D01*
X337783Y19351D01*
X337709Y19325D01*
X337635Y19295D01*
X337563Y19261D01*
X337493Y19225D01*
X337425Y19185D01*
X337359Y19141D01*
X337295Y19095D01*
X337233Y19045D01*
X337174Y18993D01*
X337118Y18937D01*
X337064Y18880D01*
X337013Y18819D01*
X336965Y18756D01*
X336920Y18691D01*
X336878Y18624D01*
X336840Y18555D01*
X336804Y18484D01*
X336773Y18411D01*
X336745Y18337D01*
X336720Y18262D01*
X336700Y18186D01*
X336682Y18109D01*
X336669Y18031D01*
X336660Y17952D01*
X336654Y17873D01*
X336652Y17794D01*
X336654Y17715D01*
X336660Y17636D01*
X336669Y17557D01*
X336682Y17479D01*
X336700Y17402D01*
X336720Y17326D01*
X336745Y17251D01*
X336773Y17177D01*
X336804Y17104D01*
X336840Y17033D01*
X336878Y16964D01*
X336920Y16897D01*
X336965Y16832D01*
X337013Y16769D01*
X337064Y16708D01*
X337118Y16651D01*
X337174Y16595D01*
X337233Y16543D01*
X337295Y16493D01*
X337359Y16447D01*
X337425Y16403D01*
X337493Y16363D01*
X337563Y16327D01*
X337635Y16293D01*
X337709Y16263D01*
X337783Y16237D01*
X337859Y16214D01*
X337936Y16196D01*
X338013Y16180D01*
X338092Y16169D01*
X338170Y16161D01*
X338249Y16157D01*
X338329Y16157D01*
X338408Y16161D01*
X338486Y16169D01*
X338565Y16180D01*
X338642Y16196D01*
X338719Y16214D01*
X338795Y16237D01*
X338869Y16263D01*
X338943Y16293D01*
X339015Y16327D01*
X339085Y16363D01*
X339153Y16403D01*
X339219Y16447D01*
X339283Y16493D01*
X339345Y16543D01*
X339404Y16595D01*
X339460Y16651D01*
X339514Y16708D01*
X339565Y16769D01*
X339613Y16832D01*
X339658Y16897D01*
X339700Y16964D01*
X339738Y17033D01*
X339774Y17104D01*
X339805Y17177D01*
X339833Y17251D01*
X339858Y17326D01*
X339878Y17402D01*
X339896Y17479D01*
X339909Y17557D01*
X339918Y17636D01*
X339924Y17715D01*
X339926Y17794D01*
X228219Y20701D02*
X228219Y13335D01*
X228219Y20701D02*
X226173Y20701D01*
X226084Y20699D01*
X225995Y20693D01*
X225906Y20683D01*
X225818Y20670D01*
X225730Y20653D01*
X225643Y20631D01*
X225558Y20606D01*
X225473Y20578D01*
X225390Y20545D01*
X225308Y20509D01*
X225228Y20470D01*
X225150Y20427D01*
X225074Y20381D01*
X224999Y20331D01*
X224927Y20278D01*
X224858Y20222D01*
X224791Y20163D01*
X224726Y20102D01*
X224665Y20037D01*
X224606Y19970D01*
X224550Y19901D01*
X224497Y19829D01*
X224447Y19754D01*
X224401Y19678D01*
X224358Y19600D01*
X224319Y19520D01*
X224283Y19438D01*
X224250Y19355D01*
X224222Y19270D01*
X224197Y19185D01*
X224175Y19098D01*
X224158Y19010D01*
X224145Y18922D01*
X224135Y18833D01*
X224129Y18744D01*
X224127Y18655D01*
X224129Y18566D01*
X224135Y18477D01*
X224145Y18388D01*
X224158Y18300D01*
X224175Y18212D01*
X224197Y18125D01*
X224222Y18040D01*
X224250Y17955D01*
X224283Y17872D01*
X224319Y17790D01*
X224358Y17710D01*
X224401Y17632D01*
X224447Y17556D01*
X224497Y17481D01*
X224550Y17409D01*
X224606Y17340D01*
X224665Y17273D01*
X224726Y17208D01*
X224791Y17147D01*
X224858Y17088D01*
X224927Y17032D01*
X224999Y16979D01*
X225074Y16929D01*
X225150Y16883D01*
X225228Y16840D01*
X225308Y16801D01*
X225390Y16765D01*
X225473Y16732D01*
X225558Y16704D01*
X225643Y16679D01*
X225730Y16657D01*
X225818Y16640D01*
X225906Y16627D01*
X225995Y16617D01*
X226084Y16611D01*
X226173Y16609D01*
X228219Y16609D01*
X225764Y16609D02*
X224127Y13335D01*
X219318Y16609D02*
X216863Y16609D01*
X219318Y16609D02*
X219396Y16611D01*
X219474Y16616D01*
X219551Y16626D01*
X219628Y16639D01*
X219704Y16655D01*
X219779Y16675D01*
X219853Y16699D01*
X219926Y16726D01*
X219998Y16757D01*
X220068Y16791D01*
X220137Y16828D01*
X220203Y16869D01*
X220268Y16913D01*
X220330Y16959D01*
X220390Y17009D01*
X220448Y17061D01*
X220503Y17116D01*
X220555Y17174D01*
X220605Y17234D01*
X220651Y17296D01*
X220695Y17361D01*
X220736Y17428D01*
X220773Y17496D01*
X220807Y17566D01*
X220838Y17638D01*
X220865Y17711D01*
X220889Y17785D01*
X220909Y17860D01*
X220925Y17936D01*
X220938Y18013D01*
X220948Y18090D01*
X220953Y18168D01*
X220955Y18246D01*
X220955Y18655D01*
X220953Y18744D01*
X220947Y18833D01*
X220937Y18922D01*
X220924Y19010D01*
X220907Y19098D01*
X220885Y19185D01*
X220860Y19270D01*
X220832Y19355D01*
X220799Y19438D01*
X220763Y19520D01*
X220724Y19600D01*
X220681Y19678D01*
X220635Y19754D01*
X220585Y19829D01*
X220532Y19901D01*
X220476Y19970D01*
X220417Y20037D01*
X220356Y20102D01*
X220291Y20163D01*
X220224Y20222D01*
X220155Y20278D01*
X220083Y20331D01*
X220008Y20381D01*
X219932Y20427D01*
X219854Y20470D01*
X219774Y20509D01*
X219692Y20545D01*
X219609Y20578D01*
X219524Y20606D01*
X219439Y20631D01*
X219352Y20653D01*
X219264Y20670D01*
X219176Y20683D01*
X219087Y20693D01*
X218998Y20699D01*
X218909Y20701D01*
X218820Y20699D01*
X218731Y20693D01*
X218642Y20683D01*
X218554Y20670D01*
X218466Y20653D01*
X218379Y20631D01*
X218294Y20606D01*
X218209Y20578D01*
X218126Y20545D01*
X218044Y20509D01*
X217964Y20470D01*
X217886Y20427D01*
X217810Y20381D01*
X217735Y20331D01*
X217663Y20278D01*
X217594Y20222D01*
X217527Y20163D01*
X217462Y20102D01*
X217401Y20037D01*
X217342Y19970D01*
X217286Y19901D01*
X217233Y19829D01*
X217183Y19754D01*
X217137Y19678D01*
X217094Y19600D01*
X217055Y19520D01*
X217019Y19438D01*
X216986Y19355D01*
X216958Y19270D01*
X216933Y19185D01*
X216911Y19098D01*
X216894Y19010D01*
X216881Y18922D01*
X216871Y18833D01*
X216865Y18744D01*
X216863Y18655D01*
X216863Y16609D01*
X216865Y16497D01*
X216871Y16386D01*
X216880Y16274D01*
X216893Y16163D01*
X216911Y16053D01*
X216931Y15943D01*
X216956Y15834D01*
X216984Y15726D01*
X217016Y15619D01*
X217052Y15513D01*
X217091Y15408D01*
X217134Y15305D01*
X217180Y15203D01*
X217230Y15103D01*
X217283Y15004D01*
X217340Y14908D01*
X217399Y14813D01*
X217462Y14721D01*
X217528Y14631D01*
X217597Y14543D01*
X217669Y14457D01*
X217744Y14374D01*
X217822Y14294D01*
X217902Y14216D01*
X217985Y14141D01*
X218071Y14069D01*
X218159Y14000D01*
X218249Y13934D01*
X218341Y13871D01*
X218436Y13812D01*
X218532Y13755D01*
X218631Y13702D01*
X218731Y13652D01*
X218833Y13606D01*
X218936Y13563D01*
X219041Y13524D01*
X219147Y13488D01*
X219254Y13456D01*
X219362Y13428D01*
X219471Y13403D01*
X219581Y13383D01*
X219691Y13365D01*
X219802Y13352D01*
X219914Y13343D01*
X220025Y13337D01*
X220137Y13335D01*
X202819Y13335D02*
X202819Y20701D01*
X200773Y20701D01*
X200684Y20699D01*
X200595Y20693D01*
X200506Y20683D01*
X200418Y20670D01*
X200330Y20653D01*
X200243Y20631D01*
X200158Y20606D01*
X200073Y20578D01*
X199990Y20545D01*
X199908Y20509D01*
X199828Y20470D01*
X199750Y20427D01*
X199674Y20381D01*
X199599Y20331D01*
X199527Y20278D01*
X199458Y20222D01*
X199391Y20163D01*
X199326Y20102D01*
X199265Y20037D01*
X199206Y19970D01*
X199150Y19901D01*
X199097Y19829D01*
X199047Y19754D01*
X199001Y19678D01*
X198958Y19600D01*
X198919Y19520D01*
X198883Y19438D01*
X198850Y19355D01*
X198822Y19270D01*
X198797Y19185D01*
X198775Y19098D01*
X198758Y19010D01*
X198745Y18922D01*
X198735Y18833D01*
X198729Y18744D01*
X198727Y18655D01*
X198729Y18566D01*
X198735Y18477D01*
X198745Y18388D01*
X198758Y18300D01*
X198775Y18212D01*
X198797Y18125D01*
X198822Y18040D01*
X198850Y17955D01*
X198883Y17872D01*
X198919Y17790D01*
X198958Y17710D01*
X199001Y17632D01*
X199047Y17556D01*
X199097Y17481D01*
X199150Y17409D01*
X199206Y17340D01*
X199265Y17273D01*
X199326Y17208D01*
X199391Y17147D01*
X199458Y17088D01*
X199527Y17032D01*
X199599Y16979D01*
X199674Y16929D01*
X199750Y16883D01*
X199828Y16840D01*
X199908Y16801D01*
X199990Y16765D01*
X200073Y16732D01*
X200158Y16704D01*
X200243Y16679D01*
X200330Y16657D01*
X200418Y16640D01*
X200506Y16627D01*
X200595Y16617D01*
X200684Y16611D01*
X200773Y16609D01*
X202819Y16609D01*
X200364Y16609D02*
X198727Y13335D01*
X195555Y19064D02*
X193509Y20701D01*
X193509Y13335D01*
X195555Y13335D02*
X191463Y13335D01*
X188239Y17018D02*
X188237Y17171D01*
X188231Y17324D01*
X188222Y17476D01*
X188208Y17629D01*
X188191Y17781D01*
X188170Y17932D01*
X188145Y18083D01*
X188116Y18233D01*
X188084Y18383D01*
X188047Y18531D01*
X188007Y18679D01*
X187964Y18826D01*
X187916Y18971D01*
X187865Y19115D01*
X187811Y19258D01*
X187752Y19400D01*
X187691Y19539D01*
X187625Y19678D01*
X187626Y19678D02*
X187600Y19748D01*
X187570Y19817D01*
X187538Y19885D01*
X187501Y19951D01*
X187462Y20015D01*
X187419Y20077D01*
X187374Y20136D01*
X187325Y20194D01*
X187274Y20248D01*
X187220Y20301D01*
X187163Y20350D01*
X187104Y20397D01*
X187043Y20440D01*
X186980Y20481D01*
X186915Y20518D01*
X186848Y20553D01*
X186779Y20583D01*
X186709Y20611D01*
X186638Y20634D01*
X186566Y20655D01*
X186493Y20671D01*
X186419Y20684D01*
X186344Y20694D01*
X186269Y20699D01*
X186194Y20701D01*
X186119Y20699D01*
X186044Y20694D01*
X185969Y20684D01*
X185895Y20671D01*
X185822Y20655D01*
X185750Y20634D01*
X185679Y20611D01*
X185609Y20583D01*
X185540Y20553D01*
X185473Y20518D01*
X185408Y20481D01*
X185345Y20440D01*
X185284Y20397D01*
X185225Y20350D01*
X185168Y20301D01*
X185114Y20248D01*
X185063Y20194D01*
X185015Y20136D01*
X184969Y20077D01*
X184926Y20015D01*
X184887Y19951D01*
X184851Y19885D01*
X184818Y19818D01*
X184788Y19748D01*
X184762Y19678D01*
X184697Y19540D01*
X184635Y19400D01*
X184577Y19258D01*
X184522Y19115D01*
X184471Y18971D01*
X184423Y18826D01*
X184380Y18679D01*
X184340Y18532D01*
X184303Y18383D01*
X184271Y18233D01*
X184242Y18083D01*
X184217Y17932D01*
X184196Y17781D01*
X184179Y17629D01*
X184165Y17476D01*
X184156Y17324D01*
X184150Y17171D01*
X184148Y17018D01*
X188240Y17018D02*
X188238Y16865D01*
X188232Y16712D01*
X188223Y16559D01*
X188209Y16407D01*
X188192Y16255D01*
X188171Y16104D01*
X188146Y15953D01*
X188117Y15802D01*
X188085Y15653D01*
X188048Y15504D01*
X188008Y15357D01*
X187965Y15210D01*
X187917Y15065D01*
X187866Y14920D01*
X187811Y14778D01*
X187753Y14636D01*
X187691Y14496D01*
X187626Y14358D01*
X187600Y14288D01*
X187570Y14218D01*
X187538Y14151D01*
X187501Y14085D01*
X187462Y14021D01*
X187419Y13959D01*
X187373Y13900D01*
X187325Y13842D01*
X187274Y13788D01*
X187220Y13735D01*
X187163Y13686D01*
X187104Y13639D01*
X187043Y13596D01*
X186980Y13555D01*
X186915Y13518D01*
X186848Y13483D01*
X186779Y13453D01*
X186709Y13425D01*
X186638Y13402D01*
X186566Y13381D01*
X186493Y13365D01*
X186419Y13352D01*
X186344Y13342D01*
X186269Y13337D01*
X186194Y13335D01*
X184762Y14358D02*
X184697Y14496D01*
X184635Y14636D01*
X184577Y14778D01*
X184522Y14921D01*
X184471Y15065D01*
X184423Y15210D01*
X184380Y15357D01*
X184340Y15505D01*
X184303Y15653D01*
X184271Y15803D01*
X184242Y15953D01*
X184217Y16104D01*
X184196Y16255D01*
X184179Y16407D01*
X184165Y16560D01*
X184156Y16712D01*
X184150Y16865D01*
X184148Y17018D01*
X184762Y14358D02*
X184788Y14287D01*
X184818Y14218D01*
X184851Y14151D01*
X184887Y14085D01*
X184926Y14021D01*
X184969Y13959D01*
X185015Y13900D01*
X185063Y13842D01*
X185114Y13788D01*
X185168Y13735D01*
X185225Y13686D01*
X185284Y13639D01*
X185345Y13596D01*
X185408Y13555D01*
X185473Y13518D01*
X185540Y13483D01*
X185609Y13453D01*
X185679Y13425D01*
X185750Y13402D01*
X185822Y13381D01*
X185895Y13365D01*
X185969Y13352D01*
X186044Y13342D01*
X186119Y13337D01*
X186194Y13335D01*
X187831Y14972D02*
X184557Y19064D01*
X177419Y20701D02*
X177419Y13335D01*
X177419Y20701D02*
X175373Y20701D01*
X175284Y20699D01*
X175195Y20693D01*
X175106Y20683D01*
X175018Y20670D01*
X174930Y20653D01*
X174843Y20631D01*
X174758Y20606D01*
X174673Y20578D01*
X174590Y20545D01*
X174508Y20509D01*
X174428Y20470D01*
X174350Y20427D01*
X174274Y20381D01*
X174199Y20331D01*
X174127Y20278D01*
X174058Y20222D01*
X173991Y20163D01*
X173926Y20102D01*
X173865Y20037D01*
X173806Y19970D01*
X173750Y19901D01*
X173697Y19829D01*
X173647Y19754D01*
X173601Y19678D01*
X173558Y19600D01*
X173519Y19520D01*
X173483Y19438D01*
X173450Y19355D01*
X173422Y19270D01*
X173397Y19185D01*
X173375Y19098D01*
X173358Y19010D01*
X173345Y18922D01*
X173335Y18833D01*
X173329Y18744D01*
X173327Y18655D01*
X173329Y18566D01*
X173335Y18477D01*
X173345Y18388D01*
X173358Y18300D01*
X173375Y18212D01*
X173397Y18125D01*
X173422Y18040D01*
X173450Y17955D01*
X173483Y17872D01*
X173519Y17790D01*
X173558Y17710D01*
X173601Y17632D01*
X173647Y17556D01*
X173697Y17481D01*
X173750Y17409D01*
X173806Y17340D01*
X173865Y17273D01*
X173926Y17208D01*
X173991Y17147D01*
X174058Y17088D01*
X174127Y17032D01*
X174199Y16979D01*
X174274Y16929D01*
X174350Y16883D01*
X174428Y16840D01*
X174508Y16801D01*
X174590Y16765D01*
X174673Y16732D01*
X174758Y16704D01*
X174843Y16679D01*
X174930Y16657D01*
X175018Y16640D01*
X175106Y16627D01*
X175195Y16617D01*
X175284Y16611D01*
X175373Y16609D01*
X177419Y16609D01*
X174964Y16609D02*
X173327Y13335D01*
X170155Y19064D02*
X168109Y20701D01*
X168109Y13335D01*
X170155Y13335D02*
X166063Y13335D01*
X162840Y19064D02*
X160794Y20701D01*
X160794Y13335D01*
X162840Y13335D02*
X158748Y13335D01*
X152019Y13335D02*
X152019Y20701D01*
X149973Y20701D01*
X149884Y20699D01*
X149795Y20693D01*
X149706Y20683D01*
X149618Y20670D01*
X149530Y20653D01*
X149443Y20631D01*
X149358Y20606D01*
X149273Y20578D01*
X149190Y20545D01*
X149108Y20509D01*
X149028Y20470D01*
X148950Y20427D01*
X148874Y20381D01*
X148799Y20331D01*
X148727Y20278D01*
X148658Y20222D01*
X148591Y20163D01*
X148526Y20102D01*
X148465Y20037D01*
X148406Y19970D01*
X148350Y19901D01*
X148297Y19829D01*
X148247Y19754D01*
X148201Y19678D01*
X148158Y19600D01*
X148119Y19520D01*
X148083Y19438D01*
X148050Y19355D01*
X148022Y19270D01*
X147997Y19185D01*
X147975Y19098D01*
X147958Y19010D01*
X147945Y18922D01*
X147935Y18833D01*
X147929Y18744D01*
X147927Y18655D01*
X147929Y18566D01*
X147935Y18477D01*
X147945Y18388D01*
X147958Y18300D01*
X147975Y18212D01*
X147997Y18125D01*
X148022Y18040D01*
X148050Y17955D01*
X148083Y17872D01*
X148119Y17790D01*
X148158Y17710D01*
X148201Y17632D01*
X148247Y17556D01*
X148297Y17481D01*
X148350Y17409D01*
X148406Y17340D01*
X148465Y17273D01*
X148526Y17208D01*
X148591Y17147D01*
X148658Y17088D01*
X148727Y17032D01*
X148799Y16979D01*
X148874Y16929D01*
X148950Y16883D01*
X149028Y16840D01*
X149108Y16801D01*
X149190Y16765D01*
X149273Y16732D01*
X149358Y16704D01*
X149443Y16679D01*
X149530Y16657D01*
X149618Y16640D01*
X149706Y16627D01*
X149795Y16617D01*
X149884Y16611D01*
X149973Y16609D01*
X152019Y16609D01*
X149564Y16609D02*
X147927Y13335D01*
X144755Y19064D02*
X142709Y20701D01*
X142709Y13335D01*
X144755Y13335D02*
X140663Y13335D01*
X133347Y18860D02*
X133349Y18945D01*
X133355Y19030D01*
X133365Y19114D01*
X133378Y19198D01*
X133396Y19282D01*
X133417Y19364D01*
X133442Y19445D01*
X133471Y19525D01*
X133504Y19604D01*
X133540Y19681D01*
X133580Y19756D01*
X133623Y19830D01*
X133669Y19901D01*
X133719Y19970D01*
X133772Y20037D01*
X133828Y20101D01*
X133887Y20162D01*
X133948Y20221D01*
X134012Y20277D01*
X134079Y20330D01*
X134148Y20380D01*
X134219Y20426D01*
X134293Y20469D01*
X134368Y20509D01*
X134445Y20545D01*
X134524Y20578D01*
X134604Y20607D01*
X134685Y20632D01*
X134767Y20653D01*
X134851Y20671D01*
X134935Y20684D01*
X135019Y20694D01*
X135104Y20700D01*
X135189Y20702D01*
X135189Y20701D02*
X135285Y20699D01*
X135381Y20693D01*
X135476Y20683D01*
X135571Y20670D01*
X135666Y20652D01*
X135759Y20631D01*
X135852Y20606D01*
X135943Y20577D01*
X136034Y20545D01*
X136123Y20509D01*
X136210Y20469D01*
X136296Y20426D01*
X136380Y20380D01*
X136462Y20330D01*
X136542Y20276D01*
X136619Y20220D01*
X136694Y20160D01*
X136767Y20098D01*
X136837Y20032D01*
X136905Y19964D01*
X136970Y19893D01*
X137031Y19820D01*
X137090Y19744D01*
X137146Y19665D01*
X137198Y19585D01*
X137247Y19502D01*
X137293Y19418D01*
X137335Y19332D01*
X137373Y19244D01*
X137408Y19155D01*
X137440Y19064D01*
X133961Y17428D02*
X133901Y17487D01*
X133844Y17549D01*
X133789Y17613D01*
X133738Y17680D01*
X133689Y17749D01*
X133643Y17819D01*
X133600Y17892D01*
X133560Y17966D01*
X133524Y18042D01*
X133491Y18120D01*
X133461Y18199D01*
X133434Y18279D01*
X133411Y18360D01*
X133392Y18442D01*
X133376Y18524D01*
X133363Y18608D01*
X133354Y18692D01*
X133349Y18776D01*
X133347Y18860D01*
X133961Y17427D02*
X137440Y13335D01*
X133348Y13335D01*
X403479Y387731D02*
X403479Y395097D01*
X401433Y395097D01*
X401344Y395095D01*
X401255Y395089D01*
X401166Y395079D01*
X401078Y395066D01*
X400990Y395049D01*
X400903Y395027D01*
X400818Y395002D01*
X400733Y394974D01*
X400650Y394941D01*
X400568Y394905D01*
X400488Y394866D01*
X400410Y394823D01*
X400334Y394777D01*
X400259Y394727D01*
X400187Y394674D01*
X400118Y394618D01*
X400051Y394559D01*
X399986Y394498D01*
X399925Y394433D01*
X399866Y394366D01*
X399810Y394297D01*
X399757Y394225D01*
X399707Y394150D01*
X399661Y394074D01*
X399618Y393996D01*
X399579Y393916D01*
X399543Y393834D01*
X399510Y393751D01*
X399482Y393666D01*
X399457Y393581D01*
X399435Y393494D01*
X399418Y393406D01*
X399405Y393318D01*
X399395Y393229D01*
X399389Y393140D01*
X399387Y393051D01*
X399389Y392962D01*
X399395Y392873D01*
X399405Y392784D01*
X399418Y392696D01*
X399435Y392608D01*
X399457Y392521D01*
X399482Y392436D01*
X399510Y392351D01*
X399543Y392268D01*
X399579Y392186D01*
X399618Y392106D01*
X399661Y392028D01*
X399707Y391952D01*
X399757Y391877D01*
X399810Y391805D01*
X399866Y391736D01*
X399925Y391669D01*
X399986Y391604D01*
X400051Y391543D01*
X400118Y391484D01*
X400187Y391428D01*
X400259Y391375D01*
X400334Y391325D01*
X400410Y391279D01*
X400488Y391236D01*
X400568Y391197D01*
X400650Y391161D01*
X400733Y391128D01*
X400818Y391100D01*
X400903Y391075D01*
X400990Y391053D01*
X401078Y391036D01*
X401166Y391023D01*
X401255Y391013D01*
X401344Y391007D01*
X401433Y391005D01*
X403479Y391005D01*
X401024Y391005D02*
X399387Y387731D01*
X396215Y393460D02*
X394169Y395097D01*
X394169Y387731D01*
X396215Y387731D02*
X392123Y387731D01*
X388900Y387731D02*
X386854Y387731D01*
X386765Y387733D01*
X386676Y387739D01*
X386587Y387749D01*
X386499Y387762D01*
X386411Y387779D01*
X386324Y387801D01*
X386239Y387826D01*
X386154Y387854D01*
X386071Y387887D01*
X385989Y387923D01*
X385909Y387962D01*
X385831Y388005D01*
X385755Y388051D01*
X385680Y388101D01*
X385608Y388154D01*
X385539Y388210D01*
X385472Y388269D01*
X385407Y388330D01*
X385346Y388395D01*
X385287Y388462D01*
X385231Y388531D01*
X385178Y388603D01*
X385128Y388678D01*
X385082Y388754D01*
X385039Y388832D01*
X385000Y388912D01*
X384964Y388994D01*
X384931Y389077D01*
X384903Y389162D01*
X384878Y389247D01*
X384856Y389334D01*
X384839Y389422D01*
X384826Y389510D01*
X384816Y389599D01*
X384810Y389688D01*
X384808Y389777D01*
X384810Y389866D01*
X384816Y389955D01*
X384826Y390044D01*
X384839Y390132D01*
X384856Y390220D01*
X384878Y390307D01*
X384903Y390392D01*
X384931Y390477D01*
X384964Y390560D01*
X385000Y390642D01*
X385039Y390722D01*
X385082Y390800D01*
X385128Y390876D01*
X385178Y390951D01*
X385231Y391023D01*
X385287Y391092D01*
X385346Y391159D01*
X385407Y391224D01*
X385472Y391285D01*
X385539Y391344D01*
X385608Y391400D01*
X385680Y391453D01*
X385755Y391503D01*
X385831Y391549D01*
X385909Y391592D01*
X385989Y391631D01*
X386071Y391667D01*
X386154Y391700D01*
X386239Y391728D01*
X386324Y391753D01*
X386411Y391775D01*
X386499Y391792D01*
X386587Y391805D01*
X386676Y391815D01*
X386765Y391821D01*
X386854Y391823D01*
X386444Y395097D02*
X388900Y395097D01*
X386444Y395097D02*
X386365Y395095D01*
X386286Y395089D01*
X386207Y395080D01*
X386129Y395067D01*
X386052Y395049D01*
X385976Y395029D01*
X385901Y395004D01*
X385827Y394976D01*
X385754Y394945D01*
X385683Y394909D01*
X385614Y394871D01*
X385547Y394829D01*
X385482Y394784D01*
X385419Y394736D01*
X385358Y394685D01*
X385301Y394631D01*
X385245Y394575D01*
X385193Y394516D01*
X385143Y394454D01*
X385097Y394390D01*
X385053Y394324D01*
X385013Y394256D01*
X384977Y394186D01*
X384943Y394114D01*
X384913Y394040D01*
X384887Y393966D01*
X384864Y393890D01*
X384846Y393813D01*
X384830Y393736D01*
X384819Y393657D01*
X384811Y393579D01*
X384807Y393500D01*
X384807Y393420D01*
X384811Y393341D01*
X384819Y393263D01*
X384830Y393184D01*
X384846Y393107D01*
X384864Y393030D01*
X384887Y392954D01*
X384913Y392880D01*
X384943Y392806D01*
X384977Y392734D01*
X385013Y392664D01*
X385053Y392596D01*
X385097Y392530D01*
X385143Y392466D01*
X385193Y392404D01*
X385245Y392345D01*
X385301Y392289D01*
X385358Y392235D01*
X385419Y392184D01*
X385482Y392136D01*
X385547Y392091D01*
X385614Y392049D01*
X385683Y392011D01*
X385754Y391975D01*
X385827Y391944D01*
X385901Y391916D01*
X385976Y391891D01*
X386052Y391871D01*
X386129Y391853D01*
X386207Y391840D01*
X386286Y391831D01*
X386365Y391825D01*
X386444Y391823D01*
X388081Y391823D01*
X403479Y382397D02*
X403479Y375031D01*
X403479Y382397D02*
X401433Y382397D01*
X401344Y382395D01*
X401255Y382389D01*
X401166Y382379D01*
X401078Y382366D01*
X400990Y382349D01*
X400903Y382327D01*
X400818Y382302D01*
X400733Y382274D01*
X400650Y382241D01*
X400568Y382205D01*
X400488Y382166D01*
X400410Y382123D01*
X400334Y382077D01*
X400259Y382027D01*
X400187Y381974D01*
X400118Y381918D01*
X400051Y381859D01*
X399986Y381798D01*
X399925Y381733D01*
X399866Y381666D01*
X399810Y381597D01*
X399757Y381525D01*
X399707Y381450D01*
X399661Y381374D01*
X399618Y381296D01*
X399579Y381216D01*
X399543Y381134D01*
X399510Y381051D01*
X399482Y380966D01*
X399457Y380881D01*
X399435Y380794D01*
X399418Y380706D01*
X399405Y380618D01*
X399395Y380529D01*
X399389Y380440D01*
X399387Y380351D01*
X399389Y380262D01*
X399395Y380173D01*
X399405Y380084D01*
X399418Y379996D01*
X399435Y379908D01*
X399457Y379821D01*
X399482Y379736D01*
X399510Y379651D01*
X399543Y379568D01*
X399579Y379486D01*
X399618Y379406D01*
X399661Y379328D01*
X399707Y379252D01*
X399757Y379177D01*
X399810Y379105D01*
X399866Y379036D01*
X399925Y378969D01*
X399986Y378904D01*
X400051Y378843D01*
X400118Y378784D01*
X400187Y378728D01*
X400259Y378675D01*
X400334Y378625D01*
X400410Y378579D01*
X400488Y378536D01*
X400568Y378497D01*
X400650Y378461D01*
X400733Y378428D01*
X400818Y378400D01*
X400903Y378375D01*
X400990Y378353D01*
X401078Y378336D01*
X401166Y378323D01*
X401255Y378313D01*
X401344Y378307D01*
X401433Y378305D01*
X403479Y378305D01*
X401024Y378305D02*
X399387Y375031D01*
X396215Y380760D02*
X394169Y382397D01*
X394169Y375031D01*
X396215Y375031D02*
X392123Y375031D01*
X388900Y376668D02*
X387263Y382397D01*
X388900Y376668D02*
X384808Y376668D01*
X386035Y378305D02*
X386035Y375031D01*
X403479Y369697D02*
X403479Y362331D01*
X403479Y369697D02*
X401433Y369697D01*
X401344Y369695D01*
X401255Y369689D01*
X401166Y369679D01*
X401078Y369666D01*
X400990Y369649D01*
X400903Y369627D01*
X400818Y369602D01*
X400733Y369574D01*
X400650Y369541D01*
X400568Y369505D01*
X400488Y369466D01*
X400410Y369423D01*
X400334Y369377D01*
X400259Y369327D01*
X400187Y369274D01*
X400118Y369218D01*
X400051Y369159D01*
X399986Y369098D01*
X399925Y369033D01*
X399866Y368966D01*
X399810Y368897D01*
X399757Y368825D01*
X399707Y368750D01*
X399661Y368674D01*
X399618Y368596D01*
X399579Y368516D01*
X399543Y368434D01*
X399510Y368351D01*
X399482Y368266D01*
X399457Y368181D01*
X399435Y368094D01*
X399418Y368006D01*
X399405Y367918D01*
X399395Y367829D01*
X399389Y367740D01*
X399387Y367651D01*
X399389Y367562D01*
X399395Y367473D01*
X399405Y367384D01*
X399418Y367296D01*
X399435Y367208D01*
X399457Y367121D01*
X399482Y367036D01*
X399510Y366951D01*
X399543Y366868D01*
X399579Y366786D01*
X399618Y366706D01*
X399661Y366628D01*
X399707Y366552D01*
X399757Y366477D01*
X399810Y366405D01*
X399866Y366336D01*
X399925Y366269D01*
X399986Y366204D01*
X400051Y366143D01*
X400118Y366084D01*
X400187Y366028D01*
X400259Y365975D01*
X400334Y365925D01*
X400410Y365879D01*
X400488Y365836D01*
X400568Y365797D01*
X400650Y365761D01*
X400733Y365728D01*
X400818Y365700D01*
X400903Y365675D01*
X400990Y365653D01*
X401078Y365636D01*
X401166Y365623D01*
X401255Y365613D01*
X401344Y365607D01*
X401433Y365605D01*
X403479Y365605D01*
X401024Y365605D02*
X399387Y362331D01*
X396215Y368060D02*
X394169Y369697D01*
X394169Y362331D01*
X396215Y362331D02*
X392123Y362331D01*
X388900Y362331D02*
X386444Y362331D01*
X386364Y362333D01*
X386284Y362339D01*
X386204Y362349D01*
X386125Y362362D01*
X386046Y362380D01*
X385969Y362401D01*
X385893Y362427D01*
X385818Y362456D01*
X385744Y362488D01*
X385672Y362524D01*
X385602Y362564D01*
X385535Y362607D01*
X385469Y362653D01*
X385406Y362703D01*
X385345Y362755D01*
X385286Y362810D01*
X385231Y362869D01*
X385179Y362929D01*
X385129Y362993D01*
X385083Y363058D01*
X385040Y363126D01*
X385000Y363196D01*
X384964Y363268D01*
X384932Y363342D01*
X384903Y363416D01*
X384878Y363493D01*
X384856Y363570D01*
X384838Y363649D01*
X384825Y363728D01*
X384815Y363807D01*
X384809Y363888D01*
X384807Y363968D01*
X384808Y363968D02*
X384808Y364786D01*
X384807Y364786D02*
X384809Y364864D01*
X384814Y364942D01*
X384824Y365019D01*
X384837Y365096D01*
X384853Y365172D01*
X384873Y365247D01*
X384897Y365321D01*
X384924Y365394D01*
X384955Y365466D01*
X384989Y365536D01*
X385026Y365605D01*
X385067Y365671D01*
X385111Y365736D01*
X385157Y365798D01*
X385207Y365858D01*
X385259Y365916D01*
X385314Y365971D01*
X385372Y366023D01*
X385432Y366073D01*
X385494Y366119D01*
X385559Y366163D01*
X385626Y366204D01*
X385694Y366241D01*
X385764Y366275D01*
X385836Y366306D01*
X385909Y366333D01*
X385983Y366357D01*
X386058Y366377D01*
X386134Y366393D01*
X386211Y366406D01*
X386288Y366416D01*
X386366Y366421D01*
X386444Y366423D01*
X388900Y366423D01*
X388900Y369697D01*
X384808Y369697D01*
X403479Y356997D02*
X403479Y349631D01*
X403479Y356997D02*
X401433Y356997D01*
X401344Y356995D01*
X401255Y356989D01*
X401166Y356979D01*
X401078Y356966D01*
X400990Y356949D01*
X400903Y356927D01*
X400818Y356902D01*
X400733Y356874D01*
X400650Y356841D01*
X400568Y356805D01*
X400488Y356766D01*
X400410Y356723D01*
X400334Y356677D01*
X400259Y356627D01*
X400187Y356574D01*
X400118Y356518D01*
X400051Y356459D01*
X399986Y356398D01*
X399925Y356333D01*
X399866Y356266D01*
X399810Y356197D01*
X399757Y356125D01*
X399707Y356050D01*
X399661Y355974D01*
X399618Y355896D01*
X399579Y355816D01*
X399543Y355734D01*
X399510Y355651D01*
X399482Y355566D01*
X399457Y355481D01*
X399435Y355394D01*
X399418Y355306D01*
X399405Y355218D01*
X399395Y355129D01*
X399389Y355040D01*
X399387Y354951D01*
X399389Y354862D01*
X399395Y354773D01*
X399405Y354684D01*
X399418Y354596D01*
X399435Y354508D01*
X399457Y354421D01*
X399482Y354336D01*
X399510Y354251D01*
X399543Y354168D01*
X399579Y354086D01*
X399618Y354006D01*
X399661Y353928D01*
X399707Y353852D01*
X399757Y353777D01*
X399810Y353705D01*
X399866Y353636D01*
X399925Y353569D01*
X399986Y353504D01*
X400051Y353443D01*
X400118Y353384D01*
X400187Y353328D01*
X400259Y353275D01*
X400334Y353225D01*
X400410Y353179D01*
X400488Y353136D01*
X400568Y353097D01*
X400650Y353061D01*
X400733Y353028D01*
X400818Y353000D01*
X400903Y352975D01*
X400990Y352953D01*
X401078Y352936D01*
X401166Y352923D01*
X401255Y352913D01*
X401344Y352907D01*
X401433Y352905D01*
X403479Y352905D01*
X401024Y352905D02*
X399387Y349631D01*
X396215Y355360D02*
X394169Y356997D01*
X394169Y349631D01*
X396215Y349631D02*
X392123Y349631D01*
X388900Y353723D02*
X386444Y353723D01*
X386364Y353721D01*
X386284Y353715D01*
X386204Y353705D01*
X386125Y353692D01*
X386046Y353674D01*
X385969Y353653D01*
X385893Y353627D01*
X385818Y353598D01*
X385744Y353566D01*
X385672Y353530D01*
X385602Y353490D01*
X385535Y353447D01*
X385469Y353401D01*
X385406Y353351D01*
X385345Y353299D01*
X385286Y353244D01*
X385231Y353185D01*
X385179Y353125D01*
X385129Y353061D01*
X385083Y352995D01*
X385040Y352928D01*
X385000Y352858D01*
X384964Y352786D01*
X384932Y352712D01*
X384903Y352638D01*
X384877Y352561D01*
X384856Y352484D01*
X384838Y352405D01*
X384825Y352326D01*
X384815Y352246D01*
X384809Y352166D01*
X384807Y352086D01*
X384808Y352086D02*
X384808Y351677D01*
X384810Y351588D01*
X384816Y351499D01*
X384826Y351410D01*
X384839Y351322D01*
X384856Y351234D01*
X384878Y351147D01*
X384903Y351062D01*
X384931Y350977D01*
X384964Y350894D01*
X385000Y350812D01*
X385039Y350732D01*
X385082Y350654D01*
X385128Y350578D01*
X385178Y350503D01*
X385231Y350431D01*
X385287Y350362D01*
X385346Y350295D01*
X385407Y350230D01*
X385472Y350169D01*
X385539Y350110D01*
X385608Y350054D01*
X385680Y350001D01*
X385755Y349951D01*
X385831Y349905D01*
X385909Y349862D01*
X385989Y349823D01*
X386071Y349787D01*
X386154Y349754D01*
X386239Y349726D01*
X386324Y349701D01*
X386411Y349679D01*
X386499Y349662D01*
X386587Y349649D01*
X386676Y349639D01*
X386765Y349633D01*
X386854Y349631D01*
X386943Y349633D01*
X387032Y349639D01*
X387121Y349649D01*
X387209Y349662D01*
X387297Y349679D01*
X387384Y349701D01*
X387469Y349726D01*
X387554Y349754D01*
X387637Y349787D01*
X387719Y349823D01*
X387799Y349862D01*
X387877Y349905D01*
X387953Y349951D01*
X388028Y350001D01*
X388100Y350054D01*
X388169Y350110D01*
X388236Y350169D01*
X388301Y350230D01*
X388362Y350295D01*
X388421Y350362D01*
X388477Y350431D01*
X388530Y350503D01*
X388580Y350578D01*
X388626Y350654D01*
X388669Y350732D01*
X388708Y350812D01*
X388744Y350894D01*
X388777Y350977D01*
X388805Y351062D01*
X388830Y351147D01*
X388852Y351234D01*
X388869Y351322D01*
X388882Y351410D01*
X388892Y351499D01*
X388898Y351588D01*
X388900Y351677D01*
X388900Y353723D01*
X388898Y353835D01*
X388892Y353946D01*
X388883Y354058D01*
X388870Y354169D01*
X388852Y354279D01*
X388832Y354389D01*
X388807Y354498D01*
X388779Y354606D01*
X388747Y354713D01*
X388711Y354819D01*
X388672Y354924D01*
X388629Y355027D01*
X388583Y355129D01*
X388533Y355229D01*
X388480Y355328D01*
X388423Y355424D01*
X388364Y355519D01*
X388301Y355611D01*
X388235Y355701D01*
X388166Y355789D01*
X388094Y355875D01*
X388019Y355958D01*
X387941Y356038D01*
X387861Y356116D01*
X387778Y356191D01*
X387692Y356263D01*
X387604Y356332D01*
X387514Y356398D01*
X387422Y356461D01*
X387327Y356520D01*
X387231Y356577D01*
X387132Y356630D01*
X387032Y356680D01*
X386930Y356726D01*
X386827Y356769D01*
X386722Y356808D01*
X386616Y356844D01*
X386509Y356876D01*
X386401Y356904D01*
X386292Y356929D01*
X386182Y356949D01*
X386072Y356967D01*
X385961Y356980D01*
X385849Y356989D01*
X385738Y356995D01*
X385626Y356997D01*
X537212Y234569D02*
X537212Y227203D01*
X537212Y234569D02*
X535166Y234569D01*
X535077Y234567D01*
X534988Y234561D01*
X534899Y234551D01*
X534811Y234538D01*
X534723Y234521D01*
X534636Y234499D01*
X534551Y234474D01*
X534466Y234446D01*
X534383Y234413D01*
X534301Y234377D01*
X534221Y234338D01*
X534143Y234295D01*
X534067Y234249D01*
X533992Y234199D01*
X533920Y234146D01*
X533851Y234090D01*
X533784Y234031D01*
X533719Y233970D01*
X533658Y233905D01*
X533599Y233838D01*
X533543Y233769D01*
X533490Y233697D01*
X533440Y233622D01*
X533394Y233546D01*
X533351Y233468D01*
X533312Y233388D01*
X533276Y233306D01*
X533243Y233223D01*
X533215Y233138D01*
X533190Y233053D01*
X533168Y232966D01*
X533151Y232878D01*
X533138Y232790D01*
X533128Y232701D01*
X533122Y232612D01*
X533120Y232523D01*
X533122Y232434D01*
X533128Y232345D01*
X533138Y232256D01*
X533151Y232168D01*
X533168Y232080D01*
X533190Y231993D01*
X533215Y231908D01*
X533243Y231823D01*
X533276Y231740D01*
X533312Y231658D01*
X533351Y231578D01*
X533394Y231500D01*
X533440Y231424D01*
X533490Y231349D01*
X533543Y231277D01*
X533599Y231208D01*
X533658Y231141D01*
X533719Y231076D01*
X533784Y231015D01*
X533851Y230956D01*
X533920Y230900D01*
X533992Y230847D01*
X534067Y230797D01*
X534143Y230751D01*
X534221Y230708D01*
X534301Y230669D01*
X534383Y230633D01*
X534466Y230600D01*
X534551Y230572D01*
X534636Y230547D01*
X534723Y230525D01*
X534811Y230508D01*
X534899Y230495D01*
X534988Y230485D01*
X535077Y230479D01*
X535166Y230477D01*
X537212Y230477D01*
X534757Y230477D02*
X533120Y227203D01*
X529948Y232932D02*
X527902Y234569D01*
X527902Y227203D01*
X529948Y227203D02*
X525856Y227203D01*
X522633Y233751D02*
X522633Y234569D01*
X518541Y234569D01*
X520587Y227203D01*
X537212Y238633D02*
X537212Y245999D01*
X535166Y245999D01*
X535077Y245997D01*
X534988Y245991D01*
X534899Y245981D01*
X534811Y245968D01*
X534723Y245951D01*
X534636Y245929D01*
X534551Y245904D01*
X534466Y245876D01*
X534383Y245843D01*
X534301Y245807D01*
X534221Y245768D01*
X534143Y245725D01*
X534067Y245679D01*
X533992Y245629D01*
X533920Y245576D01*
X533851Y245520D01*
X533784Y245461D01*
X533719Y245400D01*
X533658Y245335D01*
X533599Y245268D01*
X533543Y245199D01*
X533490Y245127D01*
X533440Y245052D01*
X533394Y244976D01*
X533351Y244898D01*
X533312Y244818D01*
X533276Y244736D01*
X533243Y244653D01*
X533215Y244568D01*
X533190Y244483D01*
X533168Y244396D01*
X533151Y244308D01*
X533138Y244220D01*
X533128Y244131D01*
X533122Y244042D01*
X533120Y243953D01*
X533122Y243864D01*
X533128Y243775D01*
X533138Y243686D01*
X533151Y243598D01*
X533168Y243510D01*
X533190Y243423D01*
X533215Y243338D01*
X533243Y243253D01*
X533276Y243170D01*
X533312Y243088D01*
X533351Y243008D01*
X533394Y242930D01*
X533440Y242854D01*
X533490Y242779D01*
X533543Y242707D01*
X533599Y242638D01*
X533658Y242571D01*
X533719Y242506D01*
X533784Y242445D01*
X533851Y242386D01*
X533920Y242330D01*
X533992Y242277D01*
X534067Y242227D01*
X534143Y242181D01*
X534221Y242138D01*
X534301Y242099D01*
X534383Y242063D01*
X534466Y242030D01*
X534551Y242002D01*
X534636Y241977D01*
X534723Y241955D01*
X534811Y241938D01*
X534899Y241925D01*
X534988Y241915D01*
X535077Y241909D01*
X535166Y241907D01*
X537212Y241907D01*
X534757Y241907D02*
X533120Y238633D01*
X529948Y244362D02*
X527902Y245999D01*
X527902Y238633D01*
X529948Y238633D02*
X525856Y238633D01*
X522633Y240679D02*
X522631Y240768D01*
X522625Y240857D01*
X522615Y240946D01*
X522602Y241034D01*
X522585Y241122D01*
X522563Y241209D01*
X522538Y241294D01*
X522510Y241379D01*
X522477Y241462D01*
X522441Y241544D01*
X522402Y241624D01*
X522359Y241702D01*
X522313Y241778D01*
X522263Y241853D01*
X522210Y241925D01*
X522154Y241994D01*
X522095Y242061D01*
X522034Y242126D01*
X521969Y242187D01*
X521902Y242246D01*
X521833Y242302D01*
X521761Y242355D01*
X521686Y242405D01*
X521610Y242451D01*
X521532Y242494D01*
X521452Y242533D01*
X521370Y242569D01*
X521287Y242602D01*
X521202Y242630D01*
X521117Y242655D01*
X521030Y242677D01*
X520942Y242694D01*
X520854Y242707D01*
X520765Y242717D01*
X520676Y242723D01*
X520587Y242725D01*
X520498Y242723D01*
X520409Y242717D01*
X520320Y242707D01*
X520232Y242694D01*
X520144Y242677D01*
X520057Y242655D01*
X519972Y242630D01*
X519887Y242602D01*
X519804Y242569D01*
X519722Y242533D01*
X519642Y242494D01*
X519564Y242451D01*
X519488Y242405D01*
X519413Y242355D01*
X519341Y242302D01*
X519272Y242246D01*
X519205Y242187D01*
X519140Y242126D01*
X519079Y242061D01*
X519020Y241994D01*
X518964Y241925D01*
X518911Y241853D01*
X518861Y241778D01*
X518815Y241702D01*
X518772Y241624D01*
X518733Y241544D01*
X518697Y241462D01*
X518664Y241379D01*
X518636Y241294D01*
X518611Y241209D01*
X518589Y241122D01*
X518572Y241034D01*
X518559Y240946D01*
X518549Y240857D01*
X518543Y240768D01*
X518541Y240679D01*
X518543Y240590D01*
X518549Y240501D01*
X518559Y240412D01*
X518572Y240324D01*
X518589Y240236D01*
X518611Y240149D01*
X518636Y240064D01*
X518664Y239979D01*
X518697Y239896D01*
X518733Y239814D01*
X518772Y239734D01*
X518815Y239656D01*
X518861Y239580D01*
X518911Y239505D01*
X518964Y239433D01*
X519020Y239364D01*
X519079Y239297D01*
X519140Y239232D01*
X519205Y239171D01*
X519272Y239112D01*
X519341Y239056D01*
X519413Y239003D01*
X519488Y238953D01*
X519564Y238907D01*
X519642Y238864D01*
X519722Y238825D01*
X519804Y238789D01*
X519887Y238756D01*
X519972Y238728D01*
X520057Y238703D01*
X520144Y238681D01*
X520232Y238664D01*
X520320Y238651D01*
X520409Y238641D01*
X520498Y238635D01*
X520587Y238633D01*
X520676Y238635D01*
X520765Y238641D01*
X520854Y238651D01*
X520942Y238664D01*
X521030Y238681D01*
X521117Y238703D01*
X521202Y238728D01*
X521287Y238756D01*
X521370Y238789D01*
X521452Y238825D01*
X521532Y238864D01*
X521610Y238907D01*
X521686Y238953D01*
X521761Y239003D01*
X521833Y239056D01*
X521902Y239112D01*
X521969Y239171D01*
X522034Y239232D01*
X522095Y239297D01*
X522154Y239364D01*
X522210Y239433D01*
X522263Y239505D01*
X522313Y239580D01*
X522359Y239656D01*
X522402Y239734D01*
X522441Y239814D01*
X522477Y239896D01*
X522510Y239979D01*
X522538Y240064D01*
X522563Y240149D01*
X522585Y240236D01*
X522602Y240324D01*
X522615Y240412D01*
X522625Y240501D01*
X522631Y240590D01*
X522633Y240679D01*
X522224Y244362D02*
X522222Y244441D01*
X522216Y244520D01*
X522207Y244599D01*
X522194Y244677D01*
X522176Y244754D01*
X522156Y244830D01*
X522131Y244905D01*
X522103Y244979D01*
X522072Y245052D01*
X522036Y245123D01*
X521998Y245192D01*
X521956Y245259D01*
X521911Y245324D01*
X521863Y245387D01*
X521812Y245448D01*
X521758Y245505D01*
X521702Y245561D01*
X521643Y245613D01*
X521581Y245663D01*
X521517Y245709D01*
X521451Y245753D01*
X521383Y245793D01*
X521313Y245829D01*
X521241Y245863D01*
X521167Y245893D01*
X521093Y245919D01*
X521017Y245942D01*
X520940Y245960D01*
X520863Y245976D01*
X520784Y245987D01*
X520706Y245995D01*
X520627Y245999D01*
X520547Y245999D01*
X520468Y245995D01*
X520390Y245987D01*
X520311Y245976D01*
X520234Y245960D01*
X520157Y245942D01*
X520081Y245919D01*
X520007Y245893D01*
X519933Y245863D01*
X519861Y245829D01*
X519791Y245793D01*
X519723Y245753D01*
X519657Y245709D01*
X519593Y245663D01*
X519531Y245613D01*
X519472Y245561D01*
X519416Y245505D01*
X519362Y245448D01*
X519311Y245387D01*
X519263Y245324D01*
X519218Y245259D01*
X519176Y245192D01*
X519138Y245123D01*
X519102Y245052D01*
X519071Y244979D01*
X519043Y244905D01*
X519018Y244830D01*
X518998Y244754D01*
X518980Y244677D01*
X518967Y244599D01*
X518958Y244520D01*
X518952Y244441D01*
X518950Y244362D01*
X518952Y244283D01*
X518958Y244204D01*
X518967Y244125D01*
X518980Y244047D01*
X518998Y243970D01*
X519018Y243894D01*
X519043Y243819D01*
X519071Y243745D01*
X519102Y243672D01*
X519138Y243601D01*
X519176Y243532D01*
X519218Y243465D01*
X519263Y243400D01*
X519311Y243337D01*
X519362Y243276D01*
X519416Y243219D01*
X519472Y243163D01*
X519531Y243111D01*
X519593Y243061D01*
X519657Y243015D01*
X519723Y242971D01*
X519791Y242931D01*
X519861Y242895D01*
X519933Y242861D01*
X520007Y242831D01*
X520081Y242805D01*
X520157Y242782D01*
X520234Y242764D01*
X520311Y242748D01*
X520390Y242737D01*
X520468Y242729D01*
X520547Y242725D01*
X520627Y242725D01*
X520706Y242729D01*
X520784Y242737D01*
X520863Y242748D01*
X520940Y242764D01*
X521017Y242782D01*
X521093Y242805D01*
X521167Y242831D01*
X521241Y242861D01*
X521313Y242895D01*
X521383Y242931D01*
X521451Y242971D01*
X521517Y243015D01*
X521581Y243061D01*
X521643Y243111D01*
X521702Y243163D01*
X521758Y243219D01*
X521812Y243276D01*
X521863Y243337D01*
X521911Y243400D01*
X521956Y243465D01*
X521998Y243532D01*
X522036Y243601D01*
X522072Y243672D01*
X522103Y243745D01*
X522131Y243819D01*
X522156Y243894D01*
X522176Y243970D01*
X522194Y244047D01*
X522207Y244125D01*
X522216Y244204D01*
X522222Y244283D01*
X522224Y244362D01*
X537212Y251333D02*
X537212Y258699D01*
X535166Y258699D01*
X535077Y258697D01*
X534988Y258691D01*
X534899Y258681D01*
X534811Y258668D01*
X534723Y258651D01*
X534636Y258629D01*
X534551Y258604D01*
X534466Y258576D01*
X534383Y258543D01*
X534301Y258507D01*
X534221Y258468D01*
X534143Y258425D01*
X534067Y258379D01*
X533992Y258329D01*
X533920Y258276D01*
X533851Y258220D01*
X533784Y258161D01*
X533719Y258100D01*
X533658Y258035D01*
X533599Y257968D01*
X533543Y257899D01*
X533490Y257827D01*
X533440Y257752D01*
X533394Y257676D01*
X533351Y257598D01*
X533312Y257518D01*
X533276Y257436D01*
X533243Y257353D01*
X533215Y257268D01*
X533190Y257183D01*
X533168Y257096D01*
X533151Y257008D01*
X533138Y256920D01*
X533128Y256831D01*
X533122Y256742D01*
X533120Y256653D01*
X533122Y256564D01*
X533128Y256475D01*
X533138Y256386D01*
X533151Y256298D01*
X533168Y256210D01*
X533190Y256123D01*
X533215Y256038D01*
X533243Y255953D01*
X533276Y255870D01*
X533312Y255788D01*
X533351Y255708D01*
X533394Y255630D01*
X533440Y255554D01*
X533490Y255479D01*
X533543Y255407D01*
X533599Y255338D01*
X533658Y255271D01*
X533719Y255206D01*
X533784Y255145D01*
X533851Y255086D01*
X533920Y255030D01*
X533992Y254977D01*
X534067Y254927D01*
X534143Y254881D01*
X534221Y254838D01*
X534301Y254799D01*
X534383Y254763D01*
X534466Y254730D01*
X534551Y254702D01*
X534636Y254677D01*
X534723Y254655D01*
X534811Y254638D01*
X534899Y254625D01*
X534988Y254615D01*
X535077Y254609D01*
X535166Y254607D01*
X537212Y254607D01*
X534757Y254607D02*
X533120Y251333D01*
X529948Y257062D02*
X527902Y258699D01*
X527902Y251333D01*
X529948Y251333D02*
X525856Y251333D01*
X520996Y254607D02*
X518541Y254607D01*
X520996Y254607D02*
X521074Y254609D01*
X521152Y254614D01*
X521229Y254624D01*
X521306Y254637D01*
X521382Y254653D01*
X521457Y254673D01*
X521531Y254697D01*
X521604Y254724D01*
X521676Y254755D01*
X521746Y254789D01*
X521815Y254826D01*
X521881Y254867D01*
X521946Y254911D01*
X522008Y254957D01*
X522068Y255007D01*
X522126Y255059D01*
X522181Y255114D01*
X522233Y255172D01*
X522283Y255232D01*
X522329Y255294D01*
X522373Y255359D01*
X522414Y255426D01*
X522451Y255494D01*
X522485Y255564D01*
X522516Y255636D01*
X522543Y255709D01*
X522567Y255783D01*
X522587Y255858D01*
X522603Y255934D01*
X522616Y256011D01*
X522626Y256088D01*
X522631Y256166D01*
X522633Y256244D01*
X522633Y256653D01*
X522631Y256742D01*
X522625Y256831D01*
X522615Y256920D01*
X522602Y257008D01*
X522585Y257096D01*
X522563Y257183D01*
X522538Y257268D01*
X522510Y257353D01*
X522477Y257436D01*
X522441Y257518D01*
X522402Y257598D01*
X522359Y257676D01*
X522313Y257752D01*
X522263Y257827D01*
X522210Y257899D01*
X522154Y257968D01*
X522095Y258035D01*
X522034Y258100D01*
X521969Y258161D01*
X521902Y258220D01*
X521833Y258276D01*
X521761Y258329D01*
X521686Y258379D01*
X521610Y258425D01*
X521532Y258468D01*
X521452Y258507D01*
X521370Y258543D01*
X521287Y258576D01*
X521202Y258604D01*
X521117Y258629D01*
X521030Y258651D01*
X520942Y258668D01*
X520854Y258681D01*
X520765Y258691D01*
X520676Y258697D01*
X520587Y258699D01*
X520498Y258697D01*
X520409Y258691D01*
X520320Y258681D01*
X520232Y258668D01*
X520144Y258651D01*
X520057Y258629D01*
X519972Y258604D01*
X519887Y258576D01*
X519804Y258543D01*
X519722Y258507D01*
X519642Y258468D01*
X519564Y258425D01*
X519488Y258379D01*
X519413Y258329D01*
X519341Y258276D01*
X519272Y258220D01*
X519205Y258161D01*
X519140Y258100D01*
X519079Y258035D01*
X519020Y257968D01*
X518964Y257899D01*
X518911Y257827D01*
X518861Y257752D01*
X518815Y257676D01*
X518772Y257598D01*
X518733Y257518D01*
X518697Y257436D01*
X518664Y257353D01*
X518636Y257268D01*
X518611Y257183D01*
X518589Y257096D01*
X518572Y257008D01*
X518559Y256920D01*
X518549Y256831D01*
X518543Y256742D01*
X518541Y256653D01*
X518541Y254607D01*
X518543Y254495D01*
X518549Y254384D01*
X518558Y254272D01*
X518571Y254161D01*
X518589Y254051D01*
X518609Y253941D01*
X518634Y253832D01*
X518662Y253724D01*
X518694Y253617D01*
X518730Y253511D01*
X518769Y253406D01*
X518812Y253303D01*
X518858Y253201D01*
X518908Y253101D01*
X518961Y253002D01*
X519018Y252906D01*
X519077Y252811D01*
X519140Y252719D01*
X519206Y252629D01*
X519275Y252541D01*
X519347Y252455D01*
X519422Y252372D01*
X519500Y252292D01*
X519580Y252214D01*
X519663Y252139D01*
X519749Y252067D01*
X519837Y251998D01*
X519927Y251932D01*
X520019Y251869D01*
X520114Y251810D01*
X520210Y251753D01*
X520309Y251700D01*
X520409Y251650D01*
X520511Y251604D01*
X520614Y251561D01*
X520719Y251522D01*
X520825Y251486D01*
X520932Y251454D01*
X521040Y251426D01*
X521149Y251401D01*
X521259Y251381D01*
X521369Y251363D01*
X521480Y251350D01*
X521592Y251341D01*
X521703Y251335D01*
X521815Y251333D01*
X552069Y366141D02*
X552069Y373507D01*
X550023Y373507D01*
X549934Y373505D01*
X549845Y373499D01*
X549756Y373489D01*
X549668Y373476D01*
X549580Y373459D01*
X549493Y373437D01*
X549408Y373412D01*
X549323Y373384D01*
X549240Y373351D01*
X549158Y373315D01*
X549078Y373276D01*
X549000Y373233D01*
X548924Y373187D01*
X548849Y373137D01*
X548777Y373084D01*
X548708Y373028D01*
X548641Y372969D01*
X548576Y372908D01*
X548515Y372843D01*
X548456Y372776D01*
X548400Y372707D01*
X548347Y372635D01*
X548297Y372560D01*
X548251Y372484D01*
X548208Y372406D01*
X548169Y372326D01*
X548133Y372244D01*
X548100Y372161D01*
X548072Y372076D01*
X548047Y371991D01*
X548025Y371904D01*
X548008Y371816D01*
X547995Y371728D01*
X547985Y371639D01*
X547979Y371550D01*
X547977Y371461D01*
X547979Y371372D01*
X547985Y371283D01*
X547995Y371194D01*
X548008Y371106D01*
X548025Y371018D01*
X548047Y370931D01*
X548072Y370846D01*
X548100Y370761D01*
X548133Y370678D01*
X548169Y370596D01*
X548208Y370516D01*
X548251Y370438D01*
X548297Y370362D01*
X548347Y370287D01*
X548400Y370215D01*
X548456Y370146D01*
X548515Y370079D01*
X548576Y370014D01*
X548641Y369953D01*
X548708Y369894D01*
X548777Y369838D01*
X548849Y369785D01*
X548924Y369735D01*
X549000Y369689D01*
X549078Y369646D01*
X549158Y369607D01*
X549240Y369571D01*
X549323Y369538D01*
X549408Y369510D01*
X549493Y369485D01*
X549580Y369463D01*
X549668Y369446D01*
X549756Y369433D01*
X549845Y369423D01*
X549934Y369417D01*
X550023Y369415D01*
X552069Y369415D01*
X549614Y369415D02*
X547977Y366141D01*
X540712Y371666D02*
X540714Y371751D01*
X540720Y371836D01*
X540730Y371920D01*
X540743Y372004D01*
X540761Y372088D01*
X540782Y372170D01*
X540807Y372251D01*
X540836Y372331D01*
X540869Y372410D01*
X540905Y372487D01*
X540945Y372562D01*
X540988Y372636D01*
X541034Y372707D01*
X541084Y372776D01*
X541137Y372843D01*
X541193Y372907D01*
X541252Y372968D01*
X541313Y373027D01*
X541377Y373083D01*
X541444Y373136D01*
X541513Y373186D01*
X541584Y373232D01*
X541658Y373275D01*
X541733Y373315D01*
X541810Y373351D01*
X541889Y373384D01*
X541969Y373413D01*
X542050Y373438D01*
X542132Y373459D01*
X542216Y373477D01*
X542300Y373490D01*
X542384Y373500D01*
X542469Y373506D01*
X542554Y373508D01*
X542554Y373507D02*
X542650Y373505D01*
X542746Y373499D01*
X542841Y373489D01*
X542936Y373476D01*
X543031Y373458D01*
X543124Y373437D01*
X543217Y373412D01*
X543308Y373383D01*
X543399Y373351D01*
X543488Y373315D01*
X543575Y373275D01*
X543661Y373232D01*
X543745Y373186D01*
X543827Y373136D01*
X543907Y373082D01*
X543984Y373026D01*
X544059Y372966D01*
X544132Y372904D01*
X544202Y372838D01*
X544270Y372770D01*
X544335Y372699D01*
X544396Y372626D01*
X544455Y372550D01*
X544511Y372471D01*
X544563Y372391D01*
X544612Y372308D01*
X544658Y372224D01*
X544700Y372138D01*
X544738Y372050D01*
X544773Y371961D01*
X544805Y371870D01*
X541327Y370234D02*
X541267Y370293D01*
X541210Y370355D01*
X541155Y370419D01*
X541104Y370486D01*
X541055Y370555D01*
X541009Y370625D01*
X540966Y370698D01*
X540926Y370772D01*
X540890Y370848D01*
X540857Y370926D01*
X540827Y371005D01*
X540800Y371085D01*
X540777Y371166D01*
X540758Y371248D01*
X540742Y371330D01*
X540729Y371414D01*
X540720Y371498D01*
X540715Y371582D01*
X540713Y371666D01*
X541327Y370233D02*
X544805Y366141D01*
X540713Y366141D01*
X537489Y369824D02*
X537487Y369977D01*
X537481Y370130D01*
X537472Y370282D01*
X537458Y370435D01*
X537441Y370587D01*
X537420Y370738D01*
X537395Y370889D01*
X537366Y371039D01*
X537334Y371189D01*
X537297Y371337D01*
X537257Y371485D01*
X537214Y371632D01*
X537166Y371777D01*
X537115Y371921D01*
X537061Y372064D01*
X537002Y372206D01*
X536941Y372345D01*
X536875Y372484D01*
X536876Y372484D02*
X536850Y372554D01*
X536820Y372623D01*
X536788Y372691D01*
X536751Y372757D01*
X536712Y372821D01*
X536669Y372883D01*
X536624Y372942D01*
X536575Y373000D01*
X536524Y373054D01*
X536470Y373107D01*
X536413Y373156D01*
X536354Y373203D01*
X536293Y373246D01*
X536230Y373287D01*
X536165Y373324D01*
X536098Y373359D01*
X536029Y373389D01*
X535959Y373417D01*
X535888Y373440D01*
X535816Y373461D01*
X535743Y373477D01*
X535669Y373490D01*
X535594Y373500D01*
X535519Y373505D01*
X535444Y373507D01*
X535369Y373505D01*
X535294Y373500D01*
X535219Y373490D01*
X535145Y373477D01*
X535072Y373461D01*
X535000Y373440D01*
X534929Y373417D01*
X534859Y373389D01*
X534790Y373359D01*
X534723Y373324D01*
X534658Y373287D01*
X534595Y373246D01*
X534534Y373203D01*
X534475Y373156D01*
X534418Y373107D01*
X534364Y373054D01*
X534313Y373000D01*
X534265Y372942D01*
X534219Y372883D01*
X534176Y372821D01*
X534137Y372757D01*
X534101Y372691D01*
X534068Y372624D01*
X534038Y372554D01*
X534012Y372484D01*
X533947Y372346D01*
X533885Y372206D01*
X533827Y372064D01*
X533772Y371921D01*
X533721Y371777D01*
X533673Y371632D01*
X533630Y371485D01*
X533590Y371338D01*
X533553Y371189D01*
X533521Y371039D01*
X533492Y370889D01*
X533467Y370738D01*
X533446Y370587D01*
X533429Y370435D01*
X533415Y370282D01*
X533406Y370130D01*
X533400Y369977D01*
X533398Y369824D01*
X537490Y369824D02*
X537488Y369671D01*
X537482Y369518D01*
X537473Y369365D01*
X537459Y369213D01*
X537442Y369061D01*
X537421Y368910D01*
X537396Y368759D01*
X537367Y368608D01*
X537335Y368459D01*
X537298Y368310D01*
X537258Y368163D01*
X537215Y368016D01*
X537167Y367871D01*
X537116Y367726D01*
X537061Y367584D01*
X537003Y367442D01*
X536941Y367302D01*
X536876Y367164D01*
X536850Y367094D01*
X536820Y367024D01*
X536788Y366957D01*
X536751Y366891D01*
X536712Y366827D01*
X536669Y366765D01*
X536623Y366706D01*
X536575Y366648D01*
X536524Y366594D01*
X536470Y366541D01*
X536413Y366492D01*
X536354Y366445D01*
X536293Y366402D01*
X536230Y366361D01*
X536165Y366324D01*
X536098Y366289D01*
X536029Y366259D01*
X535959Y366231D01*
X535888Y366208D01*
X535816Y366187D01*
X535743Y366171D01*
X535669Y366158D01*
X535594Y366148D01*
X535519Y366143D01*
X535444Y366141D01*
X534012Y367164D02*
X533947Y367302D01*
X533885Y367442D01*
X533827Y367584D01*
X533772Y367727D01*
X533721Y367871D01*
X533673Y368016D01*
X533630Y368163D01*
X533590Y368311D01*
X533553Y368459D01*
X533521Y368609D01*
X533492Y368759D01*
X533467Y368910D01*
X533446Y369061D01*
X533429Y369213D01*
X533415Y369366D01*
X533406Y369518D01*
X533400Y369671D01*
X533398Y369824D01*
X534012Y367164D02*
X534038Y367093D01*
X534068Y367024D01*
X534101Y366957D01*
X534137Y366891D01*
X534176Y366827D01*
X534219Y366765D01*
X534265Y366706D01*
X534313Y366648D01*
X534364Y366594D01*
X534418Y366541D01*
X534475Y366492D01*
X534534Y366445D01*
X534595Y366402D01*
X534658Y366361D01*
X534723Y366324D01*
X534790Y366289D01*
X534859Y366259D01*
X534929Y366231D01*
X535000Y366208D01*
X535072Y366187D01*
X535145Y366171D01*
X535219Y366158D01*
X535294Y366148D01*
X535369Y366143D01*
X535444Y366141D01*
X537081Y367778D02*
X533807Y371870D01*
X403479Y400431D02*
X403479Y407797D01*
X401433Y407797D01*
X401344Y407795D01*
X401255Y407789D01*
X401166Y407779D01*
X401078Y407766D01*
X400990Y407749D01*
X400903Y407727D01*
X400818Y407702D01*
X400733Y407674D01*
X400650Y407641D01*
X400568Y407605D01*
X400488Y407566D01*
X400410Y407523D01*
X400334Y407477D01*
X400259Y407427D01*
X400187Y407374D01*
X400118Y407318D01*
X400051Y407259D01*
X399986Y407198D01*
X399925Y407133D01*
X399866Y407066D01*
X399810Y406997D01*
X399757Y406925D01*
X399707Y406850D01*
X399661Y406774D01*
X399618Y406696D01*
X399579Y406616D01*
X399543Y406534D01*
X399510Y406451D01*
X399482Y406366D01*
X399457Y406281D01*
X399435Y406194D01*
X399418Y406106D01*
X399405Y406018D01*
X399395Y405929D01*
X399389Y405840D01*
X399387Y405751D01*
X399389Y405662D01*
X399395Y405573D01*
X399405Y405484D01*
X399418Y405396D01*
X399435Y405308D01*
X399457Y405221D01*
X399482Y405136D01*
X399510Y405051D01*
X399543Y404968D01*
X399579Y404886D01*
X399618Y404806D01*
X399661Y404728D01*
X399707Y404652D01*
X399757Y404577D01*
X399810Y404505D01*
X399866Y404436D01*
X399925Y404369D01*
X399986Y404304D01*
X400051Y404243D01*
X400118Y404184D01*
X400187Y404128D01*
X400259Y404075D01*
X400334Y404025D01*
X400410Y403979D01*
X400488Y403936D01*
X400568Y403897D01*
X400650Y403861D01*
X400733Y403828D01*
X400818Y403800D01*
X400903Y403775D01*
X400990Y403753D01*
X401078Y403736D01*
X401166Y403723D01*
X401255Y403713D01*
X401344Y403707D01*
X401433Y403705D01*
X403479Y403705D01*
X401024Y403705D02*
X399387Y400431D01*
X392122Y405956D02*
X392124Y406041D01*
X392130Y406126D01*
X392140Y406210D01*
X392153Y406294D01*
X392171Y406378D01*
X392192Y406460D01*
X392217Y406541D01*
X392246Y406621D01*
X392279Y406700D01*
X392315Y406777D01*
X392355Y406852D01*
X392398Y406926D01*
X392444Y406997D01*
X392494Y407066D01*
X392547Y407133D01*
X392603Y407197D01*
X392662Y407258D01*
X392723Y407317D01*
X392787Y407373D01*
X392854Y407426D01*
X392923Y407476D01*
X392994Y407522D01*
X393068Y407565D01*
X393143Y407605D01*
X393220Y407641D01*
X393299Y407674D01*
X393379Y407703D01*
X393460Y407728D01*
X393542Y407749D01*
X393626Y407767D01*
X393710Y407780D01*
X393794Y407790D01*
X393879Y407796D01*
X393964Y407798D01*
X393964Y407797D02*
X394060Y407795D01*
X394156Y407789D01*
X394251Y407779D01*
X394346Y407766D01*
X394441Y407748D01*
X394534Y407727D01*
X394627Y407702D01*
X394718Y407673D01*
X394809Y407641D01*
X394898Y407605D01*
X394985Y407565D01*
X395071Y407522D01*
X395155Y407476D01*
X395237Y407426D01*
X395317Y407372D01*
X395394Y407316D01*
X395469Y407256D01*
X395542Y407194D01*
X395612Y407128D01*
X395680Y407060D01*
X395745Y406989D01*
X395806Y406916D01*
X395865Y406840D01*
X395921Y406761D01*
X395973Y406681D01*
X396022Y406598D01*
X396068Y406514D01*
X396110Y406428D01*
X396148Y406340D01*
X396183Y406251D01*
X396215Y406160D01*
X392737Y404524D02*
X392677Y404583D01*
X392620Y404645D01*
X392565Y404709D01*
X392514Y404776D01*
X392465Y404845D01*
X392419Y404915D01*
X392376Y404988D01*
X392336Y405062D01*
X392300Y405138D01*
X392267Y405216D01*
X392237Y405295D01*
X392210Y405375D01*
X392187Y405456D01*
X392168Y405538D01*
X392152Y405620D01*
X392139Y405704D01*
X392130Y405788D01*
X392125Y405872D01*
X392123Y405956D01*
X392737Y404523D02*
X396215Y400431D01*
X392123Y400431D01*
X388900Y406160D02*
X386854Y407797D01*
X386854Y400431D01*
X388900Y400431D02*
X384808Y400431D01*
X552069Y386207D02*
X552069Y378841D01*
X552069Y386207D02*
X550023Y386207D01*
X549934Y386205D01*
X549845Y386199D01*
X549756Y386189D01*
X549668Y386176D01*
X549580Y386159D01*
X549493Y386137D01*
X549408Y386112D01*
X549323Y386084D01*
X549240Y386051D01*
X549158Y386015D01*
X549078Y385976D01*
X549000Y385933D01*
X548924Y385887D01*
X548849Y385837D01*
X548777Y385784D01*
X548708Y385728D01*
X548641Y385669D01*
X548576Y385608D01*
X548515Y385543D01*
X548456Y385476D01*
X548400Y385407D01*
X548347Y385335D01*
X548297Y385260D01*
X548251Y385184D01*
X548208Y385106D01*
X548169Y385026D01*
X548133Y384944D01*
X548100Y384861D01*
X548072Y384776D01*
X548047Y384691D01*
X548025Y384604D01*
X548008Y384516D01*
X547995Y384428D01*
X547985Y384339D01*
X547979Y384250D01*
X547977Y384161D01*
X547979Y384072D01*
X547985Y383983D01*
X547995Y383894D01*
X548008Y383806D01*
X548025Y383718D01*
X548047Y383631D01*
X548072Y383546D01*
X548100Y383461D01*
X548133Y383378D01*
X548169Y383296D01*
X548208Y383216D01*
X548251Y383138D01*
X548297Y383062D01*
X548347Y382987D01*
X548400Y382915D01*
X548456Y382846D01*
X548515Y382779D01*
X548576Y382714D01*
X548641Y382653D01*
X548708Y382594D01*
X548777Y382538D01*
X548849Y382485D01*
X548924Y382435D01*
X549000Y382389D01*
X549078Y382346D01*
X549158Y382307D01*
X549240Y382271D01*
X549323Y382238D01*
X549408Y382210D01*
X549493Y382185D01*
X549580Y382163D01*
X549668Y382146D01*
X549756Y382133D01*
X549845Y382123D01*
X549934Y382117D01*
X550023Y382115D01*
X552069Y382115D01*
X549614Y382115D02*
X547977Y378841D01*
X540712Y384366D02*
X540714Y384451D01*
X540720Y384536D01*
X540730Y384620D01*
X540743Y384704D01*
X540761Y384788D01*
X540782Y384870D01*
X540807Y384951D01*
X540836Y385031D01*
X540869Y385110D01*
X540905Y385187D01*
X540945Y385262D01*
X540988Y385336D01*
X541034Y385407D01*
X541084Y385476D01*
X541137Y385543D01*
X541193Y385607D01*
X541252Y385668D01*
X541313Y385727D01*
X541377Y385783D01*
X541444Y385836D01*
X541513Y385886D01*
X541584Y385932D01*
X541658Y385975D01*
X541733Y386015D01*
X541810Y386051D01*
X541889Y386084D01*
X541969Y386113D01*
X542050Y386138D01*
X542132Y386159D01*
X542216Y386177D01*
X542300Y386190D01*
X542384Y386200D01*
X542469Y386206D01*
X542554Y386208D01*
X542554Y386207D02*
X542650Y386205D01*
X542746Y386199D01*
X542841Y386189D01*
X542936Y386176D01*
X543031Y386158D01*
X543124Y386137D01*
X543217Y386112D01*
X543308Y386083D01*
X543399Y386051D01*
X543488Y386015D01*
X543575Y385975D01*
X543661Y385932D01*
X543745Y385886D01*
X543827Y385836D01*
X543907Y385782D01*
X543984Y385726D01*
X544059Y385666D01*
X544132Y385604D01*
X544202Y385538D01*
X544270Y385470D01*
X544335Y385399D01*
X544396Y385326D01*
X544455Y385250D01*
X544511Y385171D01*
X544563Y385091D01*
X544612Y385008D01*
X544658Y384924D01*
X544700Y384838D01*
X544738Y384750D01*
X544773Y384661D01*
X544805Y384570D01*
X541327Y382934D02*
X541267Y382993D01*
X541210Y383055D01*
X541155Y383119D01*
X541104Y383186D01*
X541055Y383255D01*
X541009Y383325D01*
X540966Y383398D01*
X540926Y383472D01*
X540890Y383548D01*
X540857Y383626D01*
X540827Y383705D01*
X540800Y383785D01*
X540777Y383866D01*
X540758Y383948D01*
X540742Y384030D01*
X540729Y384114D01*
X540720Y384198D01*
X540715Y384282D01*
X540713Y384366D01*
X541327Y382933D02*
X544805Y378841D01*
X540713Y378841D01*
X533397Y384366D02*
X533399Y384451D01*
X533405Y384536D01*
X533415Y384620D01*
X533428Y384704D01*
X533446Y384788D01*
X533467Y384870D01*
X533492Y384951D01*
X533521Y385031D01*
X533554Y385110D01*
X533590Y385187D01*
X533630Y385262D01*
X533673Y385336D01*
X533719Y385407D01*
X533769Y385476D01*
X533822Y385543D01*
X533878Y385607D01*
X533937Y385668D01*
X533998Y385727D01*
X534062Y385783D01*
X534129Y385836D01*
X534198Y385886D01*
X534269Y385932D01*
X534343Y385975D01*
X534418Y386015D01*
X534495Y386051D01*
X534574Y386084D01*
X534654Y386113D01*
X534735Y386138D01*
X534817Y386159D01*
X534901Y386177D01*
X534985Y386190D01*
X535069Y386200D01*
X535154Y386206D01*
X535239Y386208D01*
X535239Y386207D02*
X535335Y386205D01*
X535431Y386199D01*
X535526Y386189D01*
X535621Y386176D01*
X535716Y386158D01*
X535809Y386137D01*
X535902Y386112D01*
X535993Y386083D01*
X536084Y386051D01*
X536173Y386015D01*
X536260Y385975D01*
X536346Y385932D01*
X536430Y385886D01*
X536512Y385836D01*
X536592Y385782D01*
X536669Y385726D01*
X536744Y385666D01*
X536817Y385604D01*
X536887Y385538D01*
X536955Y385470D01*
X537020Y385399D01*
X537081Y385326D01*
X537140Y385250D01*
X537196Y385171D01*
X537248Y385091D01*
X537297Y385008D01*
X537343Y384924D01*
X537385Y384838D01*
X537423Y384750D01*
X537458Y384661D01*
X537490Y384570D01*
X534011Y382934D02*
X533951Y382993D01*
X533894Y383055D01*
X533839Y383119D01*
X533788Y383186D01*
X533739Y383255D01*
X533693Y383325D01*
X533650Y383398D01*
X533610Y383472D01*
X533574Y383548D01*
X533541Y383626D01*
X533511Y383705D01*
X533484Y383785D01*
X533461Y383866D01*
X533442Y383948D01*
X533426Y384030D01*
X533413Y384114D01*
X533404Y384198D01*
X533399Y384282D01*
X533397Y384366D01*
X534011Y382933D02*
X537490Y378841D01*
X533398Y378841D01*
M02*
