G04 EAGLE Gerber RS-274X export*
G75*
%MOMM*%
%FSLAX34Y34*%
%LPD*%
%INSilkscreen Top*%
%IPPOS*%
%AMOC8*
5,1,8,0,0,1.08239X$1,22.5*%
G01*
%ADD10C,0.152400*%
%ADD11C,0.203200*%


D10*
X56503Y151638D02*
X56503Y135382D01*
X63728Y135382D01*
X68596Y135382D02*
X74015Y151638D01*
X79433Y135382D01*
X78079Y139446D02*
X69951Y139446D01*
X85863Y144413D02*
X90378Y144413D01*
X90378Y144414D02*
X90511Y144412D01*
X90643Y144406D01*
X90775Y144396D01*
X90907Y144383D01*
X91039Y144365D01*
X91169Y144344D01*
X91300Y144319D01*
X91429Y144290D01*
X91557Y144257D01*
X91685Y144221D01*
X91811Y144181D01*
X91936Y144137D01*
X92060Y144089D01*
X92182Y144038D01*
X92303Y143983D01*
X92422Y143925D01*
X92540Y143863D01*
X92655Y143798D01*
X92769Y143729D01*
X92880Y143658D01*
X92989Y143582D01*
X93096Y143504D01*
X93201Y143423D01*
X93303Y143338D01*
X93403Y143251D01*
X93500Y143161D01*
X93595Y143068D01*
X93686Y142972D01*
X93775Y142874D01*
X93861Y142773D01*
X93944Y142669D01*
X94024Y142563D01*
X94100Y142455D01*
X94174Y142345D01*
X94244Y142232D01*
X94311Y142118D01*
X94374Y142001D01*
X94434Y141883D01*
X94491Y141763D01*
X94544Y141641D01*
X94593Y141518D01*
X94639Y141394D01*
X94681Y141268D01*
X94719Y141141D01*
X94754Y141013D01*
X94785Y140884D01*
X94812Y140755D01*
X94835Y140624D01*
X94855Y140493D01*
X94870Y140361D01*
X94882Y140229D01*
X94890Y140097D01*
X94894Y139964D01*
X94894Y139832D01*
X94890Y139699D01*
X94882Y139567D01*
X94870Y139435D01*
X94855Y139303D01*
X94835Y139172D01*
X94812Y139041D01*
X94785Y138912D01*
X94754Y138783D01*
X94719Y138655D01*
X94681Y138528D01*
X94639Y138402D01*
X94593Y138278D01*
X94544Y138155D01*
X94491Y138033D01*
X94434Y137913D01*
X94374Y137795D01*
X94311Y137678D01*
X94244Y137564D01*
X94174Y137451D01*
X94100Y137341D01*
X94024Y137233D01*
X93944Y137127D01*
X93861Y137023D01*
X93775Y136922D01*
X93686Y136824D01*
X93595Y136728D01*
X93500Y136635D01*
X93403Y136545D01*
X93303Y136458D01*
X93201Y136373D01*
X93096Y136292D01*
X92989Y136214D01*
X92880Y136138D01*
X92769Y136067D01*
X92655Y135998D01*
X92540Y135933D01*
X92422Y135871D01*
X92303Y135813D01*
X92182Y135758D01*
X92060Y135707D01*
X91936Y135659D01*
X91811Y135615D01*
X91685Y135575D01*
X91557Y135539D01*
X91429Y135506D01*
X91300Y135477D01*
X91169Y135452D01*
X91039Y135431D01*
X90907Y135413D01*
X90775Y135400D01*
X90643Y135390D01*
X90511Y135384D01*
X90378Y135382D01*
X85863Y135382D01*
X85863Y151638D01*
X90378Y151638D01*
X90497Y151636D01*
X90617Y151630D01*
X90736Y151620D01*
X90854Y151606D01*
X90973Y151589D01*
X91090Y151567D01*
X91207Y151542D01*
X91322Y151512D01*
X91437Y151479D01*
X91551Y151442D01*
X91663Y151402D01*
X91774Y151357D01*
X91883Y151309D01*
X91991Y151258D01*
X92097Y151203D01*
X92201Y151144D01*
X92303Y151082D01*
X92403Y151017D01*
X92501Y150948D01*
X92597Y150876D01*
X92690Y150801D01*
X92780Y150724D01*
X92868Y150643D01*
X92953Y150559D01*
X93035Y150472D01*
X93115Y150383D01*
X93191Y150291D01*
X93265Y150197D01*
X93335Y150100D01*
X93402Y150002D01*
X93466Y149901D01*
X93526Y149797D01*
X93583Y149692D01*
X93636Y149585D01*
X93686Y149477D01*
X93732Y149367D01*
X93774Y149255D01*
X93813Y149142D01*
X93848Y149028D01*
X93879Y148913D01*
X93907Y148796D01*
X93930Y148679D01*
X93950Y148562D01*
X93966Y148443D01*
X93978Y148324D01*
X93986Y148205D01*
X93990Y148086D01*
X93990Y147966D01*
X93986Y147847D01*
X93978Y147728D01*
X93966Y147609D01*
X93950Y147490D01*
X93930Y147373D01*
X93907Y147256D01*
X93879Y147139D01*
X93848Y147024D01*
X93813Y146910D01*
X93774Y146797D01*
X93732Y146685D01*
X93686Y146575D01*
X93636Y146467D01*
X93583Y146360D01*
X93526Y146255D01*
X93466Y146151D01*
X93402Y146050D01*
X93335Y145952D01*
X93265Y145855D01*
X93191Y145761D01*
X93115Y145669D01*
X93035Y145580D01*
X92953Y145493D01*
X92868Y145409D01*
X92780Y145328D01*
X92690Y145251D01*
X92597Y145176D01*
X92501Y145104D01*
X92403Y145035D01*
X92303Y144970D01*
X92201Y144908D01*
X92097Y144849D01*
X91991Y144794D01*
X91883Y144743D01*
X91774Y144695D01*
X91663Y144650D01*
X91551Y144610D01*
X91437Y144573D01*
X91322Y144540D01*
X91207Y144510D01*
X91090Y144485D01*
X90973Y144463D01*
X90854Y144446D01*
X90736Y144432D01*
X90617Y144422D01*
X90497Y144416D01*
X90378Y144414D01*
X100762Y147122D02*
X100762Y139898D01*
X100761Y147122D02*
X100763Y147255D01*
X100769Y147387D01*
X100779Y147519D01*
X100792Y147651D01*
X100810Y147783D01*
X100831Y147913D01*
X100856Y148044D01*
X100885Y148173D01*
X100918Y148301D01*
X100954Y148429D01*
X100994Y148555D01*
X101038Y148680D01*
X101086Y148804D01*
X101137Y148926D01*
X101192Y149047D01*
X101250Y149166D01*
X101312Y149284D01*
X101377Y149399D01*
X101446Y149513D01*
X101517Y149624D01*
X101593Y149733D01*
X101671Y149840D01*
X101752Y149945D01*
X101837Y150047D01*
X101924Y150147D01*
X102014Y150244D01*
X102107Y150339D01*
X102203Y150430D01*
X102301Y150519D01*
X102402Y150605D01*
X102506Y150688D01*
X102612Y150768D01*
X102720Y150844D01*
X102830Y150918D01*
X102943Y150988D01*
X103057Y151055D01*
X103174Y151118D01*
X103292Y151178D01*
X103412Y151235D01*
X103534Y151288D01*
X103657Y151337D01*
X103781Y151383D01*
X103907Y151425D01*
X104034Y151463D01*
X104162Y151498D01*
X104291Y151529D01*
X104420Y151556D01*
X104551Y151579D01*
X104682Y151599D01*
X104814Y151614D01*
X104946Y151626D01*
X105078Y151634D01*
X105211Y151638D01*
X105343Y151638D01*
X105476Y151634D01*
X105608Y151626D01*
X105740Y151614D01*
X105872Y151599D01*
X106003Y151579D01*
X106134Y151556D01*
X106263Y151529D01*
X106392Y151498D01*
X106520Y151463D01*
X106647Y151425D01*
X106773Y151383D01*
X106897Y151337D01*
X107020Y151288D01*
X107142Y151235D01*
X107262Y151178D01*
X107380Y151118D01*
X107497Y151055D01*
X107611Y150988D01*
X107724Y150918D01*
X107834Y150844D01*
X107942Y150768D01*
X108048Y150688D01*
X108152Y150605D01*
X108253Y150519D01*
X108351Y150430D01*
X108447Y150339D01*
X108540Y150244D01*
X108630Y150147D01*
X108717Y150047D01*
X108802Y149945D01*
X108883Y149840D01*
X108961Y149733D01*
X109037Y149624D01*
X109108Y149513D01*
X109177Y149399D01*
X109242Y149284D01*
X109304Y149166D01*
X109362Y149047D01*
X109417Y148926D01*
X109468Y148804D01*
X109516Y148680D01*
X109560Y148555D01*
X109600Y148429D01*
X109636Y148301D01*
X109669Y148173D01*
X109698Y148044D01*
X109723Y147913D01*
X109744Y147783D01*
X109762Y147651D01*
X109775Y147519D01*
X109785Y147387D01*
X109791Y147255D01*
X109793Y147122D01*
X109793Y139898D01*
X109791Y139765D01*
X109785Y139633D01*
X109775Y139501D01*
X109762Y139369D01*
X109744Y139237D01*
X109723Y139107D01*
X109698Y138976D01*
X109669Y138847D01*
X109636Y138719D01*
X109600Y138591D01*
X109560Y138465D01*
X109516Y138340D01*
X109468Y138216D01*
X109417Y138094D01*
X109362Y137973D01*
X109304Y137854D01*
X109242Y137736D01*
X109177Y137621D01*
X109108Y137507D01*
X109037Y137396D01*
X108961Y137287D01*
X108883Y137180D01*
X108802Y137075D01*
X108717Y136973D01*
X108630Y136873D01*
X108540Y136776D01*
X108447Y136681D01*
X108351Y136590D01*
X108253Y136501D01*
X108152Y136415D01*
X108048Y136332D01*
X107942Y136252D01*
X107834Y136176D01*
X107724Y136102D01*
X107611Y136032D01*
X107497Y135965D01*
X107380Y135902D01*
X107262Y135842D01*
X107142Y135785D01*
X107020Y135732D01*
X106897Y135683D01*
X106773Y135637D01*
X106647Y135595D01*
X106520Y135557D01*
X106392Y135522D01*
X106263Y135491D01*
X106134Y135464D01*
X106003Y135441D01*
X105872Y135421D01*
X105740Y135406D01*
X105608Y135394D01*
X105476Y135386D01*
X105343Y135382D01*
X105211Y135382D01*
X105078Y135386D01*
X104946Y135394D01*
X104814Y135406D01*
X104682Y135421D01*
X104551Y135441D01*
X104420Y135464D01*
X104291Y135491D01*
X104162Y135522D01*
X104034Y135557D01*
X103907Y135595D01*
X103781Y135637D01*
X103657Y135683D01*
X103534Y135732D01*
X103412Y135785D01*
X103292Y135842D01*
X103174Y135902D01*
X103057Y135965D01*
X102943Y136032D01*
X102830Y136102D01*
X102720Y136176D01*
X102612Y136252D01*
X102506Y136332D01*
X102402Y136415D01*
X102301Y136501D01*
X102203Y136590D01*
X102107Y136681D01*
X102014Y136776D01*
X101924Y136873D01*
X101837Y136973D01*
X101752Y137075D01*
X101671Y137180D01*
X101593Y137287D01*
X101517Y137396D01*
X101446Y137507D01*
X101377Y137621D01*
X101312Y137736D01*
X101250Y137854D01*
X101192Y137973D01*
X101137Y138094D01*
X101086Y138216D01*
X101038Y138340D01*
X100994Y138465D01*
X100954Y138591D01*
X100918Y138719D01*
X100885Y138847D01*
X100856Y138976D01*
X100831Y139107D01*
X100810Y139237D01*
X100792Y139369D01*
X100779Y139501D01*
X100769Y139633D01*
X100763Y139765D01*
X100761Y139898D01*
X117006Y135382D02*
X117006Y151638D01*
X121521Y151638D01*
X121654Y151636D01*
X121786Y151630D01*
X121918Y151620D01*
X122050Y151607D01*
X122182Y151589D01*
X122312Y151568D01*
X122443Y151543D01*
X122572Y151514D01*
X122700Y151481D01*
X122828Y151445D01*
X122954Y151405D01*
X123079Y151361D01*
X123203Y151313D01*
X123325Y151262D01*
X123446Y151207D01*
X123565Y151149D01*
X123683Y151087D01*
X123798Y151022D01*
X123912Y150953D01*
X124023Y150882D01*
X124132Y150806D01*
X124239Y150728D01*
X124344Y150647D01*
X124446Y150562D01*
X124546Y150475D01*
X124643Y150385D01*
X124738Y150292D01*
X124829Y150196D01*
X124918Y150098D01*
X125004Y149997D01*
X125087Y149893D01*
X125167Y149787D01*
X125243Y149679D01*
X125317Y149569D01*
X125387Y149456D01*
X125454Y149342D01*
X125517Y149225D01*
X125577Y149107D01*
X125634Y148987D01*
X125687Y148865D01*
X125736Y148742D01*
X125782Y148618D01*
X125824Y148492D01*
X125862Y148365D01*
X125897Y148237D01*
X125928Y148108D01*
X125955Y147979D01*
X125978Y147848D01*
X125998Y147717D01*
X126013Y147585D01*
X126025Y147453D01*
X126033Y147321D01*
X126037Y147188D01*
X126037Y147056D01*
X126033Y146923D01*
X126025Y146791D01*
X126013Y146659D01*
X125998Y146527D01*
X125978Y146396D01*
X125955Y146265D01*
X125928Y146136D01*
X125897Y146007D01*
X125862Y145879D01*
X125824Y145752D01*
X125782Y145626D01*
X125736Y145502D01*
X125687Y145379D01*
X125634Y145257D01*
X125577Y145137D01*
X125517Y145019D01*
X125454Y144902D01*
X125387Y144788D01*
X125317Y144675D01*
X125243Y144565D01*
X125167Y144457D01*
X125087Y144351D01*
X125004Y144247D01*
X124918Y144146D01*
X124829Y144048D01*
X124738Y143952D01*
X124643Y143859D01*
X124546Y143769D01*
X124446Y143682D01*
X124344Y143597D01*
X124239Y143516D01*
X124132Y143438D01*
X124023Y143362D01*
X123912Y143291D01*
X123798Y143222D01*
X123683Y143157D01*
X123565Y143095D01*
X123446Y143037D01*
X123325Y142982D01*
X123203Y142931D01*
X123079Y142883D01*
X122954Y142839D01*
X122828Y142799D01*
X122700Y142763D01*
X122572Y142730D01*
X122443Y142701D01*
X122312Y142676D01*
X122182Y142655D01*
X122050Y142637D01*
X121918Y142624D01*
X121786Y142614D01*
X121654Y142608D01*
X121521Y142606D01*
X121521Y142607D02*
X117006Y142607D01*
X122424Y142607D02*
X126037Y135382D01*
X131642Y135382D02*
X137061Y151638D01*
X142479Y135382D01*
X141125Y139446D02*
X132997Y139446D01*
X151650Y135382D02*
X151650Y151638D01*
X147134Y151638D02*
X156166Y151638D01*
X161724Y147122D02*
X161724Y139898D01*
X161723Y147122D02*
X161725Y147255D01*
X161731Y147387D01*
X161741Y147519D01*
X161754Y147651D01*
X161772Y147783D01*
X161793Y147913D01*
X161818Y148044D01*
X161847Y148173D01*
X161880Y148301D01*
X161916Y148429D01*
X161956Y148555D01*
X162000Y148680D01*
X162048Y148804D01*
X162099Y148926D01*
X162154Y149047D01*
X162212Y149166D01*
X162274Y149284D01*
X162339Y149399D01*
X162408Y149513D01*
X162479Y149624D01*
X162555Y149733D01*
X162633Y149840D01*
X162714Y149945D01*
X162799Y150047D01*
X162886Y150147D01*
X162976Y150244D01*
X163069Y150339D01*
X163165Y150430D01*
X163263Y150519D01*
X163364Y150605D01*
X163468Y150688D01*
X163574Y150768D01*
X163682Y150844D01*
X163792Y150918D01*
X163905Y150988D01*
X164019Y151055D01*
X164136Y151118D01*
X164254Y151178D01*
X164374Y151235D01*
X164496Y151288D01*
X164619Y151337D01*
X164743Y151383D01*
X164869Y151425D01*
X164996Y151463D01*
X165124Y151498D01*
X165253Y151529D01*
X165382Y151556D01*
X165513Y151579D01*
X165644Y151599D01*
X165776Y151614D01*
X165908Y151626D01*
X166040Y151634D01*
X166173Y151638D01*
X166305Y151638D01*
X166438Y151634D01*
X166570Y151626D01*
X166702Y151614D01*
X166834Y151599D01*
X166965Y151579D01*
X167096Y151556D01*
X167225Y151529D01*
X167354Y151498D01*
X167482Y151463D01*
X167609Y151425D01*
X167735Y151383D01*
X167859Y151337D01*
X167982Y151288D01*
X168104Y151235D01*
X168224Y151178D01*
X168342Y151118D01*
X168459Y151055D01*
X168573Y150988D01*
X168686Y150918D01*
X168796Y150844D01*
X168904Y150768D01*
X169010Y150688D01*
X169114Y150605D01*
X169215Y150519D01*
X169313Y150430D01*
X169409Y150339D01*
X169502Y150244D01*
X169592Y150147D01*
X169679Y150047D01*
X169764Y149945D01*
X169845Y149840D01*
X169923Y149733D01*
X169999Y149624D01*
X170070Y149513D01*
X170139Y149399D01*
X170204Y149284D01*
X170266Y149166D01*
X170324Y149047D01*
X170379Y148926D01*
X170430Y148804D01*
X170478Y148680D01*
X170522Y148555D01*
X170562Y148429D01*
X170598Y148301D01*
X170631Y148173D01*
X170660Y148044D01*
X170685Y147913D01*
X170706Y147783D01*
X170724Y147651D01*
X170737Y147519D01*
X170747Y147387D01*
X170753Y147255D01*
X170755Y147122D01*
X170755Y139898D01*
X170753Y139765D01*
X170747Y139633D01*
X170737Y139501D01*
X170724Y139369D01*
X170706Y139237D01*
X170685Y139107D01*
X170660Y138976D01*
X170631Y138847D01*
X170598Y138719D01*
X170562Y138591D01*
X170522Y138465D01*
X170478Y138340D01*
X170430Y138216D01*
X170379Y138094D01*
X170324Y137973D01*
X170266Y137854D01*
X170204Y137736D01*
X170139Y137621D01*
X170070Y137507D01*
X169999Y137396D01*
X169923Y137287D01*
X169845Y137180D01*
X169764Y137075D01*
X169679Y136973D01*
X169592Y136873D01*
X169502Y136776D01*
X169409Y136681D01*
X169313Y136590D01*
X169215Y136501D01*
X169114Y136415D01*
X169010Y136332D01*
X168904Y136252D01*
X168796Y136176D01*
X168686Y136102D01*
X168573Y136032D01*
X168459Y135965D01*
X168342Y135902D01*
X168224Y135842D01*
X168104Y135785D01*
X167982Y135732D01*
X167859Y135683D01*
X167735Y135637D01*
X167609Y135595D01*
X167482Y135557D01*
X167354Y135522D01*
X167225Y135491D01*
X167096Y135464D01*
X166965Y135441D01*
X166834Y135421D01*
X166702Y135406D01*
X166570Y135394D01*
X166438Y135386D01*
X166305Y135382D01*
X166173Y135382D01*
X166040Y135386D01*
X165908Y135394D01*
X165776Y135406D01*
X165644Y135421D01*
X165513Y135441D01*
X165382Y135464D01*
X165253Y135491D01*
X165124Y135522D01*
X164996Y135557D01*
X164869Y135595D01*
X164743Y135637D01*
X164619Y135683D01*
X164496Y135732D01*
X164374Y135785D01*
X164254Y135842D01*
X164136Y135902D01*
X164019Y135965D01*
X163905Y136032D01*
X163792Y136102D01*
X163682Y136176D01*
X163574Y136252D01*
X163468Y136332D01*
X163364Y136415D01*
X163263Y136501D01*
X163165Y136590D01*
X163069Y136681D01*
X162976Y136776D01*
X162886Y136873D01*
X162799Y136973D01*
X162714Y137075D01*
X162633Y137180D01*
X162555Y137287D01*
X162479Y137396D01*
X162408Y137507D01*
X162339Y137621D01*
X162274Y137736D01*
X162212Y137854D01*
X162154Y137973D01*
X162099Y138094D01*
X162048Y138216D01*
X162000Y138340D01*
X161956Y138465D01*
X161916Y138591D01*
X161880Y138719D01*
X161847Y138847D01*
X161818Y138976D01*
X161793Y139107D01*
X161772Y139237D01*
X161754Y139369D01*
X161741Y139501D01*
X161731Y139633D01*
X161725Y139765D01*
X161723Y139898D01*
X164884Y155702D02*
X168497Y158411D01*
X177967Y151638D02*
X177967Y135382D01*
X177967Y151638D02*
X182483Y151638D01*
X182616Y151636D01*
X182748Y151630D01*
X182880Y151620D01*
X183012Y151607D01*
X183144Y151589D01*
X183274Y151568D01*
X183405Y151543D01*
X183534Y151514D01*
X183662Y151481D01*
X183790Y151445D01*
X183916Y151405D01*
X184041Y151361D01*
X184165Y151313D01*
X184287Y151262D01*
X184408Y151207D01*
X184527Y151149D01*
X184645Y151087D01*
X184760Y151022D01*
X184874Y150953D01*
X184985Y150882D01*
X185094Y150806D01*
X185201Y150728D01*
X185306Y150647D01*
X185408Y150562D01*
X185508Y150475D01*
X185605Y150385D01*
X185700Y150292D01*
X185791Y150196D01*
X185880Y150098D01*
X185966Y149997D01*
X186049Y149893D01*
X186129Y149787D01*
X186205Y149679D01*
X186279Y149569D01*
X186349Y149456D01*
X186416Y149342D01*
X186479Y149225D01*
X186539Y149107D01*
X186596Y148987D01*
X186649Y148865D01*
X186698Y148742D01*
X186744Y148618D01*
X186786Y148492D01*
X186824Y148365D01*
X186859Y148237D01*
X186890Y148108D01*
X186917Y147979D01*
X186940Y147848D01*
X186960Y147717D01*
X186975Y147585D01*
X186987Y147453D01*
X186995Y147321D01*
X186999Y147188D01*
X186999Y147056D01*
X186995Y146923D01*
X186987Y146791D01*
X186975Y146659D01*
X186960Y146527D01*
X186940Y146396D01*
X186917Y146265D01*
X186890Y146136D01*
X186859Y146007D01*
X186824Y145879D01*
X186786Y145752D01*
X186744Y145626D01*
X186698Y145502D01*
X186649Y145379D01*
X186596Y145257D01*
X186539Y145137D01*
X186479Y145019D01*
X186416Y144902D01*
X186349Y144788D01*
X186279Y144675D01*
X186205Y144565D01*
X186129Y144457D01*
X186049Y144351D01*
X185966Y144247D01*
X185880Y144146D01*
X185791Y144048D01*
X185700Y143952D01*
X185605Y143859D01*
X185508Y143769D01*
X185408Y143682D01*
X185306Y143597D01*
X185201Y143516D01*
X185094Y143438D01*
X184985Y143362D01*
X184874Y143291D01*
X184760Y143222D01*
X184645Y143157D01*
X184527Y143095D01*
X184408Y143037D01*
X184287Y142982D01*
X184165Y142931D01*
X184041Y142883D01*
X183916Y142839D01*
X183790Y142799D01*
X183662Y142763D01*
X183534Y142730D01*
X183405Y142701D01*
X183274Y142676D01*
X183144Y142655D01*
X183012Y142637D01*
X182880Y142624D01*
X182748Y142614D01*
X182616Y142608D01*
X182483Y142606D01*
X182483Y142607D02*
X177967Y142607D01*
X183386Y142607D02*
X186999Y135382D01*
X194896Y135382D02*
X194896Y151638D01*
X193090Y135382D02*
X196703Y135382D01*
X196703Y151638D02*
X193090Y151638D01*
X202886Y147122D02*
X202886Y139898D01*
X202885Y147122D02*
X202887Y147255D01*
X202893Y147387D01*
X202903Y147519D01*
X202916Y147651D01*
X202934Y147783D01*
X202955Y147913D01*
X202980Y148044D01*
X203009Y148173D01*
X203042Y148301D01*
X203078Y148429D01*
X203118Y148555D01*
X203162Y148680D01*
X203210Y148804D01*
X203261Y148926D01*
X203316Y149047D01*
X203374Y149166D01*
X203436Y149284D01*
X203501Y149399D01*
X203570Y149513D01*
X203641Y149624D01*
X203717Y149733D01*
X203795Y149840D01*
X203876Y149945D01*
X203961Y150047D01*
X204048Y150147D01*
X204138Y150244D01*
X204231Y150339D01*
X204327Y150430D01*
X204425Y150519D01*
X204526Y150605D01*
X204630Y150688D01*
X204736Y150768D01*
X204844Y150844D01*
X204954Y150918D01*
X205067Y150988D01*
X205181Y151055D01*
X205298Y151118D01*
X205416Y151178D01*
X205536Y151235D01*
X205658Y151288D01*
X205781Y151337D01*
X205905Y151383D01*
X206031Y151425D01*
X206158Y151463D01*
X206286Y151498D01*
X206415Y151529D01*
X206544Y151556D01*
X206675Y151579D01*
X206806Y151599D01*
X206938Y151614D01*
X207070Y151626D01*
X207202Y151634D01*
X207335Y151638D01*
X207467Y151638D01*
X207600Y151634D01*
X207732Y151626D01*
X207864Y151614D01*
X207996Y151599D01*
X208127Y151579D01*
X208258Y151556D01*
X208387Y151529D01*
X208516Y151498D01*
X208644Y151463D01*
X208771Y151425D01*
X208897Y151383D01*
X209021Y151337D01*
X209144Y151288D01*
X209266Y151235D01*
X209386Y151178D01*
X209504Y151118D01*
X209621Y151055D01*
X209735Y150988D01*
X209848Y150918D01*
X209958Y150844D01*
X210066Y150768D01*
X210172Y150688D01*
X210276Y150605D01*
X210377Y150519D01*
X210475Y150430D01*
X210571Y150339D01*
X210664Y150244D01*
X210754Y150147D01*
X210841Y150047D01*
X210926Y149945D01*
X211007Y149840D01*
X211085Y149733D01*
X211161Y149624D01*
X211232Y149513D01*
X211301Y149399D01*
X211366Y149284D01*
X211428Y149166D01*
X211486Y149047D01*
X211541Y148926D01*
X211592Y148804D01*
X211640Y148680D01*
X211684Y148555D01*
X211724Y148429D01*
X211760Y148301D01*
X211793Y148173D01*
X211822Y148044D01*
X211847Y147913D01*
X211868Y147783D01*
X211886Y147651D01*
X211899Y147519D01*
X211909Y147387D01*
X211915Y147255D01*
X211917Y147122D01*
X211917Y139898D01*
X211915Y139765D01*
X211909Y139633D01*
X211899Y139501D01*
X211886Y139369D01*
X211868Y139237D01*
X211847Y139107D01*
X211822Y138976D01*
X211793Y138847D01*
X211760Y138719D01*
X211724Y138591D01*
X211684Y138465D01*
X211640Y138340D01*
X211592Y138216D01*
X211541Y138094D01*
X211486Y137973D01*
X211428Y137854D01*
X211366Y137736D01*
X211301Y137621D01*
X211232Y137507D01*
X211161Y137396D01*
X211085Y137287D01*
X211007Y137180D01*
X210926Y137075D01*
X210841Y136973D01*
X210754Y136873D01*
X210664Y136776D01*
X210571Y136681D01*
X210475Y136590D01*
X210377Y136501D01*
X210276Y136415D01*
X210172Y136332D01*
X210066Y136252D01*
X209958Y136176D01*
X209848Y136102D01*
X209735Y136032D01*
X209621Y135965D01*
X209504Y135902D01*
X209386Y135842D01*
X209266Y135785D01*
X209144Y135732D01*
X209021Y135683D01*
X208897Y135637D01*
X208771Y135595D01*
X208644Y135557D01*
X208516Y135522D01*
X208387Y135491D01*
X208258Y135464D01*
X208127Y135441D01*
X207996Y135421D01*
X207864Y135406D01*
X207732Y135394D01*
X207600Y135386D01*
X207467Y135382D01*
X207335Y135382D01*
X207202Y135386D01*
X207070Y135394D01*
X206938Y135406D01*
X206806Y135421D01*
X206675Y135441D01*
X206544Y135464D01*
X206415Y135491D01*
X206286Y135522D01*
X206158Y135557D01*
X206031Y135595D01*
X205905Y135637D01*
X205781Y135683D01*
X205658Y135732D01*
X205536Y135785D01*
X205416Y135842D01*
X205298Y135902D01*
X205181Y135965D01*
X205067Y136032D01*
X204954Y136102D01*
X204844Y136176D01*
X204736Y136252D01*
X204630Y136332D01*
X204526Y136415D01*
X204425Y136501D01*
X204327Y136590D01*
X204231Y136681D01*
X204138Y136776D01*
X204048Y136873D01*
X203961Y136973D01*
X203876Y137075D01*
X203795Y137180D01*
X203717Y137287D01*
X203641Y137396D01*
X203570Y137507D01*
X203501Y137621D01*
X203436Y137736D01*
X203374Y137854D01*
X203316Y137973D01*
X203261Y138094D01*
X203210Y138216D01*
X203162Y138340D01*
X203118Y138465D01*
X203078Y138591D01*
X203042Y138719D01*
X203009Y138847D01*
X202980Y138976D01*
X202955Y139107D01*
X202934Y139237D01*
X202916Y139369D01*
X202903Y139501D01*
X202893Y139633D01*
X202887Y139765D01*
X202885Y139898D01*
X227375Y135382D02*
X227375Y151638D01*
X231890Y151638D01*
X232021Y151636D01*
X232153Y151630D01*
X232284Y151621D01*
X232414Y151607D01*
X232545Y151590D01*
X232674Y151569D01*
X232803Y151545D01*
X232931Y151516D01*
X233059Y151484D01*
X233185Y151448D01*
X233310Y151409D01*
X233435Y151366D01*
X233557Y151319D01*
X233679Y151269D01*
X233799Y151215D01*
X233917Y151158D01*
X234033Y151097D01*
X234148Y151033D01*
X234261Y150966D01*
X234372Y150895D01*
X234480Y150821D01*
X234587Y150744D01*
X234691Y150664D01*
X234793Y150581D01*
X234892Y150496D01*
X234989Y150407D01*
X235083Y150315D01*
X235175Y150221D01*
X235264Y150124D01*
X235349Y150025D01*
X235432Y149923D01*
X235512Y149819D01*
X235589Y149712D01*
X235663Y149604D01*
X235734Y149493D01*
X235801Y149380D01*
X235865Y149265D01*
X235926Y149149D01*
X235983Y149031D01*
X236037Y148911D01*
X236087Y148789D01*
X236134Y148667D01*
X236177Y148542D01*
X236216Y148417D01*
X236252Y148291D01*
X236284Y148163D01*
X236313Y148035D01*
X236337Y147906D01*
X236358Y147777D01*
X236375Y147646D01*
X236389Y147516D01*
X236398Y147385D01*
X236404Y147253D01*
X236406Y147122D01*
X236406Y139898D01*
X236404Y139767D01*
X236398Y139635D01*
X236389Y139504D01*
X236375Y139374D01*
X236358Y139243D01*
X236337Y139114D01*
X236313Y138985D01*
X236284Y138857D01*
X236252Y138729D01*
X236216Y138603D01*
X236177Y138478D01*
X236134Y138353D01*
X236087Y138231D01*
X236037Y138109D01*
X235983Y137989D01*
X235926Y137871D01*
X235865Y137755D01*
X235801Y137640D01*
X235734Y137527D01*
X235663Y137416D01*
X235589Y137308D01*
X235512Y137201D01*
X235432Y137097D01*
X235349Y136995D01*
X235264Y136896D01*
X235175Y136799D01*
X235083Y136705D01*
X234989Y136613D01*
X234892Y136524D01*
X234793Y136439D01*
X234691Y136356D01*
X234587Y136276D01*
X234480Y136199D01*
X234372Y136125D01*
X234261Y136054D01*
X234148Y135987D01*
X234033Y135923D01*
X233917Y135862D01*
X233799Y135805D01*
X233679Y135751D01*
X233557Y135701D01*
X233435Y135654D01*
X233310Y135611D01*
X233185Y135572D01*
X233059Y135536D01*
X232931Y135504D01*
X232803Y135475D01*
X232674Y135451D01*
X232544Y135430D01*
X232414Y135413D01*
X232284Y135399D01*
X232153Y135390D01*
X232021Y135384D01*
X231890Y135382D01*
X227375Y135382D01*
X244078Y135382D02*
X251303Y135382D01*
X244078Y135382D02*
X244078Y151638D01*
X251303Y151638D01*
X249496Y144413D02*
X244078Y144413D01*
X266800Y151638D02*
X266800Y135382D01*
X264994Y135382D02*
X268606Y135382D01*
X268606Y151638D02*
X264994Y151638D01*
X275310Y151638D02*
X275310Y135382D01*
X284342Y135382D02*
X275310Y151638D01*
X284342Y151638D02*
X284342Y135382D01*
X292014Y135382D02*
X292014Y151638D01*
X299238Y151638D01*
X299238Y144413D02*
X292014Y144413D01*
X305010Y147122D02*
X305010Y139898D01*
X305009Y147122D02*
X305011Y147255D01*
X305017Y147387D01*
X305027Y147519D01*
X305040Y147651D01*
X305058Y147783D01*
X305079Y147913D01*
X305104Y148044D01*
X305133Y148173D01*
X305166Y148301D01*
X305202Y148429D01*
X305242Y148555D01*
X305286Y148680D01*
X305334Y148804D01*
X305385Y148926D01*
X305440Y149047D01*
X305498Y149166D01*
X305560Y149284D01*
X305625Y149399D01*
X305694Y149513D01*
X305765Y149624D01*
X305841Y149733D01*
X305919Y149840D01*
X306000Y149945D01*
X306085Y150047D01*
X306172Y150147D01*
X306262Y150244D01*
X306355Y150339D01*
X306451Y150430D01*
X306549Y150519D01*
X306650Y150605D01*
X306754Y150688D01*
X306860Y150768D01*
X306968Y150844D01*
X307078Y150918D01*
X307191Y150988D01*
X307305Y151055D01*
X307422Y151118D01*
X307540Y151178D01*
X307660Y151235D01*
X307782Y151288D01*
X307905Y151337D01*
X308029Y151383D01*
X308155Y151425D01*
X308282Y151463D01*
X308410Y151498D01*
X308539Y151529D01*
X308668Y151556D01*
X308799Y151579D01*
X308930Y151599D01*
X309062Y151614D01*
X309194Y151626D01*
X309326Y151634D01*
X309459Y151638D01*
X309591Y151638D01*
X309724Y151634D01*
X309856Y151626D01*
X309988Y151614D01*
X310120Y151599D01*
X310251Y151579D01*
X310382Y151556D01*
X310511Y151529D01*
X310640Y151498D01*
X310768Y151463D01*
X310895Y151425D01*
X311021Y151383D01*
X311145Y151337D01*
X311268Y151288D01*
X311390Y151235D01*
X311510Y151178D01*
X311628Y151118D01*
X311745Y151055D01*
X311859Y150988D01*
X311972Y150918D01*
X312082Y150844D01*
X312190Y150768D01*
X312296Y150688D01*
X312400Y150605D01*
X312501Y150519D01*
X312599Y150430D01*
X312695Y150339D01*
X312788Y150244D01*
X312878Y150147D01*
X312965Y150047D01*
X313050Y149945D01*
X313131Y149840D01*
X313209Y149733D01*
X313285Y149624D01*
X313356Y149513D01*
X313425Y149399D01*
X313490Y149284D01*
X313552Y149166D01*
X313610Y149047D01*
X313665Y148926D01*
X313716Y148804D01*
X313764Y148680D01*
X313808Y148555D01*
X313848Y148429D01*
X313884Y148301D01*
X313917Y148173D01*
X313946Y148044D01*
X313971Y147913D01*
X313992Y147783D01*
X314010Y147651D01*
X314023Y147519D01*
X314033Y147387D01*
X314039Y147255D01*
X314041Y147122D01*
X314041Y139898D01*
X314039Y139765D01*
X314033Y139633D01*
X314023Y139501D01*
X314010Y139369D01*
X313992Y139237D01*
X313971Y139107D01*
X313946Y138976D01*
X313917Y138847D01*
X313884Y138719D01*
X313848Y138591D01*
X313808Y138465D01*
X313764Y138340D01*
X313716Y138216D01*
X313665Y138094D01*
X313610Y137973D01*
X313552Y137854D01*
X313490Y137736D01*
X313425Y137621D01*
X313356Y137507D01*
X313285Y137396D01*
X313209Y137287D01*
X313131Y137180D01*
X313050Y137075D01*
X312965Y136973D01*
X312878Y136873D01*
X312788Y136776D01*
X312695Y136681D01*
X312599Y136590D01*
X312501Y136501D01*
X312400Y136415D01*
X312296Y136332D01*
X312190Y136252D01*
X312082Y136176D01*
X311972Y136102D01*
X311859Y136032D01*
X311745Y135965D01*
X311628Y135902D01*
X311510Y135842D01*
X311390Y135785D01*
X311268Y135732D01*
X311145Y135683D01*
X311021Y135637D01*
X310895Y135595D01*
X310768Y135557D01*
X310640Y135522D01*
X310511Y135491D01*
X310382Y135464D01*
X310251Y135441D01*
X310120Y135421D01*
X309988Y135406D01*
X309856Y135394D01*
X309724Y135386D01*
X309591Y135382D01*
X309459Y135382D01*
X309326Y135386D01*
X309194Y135394D01*
X309062Y135406D01*
X308930Y135421D01*
X308799Y135441D01*
X308668Y135464D01*
X308539Y135491D01*
X308410Y135522D01*
X308282Y135557D01*
X308155Y135595D01*
X308029Y135637D01*
X307905Y135683D01*
X307782Y135732D01*
X307660Y135785D01*
X307540Y135842D01*
X307422Y135902D01*
X307305Y135965D01*
X307191Y136032D01*
X307078Y136102D01*
X306968Y136176D01*
X306860Y136252D01*
X306754Y136332D01*
X306650Y136415D01*
X306549Y136501D01*
X306451Y136590D01*
X306355Y136681D01*
X306262Y136776D01*
X306172Y136873D01*
X306085Y136973D01*
X306000Y137075D01*
X305919Y137180D01*
X305841Y137287D01*
X305765Y137396D01*
X305694Y137507D01*
X305625Y137621D01*
X305560Y137736D01*
X305498Y137854D01*
X305440Y137973D01*
X305385Y138094D01*
X305334Y138216D01*
X305286Y138340D01*
X305242Y138465D01*
X305202Y138591D01*
X305166Y138719D01*
X305133Y138847D01*
X305104Y138976D01*
X305079Y139107D01*
X305058Y139237D01*
X305040Y139369D01*
X305027Y139501D01*
X305017Y139633D01*
X305011Y139765D01*
X305009Y139898D01*
X321254Y135382D02*
X321254Y151638D01*
X325769Y151638D01*
X325902Y151636D01*
X326034Y151630D01*
X326166Y151620D01*
X326298Y151607D01*
X326430Y151589D01*
X326560Y151568D01*
X326691Y151543D01*
X326820Y151514D01*
X326948Y151481D01*
X327076Y151445D01*
X327202Y151405D01*
X327327Y151361D01*
X327451Y151313D01*
X327573Y151262D01*
X327694Y151207D01*
X327813Y151149D01*
X327931Y151087D01*
X328046Y151022D01*
X328160Y150953D01*
X328271Y150882D01*
X328380Y150806D01*
X328487Y150728D01*
X328592Y150647D01*
X328694Y150562D01*
X328794Y150475D01*
X328891Y150385D01*
X328986Y150292D01*
X329077Y150196D01*
X329166Y150098D01*
X329252Y149997D01*
X329335Y149893D01*
X329415Y149787D01*
X329491Y149679D01*
X329565Y149569D01*
X329635Y149456D01*
X329702Y149342D01*
X329765Y149225D01*
X329825Y149107D01*
X329882Y148987D01*
X329935Y148865D01*
X329984Y148742D01*
X330030Y148618D01*
X330072Y148492D01*
X330110Y148365D01*
X330145Y148237D01*
X330176Y148108D01*
X330203Y147979D01*
X330226Y147848D01*
X330246Y147717D01*
X330261Y147585D01*
X330273Y147453D01*
X330281Y147321D01*
X330285Y147188D01*
X330285Y147056D01*
X330281Y146923D01*
X330273Y146791D01*
X330261Y146659D01*
X330246Y146527D01*
X330226Y146396D01*
X330203Y146265D01*
X330176Y146136D01*
X330145Y146007D01*
X330110Y145879D01*
X330072Y145752D01*
X330030Y145626D01*
X329984Y145502D01*
X329935Y145379D01*
X329882Y145257D01*
X329825Y145137D01*
X329765Y145019D01*
X329702Y144902D01*
X329635Y144788D01*
X329565Y144675D01*
X329491Y144565D01*
X329415Y144457D01*
X329335Y144351D01*
X329252Y144247D01*
X329166Y144146D01*
X329077Y144048D01*
X328986Y143952D01*
X328891Y143859D01*
X328794Y143769D01*
X328694Y143682D01*
X328592Y143597D01*
X328487Y143516D01*
X328380Y143438D01*
X328271Y143362D01*
X328160Y143291D01*
X328046Y143222D01*
X327931Y143157D01*
X327813Y143095D01*
X327694Y143037D01*
X327573Y142982D01*
X327451Y142931D01*
X327327Y142883D01*
X327202Y142839D01*
X327076Y142799D01*
X326948Y142763D01*
X326820Y142730D01*
X326691Y142701D01*
X326560Y142676D01*
X326430Y142655D01*
X326298Y142637D01*
X326166Y142624D01*
X326034Y142614D01*
X325902Y142608D01*
X325769Y142606D01*
X325769Y142607D02*
X321254Y142607D01*
X326672Y142607D02*
X330285Y135382D01*
X337453Y135382D02*
X337453Y151638D01*
X342872Y142607D01*
X348291Y151638D01*
X348291Y135382D01*
X354648Y135382D02*
X360066Y151638D01*
X365485Y135382D01*
X364130Y139446D02*
X356002Y139446D01*
X358712Y155702D02*
X362324Y158411D01*
X374655Y151638D02*
X374655Y135382D01*
X370140Y151638D02*
X379171Y151638D01*
X386118Y151638D02*
X386118Y135382D01*
X384312Y135382D02*
X387925Y135382D01*
X387925Y151638D02*
X384312Y151638D01*
X397681Y135382D02*
X401293Y135382D01*
X397681Y135382D02*
X397563Y135384D01*
X397445Y135390D01*
X397327Y135399D01*
X397210Y135413D01*
X397093Y135430D01*
X396976Y135451D01*
X396861Y135476D01*
X396746Y135505D01*
X396632Y135538D01*
X396520Y135574D01*
X396409Y135614D01*
X396299Y135657D01*
X396190Y135704D01*
X396083Y135754D01*
X395978Y135809D01*
X395875Y135866D01*
X395774Y135927D01*
X395674Y135991D01*
X395577Y136058D01*
X395482Y136128D01*
X395390Y136202D01*
X395299Y136278D01*
X395212Y136358D01*
X395127Y136440D01*
X395045Y136525D01*
X394965Y136612D01*
X394889Y136703D01*
X394815Y136795D01*
X394745Y136890D01*
X394678Y136987D01*
X394614Y137087D01*
X394553Y137188D01*
X394496Y137291D01*
X394441Y137396D01*
X394391Y137503D01*
X394344Y137612D01*
X394301Y137722D01*
X394261Y137833D01*
X394225Y137945D01*
X394192Y138059D01*
X394163Y138174D01*
X394138Y138289D01*
X394117Y138406D01*
X394100Y138523D01*
X394086Y138640D01*
X394077Y138758D01*
X394071Y138876D01*
X394069Y138994D01*
X394068Y138994D02*
X394068Y148026D01*
X394069Y148026D02*
X394071Y148144D01*
X394077Y148262D01*
X394086Y148380D01*
X394100Y148497D01*
X394117Y148614D01*
X394138Y148731D01*
X394163Y148846D01*
X394192Y148961D01*
X394225Y149075D01*
X394261Y149187D01*
X394301Y149298D01*
X394344Y149408D01*
X394391Y149517D01*
X394441Y149624D01*
X394495Y149729D01*
X394553Y149832D01*
X394614Y149933D01*
X394678Y150033D01*
X394745Y150130D01*
X394815Y150225D01*
X394889Y150317D01*
X394965Y150408D01*
X395045Y150495D01*
X395127Y150580D01*
X395212Y150662D01*
X395299Y150742D01*
X395390Y150818D01*
X395482Y150892D01*
X395577Y150962D01*
X395674Y151029D01*
X395774Y151093D01*
X395875Y151154D01*
X395978Y151211D01*
X396083Y151265D01*
X396190Y151316D01*
X396299Y151363D01*
X396409Y151406D01*
X396520Y151446D01*
X396632Y151482D01*
X396746Y151515D01*
X396861Y151544D01*
X396976Y151569D01*
X397093Y151590D01*
X397210Y151607D01*
X397327Y151621D01*
X397445Y151630D01*
X397563Y151636D01*
X397681Y151638D01*
X401293Y151638D01*
X411649Y151638D02*
X406231Y135382D01*
X417068Y135382D02*
X411649Y151638D01*
X415713Y139446D02*
X407585Y139446D01*
X42418Y314864D02*
X26162Y314864D01*
X42418Y313058D02*
X42418Y316670D01*
X26162Y316670D02*
X26162Y313058D01*
X26162Y323375D02*
X42418Y323375D01*
X42418Y332406D02*
X26162Y323375D01*
X26162Y332406D02*
X42418Y332406D01*
X42418Y344424D02*
X42416Y344542D01*
X42410Y344660D01*
X42401Y344778D01*
X42387Y344895D01*
X42370Y345012D01*
X42349Y345129D01*
X42324Y345244D01*
X42295Y345359D01*
X42262Y345473D01*
X42226Y345585D01*
X42186Y345696D01*
X42143Y345806D01*
X42096Y345915D01*
X42046Y346022D01*
X41991Y346127D01*
X41934Y346230D01*
X41873Y346331D01*
X41809Y346431D01*
X41742Y346528D01*
X41672Y346623D01*
X41598Y346715D01*
X41522Y346806D01*
X41442Y346893D01*
X41360Y346978D01*
X41275Y347060D01*
X41188Y347140D01*
X41097Y347216D01*
X41005Y347290D01*
X40910Y347360D01*
X40813Y347427D01*
X40713Y347491D01*
X40612Y347552D01*
X40509Y347609D01*
X40404Y347664D01*
X40297Y347714D01*
X40188Y347761D01*
X40078Y347804D01*
X39967Y347844D01*
X39855Y347880D01*
X39741Y347913D01*
X39626Y347942D01*
X39511Y347967D01*
X39394Y347988D01*
X39277Y348005D01*
X39160Y348019D01*
X39042Y348028D01*
X38924Y348034D01*
X38806Y348036D01*
X42418Y344424D02*
X42416Y344241D01*
X42409Y344059D01*
X42398Y343877D01*
X42383Y343695D01*
X42363Y343513D01*
X42340Y343332D01*
X42311Y343152D01*
X42279Y342972D01*
X42242Y342793D01*
X42201Y342616D01*
X42155Y342439D01*
X42106Y342263D01*
X42052Y342089D01*
X41994Y341915D01*
X41932Y341744D01*
X41866Y341574D01*
X41795Y341405D01*
X41721Y341238D01*
X41643Y341073D01*
X41561Y340910D01*
X41475Y340749D01*
X41385Y340590D01*
X41291Y340433D01*
X41194Y340279D01*
X41093Y340127D01*
X40988Y339977D01*
X40880Y339830D01*
X40769Y339686D01*
X40654Y339544D01*
X40535Y339405D01*
X40413Y339269D01*
X40288Y339136D01*
X40160Y339006D01*
X29774Y339458D02*
X29656Y339460D01*
X29538Y339466D01*
X29420Y339475D01*
X29303Y339489D01*
X29186Y339506D01*
X29069Y339527D01*
X28954Y339552D01*
X28839Y339581D01*
X28725Y339614D01*
X28613Y339650D01*
X28502Y339690D01*
X28392Y339733D01*
X28283Y339780D01*
X28176Y339830D01*
X28071Y339885D01*
X27968Y339942D01*
X27867Y340003D01*
X27767Y340067D01*
X27670Y340134D01*
X27575Y340204D01*
X27483Y340278D01*
X27392Y340354D01*
X27305Y340434D01*
X27220Y340516D01*
X27138Y340601D01*
X27058Y340688D01*
X26982Y340779D01*
X26908Y340871D01*
X26838Y340966D01*
X26771Y341063D01*
X26707Y341163D01*
X26646Y341264D01*
X26589Y341367D01*
X26534Y341472D01*
X26484Y341579D01*
X26437Y341688D01*
X26394Y341798D01*
X26354Y341909D01*
X26318Y342021D01*
X26285Y342135D01*
X26256Y342250D01*
X26231Y342365D01*
X26210Y342482D01*
X26193Y342599D01*
X26179Y342716D01*
X26170Y342834D01*
X26164Y342952D01*
X26162Y343070D01*
X26164Y343231D01*
X26170Y343393D01*
X26179Y343554D01*
X26193Y343715D01*
X26210Y343875D01*
X26231Y344035D01*
X26256Y344195D01*
X26285Y344354D01*
X26317Y344512D01*
X26353Y344669D01*
X26393Y344825D01*
X26437Y344981D01*
X26485Y345135D01*
X26536Y345288D01*
X26590Y345440D01*
X26649Y345591D01*
X26710Y345740D01*
X26776Y345887D01*
X26845Y346033D01*
X26917Y346178D01*
X26993Y346320D01*
X27072Y346461D01*
X27154Y346600D01*
X27240Y346736D01*
X27329Y346871D01*
X27421Y347004D01*
X27517Y347134D01*
X32935Y341263D02*
X32873Y341162D01*
X32808Y341062D01*
X32739Y340965D01*
X32667Y340870D01*
X32593Y340777D01*
X32515Y340687D01*
X32434Y340599D01*
X32351Y340514D01*
X32265Y340432D01*
X32176Y340353D01*
X32085Y340276D01*
X31991Y340203D01*
X31895Y340132D01*
X31797Y340065D01*
X31697Y340001D01*
X31594Y339940D01*
X31490Y339883D01*
X31384Y339829D01*
X31276Y339779D01*
X31167Y339732D01*
X31056Y339688D01*
X30944Y339648D01*
X30830Y339612D01*
X30716Y339580D01*
X30600Y339551D01*
X30484Y339526D01*
X30367Y339505D01*
X30249Y339488D01*
X30131Y339474D01*
X30012Y339465D01*
X29893Y339459D01*
X29774Y339457D01*
X35645Y346231D02*
X35707Y346332D01*
X35772Y346432D01*
X35841Y346529D01*
X35913Y346624D01*
X35987Y346717D01*
X36065Y346807D01*
X36146Y346895D01*
X36229Y346980D01*
X36315Y347062D01*
X36404Y347141D01*
X36495Y347218D01*
X36589Y347291D01*
X36685Y347362D01*
X36783Y347429D01*
X36883Y347493D01*
X36986Y347554D01*
X37090Y347611D01*
X37196Y347665D01*
X37304Y347715D01*
X37413Y347762D01*
X37524Y347806D01*
X37636Y347846D01*
X37750Y347882D01*
X37864Y347914D01*
X37980Y347943D01*
X38096Y347968D01*
X38213Y347989D01*
X38331Y348006D01*
X38449Y348020D01*
X38568Y348029D01*
X38687Y348035D01*
X38806Y348037D01*
X35645Y346231D02*
X32935Y341264D01*
X26162Y354848D02*
X42418Y354848D01*
X26162Y354848D02*
X26162Y359364D01*
X26164Y359497D01*
X26170Y359629D01*
X26180Y359761D01*
X26193Y359893D01*
X26211Y360025D01*
X26232Y360155D01*
X26257Y360286D01*
X26286Y360415D01*
X26319Y360543D01*
X26355Y360671D01*
X26395Y360797D01*
X26439Y360922D01*
X26487Y361046D01*
X26538Y361168D01*
X26593Y361289D01*
X26651Y361408D01*
X26713Y361526D01*
X26778Y361641D01*
X26847Y361755D01*
X26918Y361866D01*
X26994Y361975D01*
X27072Y362082D01*
X27153Y362187D01*
X27238Y362289D01*
X27325Y362389D01*
X27415Y362486D01*
X27508Y362581D01*
X27604Y362672D01*
X27702Y362761D01*
X27803Y362847D01*
X27907Y362930D01*
X28013Y363010D01*
X28121Y363086D01*
X28231Y363160D01*
X28344Y363230D01*
X28458Y363297D01*
X28575Y363360D01*
X28693Y363420D01*
X28813Y363477D01*
X28935Y363530D01*
X29058Y363579D01*
X29182Y363625D01*
X29308Y363667D01*
X29435Y363705D01*
X29563Y363740D01*
X29692Y363771D01*
X29821Y363798D01*
X29952Y363821D01*
X30083Y363841D01*
X30215Y363856D01*
X30347Y363868D01*
X30479Y363876D01*
X30612Y363880D01*
X30744Y363880D01*
X30877Y363876D01*
X31009Y363868D01*
X31141Y363856D01*
X31273Y363841D01*
X31404Y363821D01*
X31535Y363798D01*
X31664Y363771D01*
X31793Y363740D01*
X31921Y363705D01*
X32048Y363667D01*
X32174Y363625D01*
X32298Y363579D01*
X32421Y363530D01*
X32543Y363477D01*
X32663Y363420D01*
X32781Y363360D01*
X32898Y363297D01*
X33012Y363230D01*
X33125Y363160D01*
X33235Y363086D01*
X33343Y363010D01*
X33449Y362930D01*
X33553Y362847D01*
X33654Y362761D01*
X33752Y362672D01*
X33848Y362581D01*
X33941Y362486D01*
X34031Y362389D01*
X34118Y362289D01*
X34203Y362187D01*
X34284Y362082D01*
X34362Y361975D01*
X34438Y361866D01*
X34509Y361755D01*
X34578Y361641D01*
X34643Y361526D01*
X34705Y361408D01*
X34763Y361289D01*
X34818Y361168D01*
X34869Y361046D01*
X34917Y360922D01*
X34961Y360797D01*
X35001Y360671D01*
X35037Y360543D01*
X35070Y360415D01*
X35099Y360286D01*
X35124Y360155D01*
X35145Y360025D01*
X35163Y359893D01*
X35176Y359761D01*
X35186Y359629D01*
X35192Y359497D01*
X35194Y359364D01*
X35193Y359364D02*
X35193Y354848D01*
X42418Y370298D02*
X42418Y377523D01*
X42418Y370298D02*
X26162Y370298D01*
X26162Y377523D01*
X33387Y375717D02*
X33387Y370298D01*
X26162Y383907D02*
X42418Y383907D01*
X26162Y383907D02*
X26162Y388422D01*
X26164Y388555D01*
X26170Y388687D01*
X26180Y388819D01*
X26193Y388951D01*
X26211Y389083D01*
X26232Y389213D01*
X26257Y389344D01*
X26286Y389473D01*
X26319Y389601D01*
X26355Y389729D01*
X26395Y389855D01*
X26439Y389980D01*
X26487Y390104D01*
X26538Y390226D01*
X26593Y390347D01*
X26651Y390466D01*
X26713Y390584D01*
X26778Y390699D01*
X26847Y390813D01*
X26918Y390924D01*
X26994Y391033D01*
X27072Y391140D01*
X27153Y391245D01*
X27238Y391347D01*
X27325Y391447D01*
X27415Y391544D01*
X27508Y391639D01*
X27604Y391730D01*
X27702Y391819D01*
X27803Y391905D01*
X27907Y391988D01*
X28013Y392068D01*
X28121Y392144D01*
X28231Y392218D01*
X28344Y392288D01*
X28458Y392355D01*
X28575Y392418D01*
X28693Y392478D01*
X28813Y392535D01*
X28935Y392588D01*
X29058Y392637D01*
X29182Y392683D01*
X29308Y392725D01*
X29435Y392763D01*
X29563Y392798D01*
X29692Y392829D01*
X29821Y392856D01*
X29952Y392879D01*
X30083Y392899D01*
X30215Y392914D01*
X30347Y392926D01*
X30479Y392934D01*
X30612Y392938D01*
X30744Y392938D01*
X30877Y392934D01*
X31009Y392926D01*
X31141Y392914D01*
X31273Y392899D01*
X31404Y392879D01*
X31535Y392856D01*
X31664Y392829D01*
X31793Y392798D01*
X31921Y392763D01*
X32048Y392725D01*
X32174Y392683D01*
X32298Y392637D01*
X32421Y392588D01*
X32543Y392535D01*
X32663Y392478D01*
X32781Y392418D01*
X32898Y392355D01*
X33012Y392288D01*
X33125Y392218D01*
X33235Y392144D01*
X33343Y392068D01*
X33449Y391988D01*
X33553Y391905D01*
X33654Y391819D01*
X33752Y391730D01*
X33848Y391639D01*
X33941Y391544D01*
X34031Y391447D01*
X34118Y391347D01*
X34203Y391245D01*
X34284Y391140D01*
X34362Y391033D01*
X34438Y390924D01*
X34509Y390813D01*
X34578Y390699D01*
X34643Y390584D01*
X34705Y390466D01*
X34763Y390347D01*
X34818Y390226D01*
X34869Y390104D01*
X34917Y389980D01*
X34961Y389855D01*
X35001Y389729D01*
X35037Y389601D01*
X35070Y389473D01*
X35099Y389344D01*
X35124Y389213D01*
X35145Y389083D01*
X35163Y388951D01*
X35176Y388819D01*
X35186Y388687D01*
X35192Y388555D01*
X35194Y388422D01*
X35193Y388422D02*
X35193Y383907D01*
X35193Y389326D02*
X42418Y392938D01*
X103632Y422402D02*
X110857Y422402D01*
X103632Y422402D02*
X103632Y438658D01*
X110857Y438658D01*
X109051Y431433D02*
X103632Y431433D01*
X117149Y438658D02*
X117149Y422402D01*
X126180Y422402D02*
X117149Y438658D01*
X126180Y438658D02*
X126180Y422402D01*
X140144Y431433D02*
X142854Y431433D01*
X142854Y422402D01*
X137435Y422402D01*
X137317Y422404D01*
X137199Y422410D01*
X137081Y422419D01*
X136964Y422433D01*
X136847Y422450D01*
X136730Y422471D01*
X136615Y422496D01*
X136500Y422525D01*
X136386Y422558D01*
X136274Y422594D01*
X136163Y422634D01*
X136053Y422677D01*
X135944Y422724D01*
X135837Y422774D01*
X135732Y422829D01*
X135629Y422886D01*
X135528Y422947D01*
X135428Y423011D01*
X135331Y423078D01*
X135236Y423148D01*
X135144Y423222D01*
X135053Y423298D01*
X134966Y423378D01*
X134881Y423460D01*
X134799Y423545D01*
X134719Y423632D01*
X134643Y423723D01*
X134569Y423815D01*
X134499Y423910D01*
X134432Y424007D01*
X134368Y424107D01*
X134307Y424208D01*
X134250Y424311D01*
X134195Y424416D01*
X134145Y424523D01*
X134098Y424632D01*
X134055Y424742D01*
X134015Y424853D01*
X133979Y424965D01*
X133946Y425079D01*
X133917Y425194D01*
X133892Y425309D01*
X133871Y425426D01*
X133854Y425543D01*
X133840Y425660D01*
X133831Y425778D01*
X133825Y425896D01*
X133823Y426014D01*
X133823Y435046D01*
X133825Y435164D01*
X133831Y435282D01*
X133840Y435400D01*
X133854Y435517D01*
X133871Y435634D01*
X133892Y435751D01*
X133917Y435866D01*
X133946Y435981D01*
X133979Y436095D01*
X134015Y436207D01*
X134055Y436318D01*
X134098Y436428D01*
X134145Y436537D01*
X134195Y436644D01*
X134249Y436749D01*
X134307Y436852D01*
X134368Y436953D01*
X134432Y437053D01*
X134499Y437150D01*
X134569Y437245D01*
X134643Y437337D01*
X134719Y437428D01*
X134799Y437515D01*
X134881Y437600D01*
X134966Y437682D01*
X135053Y437762D01*
X135144Y437838D01*
X135236Y437912D01*
X135331Y437982D01*
X135428Y438049D01*
X135528Y438113D01*
X135629Y438174D01*
X135732Y438231D01*
X135837Y438285D01*
X135944Y438336D01*
X136053Y438383D01*
X136163Y438426D01*
X136274Y438466D01*
X136386Y438502D01*
X136500Y438535D01*
X136615Y438564D01*
X136730Y438589D01*
X136847Y438610D01*
X136964Y438627D01*
X137081Y438641D01*
X137199Y438650D01*
X137317Y438656D01*
X137435Y438658D01*
X142854Y438658D01*
X150526Y422402D02*
X157751Y422402D01*
X150526Y422402D02*
X150526Y438658D01*
X157751Y438658D01*
X155944Y431433D02*
X150526Y431433D01*
X164043Y438658D02*
X164043Y422402D01*
X173074Y422402D02*
X164043Y438658D01*
X173074Y438658D02*
X173074Y422402D01*
X180716Y422402D02*
X180716Y438658D01*
X180716Y431433D02*
X189747Y431433D01*
X189747Y438658D02*
X189747Y422402D01*
X195966Y422402D02*
X201384Y438658D01*
X206803Y422402D01*
X205448Y426466D02*
X197320Y426466D01*
X213113Y422402D02*
X213113Y438658D01*
X217628Y438658D01*
X217761Y438656D01*
X217893Y438650D01*
X218025Y438640D01*
X218157Y438627D01*
X218289Y438609D01*
X218419Y438588D01*
X218550Y438563D01*
X218679Y438534D01*
X218807Y438501D01*
X218935Y438465D01*
X219061Y438425D01*
X219186Y438381D01*
X219310Y438333D01*
X219432Y438282D01*
X219553Y438227D01*
X219672Y438169D01*
X219790Y438107D01*
X219905Y438042D01*
X220019Y437973D01*
X220130Y437902D01*
X220239Y437826D01*
X220346Y437748D01*
X220451Y437667D01*
X220553Y437582D01*
X220653Y437495D01*
X220750Y437405D01*
X220845Y437312D01*
X220936Y437216D01*
X221025Y437118D01*
X221111Y437017D01*
X221194Y436913D01*
X221274Y436807D01*
X221350Y436699D01*
X221424Y436589D01*
X221494Y436476D01*
X221561Y436362D01*
X221624Y436245D01*
X221684Y436127D01*
X221741Y436007D01*
X221794Y435885D01*
X221843Y435762D01*
X221889Y435638D01*
X221931Y435512D01*
X221969Y435385D01*
X222004Y435257D01*
X222035Y435128D01*
X222062Y434999D01*
X222085Y434868D01*
X222105Y434737D01*
X222120Y434605D01*
X222132Y434473D01*
X222140Y434341D01*
X222144Y434208D01*
X222144Y434076D01*
X222140Y433943D01*
X222132Y433811D01*
X222120Y433679D01*
X222105Y433547D01*
X222085Y433416D01*
X222062Y433285D01*
X222035Y433156D01*
X222004Y433027D01*
X221969Y432899D01*
X221931Y432772D01*
X221889Y432646D01*
X221843Y432522D01*
X221794Y432399D01*
X221741Y432277D01*
X221684Y432157D01*
X221624Y432039D01*
X221561Y431922D01*
X221494Y431808D01*
X221424Y431695D01*
X221350Y431585D01*
X221274Y431477D01*
X221194Y431371D01*
X221111Y431267D01*
X221025Y431166D01*
X220936Y431068D01*
X220845Y430972D01*
X220750Y430879D01*
X220653Y430789D01*
X220553Y430702D01*
X220451Y430617D01*
X220346Y430536D01*
X220239Y430458D01*
X220130Y430382D01*
X220019Y430311D01*
X219905Y430242D01*
X219790Y430177D01*
X219672Y430115D01*
X219553Y430057D01*
X219432Y430002D01*
X219310Y429951D01*
X219186Y429903D01*
X219061Y429859D01*
X218935Y429819D01*
X218807Y429783D01*
X218679Y429750D01*
X218550Y429721D01*
X218419Y429696D01*
X218289Y429675D01*
X218157Y429657D01*
X218025Y429644D01*
X217893Y429634D01*
X217761Y429628D01*
X217628Y429626D01*
X217628Y429627D02*
X213113Y429627D01*
X218531Y429627D02*
X222144Y422402D01*
X230041Y422402D02*
X230041Y438658D01*
X228235Y422402D02*
X231848Y422402D01*
X231848Y438658D02*
X228235Y438658D01*
X242546Y438658D02*
X237128Y422402D01*
X247965Y422402D02*
X242546Y438658D01*
X246610Y426466D02*
X238482Y426466D01*
X262520Y422402D02*
X262520Y438658D01*
X267035Y438658D01*
X267166Y438656D01*
X267298Y438650D01*
X267429Y438641D01*
X267559Y438627D01*
X267690Y438610D01*
X267819Y438589D01*
X267948Y438565D01*
X268076Y438536D01*
X268204Y438504D01*
X268330Y438468D01*
X268455Y438429D01*
X268580Y438386D01*
X268702Y438339D01*
X268824Y438289D01*
X268944Y438235D01*
X269062Y438178D01*
X269178Y438117D01*
X269293Y438053D01*
X269406Y437986D01*
X269517Y437915D01*
X269625Y437841D01*
X269732Y437764D01*
X269836Y437684D01*
X269938Y437601D01*
X270037Y437516D01*
X270134Y437427D01*
X270228Y437335D01*
X270320Y437241D01*
X270409Y437144D01*
X270494Y437045D01*
X270577Y436943D01*
X270657Y436839D01*
X270734Y436732D01*
X270808Y436624D01*
X270879Y436513D01*
X270946Y436400D01*
X271010Y436285D01*
X271071Y436169D01*
X271128Y436051D01*
X271182Y435931D01*
X271232Y435809D01*
X271279Y435687D01*
X271322Y435562D01*
X271361Y435437D01*
X271397Y435311D01*
X271429Y435183D01*
X271458Y435055D01*
X271482Y434926D01*
X271503Y434797D01*
X271520Y434666D01*
X271534Y434536D01*
X271543Y434405D01*
X271549Y434273D01*
X271551Y434142D01*
X271551Y426918D01*
X271549Y426787D01*
X271543Y426655D01*
X271534Y426524D01*
X271520Y426394D01*
X271503Y426263D01*
X271482Y426134D01*
X271458Y426005D01*
X271429Y425877D01*
X271397Y425749D01*
X271361Y425623D01*
X271322Y425498D01*
X271279Y425373D01*
X271232Y425251D01*
X271182Y425129D01*
X271128Y425009D01*
X271071Y424891D01*
X271010Y424775D01*
X270946Y424660D01*
X270879Y424547D01*
X270808Y424436D01*
X270734Y424328D01*
X270657Y424221D01*
X270577Y424117D01*
X270494Y424015D01*
X270409Y423916D01*
X270320Y423819D01*
X270228Y423725D01*
X270134Y423633D01*
X270037Y423544D01*
X269938Y423459D01*
X269836Y423376D01*
X269732Y423296D01*
X269625Y423219D01*
X269517Y423145D01*
X269406Y423074D01*
X269293Y423007D01*
X269178Y422943D01*
X269062Y422882D01*
X268944Y422825D01*
X268824Y422771D01*
X268702Y422721D01*
X268580Y422674D01*
X268455Y422631D01*
X268330Y422592D01*
X268204Y422556D01*
X268076Y422524D01*
X267948Y422495D01*
X267819Y422471D01*
X267689Y422450D01*
X267559Y422433D01*
X267429Y422419D01*
X267298Y422410D01*
X267166Y422404D01*
X267035Y422402D01*
X262520Y422402D01*
X279223Y422402D02*
X286448Y422402D01*
X279223Y422402D02*
X279223Y438658D01*
X286448Y438658D01*
X284642Y431433D02*
X279223Y431433D01*
X304129Y422402D02*
X307741Y422402D01*
X304129Y422402D02*
X304011Y422404D01*
X303893Y422410D01*
X303775Y422419D01*
X303658Y422433D01*
X303541Y422450D01*
X303424Y422471D01*
X303309Y422496D01*
X303194Y422525D01*
X303080Y422558D01*
X302968Y422594D01*
X302857Y422634D01*
X302747Y422677D01*
X302638Y422724D01*
X302531Y422774D01*
X302426Y422829D01*
X302323Y422886D01*
X302222Y422947D01*
X302122Y423011D01*
X302025Y423078D01*
X301930Y423148D01*
X301838Y423222D01*
X301747Y423298D01*
X301660Y423378D01*
X301575Y423460D01*
X301493Y423545D01*
X301413Y423632D01*
X301337Y423723D01*
X301263Y423815D01*
X301193Y423910D01*
X301126Y424007D01*
X301062Y424107D01*
X301001Y424208D01*
X300944Y424311D01*
X300889Y424416D01*
X300839Y424523D01*
X300792Y424632D01*
X300749Y424742D01*
X300709Y424853D01*
X300673Y424965D01*
X300640Y425079D01*
X300611Y425194D01*
X300586Y425309D01*
X300565Y425426D01*
X300548Y425543D01*
X300534Y425660D01*
X300525Y425778D01*
X300519Y425896D01*
X300517Y426014D01*
X300516Y426014D02*
X300516Y435046D01*
X300517Y435046D02*
X300519Y435164D01*
X300525Y435282D01*
X300534Y435400D01*
X300548Y435517D01*
X300565Y435634D01*
X300586Y435751D01*
X300611Y435866D01*
X300640Y435981D01*
X300673Y436095D01*
X300709Y436207D01*
X300749Y436318D01*
X300792Y436428D01*
X300839Y436537D01*
X300889Y436644D01*
X300943Y436749D01*
X301001Y436852D01*
X301062Y436953D01*
X301126Y437053D01*
X301193Y437150D01*
X301263Y437245D01*
X301337Y437337D01*
X301413Y437428D01*
X301493Y437515D01*
X301575Y437600D01*
X301660Y437682D01*
X301747Y437762D01*
X301838Y437838D01*
X301930Y437912D01*
X302025Y437982D01*
X302122Y438049D01*
X302222Y438113D01*
X302323Y438174D01*
X302426Y438231D01*
X302531Y438285D01*
X302638Y438336D01*
X302747Y438383D01*
X302857Y438426D01*
X302968Y438466D01*
X303080Y438502D01*
X303194Y438535D01*
X303309Y438564D01*
X303424Y438589D01*
X303541Y438610D01*
X303658Y438627D01*
X303775Y438641D01*
X303893Y438650D01*
X304011Y438656D01*
X304129Y438658D01*
X307741Y438658D01*
X313582Y434142D02*
X313582Y426918D01*
X313581Y434142D02*
X313583Y434275D01*
X313589Y434407D01*
X313599Y434539D01*
X313612Y434671D01*
X313630Y434803D01*
X313651Y434933D01*
X313676Y435064D01*
X313705Y435193D01*
X313738Y435321D01*
X313774Y435449D01*
X313814Y435575D01*
X313858Y435700D01*
X313906Y435824D01*
X313957Y435946D01*
X314012Y436067D01*
X314070Y436186D01*
X314132Y436304D01*
X314197Y436419D01*
X314266Y436533D01*
X314337Y436644D01*
X314413Y436753D01*
X314491Y436860D01*
X314572Y436965D01*
X314657Y437067D01*
X314744Y437167D01*
X314834Y437264D01*
X314927Y437359D01*
X315023Y437450D01*
X315121Y437539D01*
X315222Y437625D01*
X315326Y437708D01*
X315432Y437788D01*
X315540Y437864D01*
X315650Y437938D01*
X315763Y438008D01*
X315877Y438075D01*
X315994Y438138D01*
X316112Y438198D01*
X316232Y438255D01*
X316354Y438308D01*
X316477Y438357D01*
X316601Y438403D01*
X316727Y438445D01*
X316854Y438483D01*
X316982Y438518D01*
X317111Y438549D01*
X317240Y438576D01*
X317371Y438599D01*
X317502Y438619D01*
X317634Y438634D01*
X317766Y438646D01*
X317898Y438654D01*
X318031Y438658D01*
X318163Y438658D01*
X318296Y438654D01*
X318428Y438646D01*
X318560Y438634D01*
X318692Y438619D01*
X318823Y438599D01*
X318954Y438576D01*
X319083Y438549D01*
X319212Y438518D01*
X319340Y438483D01*
X319467Y438445D01*
X319593Y438403D01*
X319717Y438357D01*
X319840Y438308D01*
X319962Y438255D01*
X320082Y438198D01*
X320200Y438138D01*
X320317Y438075D01*
X320431Y438008D01*
X320544Y437938D01*
X320654Y437864D01*
X320762Y437788D01*
X320868Y437708D01*
X320972Y437625D01*
X321073Y437539D01*
X321171Y437450D01*
X321267Y437359D01*
X321360Y437264D01*
X321450Y437167D01*
X321537Y437067D01*
X321622Y436965D01*
X321703Y436860D01*
X321781Y436753D01*
X321857Y436644D01*
X321928Y436533D01*
X321997Y436419D01*
X322062Y436304D01*
X322124Y436186D01*
X322182Y436067D01*
X322237Y435946D01*
X322288Y435824D01*
X322336Y435700D01*
X322380Y435575D01*
X322420Y435449D01*
X322456Y435321D01*
X322489Y435193D01*
X322518Y435064D01*
X322543Y434933D01*
X322564Y434803D01*
X322582Y434671D01*
X322595Y434539D01*
X322605Y434407D01*
X322611Y434275D01*
X322613Y434142D01*
X322613Y426918D01*
X322611Y426785D01*
X322605Y426653D01*
X322595Y426521D01*
X322582Y426389D01*
X322564Y426257D01*
X322543Y426127D01*
X322518Y425996D01*
X322489Y425867D01*
X322456Y425739D01*
X322420Y425611D01*
X322380Y425485D01*
X322336Y425360D01*
X322288Y425236D01*
X322237Y425114D01*
X322182Y424993D01*
X322124Y424874D01*
X322062Y424756D01*
X321997Y424641D01*
X321928Y424527D01*
X321857Y424416D01*
X321781Y424307D01*
X321703Y424200D01*
X321622Y424095D01*
X321537Y423993D01*
X321450Y423893D01*
X321360Y423796D01*
X321267Y423701D01*
X321171Y423610D01*
X321073Y423521D01*
X320972Y423435D01*
X320868Y423352D01*
X320762Y423272D01*
X320654Y423196D01*
X320544Y423122D01*
X320431Y423052D01*
X320317Y422985D01*
X320200Y422922D01*
X320082Y422862D01*
X319962Y422805D01*
X319840Y422752D01*
X319717Y422703D01*
X319593Y422657D01*
X319467Y422615D01*
X319340Y422577D01*
X319212Y422542D01*
X319083Y422511D01*
X318954Y422484D01*
X318823Y422461D01*
X318692Y422441D01*
X318560Y422426D01*
X318428Y422414D01*
X318296Y422406D01*
X318163Y422402D01*
X318031Y422402D01*
X317898Y422406D01*
X317766Y422414D01*
X317634Y422426D01*
X317502Y422441D01*
X317371Y422461D01*
X317240Y422484D01*
X317111Y422511D01*
X316982Y422542D01*
X316854Y422577D01*
X316727Y422615D01*
X316601Y422657D01*
X316477Y422703D01*
X316354Y422752D01*
X316232Y422805D01*
X316112Y422862D01*
X315994Y422922D01*
X315877Y422985D01*
X315763Y423052D01*
X315650Y423122D01*
X315540Y423196D01*
X315432Y423272D01*
X315326Y423352D01*
X315222Y423435D01*
X315121Y423521D01*
X315023Y423610D01*
X314927Y423701D01*
X314834Y423796D01*
X314744Y423893D01*
X314657Y423993D01*
X314572Y424095D01*
X314491Y424200D01*
X314413Y424307D01*
X314337Y424416D01*
X314266Y424527D01*
X314197Y424641D01*
X314132Y424756D01*
X314070Y424874D01*
X314012Y424993D01*
X313957Y425114D01*
X313906Y425236D01*
X313858Y425360D01*
X313814Y425485D01*
X313774Y425611D01*
X313738Y425739D01*
X313705Y425867D01*
X313676Y425996D01*
X313651Y426127D01*
X313630Y426257D01*
X313612Y426389D01*
X313599Y426521D01*
X313589Y426653D01*
X313583Y426785D01*
X313581Y426918D01*
X329873Y422402D02*
X329873Y438658D01*
X335292Y429627D01*
X340710Y438658D01*
X340710Y422402D01*
X348703Y422402D02*
X348703Y438658D01*
X353218Y438658D01*
X353351Y438656D01*
X353483Y438650D01*
X353615Y438640D01*
X353747Y438627D01*
X353879Y438609D01*
X354009Y438588D01*
X354140Y438563D01*
X354269Y438534D01*
X354397Y438501D01*
X354525Y438465D01*
X354651Y438425D01*
X354776Y438381D01*
X354900Y438333D01*
X355022Y438282D01*
X355143Y438227D01*
X355262Y438169D01*
X355380Y438107D01*
X355495Y438042D01*
X355609Y437973D01*
X355720Y437902D01*
X355829Y437826D01*
X355936Y437748D01*
X356041Y437667D01*
X356143Y437582D01*
X356243Y437495D01*
X356340Y437405D01*
X356435Y437312D01*
X356526Y437216D01*
X356615Y437118D01*
X356701Y437017D01*
X356784Y436913D01*
X356864Y436807D01*
X356940Y436699D01*
X357014Y436589D01*
X357084Y436476D01*
X357151Y436362D01*
X357214Y436245D01*
X357274Y436127D01*
X357331Y436007D01*
X357384Y435885D01*
X357433Y435762D01*
X357479Y435638D01*
X357521Y435512D01*
X357559Y435385D01*
X357594Y435257D01*
X357625Y435128D01*
X357652Y434999D01*
X357675Y434868D01*
X357695Y434737D01*
X357710Y434605D01*
X357722Y434473D01*
X357730Y434341D01*
X357734Y434208D01*
X357734Y434076D01*
X357730Y433943D01*
X357722Y433811D01*
X357710Y433679D01*
X357695Y433547D01*
X357675Y433416D01*
X357652Y433285D01*
X357625Y433156D01*
X357594Y433027D01*
X357559Y432899D01*
X357521Y432772D01*
X357479Y432646D01*
X357433Y432522D01*
X357384Y432399D01*
X357331Y432277D01*
X357274Y432157D01*
X357214Y432039D01*
X357151Y431922D01*
X357084Y431808D01*
X357014Y431695D01*
X356940Y431585D01*
X356864Y431477D01*
X356784Y431371D01*
X356701Y431267D01*
X356615Y431166D01*
X356526Y431068D01*
X356435Y430972D01*
X356340Y430879D01*
X356243Y430789D01*
X356143Y430702D01*
X356041Y430617D01*
X355936Y430536D01*
X355829Y430458D01*
X355720Y430382D01*
X355609Y430311D01*
X355495Y430242D01*
X355380Y430177D01*
X355262Y430115D01*
X355143Y430057D01*
X355022Y430002D01*
X354900Y429951D01*
X354776Y429903D01*
X354651Y429859D01*
X354525Y429819D01*
X354397Y429783D01*
X354269Y429750D01*
X354140Y429721D01*
X354009Y429696D01*
X353879Y429675D01*
X353747Y429657D01*
X353615Y429644D01*
X353483Y429634D01*
X353351Y429628D01*
X353218Y429626D01*
X353218Y429627D02*
X348703Y429627D01*
X364123Y426918D02*
X364123Y438658D01*
X364122Y426918D02*
X364124Y426785D01*
X364130Y426653D01*
X364140Y426521D01*
X364153Y426389D01*
X364171Y426257D01*
X364192Y426127D01*
X364217Y425996D01*
X364246Y425867D01*
X364279Y425739D01*
X364315Y425611D01*
X364355Y425485D01*
X364399Y425360D01*
X364447Y425236D01*
X364498Y425114D01*
X364553Y424993D01*
X364611Y424874D01*
X364673Y424756D01*
X364738Y424641D01*
X364807Y424527D01*
X364878Y424416D01*
X364954Y424307D01*
X365032Y424200D01*
X365113Y424095D01*
X365198Y423993D01*
X365285Y423893D01*
X365375Y423796D01*
X365468Y423701D01*
X365564Y423610D01*
X365662Y423521D01*
X365763Y423435D01*
X365867Y423352D01*
X365973Y423272D01*
X366081Y423196D01*
X366191Y423122D01*
X366304Y423052D01*
X366418Y422985D01*
X366535Y422922D01*
X366653Y422862D01*
X366773Y422805D01*
X366895Y422752D01*
X367018Y422703D01*
X367142Y422657D01*
X367268Y422615D01*
X367395Y422577D01*
X367523Y422542D01*
X367652Y422511D01*
X367781Y422484D01*
X367912Y422461D01*
X368043Y422441D01*
X368175Y422426D01*
X368307Y422414D01*
X368439Y422406D01*
X368572Y422402D01*
X368704Y422402D01*
X368837Y422406D01*
X368969Y422414D01*
X369101Y422426D01*
X369233Y422441D01*
X369364Y422461D01*
X369495Y422484D01*
X369624Y422511D01*
X369753Y422542D01*
X369881Y422577D01*
X370008Y422615D01*
X370134Y422657D01*
X370258Y422703D01*
X370381Y422752D01*
X370503Y422805D01*
X370623Y422862D01*
X370741Y422922D01*
X370858Y422985D01*
X370972Y423052D01*
X371085Y423122D01*
X371195Y423196D01*
X371303Y423272D01*
X371409Y423352D01*
X371513Y423435D01*
X371614Y423521D01*
X371712Y423610D01*
X371808Y423701D01*
X371901Y423796D01*
X371991Y423893D01*
X372078Y423993D01*
X372163Y424095D01*
X372244Y424200D01*
X372322Y424307D01*
X372398Y424416D01*
X372469Y424527D01*
X372538Y424641D01*
X372603Y424756D01*
X372665Y424874D01*
X372723Y424993D01*
X372778Y425114D01*
X372829Y425236D01*
X372877Y425360D01*
X372921Y425485D01*
X372961Y425611D01*
X372997Y425739D01*
X373030Y425867D01*
X373059Y425996D01*
X373084Y426127D01*
X373105Y426257D01*
X373123Y426389D01*
X373136Y426521D01*
X373146Y426653D01*
X373152Y426785D01*
X373154Y426918D01*
X373154Y438658D01*
X383749Y438658D02*
X383749Y422402D01*
X379233Y438658D02*
X388264Y438658D01*
X398338Y438658D02*
X392919Y422402D01*
X403756Y422402D02*
X398338Y438658D01*
X402402Y426466D02*
X394274Y426466D01*
X413026Y422402D02*
X416639Y422402D01*
X413026Y422402D02*
X412908Y422404D01*
X412790Y422410D01*
X412672Y422419D01*
X412555Y422433D01*
X412438Y422450D01*
X412321Y422471D01*
X412206Y422496D01*
X412091Y422525D01*
X411977Y422558D01*
X411865Y422594D01*
X411754Y422634D01*
X411644Y422677D01*
X411535Y422724D01*
X411428Y422774D01*
X411323Y422829D01*
X411220Y422886D01*
X411119Y422947D01*
X411019Y423011D01*
X410922Y423078D01*
X410827Y423148D01*
X410735Y423222D01*
X410644Y423298D01*
X410557Y423378D01*
X410472Y423460D01*
X410390Y423545D01*
X410310Y423632D01*
X410234Y423723D01*
X410160Y423815D01*
X410090Y423910D01*
X410023Y424007D01*
X409959Y424107D01*
X409898Y424208D01*
X409841Y424311D01*
X409786Y424416D01*
X409736Y424523D01*
X409689Y424632D01*
X409646Y424742D01*
X409606Y424853D01*
X409570Y424965D01*
X409537Y425079D01*
X409508Y425194D01*
X409483Y425309D01*
X409462Y425426D01*
X409445Y425543D01*
X409431Y425660D01*
X409422Y425778D01*
X409416Y425896D01*
X409414Y426014D01*
X409414Y435046D01*
X409416Y435164D01*
X409422Y435282D01*
X409431Y435400D01*
X409445Y435517D01*
X409462Y435634D01*
X409483Y435751D01*
X409508Y435866D01*
X409537Y435981D01*
X409570Y436095D01*
X409606Y436207D01*
X409646Y436318D01*
X409689Y436428D01*
X409736Y436537D01*
X409786Y436644D01*
X409840Y436749D01*
X409898Y436852D01*
X409959Y436953D01*
X410023Y437053D01*
X410090Y437150D01*
X410160Y437245D01*
X410234Y437337D01*
X410310Y437428D01*
X410390Y437515D01*
X410472Y437600D01*
X410557Y437682D01*
X410644Y437762D01*
X410735Y437838D01*
X410827Y437912D01*
X410922Y437982D01*
X411019Y438049D01*
X411119Y438113D01*
X411220Y438174D01*
X411323Y438231D01*
X411428Y438285D01*
X411535Y438336D01*
X411644Y438383D01*
X411754Y438426D01*
X411865Y438466D01*
X411977Y438502D01*
X412091Y438535D01*
X412206Y438564D01*
X412321Y438589D01*
X412438Y438610D01*
X412555Y438627D01*
X412672Y438641D01*
X412790Y438650D01*
X412908Y438656D01*
X413026Y438658D01*
X416639Y438658D01*
X413478Y422402D02*
X413478Y420144D01*
X413929Y420144D01*
X414019Y420142D01*
X414108Y420136D01*
X414198Y420126D01*
X414287Y420113D01*
X414375Y420095D01*
X414462Y420074D01*
X414548Y420049D01*
X414633Y420020D01*
X414717Y419987D01*
X414799Y419951D01*
X414880Y419911D01*
X414958Y419868D01*
X415035Y419821D01*
X415110Y419771D01*
X415182Y419718D01*
X415252Y419662D01*
X415320Y419603D01*
X415385Y419540D01*
X415447Y419476D01*
X415506Y419408D01*
X415562Y419338D01*
X415615Y419265D01*
X415665Y419191D01*
X415711Y419114D01*
X415755Y419035D01*
X415794Y418954D01*
X415830Y418872D01*
X415863Y418788D01*
X415892Y418703D01*
X415917Y418617D01*
X415938Y418530D01*
X415955Y418442D01*
X415969Y418353D01*
X415978Y418263D01*
X415984Y418174D01*
X415986Y418084D01*
X415984Y417994D01*
X415978Y417905D01*
X415968Y417815D01*
X415954Y417727D01*
X415936Y417638D01*
X415915Y417551D01*
X415890Y417465D01*
X415861Y417380D01*
X415828Y417296D01*
X415792Y417214D01*
X415752Y417134D01*
X415708Y417055D01*
X415662Y416978D01*
X415612Y416904D01*
X415558Y416831D01*
X415502Y416761D01*
X415443Y416694D01*
X415380Y416629D01*
X415315Y416567D01*
X415248Y416508D01*
X415177Y416452D01*
X415105Y416399D01*
X415030Y416349D01*
X414953Y416303D01*
X414874Y416260D01*
X414794Y416221D01*
X414711Y416185D01*
X414627Y416152D01*
X414542Y416124D01*
X414456Y416099D01*
X414369Y416078D01*
X414281Y416060D01*
X414192Y416047D01*
X414102Y416037D01*
X414013Y416032D01*
X413923Y416030D01*
X413833Y416032D01*
X413744Y416038D01*
X413654Y416048D01*
X413566Y416062D01*
X413477Y416080D01*
X421576Y422402D02*
X426995Y438658D01*
X432414Y422402D01*
X431059Y426466D02*
X422931Y426466D01*
X423834Y442722D02*
X423836Y442805D01*
X423842Y442889D01*
X423851Y442972D01*
X423865Y443054D01*
X423882Y443135D01*
X423903Y443216D01*
X423928Y443296D01*
X423956Y443374D01*
X423988Y443451D01*
X424023Y443527D01*
X424062Y443601D01*
X424105Y443673D01*
X424150Y443743D01*
X424199Y443810D01*
X424251Y443876D01*
X424305Y443939D01*
X424363Y443999D01*
X424423Y444057D01*
X424486Y444111D01*
X424552Y444163D01*
X424619Y444212D01*
X424689Y444258D01*
X424761Y444300D01*
X424835Y444339D01*
X424911Y444374D01*
X424988Y444406D01*
X425066Y444434D01*
X425146Y444459D01*
X425227Y444480D01*
X425308Y444497D01*
X425391Y444511D01*
X425473Y444520D01*
X425557Y444526D01*
X425640Y444528D01*
X425640Y444529D02*
X425715Y444527D01*
X425790Y444521D01*
X425864Y444512D01*
X425938Y444498D01*
X426011Y444481D01*
X426083Y444460D01*
X426154Y444436D01*
X426224Y444408D01*
X426292Y444376D01*
X426358Y444341D01*
X426423Y444303D01*
X426485Y444261D01*
X426546Y444216D01*
X426603Y444169D01*
X426659Y444118D01*
X426711Y444065D01*
X426761Y444008D01*
X426808Y443950D01*
X426852Y443889D01*
X426893Y443826D01*
X426930Y443761D01*
X426964Y443694D01*
X426995Y443626D01*
X426996Y443625D02*
X427026Y443556D01*
X427061Y443490D01*
X427098Y443425D01*
X427139Y443362D01*
X427183Y443301D01*
X427229Y443242D01*
X427279Y443186D01*
X427332Y443133D01*
X427387Y443082D01*
X427445Y443034D01*
X427505Y442990D01*
X427568Y442948D01*
X427632Y442910D01*
X427699Y442875D01*
X427767Y442843D01*
X427836Y442815D01*
X427907Y442790D01*
X427979Y442770D01*
X428052Y442753D01*
X428126Y442739D01*
X428200Y442730D01*
X428275Y442724D01*
X428350Y442722D01*
X428433Y442724D01*
X428517Y442730D01*
X428600Y442739D01*
X428682Y442753D01*
X428764Y442770D01*
X428844Y442791D01*
X428924Y442816D01*
X429002Y442844D01*
X429080Y442876D01*
X429155Y442911D01*
X429229Y442950D01*
X429301Y442993D01*
X429371Y443038D01*
X429438Y443087D01*
X429504Y443139D01*
X429567Y443193D01*
X429627Y443251D01*
X429685Y443311D01*
X429739Y443374D01*
X429791Y443440D01*
X429840Y443507D01*
X429885Y443577D01*
X429928Y443649D01*
X429967Y443723D01*
X430002Y443799D01*
X430034Y443876D01*
X430062Y443954D01*
X430087Y444034D01*
X430108Y444114D01*
X430125Y444196D01*
X430139Y444278D01*
X430148Y444361D01*
X430154Y444445D01*
X430156Y444528D01*
X438111Y434142D02*
X438111Y426918D01*
X438110Y434142D02*
X438112Y434275D01*
X438118Y434407D01*
X438128Y434539D01*
X438141Y434671D01*
X438159Y434803D01*
X438180Y434933D01*
X438205Y435064D01*
X438234Y435193D01*
X438267Y435321D01*
X438303Y435449D01*
X438343Y435575D01*
X438387Y435700D01*
X438435Y435824D01*
X438486Y435946D01*
X438541Y436067D01*
X438599Y436186D01*
X438661Y436304D01*
X438726Y436419D01*
X438795Y436533D01*
X438866Y436644D01*
X438942Y436753D01*
X439020Y436860D01*
X439101Y436965D01*
X439186Y437067D01*
X439273Y437167D01*
X439363Y437264D01*
X439456Y437359D01*
X439552Y437450D01*
X439650Y437539D01*
X439751Y437625D01*
X439855Y437708D01*
X439961Y437788D01*
X440069Y437864D01*
X440179Y437938D01*
X440292Y438008D01*
X440406Y438075D01*
X440523Y438138D01*
X440641Y438198D01*
X440761Y438255D01*
X440883Y438308D01*
X441006Y438357D01*
X441130Y438403D01*
X441256Y438445D01*
X441383Y438483D01*
X441511Y438518D01*
X441640Y438549D01*
X441769Y438576D01*
X441900Y438599D01*
X442031Y438619D01*
X442163Y438634D01*
X442295Y438646D01*
X442427Y438654D01*
X442560Y438658D01*
X442692Y438658D01*
X442825Y438654D01*
X442957Y438646D01*
X443089Y438634D01*
X443221Y438619D01*
X443352Y438599D01*
X443483Y438576D01*
X443612Y438549D01*
X443741Y438518D01*
X443869Y438483D01*
X443996Y438445D01*
X444122Y438403D01*
X444246Y438357D01*
X444369Y438308D01*
X444491Y438255D01*
X444611Y438198D01*
X444729Y438138D01*
X444846Y438075D01*
X444960Y438008D01*
X445073Y437938D01*
X445183Y437864D01*
X445291Y437788D01*
X445397Y437708D01*
X445501Y437625D01*
X445602Y437539D01*
X445700Y437450D01*
X445796Y437359D01*
X445889Y437264D01*
X445979Y437167D01*
X446066Y437067D01*
X446151Y436965D01*
X446232Y436860D01*
X446310Y436753D01*
X446386Y436644D01*
X446457Y436533D01*
X446526Y436419D01*
X446591Y436304D01*
X446653Y436186D01*
X446711Y436067D01*
X446766Y435946D01*
X446817Y435824D01*
X446865Y435700D01*
X446909Y435575D01*
X446949Y435449D01*
X446985Y435321D01*
X447018Y435193D01*
X447047Y435064D01*
X447072Y434933D01*
X447093Y434803D01*
X447111Y434671D01*
X447124Y434539D01*
X447134Y434407D01*
X447140Y434275D01*
X447142Y434142D01*
X447142Y426918D01*
X447140Y426785D01*
X447134Y426653D01*
X447124Y426521D01*
X447111Y426389D01*
X447093Y426257D01*
X447072Y426127D01*
X447047Y425996D01*
X447018Y425867D01*
X446985Y425739D01*
X446949Y425611D01*
X446909Y425485D01*
X446865Y425360D01*
X446817Y425236D01*
X446766Y425114D01*
X446711Y424993D01*
X446653Y424874D01*
X446591Y424756D01*
X446526Y424641D01*
X446457Y424527D01*
X446386Y424416D01*
X446310Y424307D01*
X446232Y424200D01*
X446151Y424095D01*
X446066Y423993D01*
X445979Y423893D01*
X445889Y423796D01*
X445796Y423701D01*
X445700Y423610D01*
X445602Y423521D01*
X445501Y423435D01*
X445397Y423352D01*
X445291Y423272D01*
X445183Y423196D01*
X445073Y423122D01*
X444960Y423052D01*
X444846Y422985D01*
X444729Y422922D01*
X444611Y422862D01*
X444491Y422805D01*
X444369Y422752D01*
X444246Y422703D01*
X444122Y422657D01*
X443996Y422615D01*
X443869Y422577D01*
X443741Y422542D01*
X443612Y422511D01*
X443483Y422484D01*
X443352Y422461D01*
X443221Y422441D01*
X443089Y422426D01*
X442957Y422414D01*
X442825Y422406D01*
X442692Y422402D01*
X442560Y422402D01*
X442427Y422406D01*
X442295Y422414D01*
X442163Y422426D01*
X442031Y422441D01*
X441900Y422461D01*
X441769Y422484D01*
X441640Y422511D01*
X441511Y422542D01*
X441383Y422577D01*
X441256Y422615D01*
X441130Y422657D01*
X441006Y422703D01*
X440883Y422752D01*
X440761Y422805D01*
X440641Y422862D01*
X440523Y422922D01*
X440406Y422985D01*
X440292Y423052D01*
X440179Y423122D01*
X440069Y423196D01*
X439961Y423272D01*
X439855Y423352D01*
X439751Y423435D01*
X439650Y423521D01*
X439552Y423610D01*
X439456Y423701D01*
X439363Y423796D01*
X439273Y423893D01*
X439186Y423993D01*
X439101Y424095D01*
X439020Y424200D01*
X438942Y424307D01*
X438866Y424416D01*
X438795Y424527D01*
X438726Y424641D01*
X438661Y424756D01*
X438599Y424874D01*
X438541Y424993D01*
X438486Y425114D01*
X438435Y425236D01*
X438387Y425360D01*
X438343Y425485D01*
X438303Y425611D01*
X438267Y425739D01*
X438234Y425867D01*
X438205Y425996D01*
X438180Y426127D01*
X438159Y426257D01*
X438141Y426389D01*
X438128Y426521D01*
X438118Y426653D01*
X438112Y426785D01*
X438110Y426918D01*
X577850Y265430D02*
X577850Y252730D01*
X571500Y246380D01*
X558800Y246380D01*
X552450Y252730D01*
X577850Y290830D02*
X571500Y297180D01*
X577850Y290830D02*
X577850Y278130D01*
X571500Y271780D01*
X558800Y271780D01*
X552450Y278130D01*
X552450Y290830D01*
X558800Y297180D01*
X571500Y271780D02*
X577850Y265430D01*
X558800Y271780D02*
X552450Y265430D01*
X552450Y252730D01*
X577850Y328930D02*
X577850Y341630D01*
X577850Y328930D02*
X571500Y322580D01*
X558800Y322580D01*
X552450Y328930D01*
X571500Y322580D02*
X577850Y316230D01*
X577850Y303530D01*
X571500Y297180D01*
X558800Y297180D01*
X552450Y303530D01*
X552450Y316230D01*
X558800Y322580D01*
X558800Y347980D02*
X571500Y347980D01*
X577850Y341630D01*
X558800Y347980D02*
X552450Y341630D01*
X552450Y328930D01*
X577850Y240030D02*
X577850Y227330D01*
X571500Y220980D01*
X558800Y220980D01*
X552450Y227330D01*
X571500Y246380D02*
X577850Y240030D01*
X558800Y246380D02*
X552450Y240030D01*
X552450Y227330D01*
X558800Y128270D02*
X565150Y121920D01*
X546100Y128270D02*
X539750Y121920D01*
X533400Y128270D01*
X520700Y128270D02*
X514350Y121920D01*
X565150Y121920D02*
X565150Y83820D01*
X558800Y77470D01*
X546100Y77470D01*
X539750Y83820D01*
X533400Y77470D01*
X520700Y77470D01*
X514350Y83820D01*
X539750Y83820D02*
X539750Y121920D01*
X514350Y121920D02*
X514350Y83820D01*
X520700Y128270D02*
X533400Y128270D01*
X546100Y128270D02*
X558800Y128270D01*
X514350Y121920D02*
X508000Y128270D01*
X495300Y128270D02*
X488950Y121920D01*
X514350Y83820D02*
X508000Y77470D01*
X495300Y77470D01*
X488950Y83820D01*
X488950Y121920D01*
X495300Y128270D02*
X508000Y128270D01*
X232410Y121920D02*
X226060Y128270D01*
X213360Y128270D02*
X207010Y121920D01*
X200660Y128270D01*
X187960Y128270D02*
X181610Y121920D01*
X175260Y128270D01*
X162560Y128270D02*
X156210Y121920D01*
X149860Y128270D01*
X137160Y128270D02*
X130810Y121920D01*
X232410Y121920D02*
X232410Y83820D01*
X226060Y77470D01*
X213360Y77470D01*
X207010Y83820D01*
X200660Y77470D01*
X187960Y77470D01*
X181610Y83820D01*
X175260Y77470D01*
X162560Y77470D01*
X156210Y83820D01*
X149860Y77470D01*
X137160Y77470D01*
X130810Y83820D01*
X207010Y83820D02*
X207010Y121920D01*
X181610Y121920D02*
X181610Y83820D01*
X156210Y83820D02*
X156210Y121920D01*
X130810Y121920D02*
X130810Y83820D01*
X137160Y128270D02*
X149860Y128270D01*
X162560Y128270D02*
X175260Y128270D01*
X187960Y128270D02*
X200660Y128270D01*
X213360Y128270D02*
X226060Y128270D01*
X130810Y121920D02*
X124460Y128270D01*
X111760Y128270D02*
X105410Y121920D01*
X130810Y83820D02*
X124460Y77470D01*
X111760Y77470D01*
X105410Y83820D01*
X105410Y121920D01*
X111760Y128270D02*
X124460Y128270D01*
X441960Y387350D02*
X448310Y393700D01*
X441960Y374650D02*
X448310Y368300D01*
X441960Y361950D01*
X441960Y349250D02*
X448310Y342900D01*
X441960Y336550D01*
X441960Y323850D02*
X448310Y317500D01*
X441960Y311150D01*
X441960Y298450D02*
X448310Y292100D01*
X441960Y285750D01*
X441960Y273050D02*
X448310Y266700D01*
X441960Y260350D01*
X441960Y247650D02*
X448310Y241300D01*
X448310Y393700D02*
X486410Y393700D01*
X492760Y387350D01*
X492760Y374650D01*
X486410Y368300D01*
X492760Y361950D01*
X492760Y349250D01*
X486410Y342900D01*
X492760Y336550D01*
X492760Y323850D01*
X486410Y317500D01*
X492760Y311150D01*
X492760Y298450D01*
X486410Y292100D01*
X492760Y285750D01*
X492760Y273050D01*
X486410Y266700D01*
X492760Y260350D01*
X492760Y247650D01*
X486410Y241300D01*
X486410Y368300D02*
X448310Y368300D01*
X448310Y342900D02*
X486410Y342900D01*
X486410Y317500D02*
X448310Y317500D01*
X448310Y292100D02*
X486410Y292100D01*
X486410Y266700D02*
X448310Y266700D01*
X448310Y241300D02*
X486410Y241300D01*
X441960Y247650D02*
X441960Y260350D01*
X441960Y273050D02*
X441960Y285750D01*
X441960Y298450D02*
X441960Y311150D01*
X441960Y323850D02*
X441960Y336550D01*
X441960Y349250D02*
X441960Y361950D01*
X441960Y374650D02*
X441960Y387350D01*
X448310Y241300D02*
X441960Y234950D01*
X441960Y222250D02*
X448310Y215900D01*
X486410Y241300D02*
X492760Y234950D01*
X492760Y222250D01*
X486410Y215900D01*
X448310Y215900D01*
X441960Y222250D02*
X441960Y234950D01*
X308610Y121920D02*
X302260Y128270D01*
X289560Y128270D02*
X283210Y121920D01*
X276860Y128270D01*
X264160Y128270D02*
X257810Y121920D01*
X308610Y121920D02*
X308610Y83820D01*
X302260Y77470D01*
X289560Y77470D01*
X283210Y83820D01*
X276860Y77470D01*
X264160Y77470D01*
X257810Y83820D01*
X283210Y83820D02*
X283210Y121920D01*
X257810Y121920D02*
X257810Y83820D01*
X264160Y128270D02*
X276860Y128270D01*
X289560Y128270D02*
X302260Y128270D01*
X257810Y121920D02*
X251460Y128270D01*
X238760Y128270D02*
X232410Y121920D01*
X257810Y83820D02*
X251460Y77470D01*
X238760Y77470D01*
X232410Y83820D01*
X232410Y121920D01*
X238760Y128270D02*
X251460Y128270D01*
D11*
X90170Y555180D02*
X77470Y555180D01*
M02*
