G04 EAGLE Gerber RS-274X export*
G75*
%MOMM*%
%FSLAX34Y34*%
%LPD*%
%INSoldermask Top*%
%IPPOS*%
%AMOC8*
5,1,8,0,0,1.08239X$1,22.5*%
G01*
%ADD10C,1.727200*%
%ADD11P,1.869504X8X22.500000*%
%ADD12P,1.869504X8X202.500000*%
%ADD13P,1.869504X8X292.500000*%
%ADD14C,2.082800*%
%ADD15C,0.959600*%


D10*
X557530Y335280D02*
X572770Y335280D01*
X572770Y309880D02*
X557530Y309880D01*
X557530Y284480D02*
X572770Y284480D01*
X572770Y259080D02*
X557530Y259080D01*
X557530Y233680D02*
X572770Y233680D01*
X44450Y118110D02*
X44450Y102870D01*
X69850Y102870D02*
X69850Y118110D01*
D11*
X577850Y115570D03*
X577850Y90170D03*
X603250Y115570D03*
X603250Y90170D03*
X628650Y115570D03*
X628650Y90170D03*
D12*
X552450Y115570D03*
X552450Y90170D03*
X527050Y115570D03*
X527050Y90170D03*
X501650Y115570D03*
X501650Y90170D03*
X219710Y115570D03*
X219710Y90170D03*
X194310Y115570D03*
X194310Y90170D03*
X168910Y115570D03*
X168910Y90170D03*
X143510Y115570D03*
X143510Y90170D03*
X118110Y115570D03*
X118110Y90170D03*
D13*
X454660Y381000D03*
X480060Y381000D03*
X454660Y355600D03*
X480060Y355600D03*
X454660Y330200D03*
X480060Y330200D03*
X454660Y304800D03*
X480060Y304800D03*
X454660Y279400D03*
X480060Y279400D03*
X454660Y254000D03*
X480060Y254000D03*
X454660Y228600D03*
X480060Y228600D03*
D12*
X295910Y115570D03*
X295910Y90170D03*
X270510Y115570D03*
X270510Y90170D03*
X245110Y115570D03*
X245110Y90170D03*
D11*
X321310Y115570D03*
X321310Y90170D03*
X346710Y115570D03*
X346710Y90170D03*
X372110Y115570D03*
X372110Y90170D03*
D14*
X83820Y508000D03*
X83820Y482600D03*
X109220Y508000D03*
X109220Y482600D03*
X134620Y508000D03*
X134620Y482600D03*
X160020Y508000D03*
X160020Y482600D03*
X185420Y508000D03*
X185420Y482600D03*
X210820Y508000D03*
X210820Y482600D03*
X236220Y508000D03*
X236220Y482600D03*
X261620Y508000D03*
X261620Y482600D03*
X287020Y508000D03*
X287020Y482600D03*
X312420Y508000D03*
X312420Y482600D03*
X337820Y508000D03*
X337820Y482600D03*
X363220Y508000D03*
X363220Y482600D03*
X388620Y508000D03*
X388620Y482600D03*
X414020Y508000D03*
X414020Y482600D03*
X439420Y508000D03*
X439420Y482600D03*
X464820Y508000D03*
X464820Y482600D03*
X490220Y508000D03*
X490220Y482600D03*
X515620Y508000D03*
X515620Y482600D03*
X541020Y508000D03*
X541020Y482600D03*
X566420Y508000D03*
X566420Y482600D03*
D15*
X92500Y175000D03*
X107500Y375000D03*
X135000Y402500D03*
X95000Y84960D03*
X107500Y360000D03*
X135000Y387500D03*
X185000Y67500D03*
X230000Y72500D03*
X237500Y52500D03*
X257500Y52500D03*
X257500Y32500D03*
X22500Y207500D03*
X41230Y529960D03*
X147500Y551190D03*
X140000Y72500D03*
X60000Y195000D03*
X30000Y242500D03*
X122500Y520000D03*
X472500Y195000D03*
X30000Y227500D03*
X67500Y265000D03*
X72500Y310000D03*
X137500Y375000D03*
X492500Y320000D03*
X371200Y560000D03*
X390000Y347500D03*
X402500Y322500D03*
X577500Y135000D03*
X630000Y187500D03*
X627500Y505000D03*
X612500Y550000D03*
X580000Y520000D03*
X592500Y352500D03*
X622500Y485000D03*
X622500Y525000D03*
X552500Y355000D03*
X525000Y397500D03*
X592500Y412500D03*
X600000Y505000D03*
X415630Y558770D03*
X75000Y225000D03*
X127500Y205000D03*
X67500Y457500D03*
X120000Y427500D03*
X382380Y180910D03*
X533400Y215900D03*
X533400Y203200D03*
X533400Y190500D03*
X533400Y177800D03*
X533400Y165100D03*
X328930Y405130D03*
X321310Y426720D03*
X308610Y426720D03*
X295910Y426720D03*
X95250Y400050D03*
X95250Y386080D03*
X67310Y411480D03*
X67310Y386080D03*
X633730Y557530D03*
X633730Y544830D03*
X633730Y532130D03*
X610870Y438150D03*
X610870Y450850D03*
X610870Y476250D03*
X417830Y405130D03*
X430530Y405130D03*
X443230Y405130D03*
X483870Y422910D03*
X494030Y411480D03*
X567690Y373380D03*
X567690Y360680D03*
X607060Y383540D03*
X614680Y227330D03*
X614680Y214630D03*
X614680Y201930D03*
X589280Y189230D03*
X589280Y176530D03*
X589280Y163830D03*
X627380Y163830D03*
X627380Y151130D03*
X627380Y138430D03*
X387350Y48260D03*
X356870Y53340D03*
X256540Y74930D03*
X71120Y31750D03*
X58420Y31750D03*
X45720Y31750D03*
X33020Y31750D03*
X71120Y82550D03*
X71120Y69850D03*
X45720Y57150D03*
X176530Y430530D03*
X400050Y560070D03*
X264160Y426720D03*
X383540Y430530D03*
X613410Y496570D03*
X572770Y402590D03*
X147320Y464820D03*
X412750Y22860D03*
X373380Y167640D03*
X71120Y146050D03*
X60960Y162560D03*
X381000Y196850D03*
X397510Y233680D03*
X402590Y255270D03*
X434340Y259080D03*
X433070Y236220D03*
X147320Y429260D03*
X147320Y406400D03*
X199390Y554990D03*
X297180Y562610D03*
X341630Y562610D03*
X223520Y556260D03*
X607500Y352500D03*
X537500Y397500D03*
X127500Y187500D03*
X85000Y195000D03*
X120000Y52500D03*
X80000Y175000D03*
X402500Y380000D03*
X545000Y422500D03*
X322500Y65000D03*
X70000Y520000D03*
X75000Y242500D03*
X192380Y147500D03*
X260000Y127500D03*
X102500Y65000D03*
X107500Y330000D03*
X137500Y360000D03*
X206150Y430000D03*
X243930Y427460D03*
X397500Y100000D03*
X340000Y145000D03*
X137500Y340000D03*
X245000Y32500D03*
X110000Y42500D03*
X42500Y496150D03*
X274610Y558770D03*
M02*
