M48
;GenerationSoftware,Autodesk,EAGLE,9.5.0*%
;CreationDate,2019-11-29T18:22:36Z*%
FMAT,2
ICI,OFF
METRIC,TZ,000.000
T2C0.350
T1C1.016
%
G90
M71
T1
X57150Y12700
X59690Y12700
X62230Y12700
X57150Y15240
X59690Y15240
X62230Y15240
X54610Y12700
X52070Y12700
X54610Y15240
X52070Y15240
X49530Y15240
X21590Y12700
X49530Y12700
X19050Y12700
X16510Y12700
X13970Y12700
X11430Y12700
X21590Y15240
X19050Y15240
X16510Y15240
X13970Y15240
X11430Y15240
X38354Y38100
X40894Y38100
X38354Y35560
X40894Y35560
X38354Y33020
X40894Y33020
X38354Y30480
X40894Y30480
X38354Y27940
X40894Y27940
X38354Y25400
X40894Y25400
X38354Y22860
X29210Y12700
X26670Y12700
X24130Y12700
X29210Y15240
X52832Y28956
X26670Y15240
X24130Y15240
X31750Y12700
X34290Y12700
X36830Y12700
X31750Y15240
X34290Y15240
X36830Y15240
X52832Y36576
X52832Y34036
X52832Y31496
X40894Y22860
X52832Y26416
X12319Y31496
X12319Y28956
T2
X8125Y20625
X14125Y20625
X15500Y17500
X11000Y17250
X21125Y17500
X32500Y45599
X63375Y17875
X59125Y40750
X22375Y51375
X20875Y23125
X42125Y39000
X38000Y49000
X45250Y43250
X39500Y49000
X30990Y36764
X33000Y41133
X40125Y44250
X42750Y47625
X54250Y21750
X50000Y41000
X56375Y48875
X58125Y33500
X35629Y22486
X41625Y21125
X48000Y38625
X43625Y28875
X44250Y48875
X9625Y46000
X27500Y46000
X29625Y23125
X34014Y23748
X19500Y23125
X44750Y39625
X33750Y39625
X57000Y41500
X50250Y44250
X56000Y35125
X51750Y43125
X24875Y45000
X24375Y19250
X25625Y23125
X23375Y18500
X34625Y18750
X37881Y17508
X28750Y48750
X26750Y39500
X28625Y34980
X45750Y40375
M30