M48
;GenerationSoftware,Autodesk,EAGLE,9.5.0*%
;CreationDate,2019-12-06T18:16:51Z*%
FMAT,2
ICI,OFF
METRIC,TZ,000.000
T2C0.350
T1C1.016
%
G90
M71
T1
X57785Y11557
X21082Y50800
X56515Y33528
X56515Y30988
X56515Y28448
X56515Y25908
X56515Y23368
X4445Y11049
X6985Y11049
X57785Y9017
X60325Y11557
X60325Y9017
X62865Y11557
X62865Y9017
X55245Y11557
X55245Y9017
X52705Y11557
X52705Y9017
X50165Y11557
X50165Y9017
X21971Y11557
X21971Y9017
X19431Y11557
X19431Y9017
X16891Y11557
X16891Y9017
X14351Y11557
X14351Y9017
X11811Y11557
X11811Y9017
X45466Y38100
X48006Y38100
X45466Y35560
X48006Y35560
X45466Y33020
X48006Y33020
X45466Y30480
X48006Y30480
X45466Y27940
X48006Y27940
X45466Y25400
X48006Y25400
X45466Y22860
X48006Y22860
X29591Y11557
X29591Y9017
X27051Y11557
X27051Y9017
X24511Y11557
X24511Y9017
X32131Y11557
X32131Y9017
X34671Y11557
X34671Y9017
X37211Y11557
X37211Y9017
X8382Y50800
X8382Y48260
X10922Y50800
X10922Y48260
X13462Y50800
X13462Y48260
X16002Y50800
X16002Y48260
X18542Y50800
X18542Y48260
X21082Y48260
X23622Y50800
X23622Y48260
X26162Y50800
X26162Y48260
X28702Y50800
X28702Y48260
X31242Y50800
X31242Y48260
X33782Y50800
X33782Y48260
X36322Y50800
X36322Y48260
X38862Y50800
X38862Y48260
X41402Y50800
X41402Y48260
X43942Y50800
X43942Y48260
X46482Y50800
X46482Y48260
X49022Y50800
X49022Y48260
X51562Y50800
X51562Y48260
X54102Y50800
X54102Y48260
X56642Y50800
X56642Y48260
T2
X61341Y49657
X57277Y40259
X14732Y46482
X41275Y2286
X37338Y16764
X7112Y14605
X6096Y16256
X38100Y19685
X39751Y23368
X40259Y25527
X43434Y25908
X43307Y23622
X14732Y42926
X14732Y40640
X19939Y55499
X29718Y56261
X34163Y56261
X22352Y55626
X60750Y35250
X53750Y39750
X12750Y18750
X62750Y50500
X12000Y5250
X8000Y17500
X40250Y38000
X54500Y42250
X32250Y6500
X7000Y52000
X7500Y24250
X19238Y14750
X26000Y12750
X10250Y6500
X10750Y33000
X13750Y36000
X20615Y43000
X24393Y42746
X39750Y10000
X34000Y14500
X13750Y34000
X24500Y3250
X11000Y4250
X4250Y49615
X27461Y55877
X9250Y17500
X10750Y37500
X13500Y40250
X9500Y8496
X10750Y36000
X13500Y38750
X18500Y6750
X8500Y19500
X23000Y7250
X23750Y5250
X25750Y5250
X25750Y3250
X2250Y20750
X4123Y52996
X14750Y55119
X14000Y7250
X6000Y19500
X3000Y24250
X12250Y52000
X47250Y19500
X3000Y22750
X6750Y26500
X7250Y31000
X13750Y37500
X49250Y32000
X37120Y56000
X39000Y34750
X40250Y32250
X57750Y13500
X63000Y18750
X61250Y55000
X58000Y52000
X59250Y35250
X62250Y48500
X62250Y52500
X55250Y35500
X52500Y39750
X59250Y41250
X60000Y50500
X41563Y55877
X7500Y22500
X12750Y20500
X6750Y45750
X12000Y42750
X38238Y18091
X53340Y21590
X53340Y20320
X53340Y19050
X53340Y17780
X53340Y16510
X32893Y40513
X32131Y42672
X30861Y42672
X29591Y42672
X9525Y40005
X9525Y38608
X6731Y41148
X6731Y38608
X63373Y55753
X63373Y54483
X63373Y53213
X61087Y43815
X61087Y45085
X61087Y47625
X41783Y40513
X3302Y3175
X43053Y40513
X44323Y40513
X48387Y42291
X49403Y41148
X56769Y37338
X56769Y36068
X60706Y38354
X61468Y22733
X61468Y21463
X61468Y20193
X58928Y18923
X58928Y17653
X58928Y16383
X62738Y16383
X62738Y15113
X62738Y13843
X38735Y4826
X35687Y5334
X25654Y7493
X7112Y3175
X5842Y3175
X4572Y3175
X7112Y8255
X7112Y6985
X4572Y5715
X17653Y43053
X40005Y56007
X26416Y42672
X38354Y43053
M30