G04 EAGLE Gerber RS-274X export*
G75*
%MOMM*%
%FSLAX34Y34*%
%LPD*%
%INComponent side*%
%IPPOS*%
%AMOC8*
5,1,8,0,0,1.08239X$1,22.5*%
G01*
%ADD10C,1.524000*%
%ADD11P,1.649562X8X22.500000*%
%ADD12P,1.649562X8X202.500000*%
%ADD13C,0.756400*%
%ADD14C,0.406400*%


D10*
X533400Y391160D02*
X548640Y391160D01*
X548640Y365760D02*
X533400Y365760D01*
X533400Y340360D02*
X548640Y340360D01*
X548640Y314960D02*
X533400Y314960D01*
X533400Y289560D02*
X548640Y289560D01*
X125730Y289560D02*
X110490Y289560D01*
X110490Y264160D02*
X125730Y264160D01*
D11*
X584200Y124460D03*
X609600Y124460D03*
X635000Y124460D03*
X584200Y149860D03*
X609600Y149860D03*
X635000Y149860D03*
D12*
X558800Y124460D03*
X533400Y124460D03*
X508000Y124460D03*
X558800Y149860D03*
X533400Y149860D03*
X508000Y149860D03*
X215900Y127000D03*
X190500Y127000D03*
X165100Y127000D03*
X139700Y127000D03*
X114300Y127000D03*
X215900Y152400D03*
X190500Y152400D03*
X165100Y152400D03*
X139700Y152400D03*
X114300Y152400D03*
D11*
X330200Y332740D03*
X330200Y358140D03*
X355600Y332740D03*
X355600Y358140D03*
X381000Y332740D03*
X381000Y358140D03*
X406400Y332740D03*
X406400Y358140D03*
X431800Y332740D03*
X431800Y358140D03*
X457200Y332740D03*
X457200Y358140D03*
X482600Y332740D03*
X482600Y358140D03*
D12*
X292100Y127000D03*
X266700Y127000D03*
X241300Y127000D03*
X292100Y152400D03*
X266700Y152400D03*
X241300Y152400D03*
D11*
X317500Y127000D03*
X342900Y127000D03*
X368300Y127000D03*
X317500Y152400D03*
X342900Y152400D03*
X368300Y152400D03*
D13*
X215900Y190500D03*
D14*
X241300Y190500D01*
D13*
X241300Y190500D03*
X114300Y101600D03*
D14*
X76200Y101600D01*
D13*
X76200Y101600D03*
X76200Y88900D03*
D14*
X50800Y88900D01*
D13*
X50800Y88900D03*
M02*
