%
M48
M72
T01C0.01378
T02C0.04000
%
T01
X21800Y37300
X31800Y37300
X31800Y42300
X46800Y42300
X86800Y77300
X96800Y77300
T02
X96800Y62300
X106800Y62300
X116800Y62300
X126800Y62300
X136800Y62300
X146800Y62300
X146800Y52300
X136800Y52300
X126800Y52300
X116800Y52300
X106800Y52300
X96800Y52300
X86800Y52300
X76800Y52300
X66800Y52300
X56800Y52300
X46800Y52300
X46800Y62300
X56800Y62300
X66800Y62300
X76800Y62300
X86800Y62300
X48300Y106300
X48300Y116300
X131800Y133300
X131800Y143300
X141800Y143300
X141800Y133300
X151800Y133300
X161800Y133300
X161800Y143300
X151800Y143300
X171800Y143300
X171800Y133300
X181800Y133300
X181800Y143300
X191800Y143300
X191800Y133300
X214800Y136300
X214800Y126300
X214800Y116300
X214800Y146300
X214800Y156300
X211800Y61300
X221800Y61300
X221800Y51300
X211800Y51300
X201800Y51300
X201800Y61300
X231800Y61300
X231800Y51300
X241800Y51300
X241800Y61300
X251800Y61300
X251800Y51300
M30
