G04 EAGLE Gerber RS-274X export*
G75*
%MOMM*%
%FSLAX34Y34*%
%LPD*%
%INSilk screen CMP*%
%IPPOS*%
%AMOC8*
5,1,8,0,0,1.08239X$1,22.5*%
G01*
%ADD10C,0.000000*%
%ADD11C,0.152400*%
%ADD12C,0.762000*%
%ADD13R,0.508000X0.762000*%
%ADD14R,1.016000X0.762000*%
%ADD15C,0.127000*%
%ADD16R,0.762000X0.508000*%
%ADD17R,0.762000X1.016000*%
%ADD18R,0.762000X0.762000*%
%ADD19C,0.203200*%


D10*
X0Y0D02*
X431600Y0D01*
X431600Y228400D01*
X431800Y237490D01*
X468630Y237490D01*
X468630Y0D01*
X654050Y-1270D01*
X654050Y566420D01*
X413820Y566930D01*
X2540Y566930D01*
X0Y0D01*
D11*
X560070Y378460D02*
X560070Y403860D01*
X560070Y378460D02*
X585470Y378460D01*
X585470Y403860D01*
X560070Y403860D01*
D12*
X591820Y391160D02*
X648970Y391160D01*
D11*
X560070Y378460D02*
X560070Y353060D01*
X585470Y353060D01*
X585470Y378460D01*
D12*
X591820Y365760D02*
X648970Y365760D01*
D11*
X560070Y353060D02*
X560070Y327660D01*
X585470Y327660D01*
X585470Y353060D01*
D12*
X591820Y340360D02*
X648970Y340360D01*
D11*
X560070Y327660D02*
X560070Y302260D01*
X585470Y302260D01*
X585470Y327660D01*
D12*
X591820Y314960D02*
X648970Y314960D01*
D11*
X560070Y302260D02*
X560070Y276860D01*
X585470Y276860D01*
X585470Y302260D01*
D12*
X591820Y289560D02*
X648970Y289560D01*
D13*
X588010Y391160D03*
X588010Y365760D03*
X588010Y340360D03*
X588010Y314960D03*
X588010Y289560D03*
D14*
X554990Y391160D03*
X554990Y365760D03*
X554990Y340360D03*
X554990Y314960D03*
X554990Y289560D03*
D15*
X545465Y413385D02*
X545465Y422275D01*
X545465Y413385D02*
X545463Y413285D01*
X545457Y413186D01*
X545447Y413086D01*
X545434Y412988D01*
X545416Y412889D01*
X545395Y412792D01*
X545370Y412696D01*
X545341Y412600D01*
X545308Y412506D01*
X545272Y412413D01*
X545232Y412322D01*
X545188Y412232D01*
X545141Y412144D01*
X545091Y412058D01*
X545037Y411974D01*
X544980Y411892D01*
X544920Y411813D01*
X544856Y411735D01*
X544790Y411661D01*
X544721Y411589D01*
X544649Y411520D01*
X544575Y411454D01*
X544497Y411390D01*
X544418Y411330D01*
X544336Y411273D01*
X544252Y411219D01*
X544166Y411169D01*
X544078Y411122D01*
X543988Y411078D01*
X543897Y411038D01*
X543804Y411002D01*
X543710Y410969D01*
X543614Y410940D01*
X543518Y410915D01*
X543421Y410894D01*
X543322Y410876D01*
X543224Y410863D01*
X543124Y410853D01*
X543025Y410847D01*
X542925Y410845D01*
X541655Y410845D01*
X551445Y410845D02*
X551445Y422275D01*
X554620Y422275D01*
X554731Y422273D01*
X554841Y422267D01*
X554952Y422258D01*
X555062Y422244D01*
X555171Y422227D01*
X555280Y422206D01*
X555388Y422181D01*
X555495Y422152D01*
X555601Y422120D01*
X555706Y422084D01*
X555809Y422044D01*
X555911Y422001D01*
X556012Y421954D01*
X556111Y421903D01*
X556208Y421850D01*
X556302Y421793D01*
X556395Y421732D01*
X556486Y421669D01*
X556575Y421602D01*
X556661Y421532D01*
X556744Y421459D01*
X556826Y421384D01*
X556904Y421306D01*
X556979Y421224D01*
X557052Y421141D01*
X557122Y421055D01*
X557189Y420966D01*
X557252Y420875D01*
X557313Y420782D01*
X557370Y420687D01*
X557423Y420591D01*
X557474Y420492D01*
X557521Y420391D01*
X557564Y420289D01*
X557604Y420186D01*
X557640Y420081D01*
X557672Y419975D01*
X557701Y419868D01*
X557726Y419760D01*
X557747Y419651D01*
X557764Y419542D01*
X557778Y419432D01*
X557787Y419321D01*
X557793Y419211D01*
X557795Y419100D01*
X557793Y418989D01*
X557787Y418879D01*
X557778Y418768D01*
X557764Y418658D01*
X557747Y418549D01*
X557726Y418440D01*
X557701Y418332D01*
X557672Y418225D01*
X557640Y418119D01*
X557604Y418014D01*
X557564Y417911D01*
X557521Y417809D01*
X557474Y417708D01*
X557423Y417609D01*
X557370Y417512D01*
X557313Y417418D01*
X557252Y417325D01*
X557189Y417234D01*
X557122Y417145D01*
X557052Y417059D01*
X556979Y416976D01*
X556904Y416894D01*
X556826Y416816D01*
X556744Y416741D01*
X556661Y416668D01*
X556575Y416598D01*
X556486Y416531D01*
X556395Y416468D01*
X556302Y416407D01*
X556208Y416350D01*
X556111Y416297D01*
X556012Y416246D01*
X555911Y416199D01*
X555809Y416156D01*
X555706Y416116D01*
X555601Y416080D01*
X555495Y416048D01*
X555388Y416019D01*
X555280Y415994D01*
X555171Y415973D01*
X555062Y415956D01*
X554952Y415942D01*
X554841Y415933D01*
X554731Y415927D01*
X554620Y415925D01*
X551445Y415925D01*
X562304Y413385D02*
X564844Y422275D01*
X562304Y413385D02*
X568654Y413385D01*
X566749Y415925D02*
X566749Y410845D01*
D11*
X571500Y105410D02*
X546100Y105410D01*
X546100Y80010D01*
X571500Y80010D01*
X571500Y105410D01*
D12*
X558800Y73660D02*
X558800Y16510D01*
D11*
X546100Y105410D02*
X520700Y105410D01*
X520700Y80010D01*
X546100Y80010D01*
D12*
X533400Y73660D02*
X533400Y16510D01*
D11*
X520700Y105410D02*
X495300Y105410D01*
X495300Y80010D01*
X520700Y80010D01*
D12*
X508000Y73660D02*
X508000Y16510D01*
D16*
X558800Y77470D03*
X533400Y77470D03*
X508000Y77470D03*
D17*
X558800Y110490D03*
X533400Y110490D03*
D18*
X558800Y137160D03*
X533400Y137160D03*
D17*
X508000Y110490D03*
D18*
X508000Y137160D03*
D15*
X578485Y100636D02*
X587375Y100636D01*
X587475Y100634D01*
X587574Y100628D01*
X587674Y100618D01*
X587772Y100605D01*
X587871Y100587D01*
X587968Y100566D01*
X588064Y100541D01*
X588160Y100512D01*
X588254Y100479D01*
X588347Y100443D01*
X588438Y100403D01*
X588528Y100359D01*
X588616Y100312D01*
X588702Y100262D01*
X588786Y100208D01*
X588868Y100151D01*
X588947Y100091D01*
X589025Y100027D01*
X589099Y99961D01*
X589171Y99892D01*
X589240Y99820D01*
X589306Y99746D01*
X589370Y99668D01*
X589430Y99589D01*
X589487Y99507D01*
X589541Y99423D01*
X589591Y99337D01*
X589638Y99249D01*
X589682Y99159D01*
X589722Y99068D01*
X589758Y98975D01*
X589791Y98881D01*
X589820Y98785D01*
X589845Y98689D01*
X589866Y98592D01*
X589884Y98493D01*
X589897Y98395D01*
X589907Y98295D01*
X589913Y98196D01*
X589915Y98096D01*
X589915Y96826D01*
X589915Y106617D02*
X578485Y106617D01*
X578485Y109792D01*
X578487Y109903D01*
X578493Y110013D01*
X578502Y110124D01*
X578516Y110234D01*
X578533Y110343D01*
X578554Y110452D01*
X578579Y110560D01*
X578608Y110667D01*
X578640Y110773D01*
X578676Y110878D01*
X578716Y110981D01*
X578759Y111083D01*
X578806Y111184D01*
X578857Y111283D01*
X578910Y111379D01*
X578967Y111474D01*
X579028Y111567D01*
X579091Y111658D01*
X579158Y111747D01*
X579228Y111833D01*
X579301Y111916D01*
X579376Y111998D01*
X579454Y112076D01*
X579536Y112151D01*
X579619Y112224D01*
X579705Y112294D01*
X579794Y112361D01*
X579885Y112424D01*
X579978Y112485D01*
X580073Y112542D01*
X580169Y112595D01*
X580268Y112646D01*
X580369Y112693D01*
X580471Y112736D01*
X580574Y112776D01*
X580679Y112812D01*
X580785Y112844D01*
X580892Y112873D01*
X581000Y112898D01*
X581109Y112919D01*
X581218Y112936D01*
X581328Y112950D01*
X581439Y112959D01*
X581549Y112965D01*
X581660Y112967D01*
X581771Y112965D01*
X581881Y112959D01*
X581992Y112950D01*
X582102Y112936D01*
X582211Y112919D01*
X582320Y112898D01*
X582428Y112873D01*
X582535Y112844D01*
X582641Y112812D01*
X582746Y112776D01*
X582849Y112736D01*
X582951Y112693D01*
X583052Y112646D01*
X583151Y112595D01*
X583248Y112542D01*
X583342Y112485D01*
X583435Y112424D01*
X583526Y112361D01*
X583615Y112294D01*
X583701Y112224D01*
X583784Y112151D01*
X583866Y112076D01*
X583944Y111998D01*
X584019Y111916D01*
X584092Y111833D01*
X584162Y111747D01*
X584229Y111658D01*
X584292Y111567D01*
X584353Y111474D01*
X584410Y111380D01*
X584463Y111283D01*
X584514Y111184D01*
X584561Y111083D01*
X584604Y110981D01*
X584644Y110878D01*
X584680Y110773D01*
X584712Y110667D01*
X584741Y110560D01*
X584766Y110452D01*
X584787Y110343D01*
X584804Y110234D01*
X584818Y110124D01*
X584827Y110013D01*
X584833Y109903D01*
X584835Y109792D01*
X584835Y106617D01*
X589915Y117475D02*
X589915Y121285D01*
X589913Y121385D01*
X589907Y121484D01*
X589897Y121584D01*
X589884Y121682D01*
X589866Y121781D01*
X589845Y121878D01*
X589820Y121974D01*
X589791Y122070D01*
X589758Y122164D01*
X589722Y122257D01*
X589682Y122348D01*
X589638Y122438D01*
X589591Y122526D01*
X589541Y122612D01*
X589487Y122696D01*
X589430Y122778D01*
X589370Y122857D01*
X589306Y122935D01*
X589240Y123009D01*
X589171Y123081D01*
X589099Y123150D01*
X589025Y123216D01*
X588947Y123280D01*
X588868Y123340D01*
X588786Y123397D01*
X588702Y123451D01*
X588616Y123501D01*
X588528Y123548D01*
X588438Y123592D01*
X588347Y123632D01*
X588254Y123668D01*
X588160Y123701D01*
X588064Y123730D01*
X587968Y123755D01*
X587871Y123776D01*
X587772Y123794D01*
X587674Y123807D01*
X587574Y123817D01*
X587475Y123823D01*
X587375Y123825D01*
X586105Y123825D01*
X586005Y123823D01*
X585906Y123817D01*
X585806Y123807D01*
X585708Y123794D01*
X585609Y123776D01*
X585512Y123755D01*
X585416Y123730D01*
X585320Y123701D01*
X585226Y123668D01*
X585133Y123632D01*
X585042Y123592D01*
X584952Y123548D01*
X584864Y123501D01*
X584778Y123451D01*
X584694Y123397D01*
X584612Y123340D01*
X584533Y123280D01*
X584455Y123216D01*
X584381Y123150D01*
X584309Y123081D01*
X584240Y123009D01*
X584174Y122935D01*
X584110Y122857D01*
X584050Y122778D01*
X583993Y122696D01*
X583939Y122612D01*
X583889Y122526D01*
X583842Y122438D01*
X583798Y122348D01*
X583758Y122257D01*
X583722Y122164D01*
X583689Y122070D01*
X583660Y121974D01*
X583635Y121878D01*
X583614Y121781D01*
X583596Y121682D01*
X583583Y121584D01*
X583573Y121484D01*
X583567Y121385D01*
X583565Y121285D01*
X583565Y117475D01*
X578485Y117475D01*
X578485Y123825D01*
D11*
X228600Y107950D02*
X203200Y107950D01*
X203200Y82550D01*
X228600Y82550D01*
X228600Y107950D01*
D12*
X215900Y76200D02*
X215900Y19050D01*
D11*
X203200Y107950D02*
X177800Y107950D01*
X177800Y82550D01*
X203200Y82550D01*
D12*
X190500Y76200D02*
X190500Y19050D01*
D11*
X177800Y107950D02*
X152400Y107950D01*
X152400Y82550D01*
X177800Y82550D01*
D12*
X165100Y76200D02*
X165100Y19050D01*
D11*
X152400Y107950D02*
X127000Y107950D01*
X127000Y82550D01*
X152400Y82550D01*
D12*
X139700Y76200D02*
X139700Y19050D01*
D11*
X127000Y107950D02*
X101600Y107950D01*
X101600Y82550D01*
X127000Y82550D01*
D12*
X114300Y76200D02*
X114300Y19050D01*
D16*
X215900Y80010D03*
X190500Y80010D03*
X165100Y80010D03*
X139700Y80010D03*
X114300Y80010D03*
D17*
X215900Y113030D03*
X190500Y113030D03*
D18*
X215900Y139700D03*
X190500Y139700D03*
D17*
X165100Y113030D03*
X139700Y113030D03*
D18*
X165100Y139700D03*
X139700Y139700D03*
D17*
X114300Y113030D03*
D18*
X114300Y139700D03*
D15*
X235585Y103176D02*
X244475Y103176D01*
X244575Y103174D01*
X244674Y103168D01*
X244774Y103158D01*
X244872Y103145D01*
X244971Y103127D01*
X245068Y103106D01*
X245164Y103081D01*
X245260Y103052D01*
X245354Y103019D01*
X245447Y102983D01*
X245538Y102943D01*
X245628Y102899D01*
X245716Y102852D01*
X245802Y102802D01*
X245886Y102748D01*
X245968Y102691D01*
X246047Y102631D01*
X246125Y102567D01*
X246199Y102501D01*
X246271Y102432D01*
X246340Y102360D01*
X246406Y102286D01*
X246470Y102208D01*
X246530Y102129D01*
X246587Y102047D01*
X246641Y101963D01*
X246691Y101877D01*
X246738Y101789D01*
X246782Y101699D01*
X246822Y101608D01*
X246858Y101515D01*
X246891Y101421D01*
X246920Y101325D01*
X246945Y101229D01*
X246966Y101132D01*
X246984Y101033D01*
X246997Y100935D01*
X247007Y100835D01*
X247013Y100736D01*
X247015Y100636D01*
X247015Y99366D01*
X247015Y109157D02*
X235585Y109157D01*
X235585Y112332D01*
X235587Y112443D01*
X235593Y112553D01*
X235602Y112664D01*
X235616Y112774D01*
X235633Y112883D01*
X235654Y112992D01*
X235679Y113100D01*
X235708Y113207D01*
X235740Y113313D01*
X235776Y113418D01*
X235816Y113521D01*
X235859Y113623D01*
X235906Y113724D01*
X235957Y113823D01*
X236010Y113919D01*
X236067Y114014D01*
X236128Y114107D01*
X236191Y114198D01*
X236258Y114287D01*
X236328Y114373D01*
X236401Y114456D01*
X236476Y114538D01*
X236554Y114616D01*
X236636Y114691D01*
X236719Y114764D01*
X236805Y114834D01*
X236894Y114901D01*
X236985Y114964D01*
X237078Y115025D01*
X237173Y115082D01*
X237269Y115135D01*
X237368Y115186D01*
X237469Y115233D01*
X237571Y115276D01*
X237674Y115316D01*
X237779Y115352D01*
X237885Y115384D01*
X237992Y115413D01*
X238100Y115438D01*
X238209Y115459D01*
X238318Y115476D01*
X238428Y115490D01*
X238539Y115499D01*
X238649Y115505D01*
X238760Y115507D01*
X238871Y115505D01*
X238981Y115499D01*
X239092Y115490D01*
X239202Y115476D01*
X239311Y115459D01*
X239420Y115438D01*
X239528Y115413D01*
X239635Y115384D01*
X239741Y115352D01*
X239846Y115316D01*
X239949Y115276D01*
X240051Y115233D01*
X240152Y115186D01*
X240251Y115135D01*
X240348Y115082D01*
X240442Y115025D01*
X240535Y114964D01*
X240626Y114901D01*
X240715Y114834D01*
X240801Y114764D01*
X240884Y114691D01*
X240966Y114616D01*
X241044Y114538D01*
X241119Y114456D01*
X241192Y114373D01*
X241262Y114287D01*
X241329Y114198D01*
X241392Y114107D01*
X241453Y114014D01*
X241510Y113920D01*
X241563Y113823D01*
X241614Y113724D01*
X241661Y113623D01*
X241704Y113521D01*
X241744Y113418D01*
X241780Y113313D01*
X241812Y113207D01*
X241841Y113100D01*
X241866Y112992D01*
X241887Y112883D01*
X241904Y112774D01*
X241918Y112664D01*
X241927Y112553D01*
X241933Y112443D01*
X241935Y112332D01*
X241935Y109157D01*
X238125Y120015D02*
X235585Y123190D01*
X247015Y123190D01*
X247015Y120015D02*
X247015Y126365D01*
D11*
X323850Y320040D02*
X317500Y326390D01*
X336550Y320040D02*
X342900Y326390D01*
X349250Y320040D01*
X361950Y320040D02*
X368300Y326390D01*
X374650Y320040D01*
X387350Y320040D02*
X393700Y326390D01*
X400050Y320040D01*
X412750Y320040D02*
X419100Y326390D01*
X425450Y320040D01*
X438150Y320040D02*
X444500Y326390D01*
X450850Y320040D01*
X463550Y320040D02*
X469900Y326390D01*
X317500Y326390D02*
X317500Y364490D01*
X323850Y370840D01*
X336550Y370840D01*
X342900Y364490D01*
X349250Y370840D01*
X361950Y370840D01*
X368300Y364490D01*
X374650Y370840D01*
X387350Y370840D01*
X393700Y364490D01*
X400050Y370840D01*
X412750Y370840D01*
X419100Y364490D01*
X425450Y370840D01*
X438150Y370840D01*
X444500Y364490D01*
X450850Y370840D01*
X463550Y370840D01*
X469900Y364490D01*
X342900Y364490D02*
X342900Y326390D01*
X368300Y326390D02*
X368300Y364490D01*
X393700Y364490D02*
X393700Y326390D01*
X419100Y326390D02*
X419100Y364490D01*
X444500Y364490D02*
X444500Y326390D01*
X469900Y326390D02*
X469900Y364490D01*
X463550Y320040D02*
X450850Y320040D01*
X438150Y320040D02*
X425450Y320040D01*
X412750Y320040D02*
X400050Y320040D01*
X387350Y320040D02*
X374650Y320040D01*
X361950Y320040D02*
X349250Y320040D01*
X336550Y320040D02*
X323850Y320040D01*
X469900Y326390D02*
X476250Y320040D01*
X488950Y320040D02*
X495300Y326390D01*
X469900Y364490D02*
X476250Y370840D01*
X488950Y370840D01*
X495300Y364490D01*
X495300Y326390D01*
X488950Y320040D02*
X476250Y320040D01*
D15*
X307975Y311785D02*
X299085Y311785D01*
X307975Y311785D02*
X308075Y311783D01*
X308174Y311777D01*
X308274Y311767D01*
X308372Y311754D01*
X308471Y311736D01*
X308568Y311715D01*
X308664Y311690D01*
X308760Y311661D01*
X308854Y311628D01*
X308947Y311592D01*
X309038Y311552D01*
X309128Y311508D01*
X309216Y311461D01*
X309302Y311411D01*
X309386Y311357D01*
X309468Y311300D01*
X309547Y311240D01*
X309625Y311176D01*
X309699Y311110D01*
X309771Y311041D01*
X309840Y310969D01*
X309906Y310895D01*
X309970Y310817D01*
X310030Y310738D01*
X310087Y310656D01*
X310141Y310572D01*
X310191Y310486D01*
X310238Y310398D01*
X310282Y310308D01*
X310322Y310217D01*
X310358Y310124D01*
X310391Y310030D01*
X310420Y309934D01*
X310445Y309838D01*
X310466Y309741D01*
X310484Y309642D01*
X310497Y309544D01*
X310507Y309444D01*
X310513Y309345D01*
X310515Y309245D01*
X310515Y307975D01*
X310515Y317765D02*
X299085Y317765D01*
X299085Y320940D01*
X299087Y321051D01*
X299093Y321161D01*
X299102Y321272D01*
X299116Y321382D01*
X299133Y321491D01*
X299154Y321600D01*
X299179Y321708D01*
X299208Y321815D01*
X299240Y321921D01*
X299276Y322026D01*
X299316Y322129D01*
X299359Y322231D01*
X299406Y322332D01*
X299457Y322431D01*
X299510Y322528D01*
X299567Y322622D01*
X299628Y322715D01*
X299691Y322806D01*
X299758Y322895D01*
X299828Y322981D01*
X299901Y323064D01*
X299976Y323146D01*
X300054Y323224D01*
X300136Y323299D01*
X300219Y323372D01*
X300305Y323442D01*
X300394Y323509D01*
X300485Y323572D01*
X300578Y323633D01*
X300673Y323690D01*
X300769Y323743D01*
X300868Y323794D01*
X300969Y323841D01*
X301071Y323884D01*
X301174Y323924D01*
X301279Y323960D01*
X301385Y323992D01*
X301492Y324021D01*
X301600Y324046D01*
X301709Y324067D01*
X301818Y324084D01*
X301928Y324098D01*
X302039Y324107D01*
X302149Y324113D01*
X302260Y324115D01*
X302371Y324113D01*
X302481Y324107D01*
X302592Y324098D01*
X302702Y324084D01*
X302811Y324067D01*
X302920Y324046D01*
X303028Y324021D01*
X303135Y323992D01*
X303241Y323960D01*
X303346Y323924D01*
X303449Y323884D01*
X303551Y323841D01*
X303652Y323794D01*
X303751Y323743D01*
X303848Y323690D01*
X303942Y323633D01*
X304035Y323572D01*
X304126Y323509D01*
X304215Y323442D01*
X304301Y323372D01*
X304384Y323299D01*
X304466Y323224D01*
X304544Y323146D01*
X304619Y323064D01*
X304692Y322981D01*
X304762Y322895D01*
X304829Y322806D01*
X304892Y322715D01*
X304953Y322622D01*
X305010Y322528D01*
X305063Y322431D01*
X305114Y322332D01*
X305161Y322231D01*
X305204Y322129D01*
X305244Y322026D01*
X305280Y321921D01*
X305312Y321815D01*
X305341Y321708D01*
X305366Y321600D01*
X305387Y321491D01*
X305404Y321382D01*
X305418Y321272D01*
X305427Y321161D01*
X305433Y321051D01*
X305435Y320940D01*
X305435Y317765D01*
X310515Y328624D02*
X310515Y331799D01*
X310513Y331910D01*
X310507Y332020D01*
X310498Y332131D01*
X310484Y332241D01*
X310467Y332350D01*
X310446Y332459D01*
X310421Y332567D01*
X310392Y332674D01*
X310360Y332780D01*
X310324Y332885D01*
X310284Y332988D01*
X310241Y333090D01*
X310194Y333191D01*
X310143Y333290D01*
X310090Y333387D01*
X310033Y333481D01*
X309972Y333574D01*
X309909Y333665D01*
X309842Y333754D01*
X309772Y333840D01*
X309699Y333923D01*
X309624Y334005D01*
X309546Y334083D01*
X309464Y334158D01*
X309381Y334231D01*
X309295Y334301D01*
X309206Y334368D01*
X309115Y334431D01*
X309022Y334492D01*
X308928Y334549D01*
X308831Y334602D01*
X308732Y334653D01*
X308631Y334700D01*
X308529Y334743D01*
X308426Y334783D01*
X308321Y334819D01*
X308215Y334851D01*
X308108Y334880D01*
X308000Y334905D01*
X307891Y334926D01*
X307782Y334943D01*
X307672Y334957D01*
X307561Y334966D01*
X307451Y334972D01*
X307340Y334974D01*
X307229Y334972D01*
X307119Y334966D01*
X307008Y334957D01*
X306898Y334943D01*
X306789Y334926D01*
X306680Y334905D01*
X306572Y334880D01*
X306465Y334851D01*
X306359Y334819D01*
X306254Y334783D01*
X306151Y334743D01*
X306049Y334700D01*
X305948Y334653D01*
X305849Y334602D01*
X305753Y334549D01*
X305658Y334492D01*
X305565Y334431D01*
X305474Y334368D01*
X305385Y334301D01*
X305299Y334231D01*
X305216Y334158D01*
X305134Y334083D01*
X305056Y334005D01*
X304981Y333923D01*
X304908Y333840D01*
X304838Y333754D01*
X304771Y333665D01*
X304708Y333574D01*
X304647Y333481D01*
X304590Y333387D01*
X304537Y333290D01*
X304486Y333191D01*
X304439Y333090D01*
X304396Y332988D01*
X304356Y332885D01*
X304320Y332780D01*
X304288Y332674D01*
X304259Y332567D01*
X304234Y332459D01*
X304213Y332350D01*
X304196Y332241D01*
X304182Y332131D01*
X304173Y332020D01*
X304167Y331910D01*
X304165Y331799D01*
X299085Y332434D02*
X299085Y328624D01*
X299085Y332434D02*
X299087Y332534D01*
X299093Y332633D01*
X299103Y332733D01*
X299116Y332831D01*
X299134Y332930D01*
X299155Y333027D01*
X299180Y333123D01*
X299209Y333219D01*
X299242Y333313D01*
X299278Y333406D01*
X299318Y333497D01*
X299362Y333587D01*
X299409Y333675D01*
X299459Y333761D01*
X299513Y333845D01*
X299570Y333927D01*
X299630Y334006D01*
X299694Y334084D01*
X299760Y334158D01*
X299829Y334230D01*
X299901Y334299D01*
X299975Y334365D01*
X300053Y334429D01*
X300132Y334489D01*
X300214Y334546D01*
X300298Y334600D01*
X300384Y334650D01*
X300472Y334697D01*
X300562Y334741D01*
X300653Y334781D01*
X300746Y334817D01*
X300840Y334850D01*
X300936Y334879D01*
X301032Y334904D01*
X301129Y334925D01*
X301228Y334943D01*
X301326Y334956D01*
X301426Y334966D01*
X301525Y334972D01*
X301625Y334974D01*
X301725Y334972D01*
X301824Y334966D01*
X301924Y334956D01*
X302022Y334943D01*
X302121Y334925D01*
X302218Y334904D01*
X302314Y334879D01*
X302410Y334850D01*
X302504Y334817D01*
X302597Y334781D01*
X302688Y334741D01*
X302778Y334697D01*
X302866Y334650D01*
X302952Y334600D01*
X303036Y334546D01*
X303118Y334489D01*
X303197Y334429D01*
X303275Y334365D01*
X303349Y334299D01*
X303421Y334230D01*
X303490Y334158D01*
X303556Y334084D01*
X303620Y334006D01*
X303680Y333927D01*
X303737Y333845D01*
X303791Y333761D01*
X303841Y333675D01*
X303888Y333587D01*
X303932Y333497D01*
X303972Y333406D01*
X304008Y333313D01*
X304041Y333219D01*
X304070Y333123D01*
X304095Y333027D01*
X304116Y332930D01*
X304134Y332831D01*
X304147Y332733D01*
X304157Y332633D01*
X304163Y332534D01*
X304165Y332434D01*
X304165Y329894D01*
D11*
X304800Y107950D02*
X279400Y107950D01*
X279400Y82550D01*
X304800Y82550D01*
X304800Y107950D01*
D12*
X292100Y76200D02*
X292100Y19050D01*
D11*
X279400Y107950D02*
X254000Y107950D01*
X254000Y82550D01*
X279400Y82550D01*
D12*
X266700Y76200D02*
X266700Y19050D01*
D11*
X254000Y107950D02*
X228600Y107950D01*
X228600Y82550D01*
X254000Y82550D01*
D12*
X241300Y76200D02*
X241300Y19050D01*
D16*
X292100Y80010D03*
X266700Y80010D03*
X241300Y80010D03*
D17*
X292100Y113030D03*
X266700Y113030D03*
D18*
X292100Y139700D03*
X266700Y139700D03*
D17*
X241300Y113030D03*
D18*
X241300Y139700D03*
D15*
X311785Y103176D02*
X320675Y103176D01*
X320775Y103174D01*
X320874Y103168D01*
X320974Y103158D01*
X321072Y103145D01*
X321171Y103127D01*
X321268Y103106D01*
X321364Y103081D01*
X321460Y103052D01*
X321554Y103019D01*
X321647Y102983D01*
X321738Y102943D01*
X321828Y102899D01*
X321916Y102852D01*
X322002Y102802D01*
X322086Y102748D01*
X322168Y102691D01*
X322247Y102631D01*
X322325Y102567D01*
X322399Y102501D01*
X322471Y102432D01*
X322540Y102360D01*
X322606Y102286D01*
X322670Y102208D01*
X322730Y102129D01*
X322787Y102047D01*
X322841Y101963D01*
X322891Y101877D01*
X322938Y101789D01*
X322982Y101699D01*
X323022Y101608D01*
X323058Y101515D01*
X323091Y101421D01*
X323120Y101325D01*
X323145Y101229D01*
X323166Y101132D01*
X323184Y101033D01*
X323197Y100935D01*
X323207Y100835D01*
X323213Y100736D01*
X323215Y100636D01*
X323215Y99366D01*
X323215Y109157D02*
X311785Y109157D01*
X311785Y112332D01*
X311787Y112443D01*
X311793Y112553D01*
X311802Y112664D01*
X311816Y112774D01*
X311833Y112883D01*
X311854Y112992D01*
X311879Y113100D01*
X311908Y113207D01*
X311940Y113313D01*
X311976Y113418D01*
X312016Y113521D01*
X312059Y113623D01*
X312106Y113724D01*
X312157Y113823D01*
X312210Y113919D01*
X312267Y114014D01*
X312328Y114107D01*
X312391Y114198D01*
X312458Y114287D01*
X312528Y114373D01*
X312601Y114456D01*
X312676Y114538D01*
X312754Y114616D01*
X312836Y114691D01*
X312919Y114764D01*
X313005Y114834D01*
X313094Y114901D01*
X313185Y114964D01*
X313278Y115025D01*
X313373Y115082D01*
X313469Y115135D01*
X313568Y115186D01*
X313669Y115233D01*
X313771Y115276D01*
X313874Y115316D01*
X313979Y115352D01*
X314085Y115384D01*
X314192Y115413D01*
X314300Y115438D01*
X314409Y115459D01*
X314518Y115476D01*
X314628Y115490D01*
X314739Y115499D01*
X314849Y115505D01*
X314960Y115507D01*
X315071Y115505D01*
X315181Y115499D01*
X315292Y115490D01*
X315402Y115476D01*
X315511Y115459D01*
X315620Y115438D01*
X315728Y115413D01*
X315835Y115384D01*
X315941Y115352D01*
X316046Y115316D01*
X316149Y115276D01*
X316251Y115233D01*
X316352Y115186D01*
X316451Y115135D01*
X316548Y115082D01*
X316642Y115025D01*
X316735Y114964D01*
X316826Y114901D01*
X316915Y114834D01*
X317001Y114764D01*
X317084Y114691D01*
X317166Y114616D01*
X317244Y114538D01*
X317319Y114456D01*
X317392Y114373D01*
X317462Y114287D01*
X317529Y114198D01*
X317592Y114107D01*
X317653Y114014D01*
X317710Y113920D01*
X317763Y113823D01*
X317814Y113724D01*
X317861Y113623D01*
X317904Y113521D01*
X317944Y113418D01*
X317980Y113313D01*
X318012Y113207D01*
X318041Y113100D01*
X318066Y112992D01*
X318087Y112883D01*
X318104Y112774D01*
X318118Y112664D01*
X318127Y112553D01*
X318133Y112443D01*
X318135Y112332D01*
X318135Y109157D01*
X316865Y120015D02*
X316865Y123825D01*
X316867Y123925D01*
X316873Y124024D01*
X316883Y124124D01*
X316896Y124222D01*
X316914Y124321D01*
X316935Y124418D01*
X316960Y124514D01*
X316989Y124610D01*
X317022Y124704D01*
X317058Y124797D01*
X317098Y124888D01*
X317142Y124978D01*
X317189Y125066D01*
X317239Y125152D01*
X317293Y125236D01*
X317350Y125318D01*
X317410Y125397D01*
X317474Y125475D01*
X317540Y125549D01*
X317609Y125621D01*
X317681Y125690D01*
X317755Y125756D01*
X317833Y125820D01*
X317912Y125880D01*
X317994Y125937D01*
X318078Y125991D01*
X318164Y126041D01*
X318252Y126088D01*
X318342Y126132D01*
X318433Y126172D01*
X318526Y126208D01*
X318620Y126241D01*
X318716Y126270D01*
X318812Y126295D01*
X318909Y126316D01*
X319008Y126334D01*
X319106Y126347D01*
X319206Y126357D01*
X319305Y126363D01*
X319405Y126365D01*
X320040Y126365D01*
X320151Y126363D01*
X320261Y126357D01*
X320372Y126348D01*
X320482Y126334D01*
X320591Y126317D01*
X320700Y126296D01*
X320808Y126271D01*
X320915Y126242D01*
X321021Y126210D01*
X321126Y126174D01*
X321229Y126134D01*
X321331Y126091D01*
X321432Y126044D01*
X321531Y125993D01*
X321628Y125940D01*
X321722Y125883D01*
X321815Y125822D01*
X321906Y125759D01*
X321995Y125692D01*
X322081Y125622D01*
X322164Y125549D01*
X322246Y125474D01*
X322324Y125396D01*
X322399Y125314D01*
X322472Y125231D01*
X322542Y125145D01*
X322609Y125056D01*
X322672Y124965D01*
X322733Y124872D01*
X322790Y124777D01*
X322843Y124681D01*
X322894Y124582D01*
X322941Y124481D01*
X322984Y124379D01*
X323024Y124276D01*
X323060Y124171D01*
X323092Y124065D01*
X323121Y123958D01*
X323146Y123850D01*
X323167Y123741D01*
X323184Y123632D01*
X323198Y123522D01*
X323207Y123411D01*
X323213Y123301D01*
X323215Y123190D01*
X323213Y123079D01*
X323207Y122969D01*
X323198Y122858D01*
X323184Y122748D01*
X323167Y122639D01*
X323146Y122530D01*
X323121Y122422D01*
X323092Y122315D01*
X323060Y122209D01*
X323024Y122104D01*
X322984Y122001D01*
X322941Y121899D01*
X322894Y121798D01*
X322843Y121699D01*
X322790Y121602D01*
X322733Y121508D01*
X322672Y121415D01*
X322609Y121324D01*
X322542Y121235D01*
X322472Y121149D01*
X322399Y121066D01*
X322324Y120984D01*
X322246Y120906D01*
X322164Y120831D01*
X322081Y120758D01*
X321995Y120688D01*
X321906Y120621D01*
X321815Y120558D01*
X321722Y120497D01*
X321628Y120440D01*
X321531Y120387D01*
X321432Y120336D01*
X321331Y120289D01*
X321229Y120246D01*
X321126Y120206D01*
X321021Y120170D01*
X320915Y120138D01*
X320808Y120109D01*
X320700Y120084D01*
X320591Y120063D01*
X320482Y120046D01*
X320372Y120032D01*
X320261Y120023D01*
X320151Y120017D01*
X320040Y120015D01*
X316865Y120015D01*
X316725Y120017D01*
X316585Y120023D01*
X316445Y120032D01*
X316306Y120046D01*
X316167Y120063D01*
X316029Y120084D01*
X315891Y120109D01*
X315754Y120138D01*
X315618Y120170D01*
X315483Y120207D01*
X315349Y120247D01*
X315216Y120290D01*
X315084Y120338D01*
X314953Y120388D01*
X314824Y120443D01*
X314697Y120501D01*
X314571Y120562D01*
X314447Y120627D01*
X314325Y120696D01*
X314205Y120767D01*
X314087Y120842D01*
X313970Y120920D01*
X313856Y121002D01*
X313745Y121086D01*
X313636Y121174D01*
X313529Y121264D01*
X313424Y121358D01*
X313323Y121454D01*
X313224Y121553D01*
X313128Y121654D01*
X313034Y121759D01*
X312944Y121866D01*
X312856Y121975D01*
X312772Y122086D01*
X312690Y122200D01*
X312612Y122317D01*
X312537Y122435D01*
X312466Y122555D01*
X312397Y122677D01*
X312332Y122801D01*
X312271Y122927D01*
X312213Y123054D01*
X312158Y123183D01*
X312108Y123314D01*
X312060Y123446D01*
X312017Y123579D01*
X311977Y123713D01*
X311940Y123848D01*
X311908Y123984D01*
X311879Y124121D01*
X311854Y124259D01*
X311833Y124397D01*
X311816Y124536D01*
X311802Y124675D01*
X311793Y124815D01*
X311787Y124955D01*
X311785Y125095D01*
D19*
X90170Y542480D02*
X77470Y542480D01*
M02*
