G04 EAGLE Gerber RS-274X export*
G75*
%MOMM*%
%FSLAX34Y34*%
%LPD*%
%INTop Copper*%
%IPPOS*%
%AMOC8*
5,1,8,0,0,1.08239X$1,22.5*%
G01*
%ADD10C,1.524000*%
%ADD11P,1.649562X8X22.500000*%
%ADD12P,1.649562X8X202.500000*%
%ADD13P,1.649562X8X292.500000*%
%ADD14C,0.406400*%
%ADD15C,0.756400*%
%ADD16C,0.508000*%

G36*
X643145Y8969D02*
X643145Y8969D01*
X643167Y8967D01*
X643266Y8988D01*
X643366Y9004D01*
X643386Y9014D01*
X643408Y9019D01*
X643494Y9071D01*
X643584Y9117D01*
X643600Y9134D01*
X643619Y9145D01*
X643685Y9222D01*
X643755Y9295D01*
X643764Y9315D01*
X643779Y9332D01*
X643817Y9426D01*
X643860Y9517D01*
X643862Y9539D01*
X643871Y9560D01*
X643889Y9727D01*
X643889Y114866D01*
X643878Y114937D01*
X643876Y115009D01*
X643858Y115058D01*
X643850Y115109D01*
X643816Y115172D01*
X643791Y115240D01*
X643759Y115280D01*
X643734Y115326D01*
X643682Y115376D01*
X643638Y115432D01*
X643594Y115460D01*
X643556Y115496D01*
X643491Y115526D01*
X643431Y115565D01*
X643380Y115577D01*
X643333Y115599D01*
X643262Y115607D01*
X643192Y115625D01*
X643140Y115621D01*
X643089Y115626D01*
X643018Y115611D01*
X642947Y115606D01*
X642899Y115585D01*
X642848Y115574D01*
X642787Y115537D01*
X642721Y115509D01*
X642665Y115464D01*
X642637Y115448D01*
X642622Y115430D01*
X642590Y115405D01*
X641882Y114696D01*
X641881Y114696D01*
X630855Y103669D01*
X561645Y103669D01*
X549206Y116108D01*
X549133Y116161D01*
X549063Y116221D01*
X549033Y116233D01*
X549007Y116252D01*
X548920Y116279D01*
X548835Y116313D01*
X548794Y116317D01*
X548772Y116324D01*
X548739Y116323D01*
X548668Y116331D01*
X541681Y116331D01*
X535431Y122581D01*
X535431Y131419D01*
X541681Y137669D01*
X550519Y137669D01*
X556769Y131419D01*
X556769Y123232D01*
X556783Y123142D01*
X556791Y123051D01*
X556803Y123021D01*
X556808Y122989D01*
X556851Y122908D01*
X556887Y122825D01*
X556913Y122792D01*
X556924Y122772D01*
X556947Y122750D01*
X556992Y122694D01*
X565632Y114054D01*
X565705Y114001D01*
X565775Y113941D01*
X565805Y113929D01*
X565831Y113910D01*
X565918Y113883D01*
X566003Y113849D01*
X566044Y113845D01*
X566066Y113838D01*
X566099Y113839D01*
X566170Y113831D01*
X626330Y113831D01*
X626420Y113845D01*
X626511Y113853D01*
X626541Y113865D01*
X626573Y113870D01*
X626654Y113913D01*
X626737Y113949D01*
X626770Y113975D01*
X626790Y113986D01*
X626812Y114009D01*
X626868Y114054D01*
X634696Y121882D01*
X634742Y121946D01*
X634760Y121964D01*
X634763Y121972D01*
X634809Y122025D01*
X634821Y122055D01*
X634840Y122081D01*
X634867Y122168D01*
X634901Y122253D01*
X634905Y122294D01*
X634912Y122316D01*
X634911Y122349D01*
X634919Y122420D01*
X634919Y170080D01*
X634905Y170170D01*
X634897Y170261D01*
X634885Y170291D01*
X634880Y170323D01*
X634837Y170404D01*
X634801Y170487D01*
X634775Y170520D01*
X634764Y170540D01*
X634741Y170562D01*
X634696Y170618D01*
X633618Y171696D01*
X633545Y171749D01*
X633475Y171809D01*
X633445Y171821D01*
X633419Y171840D01*
X633332Y171867D01*
X633247Y171901D01*
X633206Y171905D01*
X633184Y171912D01*
X633151Y171911D01*
X633080Y171919D01*
X632391Y171919D01*
X629881Y172959D01*
X627959Y174881D01*
X626919Y177391D01*
X626919Y180109D01*
X627959Y182619D01*
X629881Y184541D01*
X632391Y185581D01*
X635109Y185581D01*
X637619Y184541D01*
X639541Y182619D01*
X640581Y180109D01*
X640581Y179420D01*
X640595Y179330D01*
X640603Y179239D01*
X640615Y179209D01*
X640620Y179177D01*
X640663Y179097D01*
X640699Y179013D01*
X640725Y178980D01*
X640736Y178960D01*
X640759Y178938D01*
X640804Y178882D01*
X642590Y177095D01*
X642648Y177054D01*
X642700Y177004D01*
X642747Y176982D01*
X642789Y176952D01*
X642858Y176931D01*
X642923Y176901D01*
X642975Y176895D01*
X643025Y176880D01*
X643096Y176881D01*
X643167Y176874D01*
X643218Y176885D01*
X643270Y176886D01*
X643338Y176911D01*
X643408Y176926D01*
X643453Y176953D01*
X643501Y176970D01*
X643557Y177015D01*
X643619Y177052D01*
X643653Y177092D01*
X643693Y177124D01*
X643732Y177184D01*
X643779Y177239D01*
X643798Y177287D01*
X643826Y177331D01*
X643844Y177400D01*
X643871Y177467D01*
X643879Y177538D01*
X643887Y177570D01*
X643885Y177593D01*
X643889Y177634D01*
X643889Y568708D01*
X643886Y568728D01*
X643888Y568747D01*
X643866Y568849D01*
X643850Y568951D01*
X643840Y568968D01*
X643836Y568988D01*
X643783Y569077D01*
X643734Y569168D01*
X643720Y569182D01*
X643710Y569199D01*
X643631Y569266D01*
X643556Y569338D01*
X643538Y569346D01*
X643523Y569359D01*
X643427Y569398D01*
X643333Y569441D01*
X643313Y569443D01*
X643295Y569451D01*
X643128Y569469D01*
X10922Y569469D01*
X10902Y569466D01*
X10883Y569468D01*
X10781Y569446D01*
X10679Y569430D01*
X10662Y569420D01*
X10642Y569416D01*
X10553Y569363D01*
X10462Y569314D01*
X10448Y569300D01*
X10431Y569290D01*
X10364Y569211D01*
X10292Y569136D01*
X10284Y569118D01*
X10271Y569103D01*
X10232Y569007D01*
X10189Y568913D01*
X10187Y568893D01*
X10179Y568875D01*
X10161Y568708D01*
X10161Y10922D01*
X10164Y10902D01*
X10162Y10883D01*
X10184Y10781D01*
X10200Y10679D01*
X10210Y10662D01*
X10214Y10642D01*
X10267Y10553D01*
X10316Y10462D01*
X10330Y10448D01*
X10340Y10431D01*
X10419Y10364D01*
X10494Y10292D01*
X10512Y10284D01*
X10527Y10271D01*
X10623Y10232D01*
X10717Y10189D01*
X10737Y10187D01*
X10755Y10179D01*
X10922Y10161D01*
X420678Y10161D01*
X420698Y10164D01*
X420717Y10162D01*
X420819Y10184D01*
X420921Y10200D01*
X420938Y10210D01*
X420958Y10214D01*
X421047Y10267D01*
X421138Y10316D01*
X421152Y10330D01*
X421169Y10340D01*
X421236Y10419D01*
X421308Y10494D01*
X421316Y10512D01*
X421329Y10527D01*
X421368Y10623D01*
X421411Y10717D01*
X421413Y10737D01*
X421421Y10755D01*
X421439Y10922D01*
X421439Y137360D01*
X421429Y137423D01*
X421429Y137486D01*
X421427Y137491D01*
X421439Y139526D01*
X421439Y139528D01*
X421439Y139530D01*
X421439Y141590D01*
X421443Y141618D01*
X421450Y141650D01*
X421448Y141669D01*
X421452Y141699D01*
X421639Y174017D01*
X421639Y174019D01*
X421639Y174022D01*
X421639Y176042D01*
X422423Y177903D01*
X422423Y177905D01*
X422425Y177907D01*
X423198Y179774D01*
X424633Y181192D01*
X424634Y181194D01*
X424636Y181195D01*
X426066Y182626D01*
X427936Y183388D01*
X427938Y183388D01*
X427940Y183389D01*
X429807Y184162D01*
X431827Y184151D01*
X431828Y184151D01*
X431831Y184151D01*
X470651Y184151D01*
X474386Y182604D01*
X477244Y179746D01*
X478791Y176011D01*
X478791Y10847D01*
X478794Y10830D01*
X478792Y10813D01*
X478813Y10709D01*
X478830Y10605D01*
X478839Y10589D01*
X478842Y10572D01*
X478896Y10481D01*
X478946Y10387D01*
X478958Y10375D01*
X478967Y10360D01*
X479047Y10291D01*
X479124Y10218D01*
X479140Y10211D01*
X479153Y10199D01*
X479251Y10159D01*
X479347Y10114D01*
X479364Y10112D01*
X479380Y10106D01*
X479547Y10086D01*
X643123Y8966D01*
X643145Y8969D01*
G37*
%LPC*%
G36*
X541141Y210669D02*
X541141Y210669D01*
X538631Y211709D01*
X536709Y213631D01*
X535669Y216141D01*
X535669Y216830D01*
X535655Y216920D01*
X535647Y217011D01*
X535635Y217041D01*
X535630Y217073D01*
X535587Y217154D01*
X535551Y217238D01*
X535525Y217270D01*
X535514Y217290D01*
X535491Y217313D01*
X535446Y217368D01*
X498118Y254696D01*
X494919Y257895D01*
X494919Y338396D01*
X494908Y338467D01*
X494906Y338539D01*
X494888Y338588D01*
X494880Y338639D01*
X494846Y338702D01*
X494821Y338770D01*
X494789Y338810D01*
X494764Y338856D01*
X494712Y338906D01*
X494668Y338962D01*
X494624Y338990D01*
X494586Y339026D01*
X494521Y339056D01*
X494461Y339095D01*
X494410Y339107D01*
X494363Y339129D01*
X494292Y339137D01*
X494222Y339155D01*
X494170Y339151D01*
X494119Y339156D01*
X494048Y339141D01*
X493977Y339136D01*
X493929Y339115D01*
X493878Y339104D01*
X493817Y339067D01*
X493751Y339039D01*
X493695Y338995D01*
X493667Y338978D01*
X493652Y338960D01*
X493620Y338935D01*
X491882Y337196D01*
X443304Y288618D01*
X443251Y288545D01*
X443191Y288475D01*
X443179Y288445D01*
X443160Y288419D01*
X443133Y288332D01*
X443099Y288247D01*
X443095Y288206D01*
X443088Y288184D01*
X443089Y288151D01*
X443081Y288080D01*
X443081Y287391D01*
X442041Y284881D01*
X440119Y282959D01*
X437609Y281919D01*
X434891Y281919D01*
X432381Y282959D01*
X430459Y284881D01*
X429419Y287391D01*
X429419Y289146D01*
X429408Y289217D01*
X429406Y289289D01*
X429388Y289338D01*
X429380Y289389D01*
X429346Y289452D01*
X429321Y289520D01*
X429289Y289560D01*
X429264Y289606D01*
X429212Y289656D01*
X429168Y289712D01*
X429124Y289740D01*
X429086Y289776D01*
X429021Y289806D01*
X428961Y289845D01*
X428910Y289857D01*
X428863Y289879D01*
X428792Y289887D01*
X428722Y289905D01*
X428670Y289901D01*
X428619Y289906D01*
X428548Y289891D01*
X428477Y289886D01*
X428429Y289865D01*
X428378Y289854D01*
X428317Y289817D01*
X428251Y289789D01*
X428195Y289745D01*
X428167Y289728D01*
X428152Y289710D01*
X428120Y289685D01*
X419832Y281396D01*
X419779Y281323D01*
X419719Y281253D01*
X419707Y281223D01*
X419688Y281197D01*
X419661Y281110D01*
X419627Y281025D01*
X419623Y280984D01*
X419616Y280962D01*
X419617Y280929D01*
X419609Y280858D01*
X419609Y274981D01*
X413359Y268731D01*
X404521Y268731D01*
X398271Y274981D01*
X398271Y283819D01*
X404521Y290069D01*
X413429Y290069D01*
X413444Y290060D01*
X413544Y290034D01*
X413643Y290004D01*
X413663Y290004D01*
X413682Y290000D01*
X413785Y290008D01*
X413889Y290010D01*
X413907Y290017D01*
X413927Y290019D01*
X414022Y290059D01*
X414120Y290095D01*
X414135Y290107D01*
X414154Y290115D01*
X414285Y290220D01*
X427895Y303831D01*
X432580Y303831D01*
X432670Y303845D01*
X432761Y303853D01*
X432791Y303865D01*
X432823Y303870D01*
X432904Y303913D01*
X432987Y303949D01*
X433020Y303975D01*
X433040Y303986D01*
X433062Y304009D01*
X433118Y304054D01*
X474696Y345632D01*
X474749Y345705D01*
X474809Y345775D01*
X474821Y345805D01*
X474840Y345831D01*
X474867Y345918D01*
X474901Y346003D01*
X474905Y346044D01*
X474912Y346066D01*
X474911Y346099D01*
X474919Y346170D01*
X474919Y381355D01*
X474905Y381445D01*
X474897Y381536D01*
X474885Y381566D01*
X474880Y381598D01*
X474837Y381679D01*
X474801Y381763D01*
X474775Y381795D01*
X474764Y381815D01*
X474741Y381838D01*
X474696Y381894D01*
X474209Y382381D01*
X474045Y382776D01*
X473994Y382859D01*
X473948Y382945D01*
X473929Y382963D01*
X473916Y382985D01*
X473841Y383048D01*
X473770Y383115D01*
X473746Y383126D01*
X473726Y383142D01*
X473635Y383177D01*
X473547Y383218D01*
X473521Y383221D01*
X473497Y383230D01*
X473399Y383235D01*
X473303Y383245D01*
X473277Y383240D01*
X473251Y383241D01*
X473157Y383214D01*
X473062Y383193D01*
X473040Y383180D01*
X473015Y383172D01*
X472935Y383117D01*
X472851Y383067D01*
X472834Y383047D01*
X472813Y383032D01*
X472754Y382954D01*
X472691Y382880D01*
X472681Y382856D01*
X472666Y382835D01*
X472636Y382742D01*
X472599Y382652D01*
X472596Y382619D01*
X472590Y382601D01*
X472590Y382568D01*
X472581Y382485D01*
X472581Y367895D01*
X469382Y364696D01*
X417295Y312610D01*
X417283Y312593D01*
X417268Y312581D01*
X417211Y312494D01*
X417151Y312410D01*
X417145Y312391D01*
X417135Y312374D01*
X417109Y312274D01*
X417079Y312175D01*
X417079Y312155D01*
X417075Y312136D01*
X417083Y312033D01*
X417085Y311929D01*
X417092Y311910D01*
X417094Y311890D01*
X417134Y311796D01*
X417170Y311698D01*
X417182Y311682D01*
X417190Y311664D01*
X417295Y311533D01*
X419609Y309219D01*
X419609Y300381D01*
X413359Y294131D01*
X404521Y294131D01*
X398271Y300381D01*
X398271Y309219D01*
X400172Y311120D01*
X400214Y311178D01*
X400263Y311230D01*
X400285Y311277D01*
X400315Y311319D01*
X400337Y311388D01*
X400367Y311453D01*
X400372Y311505D01*
X400388Y311555D01*
X400386Y311626D01*
X400394Y311697D01*
X400383Y311748D01*
X400381Y311800D01*
X400357Y311868D01*
X400342Y311938D01*
X400315Y311983D01*
X400297Y312031D01*
X400252Y312087D01*
X400215Y312149D01*
X400176Y312183D01*
X400143Y312223D01*
X400083Y312262D01*
X400028Y312309D01*
X399980Y312328D01*
X399936Y312356D01*
X399867Y312374D01*
X399800Y312401D01*
X399729Y312409D01*
X399698Y312417D01*
X399675Y312415D01*
X399634Y312419D01*
X394145Y312419D01*
X390946Y315618D01*
X387256Y319308D01*
X387183Y319361D01*
X387113Y319421D01*
X387083Y319433D01*
X387057Y319452D01*
X386970Y319479D01*
X386885Y319513D01*
X386844Y319517D01*
X386822Y319524D01*
X386789Y319523D01*
X386718Y319531D01*
X379121Y319531D01*
X372871Y325781D01*
X372871Y334619D01*
X379121Y340869D01*
X387959Y340869D01*
X394209Y334619D01*
X394209Y327042D01*
X394223Y326952D01*
X394231Y326861D01*
X394243Y326831D01*
X394248Y326799D01*
X394291Y326718D01*
X394327Y326634D01*
X394353Y326602D01*
X394364Y326582D01*
X394387Y326559D01*
X394432Y326504D01*
X398132Y322804D01*
X398205Y322751D01*
X398275Y322691D01*
X398305Y322679D01*
X398331Y322660D01*
X398418Y322633D01*
X398503Y322599D01*
X398544Y322595D01*
X398566Y322588D01*
X398599Y322589D01*
X398670Y322581D01*
X399634Y322581D01*
X399704Y322592D01*
X399776Y322594D01*
X399825Y322612D01*
X399876Y322620D01*
X399940Y322654D01*
X400007Y322679D01*
X400048Y322711D01*
X400094Y322736D01*
X400143Y322788D01*
X400199Y322832D01*
X400227Y322876D01*
X400263Y322914D01*
X400293Y322979D01*
X400332Y323039D01*
X400345Y323090D01*
X400367Y323137D01*
X400375Y323208D01*
X400392Y323278D01*
X400388Y323330D01*
X400394Y323381D01*
X400379Y323452D01*
X400373Y323523D01*
X400353Y323571D01*
X400342Y323622D01*
X400305Y323683D01*
X400277Y323749D01*
X400232Y323805D01*
X400215Y323833D01*
X400199Y323847D01*
X400195Y323853D01*
X400190Y323857D01*
X400172Y323880D01*
X398271Y325781D01*
X398271Y334619D01*
X404521Y340869D01*
X412118Y340869D01*
X412208Y340883D01*
X412299Y340891D01*
X412329Y340903D01*
X412361Y340908D01*
X412442Y340951D01*
X412525Y340987D01*
X412558Y341013D01*
X412578Y341024D01*
X412580Y341025D01*
X412580Y341026D01*
X412601Y341047D01*
X412656Y341092D01*
X449696Y378132D01*
X449749Y378205D01*
X449809Y378275D01*
X449821Y378305D01*
X449840Y378331D01*
X449867Y378418D01*
X449901Y378503D01*
X449905Y378544D01*
X449912Y378566D01*
X449911Y378599D01*
X449919Y378670D01*
X449919Y388719D01*
X449912Y388765D01*
X449914Y388811D01*
X449892Y388885D01*
X449880Y388962D01*
X449858Y389003D01*
X449845Y389047D01*
X449801Y389111D01*
X449764Y389179D01*
X449731Y389211D01*
X449705Y389249D01*
X449642Y389295D01*
X449586Y389349D01*
X449544Y389368D01*
X449508Y389396D01*
X449434Y389420D01*
X449363Y389452D01*
X449317Y389457D01*
X449274Y389472D01*
X449196Y389471D01*
X449119Y389480D01*
X449074Y389470D01*
X449028Y389469D01*
X448897Y389431D01*
X448878Y389427D01*
X448874Y389425D01*
X448867Y389423D01*
X448859Y389419D01*
X446141Y389419D01*
X443631Y390459D01*
X441709Y392381D01*
X441063Y393941D01*
X441001Y394041D01*
X440941Y394141D01*
X440936Y394145D01*
X440933Y394150D01*
X440843Y394225D01*
X440754Y394301D01*
X440748Y394303D01*
X440744Y394307D01*
X440635Y394349D01*
X440526Y394393D01*
X440519Y394394D01*
X440514Y394395D01*
X440496Y394396D01*
X440359Y394411D01*
X430862Y394411D01*
X430791Y394400D01*
X430719Y394398D01*
X430670Y394380D01*
X430619Y394372D01*
X430556Y394338D01*
X430488Y394313D01*
X430448Y394281D01*
X430402Y394256D01*
X430352Y394204D01*
X430296Y394160D01*
X430268Y394116D01*
X430232Y394078D01*
X430202Y394013D01*
X430163Y393953D01*
X430151Y393902D01*
X430129Y393855D01*
X430121Y393784D01*
X430103Y393714D01*
X430107Y393662D01*
X430102Y393611D01*
X430117Y393540D01*
X430122Y393469D01*
X430143Y393421D01*
X430154Y393370D01*
X430191Y393309D01*
X430219Y393243D01*
X430263Y393187D01*
X430280Y393159D01*
X430298Y393144D01*
X430323Y393112D01*
X431331Y392105D01*
X431331Y370395D01*
X419832Y358896D01*
X419787Y358834D01*
X419762Y358808D01*
X419757Y358797D01*
X419719Y358753D01*
X419707Y358723D01*
X419688Y358697D01*
X419661Y358610D01*
X419627Y358525D01*
X419623Y358484D01*
X419616Y358462D01*
X419617Y358429D01*
X419609Y358358D01*
X419609Y351181D01*
X413359Y344931D01*
X404521Y344931D01*
X398271Y351181D01*
X398271Y360019D01*
X404521Y366269D01*
X412518Y366269D01*
X412608Y366283D01*
X412699Y366291D01*
X412729Y366303D01*
X412761Y366308D01*
X412842Y366351D01*
X412925Y366387D01*
X412958Y366413D01*
X412978Y366424D01*
X413000Y366447D01*
X413056Y366492D01*
X420946Y374382D01*
X420999Y374455D01*
X421059Y374525D01*
X421071Y374555D01*
X421090Y374581D01*
X421117Y374668D01*
X421151Y374753D01*
X421155Y374794D01*
X421162Y374816D01*
X421161Y374849D01*
X421169Y374920D01*
X421169Y382408D01*
X421166Y382428D01*
X421168Y382447D01*
X421146Y382549D01*
X421130Y382651D01*
X421120Y382668D01*
X421116Y382688D01*
X421063Y382777D01*
X421014Y382868D01*
X421000Y382882D01*
X420990Y382899D01*
X420911Y382966D01*
X420836Y383038D01*
X420818Y383046D01*
X420803Y383059D01*
X420707Y383098D01*
X420613Y383141D01*
X420593Y383143D01*
X420575Y383151D01*
X420408Y383169D01*
X420370Y383169D01*
X420350Y383166D01*
X420331Y383168D01*
X420229Y383146D01*
X420127Y383130D01*
X420110Y383120D01*
X420090Y383116D01*
X420001Y383063D01*
X419910Y383014D01*
X419896Y383000D01*
X419879Y382990D01*
X419812Y382911D01*
X419740Y382836D01*
X419732Y382818D01*
X419719Y382803D01*
X419680Y382707D01*
X419637Y382613D01*
X419635Y382593D01*
X419627Y382575D01*
X419609Y382408D01*
X419609Y376581D01*
X413359Y370331D01*
X404521Y370331D01*
X398271Y376581D01*
X398271Y385419D01*
X404521Y391669D01*
X413359Y391669D01*
X413394Y391634D01*
X413431Y391607D01*
X413462Y391573D01*
X413531Y391536D01*
X413594Y391490D01*
X413638Y391477D01*
X413678Y391455D01*
X413754Y391441D01*
X413829Y391418D01*
X413875Y391419D01*
X413920Y391411D01*
X413997Y391422D01*
X414075Y391424D01*
X414118Y391440D01*
X414163Y391447D01*
X414233Y391482D01*
X414306Y391509D01*
X414341Y391537D01*
X414382Y391558D01*
X414437Y391614D01*
X414498Y391662D01*
X414522Y391701D01*
X414555Y391734D01*
X414621Y391854D01*
X414631Y391869D01*
X414632Y391874D01*
X414636Y391881D01*
X415248Y393359D01*
X415258Y393403D01*
X415278Y393445D01*
X415286Y393522D01*
X415304Y393598D01*
X415300Y393644D01*
X415305Y393689D01*
X415288Y393766D01*
X415281Y393843D01*
X415262Y393885D01*
X415252Y393930D01*
X415212Y393997D01*
X415181Y394068D01*
X415150Y394102D01*
X415126Y394141D01*
X415067Y394192D01*
X415014Y394249D01*
X414974Y394271D01*
X414939Y394301D01*
X414867Y394330D01*
X414799Y394367D01*
X414754Y394376D01*
X414711Y394393D01*
X414575Y394408D01*
X414557Y394411D01*
X414552Y394410D01*
X414544Y394411D01*
X344641Y394411D01*
X344526Y394392D01*
X344410Y394375D01*
X344404Y394373D01*
X344398Y394372D01*
X344295Y394317D01*
X344190Y394264D01*
X344186Y394259D01*
X344180Y394256D01*
X344101Y394172D01*
X344018Y394088D01*
X344014Y394082D01*
X344011Y394078D01*
X344003Y394061D01*
X343937Y393941D01*
X343292Y392383D01*
X343281Y392339D01*
X343262Y392297D01*
X343253Y392220D01*
X343236Y392144D01*
X343240Y392098D01*
X343235Y392053D01*
X343251Y391976D01*
X343259Y391899D01*
X343277Y391857D01*
X343287Y391812D01*
X343327Y391745D01*
X343359Y391674D01*
X343390Y391640D01*
X343413Y391601D01*
X343472Y391550D01*
X343525Y391493D01*
X343565Y391471D01*
X343600Y391441D01*
X343673Y391412D01*
X343741Y391375D01*
X343786Y391366D01*
X343828Y391349D01*
X343964Y391334D01*
X343983Y391331D01*
X343988Y391332D01*
X343995Y391331D01*
X354605Y391331D01*
X379444Y366492D01*
X379517Y366439D01*
X379587Y366379D01*
X379617Y366367D01*
X379643Y366348D01*
X379730Y366321D01*
X379815Y366287D01*
X379856Y366283D01*
X379878Y366276D01*
X379911Y366277D01*
X379982Y366269D01*
X387959Y366269D01*
X394209Y360019D01*
X394209Y351181D01*
X387959Y344931D01*
X379121Y344931D01*
X372871Y351181D01*
X372871Y358378D01*
X372867Y358403D01*
X372869Y358419D01*
X372856Y358480D01*
X372849Y358559D01*
X372837Y358589D01*
X372832Y358621D01*
X372820Y358642D01*
X372817Y358659D01*
X372782Y358716D01*
X372753Y358785D01*
X372727Y358818D01*
X372716Y358838D01*
X372701Y358853D01*
X372690Y358870D01*
X372673Y358885D01*
X372648Y358916D01*
X350618Y380946D01*
X350545Y380999D01*
X350475Y381059D01*
X350445Y381071D01*
X350419Y381090D01*
X350332Y381117D01*
X350247Y381151D01*
X350206Y381155D01*
X350184Y381162D01*
X350151Y381161D01*
X350080Y381169D01*
X331645Y381169D01*
X314919Y397895D01*
X314919Y453095D01*
X317946Y456122D01*
X317999Y456195D01*
X318059Y456265D01*
X318071Y456295D01*
X318090Y456321D01*
X318117Y456408D01*
X318151Y456493D01*
X318155Y456534D01*
X318162Y456556D01*
X318161Y456589D01*
X318169Y456660D01*
X318169Y457349D01*
X319209Y459859D01*
X321131Y461781D01*
X323641Y462821D01*
X326359Y462821D01*
X328869Y461781D01*
X330791Y459859D01*
X331831Y457349D01*
X331831Y454631D01*
X330791Y452121D01*
X328869Y450199D01*
X326359Y449159D01*
X325842Y449159D01*
X325822Y449156D01*
X325803Y449158D01*
X325701Y449136D01*
X325599Y449120D01*
X325582Y449110D01*
X325562Y449106D01*
X325473Y449053D01*
X325382Y449004D01*
X325368Y448990D01*
X325351Y448980D01*
X325284Y448901D01*
X325212Y448826D01*
X325204Y448808D01*
X325191Y448793D01*
X325152Y448697D01*
X325109Y448603D01*
X325107Y448583D01*
X325099Y448565D01*
X325081Y448398D01*
X325081Y417825D01*
X325088Y417780D01*
X325086Y417734D01*
X325108Y417659D01*
X325120Y417582D01*
X325142Y417542D01*
X325155Y417498D01*
X325199Y417434D01*
X325236Y417365D01*
X325269Y417333D01*
X325295Y417296D01*
X325357Y417249D01*
X325414Y417196D01*
X325456Y417176D01*
X325492Y417149D01*
X325566Y417125D01*
X325637Y417092D01*
X325683Y417087D01*
X325726Y417073D01*
X325804Y417074D01*
X325881Y417065D01*
X325926Y417075D01*
X325972Y417075D01*
X326104Y417113D01*
X326122Y417117D01*
X326126Y417120D01*
X326133Y417122D01*
X328641Y418161D01*
X329330Y418161D01*
X329420Y418175D01*
X329511Y418183D01*
X329541Y418195D01*
X329573Y418200D01*
X329654Y418243D01*
X329737Y418279D01*
X329770Y418305D01*
X329790Y418316D01*
X329812Y418339D01*
X329868Y418384D01*
X359065Y447581D01*
X396355Y447581D01*
X396445Y447595D01*
X396536Y447603D01*
X396566Y447615D01*
X396598Y447620D01*
X396679Y447663D01*
X396763Y447699D01*
X396795Y447725D01*
X396815Y447736D01*
X396838Y447759D01*
X396894Y447804D01*
X397381Y448291D01*
X399891Y449331D01*
X402609Y449331D01*
X405119Y448291D01*
X407041Y446369D01*
X408081Y443859D01*
X408081Y441141D01*
X407041Y438631D01*
X405119Y436709D01*
X402609Y435669D01*
X399891Y435669D01*
X397381Y436709D01*
X396894Y437196D01*
X396820Y437249D01*
X396750Y437309D01*
X396720Y437321D01*
X396694Y437340D01*
X396607Y437367D01*
X396522Y437401D01*
X396481Y437405D01*
X396459Y437412D01*
X396427Y437411D01*
X396355Y437419D01*
X363590Y437419D01*
X363500Y437405D01*
X363409Y437397D01*
X363379Y437385D01*
X363347Y437380D01*
X363266Y437337D01*
X363183Y437301D01*
X363150Y437275D01*
X363130Y437264D01*
X363108Y437241D01*
X363052Y437196D01*
X337054Y411198D01*
X337001Y411125D01*
X336941Y411055D01*
X336929Y411025D01*
X336910Y410999D01*
X336883Y410912D01*
X336849Y410827D01*
X336845Y410786D01*
X336838Y410764D01*
X336839Y410731D01*
X336831Y410660D01*
X336831Y409971D01*
X335791Y407461D01*
X333869Y405539D01*
X331359Y404499D01*
X328641Y404499D01*
X326133Y405538D01*
X326089Y405549D01*
X326047Y405568D01*
X325970Y405577D01*
X325894Y405594D01*
X325848Y405590D01*
X325803Y405595D01*
X325726Y405579D01*
X325649Y405571D01*
X325607Y405553D01*
X325562Y405543D01*
X325495Y405503D01*
X325424Y405471D01*
X325390Y405440D01*
X325351Y405417D01*
X325300Y405358D01*
X325243Y405305D01*
X325221Y405265D01*
X325191Y405230D01*
X325162Y405157D01*
X325125Y405089D01*
X325116Y405044D01*
X325099Y405002D01*
X325084Y404866D01*
X325081Y404847D01*
X325082Y404842D01*
X325081Y404835D01*
X325081Y402420D01*
X325095Y402330D01*
X325103Y402239D01*
X325115Y402209D01*
X325120Y402177D01*
X325163Y402096D01*
X325199Y402013D01*
X325225Y401980D01*
X325236Y401960D01*
X325259Y401938D01*
X325304Y401882D01*
X329544Y397642D01*
X329581Y397615D01*
X329612Y397581D01*
X329680Y397543D01*
X329743Y397498D01*
X329787Y397485D01*
X329827Y397462D01*
X329904Y397449D01*
X329978Y397426D01*
X330024Y397427D01*
X330069Y397419D01*
X330147Y397430D01*
X330224Y397432D01*
X330267Y397448D01*
X330313Y397455D01*
X330382Y397490D01*
X330455Y397517D01*
X330491Y397545D01*
X330532Y397566D01*
X330587Y397622D01*
X330647Y397670D01*
X330672Y397709D01*
X330704Y397742D01*
X330770Y397861D01*
X330780Y397877D01*
X330782Y397882D01*
X330785Y397889D01*
X331709Y400119D01*
X333631Y402041D01*
X336161Y403089D01*
X336202Y403095D01*
X336293Y403103D01*
X336323Y403115D01*
X336354Y403120D01*
X336435Y403163D01*
X336519Y403199D01*
X336551Y403225D01*
X336572Y403236D01*
X336594Y403259D01*
X336650Y403304D01*
X338084Y404738D01*
X340138Y405589D01*
X444862Y405589D01*
X446916Y404738D01*
X448350Y403304D01*
X448424Y403251D01*
X448493Y403191D01*
X448524Y403179D01*
X448550Y403160D01*
X448637Y403133D01*
X448722Y403099D01*
X448762Y403095D01*
X448785Y403088D01*
X448817Y403089D01*
X448848Y403085D01*
X449617Y402767D01*
X449661Y402756D01*
X449703Y402737D01*
X449780Y402728D01*
X449856Y402711D01*
X449902Y402715D01*
X449947Y402710D01*
X450024Y402726D01*
X450101Y402734D01*
X450143Y402752D01*
X450188Y402762D01*
X450255Y402802D01*
X450326Y402834D01*
X450360Y402865D01*
X450399Y402888D01*
X450450Y402947D01*
X450507Y403000D01*
X450529Y403040D01*
X450559Y403075D01*
X450588Y403147D01*
X450625Y403216D01*
X450634Y403261D01*
X450651Y403303D01*
X450666Y403439D01*
X450669Y403458D01*
X450668Y403463D01*
X450669Y403470D01*
X450669Y405109D01*
X451709Y407619D01*
X452914Y408824D01*
X452926Y408840D01*
X452941Y408853D01*
X452997Y408940D01*
X453058Y409024D01*
X453063Y409043D01*
X453074Y409060D01*
X453100Y409160D01*
X453130Y409259D01*
X453129Y409279D01*
X453134Y409298D01*
X453126Y409401D01*
X453124Y409505D01*
X453117Y409524D01*
X453115Y409543D01*
X453075Y409638D01*
X453039Y409736D01*
X453027Y409752D01*
X453019Y409770D01*
X452941Y409867D01*
X452937Y409874D01*
X452932Y409878D01*
X452914Y409901D01*
X379868Y482946D01*
X379795Y482999D01*
X379725Y483059D01*
X379695Y483071D01*
X379669Y483090D01*
X379582Y483117D01*
X379497Y483151D01*
X379456Y483155D01*
X379434Y483162D01*
X379401Y483161D01*
X379330Y483169D01*
X378641Y483169D01*
X376131Y484209D01*
X374209Y486131D01*
X373169Y488641D01*
X373169Y491359D01*
X374208Y493867D01*
X374219Y493911D01*
X374238Y493953D01*
X374247Y494030D01*
X374264Y494106D01*
X374260Y494152D01*
X374265Y494197D01*
X374249Y494274D01*
X374241Y494351D01*
X374223Y494393D01*
X374213Y494438D01*
X374173Y494505D01*
X374141Y494576D01*
X374110Y494610D01*
X374087Y494649D01*
X374028Y494700D01*
X373975Y494757D01*
X373935Y494779D01*
X373900Y494809D01*
X373827Y494838D01*
X373759Y494875D01*
X373714Y494884D01*
X373672Y494901D01*
X373536Y494916D01*
X373517Y494919D01*
X373512Y494918D01*
X373505Y494919D01*
X352420Y494919D01*
X352330Y494905D01*
X352239Y494897D01*
X352209Y494885D01*
X352177Y494880D01*
X352096Y494837D01*
X352013Y494801D01*
X351980Y494775D01*
X351960Y494764D01*
X351938Y494741D01*
X351882Y494696D01*
X334605Y477419D01*
X302092Y477419D01*
X302072Y477416D01*
X302053Y477418D01*
X301951Y477396D01*
X301849Y477380D01*
X301832Y477370D01*
X301812Y477366D01*
X301723Y477313D01*
X301632Y477264D01*
X301618Y477250D01*
X301601Y477240D01*
X301534Y477161D01*
X301462Y477086D01*
X301454Y477068D01*
X301441Y477053D01*
X301402Y476957D01*
X301359Y476863D01*
X301357Y476843D01*
X301349Y476825D01*
X301331Y476658D01*
X301331Y367420D01*
X301345Y367330D01*
X301353Y367239D01*
X301365Y367209D01*
X301370Y367177D01*
X301413Y367097D01*
X301449Y367013D01*
X301475Y366980D01*
X301486Y366960D01*
X301509Y366938D01*
X301554Y366882D01*
X301770Y366666D01*
X301828Y366624D01*
X301880Y366574D01*
X301927Y366552D01*
X301969Y366522D01*
X302038Y366501D01*
X302103Y366471D01*
X302155Y366465D01*
X302204Y366450D01*
X302276Y366451D01*
X302347Y366444D01*
X302398Y366455D01*
X302450Y366456D01*
X302518Y366481D01*
X302588Y366496D01*
X302633Y366523D01*
X302681Y366540D01*
X302737Y366585D01*
X302799Y366622D01*
X302833Y366662D01*
X302873Y366694D01*
X302912Y366754D01*
X302959Y366809D01*
X302978Y366857D01*
X303006Y366901D01*
X303024Y366970D01*
X303051Y367037D01*
X303059Y367108D01*
X303067Y367139D01*
X303065Y367163D01*
X303069Y367204D01*
X303069Y368999D01*
X304109Y371509D01*
X306031Y373431D01*
X308541Y374471D01*
X311259Y374471D01*
X313769Y373431D01*
X315691Y371509D01*
X316731Y368999D01*
X316731Y368310D01*
X316745Y368220D01*
X316753Y368129D01*
X316765Y368099D01*
X316770Y368067D01*
X316813Y367986D01*
X316849Y367903D01*
X316875Y367870D01*
X316886Y367850D01*
X316909Y367828D01*
X316954Y367772D01*
X371922Y312804D01*
X371995Y312751D01*
X372065Y312691D01*
X372095Y312679D01*
X372121Y312660D01*
X372208Y312633D01*
X372293Y312599D01*
X372334Y312595D01*
X372356Y312588D01*
X372389Y312589D01*
X372460Y312581D01*
X375918Y312581D01*
X376008Y312595D01*
X376099Y312603D01*
X376128Y312615D01*
X376160Y312620D01*
X376241Y312663D01*
X376325Y312699D01*
X376357Y312725D01*
X376378Y312736D01*
X376400Y312759D01*
X376456Y312804D01*
X379121Y315469D01*
X387959Y315469D01*
X394209Y309219D01*
X394209Y300381D01*
X387959Y294131D01*
X379121Y294131D01*
X372871Y300381D01*
X372871Y301658D01*
X372868Y301678D01*
X372870Y301697D01*
X372848Y301799D01*
X372832Y301901D01*
X372822Y301918D01*
X372818Y301938D01*
X372765Y302027D01*
X372716Y302118D01*
X372702Y302132D01*
X372692Y302149D01*
X372613Y302216D01*
X372538Y302288D01*
X372520Y302296D01*
X372505Y302309D01*
X372409Y302348D01*
X372315Y302391D01*
X372295Y302393D01*
X372277Y302401D01*
X372110Y302419D01*
X369104Y302419D01*
X369033Y302408D01*
X368961Y302406D01*
X368912Y302388D01*
X368861Y302380D01*
X368798Y302346D01*
X368730Y302321D01*
X368690Y302289D01*
X368644Y302264D01*
X368594Y302212D01*
X368538Y302168D01*
X368510Y302124D01*
X368474Y302086D01*
X368444Y302021D01*
X368405Y301961D01*
X368393Y301910D01*
X368371Y301863D01*
X368363Y301792D01*
X368345Y301722D01*
X368349Y301670D01*
X368344Y301619D01*
X368359Y301548D01*
X368364Y301477D01*
X368385Y301429D01*
X368396Y301378D01*
X368433Y301317D01*
X368461Y301251D01*
X368505Y301195D01*
X368522Y301167D01*
X368540Y301152D01*
X368565Y301120D01*
X379394Y290292D01*
X379467Y290239D01*
X379537Y290179D01*
X379567Y290167D01*
X379593Y290148D01*
X379680Y290121D01*
X379765Y290087D01*
X379806Y290083D01*
X379828Y290076D01*
X379861Y290077D01*
X379932Y290069D01*
X387959Y290069D01*
X394209Y283819D01*
X394209Y274981D01*
X387959Y268731D01*
X379121Y268731D01*
X372871Y274981D01*
X372871Y282128D01*
X372857Y282218D01*
X372849Y282309D01*
X372837Y282339D01*
X372832Y282371D01*
X372789Y282452D01*
X372753Y282535D01*
X372727Y282568D01*
X372716Y282588D01*
X372693Y282610D01*
X372648Y282666D01*
X311868Y343446D01*
X311795Y343499D01*
X311725Y343559D01*
X311695Y343571D01*
X311669Y343590D01*
X311582Y343617D01*
X311497Y343651D01*
X311456Y343655D01*
X311434Y343662D01*
X311401Y343661D01*
X311330Y343669D01*
X310395Y343669D01*
X291169Y362895D01*
X291169Y443396D01*
X291158Y443467D01*
X291156Y443539D01*
X291138Y443588D01*
X291130Y443639D01*
X291096Y443702D01*
X291071Y443770D01*
X291039Y443810D01*
X291014Y443856D01*
X290962Y443906D01*
X290918Y443962D01*
X290874Y443990D01*
X290836Y444026D01*
X290771Y444056D01*
X290711Y444095D01*
X290660Y444107D01*
X290613Y444129D01*
X290542Y444137D01*
X290472Y444155D01*
X290420Y444151D01*
X290369Y444156D01*
X290298Y444141D01*
X290227Y444136D01*
X290179Y444115D01*
X290128Y444104D01*
X290067Y444067D01*
X290001Y444039D01*
X289945Y443994D01*
X289917Y443978D01*
X289902Y443960D01*
X289870Y443935D01*
X289604Y443669D01*
X287420Y443669D01*
X287330Y443655D01*
X287239Y443647D01*
X287209Y443635D01*
X287177Y443630D01*
X287096Y443587D01*
X287013Y443551D01*
X286980Y443525D01*
X286960Y443514D01*
X286938Y443491D01*
X286882Y443446D01*
X272804Y429368D01*
X272751Y429295D01*
X272691Y429225D01*
X272679Y429195D01*
X272660Y429169D01*
X272633Y429082D01*
X272599Y428997D01*
X272595Y428956D01*
X272588Y428934D01*
X272589Y428901D01*
X272581Y428830D01*
X272581Y399895D01*
X272595Y399805D01*
X272603Y399714D01*
X272615Y399684D01*
X272620Y399652D01*
X272663Y399571D01*
X272699Y399487D01*
X272725Y399455D01*
X272736Y399435D01*
X272759Y399412D01*
X272804Y399356D01*
X273291Y398869D01*
X274331Y396359D01*
X274331Y393641D01*
X273291Y391131D01*
X271369Y389209D01*
X268859Y388169D01*
X266141Y388169D01*
X263631Y389209D01*
X261709Y391131D01*
X260669Y393641D01*
X260669Y396359D01*
X261709Y398869D01*
X262196Y399356D01*
X262249Y399430D01*
X262309Y399500D01*
X262321Y399530D01*
X262340Y399556D01*
X262367Y399643D01*
X262401Y399728D01*
X262405Y399769D01*
X262412Y399791D01*
X262411Y399823D01*
X262419Y399895D01*
X262419Y433355D01*
X282196Y453132D01*
X282249Y453205D01*
X282309Y453275D01*
X282321Y453305D01*
X282340Y453331D01*
X282367Y453418D01*
X282401Y453503D01*
X282405Y453544D01*
X282412Y453566D01*
X282411Y453599D01*
X282419Y453670D01*
X282419Y456235D01*
X282404Y456331D01*
X282394Y456428D01*
X282384Y456452D01*
X282380Y456478D01*
X282334Y456564D01*
X282294Y456653D01*
X282277Y456672D01*
X282264Y456695D01*
X282194Y456762D01*
X282128Y456834D01*
X282105Y456847D01*
X282086Y456865D01*
X281998Y456906D01*
X281912Y456953D01*
X281887Y456957D01*
X281863Y456968D01*
X281766Y456979D01*
X281670Y456996D01*
X281644Y456992D01*
X281619Y456995D01*
X281524Y456975D01*
X281427Y456961D01*
X281404Y456949D01*
X281378Y456943D01*
X281295Y456893D01*
X281208Y456849D01*
X281189Y456830D01*
X281167Y456817D01*
X281104Y456743D01*
X281036Y456673D01*
X281020Y456645D01*
X281007Y456630D01*
X280995Y456599D01*
X280955Y456526D01*
X280791Y456131D01*
X278869Y454209D01*
X276359Y453169D01*
X273641Y453169D01*
X271111Y454217D01*
X271078Y454241D01*
X271008Y454301D01*
X270978Y454313D01*
X270952Y454332D01*
X270865Y454359D01*
X270780Y454393D01*
X270739Y454397D01*
X270717Y454404D01*
X270685Y454403D01*
X270613Y454411D01*
X255456Y454411D01*
X255410Y454404D01*
X255364Y454406D01*
X255290Y454384D01*
X255213Y454372D01*
X255172Y454350D01*
X255128Y454337D01*
X255064Y454293D01*
X254995Y454256D01*
X254964Y454223D01*
X254926Y454197D01*
X254880Y454134D01*
X254826Y454078D01*
X254807Y454036D01*
X254779Y454000D01*
X254755Y453926D01*
X254722Y453855D01*
X254717Y453809D01*
X254703Y453766D01*
X254704Y453688D01*
X254695Y453611D01*
X254705Y453566D01*
X254706Y453520D01*
X254744Y453388D01*
X254748Y453370D01*
X254750Y453366D01*
X254752Y453359D01*
X255581Y451359D01*
X255581Y448641D01*
X254541Y446131D01*
X254054Y445644D01*
X254001Y445570D01*
X253941Y445500D01*
X253929Y445470D01*
X253910Y445444D01*
X253883Y445357D01*
X253849Y445272D01*
X253845Y445231D01*
X253838Y445209D01*
X253839Y445177D01*
X253831Y445105D01*
X253831Y389720D01*
X253845Y389630D01*
X253853Y389539D01*
X253865Y389509D01*
X253870Y389477D01*
X253913Y389396D01*
X253949Y389313D01*
X253975Y389280D01*
X253986Y389260D01*
X254009Y389238D01*
X254054Y389182D01*
X286382Y356854D01*
X286455Y356801D01*
X286525Y356741D01*
X286555Y356729D01*
X286581Y356710D01*
X286668Y356683D01*
X286753Y356649D01*
X286794Y356645D01*
X286816Y356638D01*
X286849Y356639D01*
X286920Y356631D01*
X287609Y356631D01*
X290119Y355591D01*
X292041Y353669D01*
X293081Y351159D01*
X293081Y348441D01*
X292041Y345931D01*
X290119Y344009D01*
X287609Y342969D01*
X284891Y342969D01*
X282381Y344009D01*
X280459Y345931D01*
X279419Y348441D01*
X279419Y349130D01*
X279405Y349220D01*
X279397Y349311D01*
X279385Y349341D01*
X279380Y349373D01*
X279337Y349454D01*
X279301Y349537D01*
X279275Y349570D01*
X279264Y349590D01*
X279241Y349612D01*
X279196Y349668D01*
X243669Y385195D01*
X243669Y445105D01*
X243655Y445195D01*
X243647Y445286D01*
X243635Y445316D01*
X243630Y445348D01*
X243587Y445429D01*
X243551Y445513D01*
X243525Y445545D01*
X243514Y445565D01*
X243491Y445588D01*
X243446Y445644D01*
X242959Y446131D01*
X241919Y448641D01*
X241919Y451359D01*
X242748Y453359D01*
X242758Y453403D01*
X242778Y453445D01*
X242786Y453522D01*
X242804Y453598D01*
X242800Y453644D01*
X242805Y453689D01*
X242788Y453766D01*
X242781Y453843D01*
X242762Y453885D01*
X242752Y453930D01*
X242712Y453997D01*
X242681Y454068D01*
X242650Y454102D01*
X242626Y454141D01*
X242567Y454192D01*
X242514Y454249D01*
X242474Y454271D01*
X242439Y454301D01*
X242367Y454330D01*
X242299Y454367D01*
X242254Y454376D01*
X242211Y454393D01*
X242075Y454408D01*
X242057Y454411D01*
X242052Y454410D01*
X242044Y454411D01*
X100637Y454411D01*
X100547Y454397D01*
X100456Y454389D01*
X100426Y454377D01*
X100394Y454372D01*
X100313Y454329D01*
X100229Y454293D01*
X100197Y454267D01*
X100177Y454256D01*
X100154Y454233D01*
X100130Y454214D01*
X97609Y453169D01*
X94891Y453169D01*
X92381Y454209D01*
X90459Y456131D01*
X89419Y458641D01*
X89419Y461359D01*
X90459Y463869D01*
X92381Y465791D01*
X94891Y466831D01*
X97609Y466831D01*
X100139Y465783D01*
X100172Y465759D01*
X100242Y465699D01*
X100272Y465687D01*
X100298Y465668D01*
X100385Y465641D01*
X100470Y465607D01*
X100511Y465603D01*
X100533Y465596D01*
X100565Y465597D01*
X100637Y465589D01*
X270613Y465589D01*
X270703Y465603D01*
X270794Y465611D01*
X270824Y465623D01*
X270856Y465628D01*
X270937Y465671D01*
X271021Y465707D01*
X271053Y465733D01*
X271073Y465744D01*
X271096Y465767D01*
X271120Y465786D01*
X273641Y466831D01*
X276359Y466831D01*
X278869Y465791D01*
X280791Y463869D01*
X280955Y463474D01*
X281006Y463391D01*
X281052Y463305D01*
X281071Y463287D01*
X281084Y463265D01*
X281159Y463202D01*
X281230Y463135D01*
X281254Y463124D01*
X281274Y463108D01*
X281365Y463073D01*
X281453Y463032D01*
X281479Y463029D01*
X281503Y463019D01*
X281601Y463015D01*
X281697Y463005D01*
X281723Y463010D01*
X281749Y463009D01*
X281843Y463036D01*
X281938Y463057D01*
X281960Y463070D01*
X281985Y463078D01*
X282065Y463133D01*
X282149Y463183D01*
X282166Y463203D01*
X282187Y463218D01*
X282245Y463296D01*
X282309Y463370D01*
X282319Y463394D01*
X282334Y463415D01*
X282364Y463508D01*
X282401Y463598D01*
X282404Y463631D01*
X282410Y463649D01*
X282410Y463682D01*
X282419Y463765D01*
X282419Y482605D01*
X282405Y482695D01*
X282397Y482786D01*
X282385Y482816D01*
X282380Y482848D01*
X282337Y482929D01*
X282301Y483013D01*
X282275Y483045D01*
X282264Y483065D01*
X282241Y483088D01*
X282196Y483144D01*
X281709Y483631D01*
X280669Y486141D01*
X280669Y488859D01*
X281709Y491369D01*
X283631Y493291D01*
X286141Y494331D01*
X288859Y494331D01*
X291369Y493291D01*
X293291Y491369D01*
X294331Y488859D01*
X294331Y488342D01*
X294334Y488322D01*
X294332Y488303D01*
X294354Y488201D01*
X294370Y488099D01*
X294380Y488082D01*
X294384Y488062D01*
X294437Y487973D01*
X294486Y487882D01*
X294500Y487868D01*
X294510Y487851D01*
X294589Y487784D01*
X294664Y487712D01*
X294682Y487704D01*
X294697Y487691D01*
X294793Y487652D01*
X294887Y487609D01*
X294907Y487607D01*
X294925Y487599D01*
X295092Y487581D01*
X330080Y487581D01*
X330170Y487595D01*
X330261Y487603D01*
X330291Y487615D01*
X330323Y487620D01*
X330404Y487663D01*
X330487Y487699D01*
X330520Y487725D01*
X330540Y487736D01*
X330562Y487759D01*
X330618Y487804D01*
X347895Y505081D01*
X405855Y505081D01*
X427632Y483304D01*
X427705Y483251D01*
X427775Y483191D01*
X427805Y483179D01*
X427831Y483160D01*
X427918Y483133D01*
X428003Y483099D01*
X428044Y483095D01*
X428066Y483088D01*
X428099Y483089D01*
X428170Y483081D01*
X428859Y483081D01*
X431369Y482041D01*
X433291Y480119D01*
X434331Y477609D01*
X434331Y474891D01*
X433291Y472381D01*
X431369Y470459D01*
X428859Y469419D01*
X426141Y469419D01*
X423915Y470341D01*
X423820Y470364D01*
X423727Y470392D01*
X423701Y470392D01*
X423675Y470398D01*
X423579Y470389D01*
X423481Y470386D01*
X423457Y470377D01*
X423431Y470375D01*
X423342Y470335D01*
X423250Y470302D01*
X423230Y470285D01*
X423206Y470275D01*
X423134Y470209D01*
X423058Y470148D01*
X423044Y470126D01*
X423025Y470108D01*
X422978Y470023D01*
X422925Y469941D01*
X422919Y469916D01*
X422906Y469893D01*
X422889Y469797D01*
X422865Y469702D01*
X422867Y469676D01*
X422862Y469651D01*
X422877Y469554D01*
X422884Y469457D01*
X422894Y469433D01*
X422898Y469407D01*
X422942Y469320D01*
X422981Y469231D01*
X423001Y469205D01*
X423010Y469188D01*
X423033Y469165D01*
X423085Y469100D01*
X452632Y439554D01*
X452705Y439501D01*
X452775Y439441D01*
X452805Y439429D01*
X452831Y439410D01*
X452918Y439383D01*
X453003Y439349D01*
X453044Y439345D01*
X453066Y439338D01*
X453099Y439339D01*
X453170Y439331D01*
X453859Y439331D01*
X456369Y438291D01*
X458291Y436369D01*
X459331Y433859D01*
X459331Y431141D01*
X458291Y428631D01*
X456369Y426709D01*
X453859Y425669D01*
X453354Y425669D01*
X453283Y425658D01*
X453211Y425656D01*
X453162Y425638D01*
X453111Y425630D01*
X453048Y425596D01*
X452980Y425571D01*
X452940Y425539D01*
X452894Y425514D01*
X452844Y425462D01*
X452788Y425418D01*
X452760Y425374D01*
X452724Y425336D01*
X452694Y425271D01*
X452655Y425211D01*
X452643Y425160D01*
X452621Y425113D01*
X452613Y425042D01*
X452595Y424972D01*
X452599Y424920D01*
X452594Y424869D01*
X452609Y424798D01*
X452614Y424727D01*
X452635Y424679D01*
X452646Y424628D01*
X452683Y424567D01*
X452711Y424501D01*
X452755Y424445D01*
X452772Y424417D01*
X452790Y424402D01*
X452815Y424370D01*
X459270Y417916D01*
X459343Y417863D01*
X459413Y417803D01*
X459443Y417791D01*
X459469Y417772D01*
X459556Y417745D01*
X459641Y417711D01*
X459682Y417707D01*
X459704Y417700D01*
X459737Y417701D01*
X459808Y417693D01*
X463275Y417693D01*
X472581Y408387D01*
X472581Y390015D01*
X472596Y389919D01*
X472606Y389822D01*
X472616Y389798D01*
X472620Y389772D01*
X472666Y389686D01*
X472706Y389597D01*
X472723Y389578D01*
X472736Y389555D01*
X472806Y389488D01*
X472872Y389416D01*
X472895Y389403D01*
X472914Y389385D01*
X473002Y389344D01*
X473088Y389297D01*
X473113Y389293D01*
X473137Y389282D01*
X473234Y389271D01*
X473330Y389254D01*
X473356Y389258D01*
X473381Y389255D01*
X473476Y389275D01*
X473573Y389290D01*
X473596Y389301D01*
X473622Y389307D01*
X473705Y389357D01*
X473792Y389401D01*
X473811Y389420D01*
X473833Y389433D01*
X473896Y389507D01*
X473964Y389577D01*
X473980Y389605D01*
X473993Y389620D01*
X474005Y389651D01*
X474045Y389724D01*
X474209Y390119D01*
X476131Y392041D01*
X478641Y393081D01*
X481359Y393081D01*
X483867Y392042D01*
X483911Y392031D01*
X483953Y392012D01*
X484030Y392003D01*
X484106Y391986D01*
X484152Y391990D01*
X484197Y391985D01*
X484274Y392001D01*
X484351Y392009D01*
X484393Y392027D01*
X484438Y392037D01*
X484505Y392077D01*
X484576Y392109D01*
X484610Y392140D01*
X484649Y392163D01*
X484700Y392222D01*
X484757Y392275D01*
X484779Y392315D01*
X484809Y392350D01*
X484838Y392423D01*
X484875Y392491D01*
X484884Y392536D01*
X484901Y392578D01*
X484916Y392714D01*
X484919Y392733D01*
X484918Y392738D01*
X484919Y392745D01*
X484919Y482908D01*
X484916Y482928D01*
X484918Y482947D01*
X484896Y483049D01*
X484880Y483151D01*
X484870Y483168D01*
X484866Y483188D01*
X484813Y483277D01*
X484764Y483368D01*
X484750Y483382D01*
X484740Y483399D01*
X484661Y483466D01*
X484586Y483538D01*
X484568Y483546D01*
X484553Y483559D01*
X484457Y483598D01*
X484363Y483641D01*
X484343Y483643D01*
X484325Y483651D01*
X484158Y483669D01*
X447395Y483669D01*
X447305Y483655D01*
X447214Y483647D01*
X447184Y483635D01*
X447152Y483630D01*
X447071Y483587D01*
X446987Y483551D01*
X446955Y483525D01*
X446935Y483514D01*
X446912Y483491D01*
X446856Y483446D01*
X446369Y482959D01*
X443859Y481919D01*
X441141Y481919D01*
X438631Y482959D01*
X436709Y484881D01*
X435669Y487391D01*
X435669Y490109D01*
X436709Y492619D01*
X438631Y494541D01*
X441141Y495581D01*
X443859Y495581D01*
X446369Y494541D01*
X446856Y494054D01*
X446930Y494001D01*
X447000Y493941D01*
X447030Y493929D01*
X447056Y493910D01*
X447143Y493883D01*
X447228Y493849D01*
X447269Y493845D01*
X447291Y493838D01*
X447323Y493839D01*
X447395Y493831D01*
X492105Y493831D01*
X495081Y490855D01*
X495081Y446265D01*
X495096Y446169D01*
X495106Y446072D01*
X495116Y446048D01*
X495120Y446022D01*
X495166Y445936D01*
X495206Y445847D01*
X495223Y445828D01*
X495236Y445805D01*
X495306Y445738D01*
X495372Y445666D01*
X495395Y445653D01*
X495414Y445635D01*
X495502Y445594D01*
X495588Y445547D01*
X495613Y445543D01*
X495637Y445532D01*
X495734Y445521D01*
X495830Y445504D01*
X495856Y445508D01*
X495881Y445505D01*
X495976Y445525D01*
X496073Y445540D01*
X496096Y445551D01*
X496122Y445557D01*
X496205Y445607D01*
X496292Y445651D01*
X496311Y445670D01*
X496333Y445683D01*
X496396Y445757D01*
X496464Y445827D01*
X496480Y445855D01*
X496493Y445870D01*
X496505Y445901D01*
X496545Y445974D01*
X496709Y446369D01*
X498631Y448291D01*
X501141Y449331D01*
X503859Y449331D01*
X506369Y448291D01*
X506856Y447804D01*
X506930Y447751D01*
X507000Y447691D01*
X507030Y447679D01*
X507056Y447660D01*
X507143Y447633D01*
X507228Y447599D01*
X507269Y447595D01*
X507291Y447588D01*
X507323Y447589D01*
X507395Y447581D01*
X542146Y447581D01*
X542217Y447592D01*
X542289Y447594D01*
X542338Y447612D01*
X542389Y447620D01*
X542452Y447654D01*
X542520Y447679D01*
X542560Y447711D01*
X542606Y447736D01*
X542656Y447788D01*
X542712Y447832D01*
X542740Y447876D01*
X542776Y447914D01*
X542806Y447979D01*
X542845Y448039D01*
X542857Y448090D01*
X542879Y448137D01*
X542887Y448208D01*
X542905Y448278D01*
X542901Y448330D01*
X542906Y448381D01*
X542891Y448452D01*
X542886Y448523D01*
X542865Y448571D01*
X542854Y448622D01*
X542817Y448683D01*
X542789Y448749D01*
X542745Y448805D01*
X542728Y448833D01*
X542710Y448848D01*
X542685Y448880D01*
X483118Y508446D01*
X483045Y508499D01*
X482975Y508559D01*
X482945Y508571D01*
X482919Y508590D01*
X482832Y508617D01*
X482747Y508651D01*
X482706Y508655D01*
X482684Y508662D01*
X482651Y508661D01*
X482580Y508669D01*
X228645Y508669D01*
X228555Y508655D01*
X228464Y508647D01*
X228434Y508635D01*
X228402Y508630D01*
X228321Y508587D01*
X228237Y508551D01*
X228205Y508525D01*
X228185Y508514D01*
X228162Y508491D01*
X228106Y508446D01*
X227619Y507959D01*
X225109Y506919D01*
X222391Y506919D01*
X219881Y507959D01*
X217959Y509881D01*
X216919Y512391D01*
X216919Y515109D01*
X217959Y517619D01*
X219881Y519541D01*
X222391Y520581D01*
X225109Y520581D01*
X227619Y519541D01*
X228106Y519054D01*
X228180Y519001D01*
X228250Y518941D01*
X228280Y518929D01*
X228306Y518910D01*
X228393Y518883D01*
X228478Y518849D01*
X228519Y518845D01*
X228541Y518838D01*
X228573Y518839D01*
X228645Y518831D01*
X487105Y518831D01*
X591382Y414554D01*
X591455Y414501D01*
X591525Y414441D01*
X591555Y414429D01*
X591581Y414410D01*
X591668Y414383D01*
X591753Y414349D01*
X591794Y414345D01*
X591816Y414338D01*
X591849Y414339D01*
X591920Y414331D01*
X592609Y414331D01*
X595119Y413291D01*
X597041Y411369D01*
X597245Y410877D01*
X597296Y410794D01*
X597342Y410708D01*
X597361Y410690D01*
X597374Y410668D01*
X597449Y410606D01*
X597520Y410539D01*
X597544Y410528D01*
X597564Y410511D01*
X597655Y410476D01*
X597743Y410435D01*
X597769Y410432D01*
X597793Y410423D01*
X597891Y410419D01*
X597987Y410408D01*
X598013Y410414D01*
X598039Y410413D01*
X598133Y410440D01*
X598228Y410460D01*
X598250Y410474D01*
X598275Y410481D01*
X598355Y410537D01*
X598439Y410587D01*
X598456Y410606D01*
X598477Y410621D01*
X598535Y410699D01*
X598599Y410773D01*
X598609Y410798D01*
X598624Y410819D01*
X598654Y410911D01*
X598691Y411002D01*
X598694Y411034D01*
X598700Y411053D01*
X598700Y411086D01*
X598709Y411168D01*
X598709Y446290D01*
X598695Y446380D01*
X598687Y446471D01*
X598675Y446501D01*
X598670Y446533D01*
X598627Y446614D01*
X598591Y446697D01*
X598565Y446730D01*
X598554Y446750D01*
X598531Y446772D01*
X598486Y446828D01*
X563618Y481696D01*
X563545Y481749D01*
X563475Y481809D01*
X563445Y481821D01*
X563419Y481840D01*
X563332Y481867D01*
X563247Y481901D01*
X563206Y481905D01*
X563184Y481912D01*
X563151Y481911D01*
X563080Y481919D01*
X562391Y481919D01*
X559881Y482959D01*
X557959Y484881D01*
X556919Y487391D01*
X556919Y490109D01*
X557959Y492619D01*
X559881Y494541D01*
X562391Y495581D01*
X565109Y495581D01*
X567619Y494541D01*
X569541Y492619D01*
X570581Y490109D01*
X570581Y489420D01*
X570595Y489330D01*
X570603Y489239D01*
X570615Y489209D01*
X570620Y489177D01*
X570663Y489096D01*
X570699Y489013D01*
X570725Y488980D01*
X570736Y488960D01*
X570759Y488938D01*
X570804Y488882D01*
X608871Y450815D01*
X608871Y379185D01*
X565855Y336169D01*
X564920Y336169D01*
X564830Y336155D01*
X564739Y336147D01*
X564709Y336135D01*
X564677Y336130D01*
X564596Y336087D01*
X564513Y336051D01*
X564480Y336025D01*
X564460Y336014D01*
X564438Y335991D01*
X564382Y335946D01*
X546649Y318214D01*
X546581Y318119D01*
X546511Y318025D01*
X546509Y318019D01*
X546505Y318014D01*
X546471Y317903D01*
X546435Y317791D01*
X546435Y317785D01*
X546433Y317779D01*
X546436Y317662D01*
X546437Y317545D01*
X546439Y317538D01*
X546439Y317533D01*
X546446Y317515D01*
X546484Y317384D01*
X546609Y317082D01*
X546609Y312838D01*
X544985Y308917D01*
X541983Y305915D01*
X538062Y304291D01*
X518578Y304291D01*
X514657Y305915D01*
X511655Y308917D01*
X510031Y312838D01*
X510031Y317082D01*
X511655Y321003D01*
X514657Y324005D01*
X518578Y325629D01*
X538062Y325629D01*
X538746Y325346D01*
X538860Y325319D01*
X538973Y325290D01*
X538979Y325291D01*
X538985Y325289D01*
X539102Y325300D01*
X539218Y325309D01*
X539224Y325312D01*
X539230Y325312D01*
X539338Y325361D01*
X539444Y325406D01*
X539450Y325410D01*
X539455Y325412D01*
X539469Y325425D01*
X539575Y325511D01*
X557196Y343131D01*
X557196Y343132D01*
X557725Y343660D01*
X557751Y343697D01*
X557785Y343728D01*
X557823Y343796D01*
X557868Y343859D01*
X557882Y343903D01*
X557904Y343944D01*
X557918Y344020D01*
X557940Y344095D01*
X557939Y344140D01*
X557947Y344186D01*
X557936Y344263D01*
X557934Y344340D01*
X557918Y344384D01*
X557912Y344429D01*
X557876Y344498D01*
X557850Y344571D01*
X557821Y344607D01*
X557800Y344648D01*
X557745Y344703D01*
X557696Y344763D01*
X557657Y344788D01*
X557625Y344820D01*
X557504Y344887D01*
X557489Y344896D01*
X557484Y344898D01*
X557478Y344901D01*
X556131Y345459D01*
X554209Y347381D01*
X553169Y349891D01*
X553169Y352609D01*
X554209Y355119D01*
X554696Y355606D01*
X554749Y355680D01*
X554809Y355750D01*
X554821Y355780D01*
X554840Y355806D01*
X554867Y355893D01*
X554901Y355978D01*
X554905Y356019D01*
X554912Y356041D01*
X554911Y356073D01*
X554919Y356145D01*
X554919Y411330D01*
X554905Y411420D01*
X554897Y411511D01*
X554885Y411541D01*
X554880Y411573D01*
X554837Y411654D01*
X554801Y411737D01*
X554775Y411770D01*
X554764Y411790D01*
X554741Y411812D01*
X554696Y411868D01*
X540618Y425946D01*
X540545Y425999D01*
X540475Y426059D01*
X540445Y426071D01*
X540419Y426090D01*
X540332Y426117D01*
X540247Y426151D01*
X540206Y426155D01*
X540184Y426162D01*
X540151Y426161D01*
X540080Y426169D01*
X522395Y426169D01*
X522305Y426155D01*
X522214Y426147D01*
X522184Y426135D01*
X522152Y426130D01*
X522071Y426087D01*
X521987Y426051D01*
X521955Y426025D01*
X521935Y426014D01*
X521912Y425991D01*
X521856Y425946D01*
X521369Y425459D01*
X518859Y424419D01*
X516141Y424419D01*
X513631Y425459D01*
X511709Y427381D01*
X510669Y429891D01*
X510669Y432609D01*
X511709Y435119D01*
X512710Y436120D01*
X512751Y436178D01*
X512801Y436230D01*
X512823Y436277D01*
X512853Y436319D01*
X512874Y436388D01*
X512904Y436453D01*
X512910Y436505D01*
X512926Y436555D01*
X512924Y436626D01*
X512932Y436697D01*
X512921Y436748D01*
X512919Y436800D01*
X512895Y436868D01*
X512879Y436938D01*
X512853Y436983D01*
X512835Y437031D01*
X512790Y437087D01*
X512753Y437149D01*
X512714Y437183D01*
X512681Y437223D01*
X512621Y437262D01*
X512566Y437309D01*
X512518Y437328D01*
X512474Y437356D01*
X512405Y437374D01*
X512338Y437401D01*
X512267Y437409D01*
X512236Y437417D01*
X512212Y437415D01*
X512171Y437419D01*
X507395Y437419D01*
X507305Y437405D01*
X507214Y437397D01*
X507184Y437385D01*
X507152Y437380D01*
X507071Y437337D01*
X506987Y437301D01*
X506955Y437275D01*
X506935Y437264D01*
X506912Y437241D01*
X506856Y437196D01*
X506369Y436709D01*
X503859Y435669D01*
X501141Y435669D01*
X498631Y436709D01*
X496709Y438631D01*
X496545Y439026D01*
X496494Y439109D01*
X496448Y439195D01*
X496429Y439213D01*
X496416Y439235D01*
X496341Y439298D01*
X496270Y439365D01*
X496246Y439376D01*
X496226Y439392D01*
X496135Y439427D01*
X496047Y439468D01*
X496021Y439471D01*
X495997Y439480D01*
X495899Y439485D01*
X495803Y439495D01*
X495777Y439490D01*
X495751Y439491D01*
X495657Y439464D01*
X495562Y439443D01*
X495540Y439430D01*
X495515Y439422D01*
X495435Y439367D01*
X495351Y439317D01*
X495334Y439297D01*
X495313Y439282D01*
X495254Y439204D01*
X495191Y439130D01*
X495181Y439106D01*
X495166Y439085D01*
X495136Y438992D01*
X495099Y438902D01*
X495096Y438869D01*
X495090Y438851D01*
X495090Y438818D01*
X495081Y438735D01*
X495081Y416495D01*
X495088Y416450D01*
X495086Y416404D01*
X495108Y416329D01*
X495120Y416252D01*
X495142Y416212D01*
X495155Y416168D01*
X495199Y416104D01*
X495236Y416035D01*
X495269Y416003D01*
X495295Y415966D01*
X495357Y415919D01*
X495414Y415866D01*
X495456Y415846D01*
X495492Y415819D01*
X495566Y415795D01*
X495637Y415762D01*
X495683Y415757D01*
X495726Y415743D01*
X495804Y415744D01*
X495881Y415735D01*
X495926Y415745D01*
X495972Y415745D01*
X496104Y415783D01*
X496122Y415787D01*
X496126Y415790D01*
X496133Y415792D01*
X498641Y416831D01*
X501359Y416831D01*
X503869Y415791D01*
X505791Y413869D01*
X506831Y411359D01*
X506831Y408641D01*
X505791Y406131D01*
X505304Y405644D01*
X505251Y405570D01*
X505191Y405500D01*
X505179Y405470D01*
X505160Y405444D01*
X505133Y405357D01*
X505099Y405272D01*
X505095Y405231D01*
X505088Y405209D01*
X505089Y405177D01*
X505081Y405105D01*
X505081Y262420D01*
X505095Y262330D01*
X505103Y262239D01*
X505115Y262209D01*
X505120Y262177D01*
X505163Y262096D01*
X505199Y262013D01*
X505225Y261980D01*
X505236Y261960D01*
X505259Y261938D01*
X505304Y261882D01*
X542632Y224554D01*
X542705Y224501D01*
X542775Y224441D01*
X542805Y224429D01*
X542831Y224410D01*
X542918Y224383D01*
X543003Y224349D01*
X543044Y224345D01*
X543066Y224338D01*
X543099Y224339D01*
X543170Y224331D01*
X543859Y224331D01*
X546369Y223291D01*
X548291Y221369D01*
X549331Y218859D01*
X549331Y216141D01*
X548291Y213631D01*
X546369Y211709D01*
X543859Y210669D01*
X541141Y210669D01*
G37*
%LPD*%
%LPC*%
G36*
X86819Y89580D02*
X86819Y89580D01*
X86817Y89581D01*
X86815Y89584D01*
X85194Y91185D01*
X85188Y91192D01*
X85177Y91214D01*
X85154Y91236D01*
X85111Y91289D01*
X76597Y99808D01*
X76596Y99808D01*
X76596Y99809D01*
X75092Y101311D01*
X75093Y103398D01*
X75093Y103399D01*
X75052Y172960D01*
X75050Y172969D01*
X75050Y175400D01*
X75050Y175401D01*
X75049Y177484D01*
X76522Y178958D01*
X76523Y178958D01*
X78238Y180675D01*
X78248Y180683D01*
X95696Y198132D01*
X97435Y199870D01*
X97476Y199928D01*
X97526Y199980D01*
X97548Y200027D01*
X97578Y200069D01*
X97599Y200138D01*
X97629Y200203D01*
X97635Y200255D01*
X97650Y200305D01*
X97649Y200376D01*
X97656Y200447D01*
X97645Y200498D01*
X97644Y200550D01*
X97619Y200618D01*
X97604Y200688D01*
X97577Y200733D01*
X97560Y200781D01*
X97515Y200837D01*
X97478Y200899D01*
X97438Y200933D01*
X97406Y200973D01*
X97346Y201012D01*
X97291Y201059D01*
X97243Y201078D01*
X97199Y201106D01*
X97130Y201124D01*
X97063Y201151D01*
X96992Y201159D01*
X96960Y201167D01*
X96937Y201165D01*
X96896Y201169D01*
X86145Y201169D01*
X86055Y201155D01*
X85964Y201147D01*
X85934Y201135D01*
X85902Y201130D01*
X85821Y201087D01*
X85737Y201051D01*
X85705Y201025D01*
X85685Y201014D01*
X85662Y200991D01*
X85606Y200946D01*
X85119Y200459D01*
X82609Y199419D01*
X79891Y199419D01*
X77381Y200459D01*
X75459Y202381D01*
X74419Y204891D01*
X74419Y207609D01*
X75459Y210119D01*
X77381Y212041D01*
X79891Y213081D01*
X82609Y213081D01*
X85119Y212041D01*
X85606Y211554D01*
X85680Y211501D01*
X85750Y211441D01*
X85780Y211429D01*
X85806Y211410D01*
X85893Y211383D01*
X85978Y211349D01*
X86019Y211345D01*
X86041Y211338D01*
X86073Y211339D01*
X86145Y211331D01*
X136355Y211331D01*
X136445Y211345D01*
X136536Y211353D01*
X136566Y211365D01*
X136598Y211370D01*
X136679Y211413D01*
X136763Y211449D01*
X136795Y211475D01*
X136815Y211486D01*
X136838Y211509D01*
X136894Y211554D01*
X137381Y212041D01*
X139891Y213081D01*
X142609Y213081D01*
X145119Y212041D01*
X147041Y210119D01*
X148081Y207609D01*
X148081Y204891D01*
X147042Y202383D01*
X147031Y202339D01*
X147012Y202297D01*
X147003Y202220D01*
X146986Y202144D01*
X146990Y202098D01*
X146985Y202053D01*
X147001Y201976D01*
X147009Y201899D01*
X147027Y201857D01*
X147037Y201812D01*
X147077Y201745D01*
X147109Y201674D01*
X147140Y201640D01*
X147163Y201601D01*
X147222Y201550D01*
X147275Y201493D01*
X147315Y201471D01*
X147350Y201441D01*
X147423Y201412D01*
X147491Y201375D01*
X147536Y201366D01*
X147578Y201349D01*
X147714Y201334D01*
X147733Y201331D01*
X147738Y201332D01*
X147745Y201331D01*
X171330Y201331D01*
X171420Y201345D01*
X171511Y201353D01*
X171541Y201365D01*
X171573Y201370D01*
X171654Y201413D01*
X171737Y201449D01*
X171770Y201475D01*
X171790Y201486D01*
X171812Y201509D01*
X171868Y201554D01*
X193608Y223294D01*
X193635Y223331D01*
X193669Y223362D01*
X193707Y223430D01*
X193752Y223493D01*
X193765Y223537D01*
X193788Y223577D01*
X193801Y223654D01*
X193824Y223728D01*
X193823Y223774D01*
X193831Y223819D01*
X193820Y223897D01*
X193818Y223974D01*
X193802Y224017D01*
X193795Y224063D01*
X193760Y224132D01*
X193733Y224205D01*
X193705Y224241D01*
X193684Y224282D01*
X193628Y224337D01*
X193580Y224397D01*
X193541Y224422D01*
X193508Y224454D01*
X193389Y224520D01*
X193373Y224530D01*
X193368Y224532D01*
X193361Y224535D01*
X191131Y225459D01*
X189209Y227381D01*
X188169Y229891D01*
X188169Y232609D01*
X189209Y235119D01*
X191131Y237041D01*
X193661Y238089D01*
X193702Y238095D01*
X193793Y238103D01*
X193823Y238115D01*
X193854Y238120D01*
X193935Y238163D01*
X194019Y238199D01*
X194051Y238225D01*
X194072Y238236D01*
X194091Y238256D01*
X194093Y238257D01*
X194099Y238263D01*
X194150Y238304D01*
X199466Y243620D01*
X199508Y243678D01*
X199557Y243730D01*
X199579Y243777D01*
X199610Y243819D01*
X199631Y243888D01*
X199661Y243953D01*
X199667Y244005D01*
X199682Y244055D01*
X199680Y244126D01*
X199688Y244197D01*
X199677Y244248D01*
X199676Y244300D01*
X199651Y244368D01*
X199636Y244438D01*
X199609Y244483D01*
X199591Y244531D01*
X199546Y244587D01*
X199510Y244649D01*
X199470Y244683D01*
X199437Y244723D01*
X199377Y244762D01*
X199323Y244809D01*
X199274Y244828D01*
X199231Y244856D01*
X199161Y244874D01*
X199095Y244901D01*
X199023Y244909D01*
X198992Y244917D01*
X198969Y244915D01*
X198928Y244919D01*
X192895Y244919D01*
X133710Y304105D01*
X133616Y304172D01*
X133521Y304243D01*
X133515Y304245D01*
X133510Y304248D01*
X133399Y304283D01*
X133287Y304319D01*
X133281Y304319D01*
X133275Y304321D01*
X133158Y304318D01*
X133041Y304317D01*
X133034Y304314D01*
X133029Y304314D01*
X133012Y304308D01*
X132954Y304291D01*
X113448Y304291D01*
X109527Y305915D01*
X106525Y308917D01*
X104901Y312838D01*
X104901Y317082D01*
X106525Y321003D01*
X109527Y324005D01*
X113448Y325629D01*
X132932Y325629D01*
X136853Y324005D01*
X139855Y321003D01*
X141479Y317082D01*
X141479Y312838D01*
X141049Y311801D01*
X141022Y311687D01*
X140994Y311574D01*
X140994Y311567D01*
X140993Y311561D01*
X141004Y311445D01*
X141013Y311328D01*
X141015Y311323D01*
X141016Y311316D01*
X141064Y311209D01*
X141109Y311102D01*
X141114Y311096D01*
X141116Y311092D01*
X141129Y311078D01*
X141214Y310971D01*
X196882Y255304D01*
X196955Y255251D01*
X197025Y255191D01*
X197055Y255179D01*
X197081Y255160D01*
X197168Y255133D01*
X197253Y255099D01*
X197294Y255095D01*
X197316Y255088D01*
X197349Y255089D01*
X197420Y255081D01*
X357105Y255081D01*
X375480Y236705D01*
X375497Y236693D01*
X375509Y236678D01*
X375596Y236621D01*
X375680Y236561D01*
X375699Y236555D01*
X375716Y236545D01*
X375816Y236519D01*
X375915Y236489D01*
X375935Y236489D01*
X375954Y236485D01*
X376057Y236493D01*
X376161Y236495D01*
X376180Y236502D01*
X376200Y236504D01*
X376295Y236544D01*
X376392Y236580D01*
X376408Y236592D01*
X376426Y236600D01*
X376557Y236705D01*
X379121Y239269D01*
X387959Y239269D01*
X391924Y235304D01*
X391998Y235251D01*
X392068Y235191D01*
X392098Y235179D01*
X392124Y235160D01*
X392211Y235133D01*
X392296Y235099D01*
X392337Y235095D01*
X392359Y235088D01*
X392391Y235089D01*
X392462Y235081D01*
X400018Y235081D01*
X400108Y235095D01*
X400199Y235103D01*
X400228Y235115D01*
X400260Y235120D01*
X400341Y235163D01*
X400425Y235199D01*
X400457Y235225D01*
X400478Y235236D01*
X400500Y235259D01*
X400556Y235304D01*
X404521Y239269D01*
X413359Y239269D01*
X417324Y235304D01*
X417398Y235251D01*
X417468Y235191D01*
X417498Y235179D01*
X417524Y235160D01*
X417611Y235133D01*
X417696Y235099D01*
X417737Y235095D01*
X417759Y235088D01*
X417791Y235089D01*
X417862Y235081D01*
X448355Y235081D01*
X520144Y163292D01*
X520217Y163239D01*
X520287Y163179D01*
X520317Y163167D01*
X520343Y163148D01*
X520430Y163121D01*
X520515Y163087D01*
X520556Y163083D01*
X520578Y163076D01*
X520611Y163077D01*
X520682Y163069D01*
X524318Y163069D01*
X524408Y163083D01*
X524499Y163091D01*
X524529Y163103D01*
X524561Y163108D01*
X524642Y163151D01*
X524726Y163187D01*
X524758Y163213D01*
X524778Y163224D01*
X524801Y163247D01*
X524856Y163292D01*
X533446Y171882D01*
X536645Y175081D01*
X580855Y175081D01*
X592644Y163292D01*
X592718Y163239D01*
X592787Y163179D01*
X592817Y163167D01*
X592843Y163148D01*
X592930Y163121D01*
X593015Y163087D01*
X593056Y163083D01*
X593078Y163076D01*
X593111Y163077D01*
X593182Y163069D01*
X601319Y163069D01*
X607569Y156819D01*
X607569Y147981D01*
X601319Y141731D01*
X592481Y141731D01*
X586231Y147981D01*
X586231Y155018D01*
X586217Y155108D01*
X586209Y155199D01*
X586197Y155229D01*
X586192Y155261D01*
X586149Y155342D01*
X586113Y155426D01*
X586087Y155458D01*
X586076Y155478D01*
X586053Y155501D01*
X586008Y155556D01*
X576868Y164696D01*
X576795Y164749D01*
X576725Y164809D01*
X576695Y164821D01*
X576669Y164840D01*
X576582Y164867D01*
X576497Y164901D01*
X576456Y164905D01*
X576434Y164912D01*
X576401Y164911D01*
X576330Y164919D01*
X541170Y164919D01*
X541080Y164905D01*
X540989Y164897D01*
X540959Y164885D01*
X540927Y164880D01*
X540846Y164837D01*
X540762Y164801D01*
X540730Y164775D01*
X540710Y164764D01*
X540687Y164741D01*
X540632Y164696D01*
X531592Y155656D01*
X531549Y155597D01*
X531508Y155554D01*
X531501Y155539D01*
X531479Y155513D01*
X531467Y155483D01*
X531448Y155457D01*
X531421Y155370D01*
X531414Y155351D01*
X531404Y155331D01*
X531404Y155327D01*
X531387Y155285D01*
X531383Y155244D01*
X531376Y155222D01*
X531377Y155189D01*
X531369Y155118D01*
X531369Y147981D01*
X525119Y141731D01*
X516281Y141731D01*
X510031Y147981D01*
X510031Y156819D01*
X510600Y157388D01*
X510612Y157404D01*
X510627Y157417D01*
X510683Y157504D01*
X510744Y157588D01*
X510750Y157607D01*
X510760Y157624D01*
X510786Y157724D01*
X510816Y157823D01*
X510816Y157843D01*
X510820Y157862D01*
X510812Y157965D01*
X510810Y158069D01*
X510803Y158087D01*
X510801Y158107D01*
X510761Y158202D01*
X510725Y158300D01*
X510713Y158315D01*
X510705Y158334D01*
X510600Y158465D01*
X444368Y224696D01*
X444295Y224749D01*
X444225Y224809D01*
X444195Y224821D01*
X444169Y224840D01*
X444082Y224867D01*
X443997Y224901D01*
X443956Y224905D01*
X443934Y224912D01*
X443901Y224911D01*
X443830Y224919D01*
X420370Y224919D01*
X420350Y224916D01*
X420331Y224918D01*
X420229Y224896D01*
X420127Y224880D01*
X420110Y224870D01*
X420090Y224866D01*
X420001Y224813D01*
X419910Y224764D01*
X419896Y224750D01*
X419879Y224740D01*
X419812Y224661D01*
X419740Y224586D01*
X419732Y224568D01*
X419719Y224553D01*
X419680Y224457D01*
X419637Y224363D01*
X419635Y224343D01*
X419627Y224325D01*
X419612Y224184D01*
X414808Y219380D01*
X414766Y219322D01*
X414717Y219270D01*
X414695Y219223D01*
X414665Y219181D01*
X414643Y219112D01*
X414613Y219047D01*
X414608Y218995D01*
X414592Y218945D01*
X414594Y218874D01*
X414586Y218803D01*
X414597Y218752D01*
X414599Y218700D01*
X414623Y218632D01*
X414638Y218562D01*
X414665Y218517D01*
X414683Y218469D01*
X414728Y218413D01*
X414765Y218351D01*
X414804Y218317D01*
X414837Y218277D01*
X414897Y218238D01*
X414952Y218191D01*
X415000Y218172D01*
X415044Y218144D01*
X415113Y218126D01*
X415180Y218099D01*
X415251Y218091D01*
X415282Y218083D01*
X415305Y218085D01*
X415346Y218081D01*
X417609Y218081D01*
X420119Y217041D01*
X422041Y215119D01*
X423081Y212609D01*
X423081Y209891D01*
X422041Y207381D01*
X420119Y205459D01*
X417609Y204419D01*
X414891Y204419D01*
X412381Y205459D01*
X411894Y205946D01*
X411820Y205999D01*
X411750Y206059D01*
X411720Y206071D01*
X411694Y206090D01*
X411607Y206117D01*
X411522Y206151D01*
X411481Y206155D01*
X411459Y206162D01*
X411427Y206161D01*
X411355Y206169D01*
X367795Y206169D01*
X364596Y209368D01*
X356158Y217806D01*
X356084Y217859D01*
X356015Y217919D01*
X355985Y217931D01*
X355959Y217950D01*
X355872Y217977D01*
X355787Y218011D01*
X355746Y218015D01*
X355724Y218022D01*
X355691Y218021D01*
X355620Y218029D01*
X354931Y218029D01*
X352421Y219069D01*
X350499Y220991D01*
X349459Y223501D01*
X349459Y226219D01*
X350499Y228729D01*
X352421Y230651D01*
X354931Y231691D01*
X357649Y231691D01*
X360159Y230651D01*
X362081Y228729D01*
X363121Y226219D01*
X363121Y225530D01*
X363135Y225440D01*
X363143Y225349D01*
X363155Y225319D01*
X363160Y225287D01*
X363203Y225206D01*
X363239Y225122D01*
X363265Y225090D01*
X363276Y225070D01*
X363299Y225047D01*
X363344Y224992D01*
X371782Y216554D01*
X371855Y216501D01*
X371925Y216441D01*
X371955Y216429D01*
X371981Y216410D01*
X372068Y216383D01*
X372153Y216349D01*
X372194Y216345D01*
X372216Y216338D01*
X372249Y216339D01*
X372320Y216331D01*
X411355Y216331D01*
X411445Y216345D01*
X411536Y216353D01*
X411566Y216365D01*
X411598Y216370D01*
X411679Y216413D01*
X411762Y216449D01*
X411795Y216475D01*
X411815Y216486D01*
X411838Y216509D01*
X411893Y216554D01*
X411972Y216632D01*
X412013Y216690D01*
X412063Y216742D01*
X412085Y216789D01*
X412115Y216831D01*
X412136Y216900D01*
X412166Y216965D01*
X412172Y217017D01*
X412188Y217066D01*
X412186Y217138D01*
X412194Y217209D01*
X412183Y217260D01*
X412181Y217312D01*
X412157Y217380D01*
X412141Y217450D01*
X412115Y217494D01*
X412097Y217543D01*
X412052Y217599D01*
X412015Y217661D01*
X411976Y217695D01*
X411943Y217735D01*
X411883Y217774D01*
X411828Y217821D01*
X411780Y217840D01*
X411736Y217868D01*
X411667Y217886D01*
X411600Y217913D01*
X411529Y217921D01*
X411498Y217929D01*
X411474Y217927D01*
X411433Y217931D01*
X404521Y217931D01*
X398269Y224183D01*
X398270Y224197D01*
X398248Y224299D01*
X398232Y224401D01*
X398222Y224418D01*
X398218Y224438D01*
X398165Y224527D01*
X398116Y224618D01*
X398102Y224632D01*
X398092Y224649D01*
X398013Y224716D01*
X397938Y224788D01*
X397920Y224796D01*
X397905Y224809D01*
X397809Y224848D01*
X397715Y224891D01*
X397695Y224893D01*
X397677Y224901D01*
X397510Y224919D01*
X394970Y224919D01*
X394950Y224916D01*
X394931Y224918D01*
X394829Y224896D01*
X394727Y224880D01*
X394710Y224870D01*
X394690Y224866D01*
X394601Y224813D01*
X394510Y224764D01*
X394496Y224750D01*
X394479Y224740D01*
X394412Y224661D01*
X394340Y224586D01*
X394332Y224568D01*
X394319Y224553D01*
X394280Y224457D01*
X394237Y224363D01*
X394235Y224343D01*
X394227Y224325D01*
X394212Y224184D01*
X387959Y217931D01*
X379121Y217931D01*
X372871Y224181D01*
X372871Y224628D01*
X372857Y224718D01*
X372849Y224809D01*
X372837Y224839D01*
X372832Y224871D01*
X372789Y224952D01*
X372753Y225035D01*
X372727Y225068D01*
X372716Y225088D01*
X372693Y225110D01*
X372648Y225166D01*
X353118Y244696D01*
X353045Y244749D01*
X352975Y244809D01*
X352945Y244821D01*
X352919Y244840D01*
X352832Y244867D01*
X352747Y244901D01*
X352706Y244905D01*
X352684Y244912D01*
X352651Y244911D01*
X352580Y244919D01*
X343857Y244919D01*
X343761Y244904D01*
X343664Y244894D01*
X343640Y244884D01*
X343614Y244880D01*
X343528Y244834D01*
X343439Y244794D01*
X343419Y244777D01*
X343396Y244764D01*
X343329Y244694D01*
X343258Y244628D01*
X343245Y244605D01*
X343227Y244586D01*
X343186Y244498D01*
X343139Y244412D01*
X343134Y244387D01*
X343123Y244363D01*
X343113Y244266D01*
X343095Y244170D01*
X343099Y244144D01*
X343096Y244119D01*
X343117Y244024D01*
X343131Y243927D01*
X343143Y243904D01*
X343149Y243878D01*
X343199Y243795D01*
X343243Y243708D01*
X343261Y243689D01*
X343275Y243667D01*
X343349Y243604D01*
X343418Y243536D01*
X343447Y243520D01*
X343462Y243507D01*
X343493Y243495D01*
X343565Y243455D01*
X344009Y243271D01*
X345931Y241349D01*
X346971Y238839D01*
X346971Y236121D01*
X345931Y233611D01*
X344009Y231689D01*
X341499Y230649D01*
X338781Y230649D01*
X336251Y231697D01*
X336218Y231721D01*
X336148Y231781D01*
X336118Y231793D01*
X336092Y231812D01*
X336005Y231839D01*
X335920Y231873D01*
X335879Y231877D01*
X335857Y231884D01*
X335825Y231883D01*
X335753Y231891D01*
X305110Y231891D01*
X305020Y231877D01*
X304929Y231869D01*
X304899Y231857D01*
X304868Y231852D01*
X304787Y231809D01*
X304703Y231773D01*
X304671Y231747D01*
X304650Y231736D01*
X304628Y231713D01*
X304572Y231668D01*
X303304Y230400D01*
X303251Y230326D01*
X303191Y230257D01*
X303179Y230226D01*
X303160Y230200D01*
X303133Y230113D01*
X303099Y230028D01*
X303095Y229988D01*
X303088Y229965D01*
X303089Y229933D01*
X303085Y229902D01*
X302041Y227381D01*
X300119Y225459D01*
X297609Y224419D01*
X294891Y224419D01*
X292381Y225459D01*
X291961Y225879D01*
X291907Y225917D01*
X291861Y225963D01*
X291788Y226004D01*
X291761Y226023D01*
X291742Y226028D01*
X291714Y226044D01*
X290584Y226512D01*
X281658Y235438D01*
X281584Y235491D01*
X281515Y235551D01*
X281484Y235563D01*
X281458Y235582D01*
X281371Y235609D01*
X281286Y235643D01*
X281246Y235647D01*
X281223Y235654D01*
X281191Y235653D01*
X281120Y235661D01*
X262956Y235661D01*
X262910Y235654D01*
X262864Y235656D01*
X262790Y235634D01*
X262713Y235622D01*
X262672Y235600D01*
X262628Y235587D01*
X262564Y235543D01*
X262495Y235506D01*
X262464Y235473D01*
X262426Y235447D01*
X262380Y235384D01*
X262326Y235328D01*
X262307Y235286D01*
X262279Y235250D01*
X262255Y235176D01*
X262222Y235105D01*
X262217Y235059D01*
X262203Y235016D01*
X262204Y234938D01*
X262195Y234861D01*
X262205Y234816D01*
X262206Y234770D01*
X262244Y234638D01*
X262248Y234620D01*
X262250Y234616D01*
X262252Y234609D01*
X263081Y232609D01*
X263081Y229891D01*
X262041Y227381D01*
X260119Y225459D01*
X257609Y224419D01*
X256920Y224419D01*
X256830Y224405D01*
X256739Y224397D01*
X256709Y224385D01*
X256677Y224380D01*
X256596Y224337D01*
X256513Y224301D01*
X256480Y224275D01*
X256460Y224264D01*
X256442Y224246D01*
X256440Y224245D01*
X256433Y224238D01*
X256382Y224196D01*
X239054Y206868D01*
X239001Y206795D01*
X238941Y206725D01*
X238929Y206695D01*
X238910Y206669D01*
X238883Y206582D01*
X238849Y206497D01*
X238845Y206456D01*
X238838Y206434D01*
X238839Y206401D01*
X238831Y206330D01*
X238831Y198995D01*
X238838Y198950D01*
X238836Y198904D01*
X238858Y198829D01*
X238870Y198752D01*
X238892Y198712D01*
X238905Y198668D01*
X238949Y198604D01*
X238986Y198535D01*
X239019Y198503D01*
X239045Y198466D01*
X239107Y198419D01*
X239164Y198366D01*
X239206Y198346D01*
X239242Y198319D01*
X239316Y198295D01*
X239387Y198262D01*
X239433Y198257D01*
X239476Y198243D01*
X239554Y198244D01*
X239631Y198235D01*
X239676Y198245D01*
X239722Y198245D01*
X239854Y198283D01*
X239872Y198287D01*
X239876Y198290D01*
X239883Y198292D01*
X242391Y199331D01*
X243080Y199331D01*
X243170Y199345D01*
X243261Y199353D01*
X243291Y199365D01*
X243323Y199370D01*
X243404Y199413D01*
X243487Y199449D01*
X243520Y199475D01*
X243540Y199486D01*
X243562Y199509D01*
X243618Y199554D01*
X246645Y202581D01*
X382455Y202581D01*
X395862Y189173D01*
X395871Y189167D01*
X397585Y187450D01*
X397586Y187450D01*
X399061Y185974D01*
X399059Y183855D01*
X399060Y183855D01*
X399059Y183855D01*
X399059Y181466D01*
X399058Y181450D01*
X399012Y118427D01*
X399026Y118342D01*
X399032Y118256D01*
X399043Y118228D01*
X399011Y116025D01*
X399011Y116021D01*
X399011Y116014D01*
X399009Y113909D01*
X397500Y112443D01*
X397497Y112440D01*
X397492Y112436D01*
X395931Y110877D01*
X395900Y110864D01*
X395861Y110834D01*
X395838Y110822D01*
X395835Y110819D01*
X395835Y110818D01*
X395816Y110799D01*
X395768Y110761D01*
X384741Y100054D01*
X384739Y100051D01*
X384733Y100047D01*
X383245Y98558D01*
X381140Y98589D01*
X381136Y98589D01*
X381129Y98589D01*
X312975Y98589D01*
X295456Y116108D01*
X295383Y116161D01*
X295313Y116221D01*
X295283Y116233D01*
X295257Y116252D01*
X295170Y116279D01*
X295085Y116313D01*
X295044Y116317D01*
X295022Y116324D01*
X294989Y116323D01*
X294918Y116331D01*
X287681Y116331D01*
X281431Y122581D01*
X281431Y131419D01*
X287681Y137669D01*
X296519Y137669D01*
X302769Y131419D01*
X302769Y123482D01*
X302783Y123392D01*
X302791Y123301D01*
X302803Y123271D01*
X302808Y123239D01*
X302851Y123158D01*
X302887Y123075D01*
X302913Y123042D01*
X302924Y123022D01*
X302947Y123000D01*
X302992Y122944D01*
X316962Y108974D01*
X317035Y108921D01*
X317105Y108861D01*
X317135Y108849D01*
X317161Y108830D01*
X317248Y108803D01*
X317333Y108769D01*
X317374Y108765D01*
X317396Y108758D01*
X317429Y108759D01*
X317500Y108751D01*
X378802Y108751D01*
X378886Y108765D01*
X378972Y108770D01*
X379007Y108784D01*
X379045Y108790D01*
X379120Y108830D01*
X379200Y108863D01*
X379239Y108893D01*
X379262Y108906D01*
X379283Y108928D01*
X379332Y108966D01*
X388620Y117985D01*
X388677Y118062D01*
X388740Y118135D01*
X388750Y118161D01*
X388767Y118182D01*
X388796Y118274D01*
X388832Y118363D01*
X388836Y118397D01*
X388842Y118416D01*
X388842Y118449D01*
X388851Y118530D01*
X388896Y181453D01*
X388882Y181543D01*
X388874Y181634D01*
X388862Y181664D01*
X388857Y181695D01*
X388814Y181776D01*
X388778Y181860D01*
X388753Y181892D01*
X388742Y181913D01*
X388718Y181935D01*
X388673Y181991D01*
X378468Y192196D01*
X378395Y192249D01*
X378325Y192309D01*
X378295Y192321D01*
X378269Y192340D01*
X378182Y192367D01*
X378097Y192401D01*
X378056Y192405D01*
X378034Y192412D01*
X378001Y192411D01*
X377930Y192419D01*
X352745Y192419D01*
X352700Y192412D01*
X352654Y192414D01*
X352579Y192392D01*
X352502Y192380D01*
X352462Y192358D01*
X352418Y192345D01*
X352354Y192301D01*
X352285Y192264D01*
X352253Y192231D01*
X352216Y192205D01*
X352169Y192143D01*
X352116Y192086D01*
X352096Y192044D01*
X352069Y192008D01*
X352045Y191934D01*
X352012Y191863D01*
X352007Y191817D01*
X351993Y191774D01*
X351994Y191696D01*
X351985Y191619D01*
X351995Y191574D01*
X351995Y191528D01*
X352033Y191396D01*
X352037Y191378D01*
X352040Y191374D01*
X352042Y191367D01*
X353081Y188859D01*
X353081Y188170D01*
X353095Y188080D01*
X353103Y187989D01*
X353115Y187959D01*
X353120Y187927D01*
X353163Y187846D01*
X353199Y187763D01*
X353225Y187730D01*
X353236Y187710D01*
X353259Y187688D01*
X353304Y187632D01*
X360552Y180384D01*
X360625Y180331D01*
X360695Y180271D01*
X360725Y180259D01*
X360751Y180240D01*
X360838Y180213D01*
X360923Y180179D01*
X360964Y180175D01*
X360986Y180168D01*
X361019Y180169D01*
X361090Y180161D01*
X373915Y180161D01*
X374005Y180175D01*
X374096Y180183D01*
X374126Y180195D01*
X374158Y180200D01*
X374239Y180243D01*
X374323Y180279D01*
X374355Y180305D01*
X374375Y180316D01*
X374398Y180339D01*
X374454Y180384D01*
X374941Y180871D01*
X377451Y181911D01*
X380169Y181911D01*
X382679Y180871D01*
X384601Y178949D01*
X385641Y176439D01*
X385641Y173721D01*
X384601Y171211D01*
X382679Y169289D01*
X380169Y168249D01*
X377451Y168249D01*
X374941Y169289D01*
X374454Y169776D01*
X374380Y169830D01*
X374310Y169889D01*
X374280Y169901D01*
X374254Y169920D01*
X374167Y169947D01*
X374082Y169981D01*
X374041Y169985D01*
X374019Y169992D01*
X373987Y169991D01*
X373915Y169999D01*
X356565Y169999D01*
X346118Y180446D01*
X346045Y180499D01*
X345975Y180559D01*
X345945Y180571D01*
X345919Y180590D01*
X345832Y180617D01*
X345747Y180651D01*
X345706Y180655D01*
X345684Y180662D01*
X345651Y180661D01*
X345580Y180669D01*
X344891Y180669D01*
X342381Y181709D01*
X340459Y183631D01*
X339419Y186141D01*
X339419Y188859D01*
X340458Y191367D01*
X340469Y191411D01*
X340488Y191453D01*
X340497Y191530D01*
X340514Y191606D01*
X340510Y191652D01*
X340515Y191697D01*
X340499Y191774D01*
X340491Y191851D01*
X340473Y191893D01*
X340463Y191938D01*
X340423Y192005D01*
X340391Y192076D01*
X340360Y192110D01*
X340337Y192149D01*
X340278Y192200D01*
X340225Y192257D01*
X340185Y192279D01*
X340150Y192309D01*
X340077Y192338D01*
X340009Y192375D01*
X339964Y192384D01*
X339922Y192401D01*
X339786Y192416D01*
X339767Y192419D01*
X339762Y192418D01*
X339755Y192419D01*
X251342Y192419D01*
X251322Y192416D01*
X251303Y192418D01*
X251201Y192396D01*
X251099Y192380D01*
X251082Y192370D01*
X251062Y192366D01*
X250973Y192313D01*
X250882Y192264D01*
X250868Y192250D01*
X250851Y192240D01*
X250784Y192161D01*
X250712Y192086D01*
X250704Y192068D01*
X250691Y192053D01*
X250652Y191957D01*
X250609Y191863D01*
X250607Y191843D01*
X250599Y191825D01*
X250581Y191658D01*
X250581Y191141D01*
X249541Y188631D01*
X247619Y186709D01*
X245109Y185669D01*
X242391Y185669D01*
X241633Y185983D01*
X241589Y185994D01*
X241547Y186013D01*
X241470Y186022D01*
X241394Y186039D01*
X241348Y186035D01*
X241303Y186040D01*
X241226Y186024D01*
X241149Y186016D01*
X241107Y185998D01*
X241062Y185988D01*
X240995Y185948D01*
X240924Y185916D01*
X240890Y185885D01*
X240851Y185862D01*
X240800Y185803D01*
X240743Y185750D01*
X240721Y185710D01*
X240691Y185675D01*
X240662Y185603D01*
X240625Y185534D01*
X240616Y185489D01*
X240599Y185447D01*
X240584Y185311D01*
X240581Y185292D01*
X240582Y185287D01*
X240581Y185280D01*
X240581Y183641D01*
X239541Y181131D01*
X237619Y179209D01*
X235109Y178169D01*
X232391Y178169D01*
X229881Y179209D01*
X227959Y181131D01*
X226919Y183641D01*
X226919Y186359D01*
X227959Y188869D01*
X228446Y189356D01*
X228499Y189430D01*
X228559Y189500D01*
X228571Y189530D01*
X228590Y189556D01*
X228617Y189643D01*
X228651Y189728D01*
X228655Y189769D01*
X228662Y189791D01*
X228661Y189823D01*
X228669Y189895D01*
X228669Y210855D01*
X249196Y231382D01*
X249249Y231455D01*
X249309Y231525D01*
X249321Y231555D01*
X249340Y231581D01*
X249367Y231668D01*
X249401Y231753D01*
X249405Y231794D01*
X249412Y231816D01*
X249411Y231849D01*
X249419Y231920D01*
X249419Y232609D01*
X250248Y234609D01*
X250258Y234653D01*
X250278Y234695D01*
X250286Y234772D01*
X250304Y234848D01*
X250300Y234894D01*
X250305Y234939D01*
X250288Y235016D01*
X250281Y235093D01*
X250262Y235135D01*
X250252Y235180D01*
X250212Y235247D01*
X250181Y235318D01*
X250150Y235352D01*
X250126Y235391D01*
X250067Y235442D01*
X250014Y235499D01*
X249974Y235521D01*
X249939Y235551D01*
X249867Y235580D01*
X249799Y235617D01*
X249754Y235626D01*
X249711Y235643D01*
X249575Y235658D01*
X249557Y235661D01*
X249552Y235660D01*
X249544Y235661D01*
X215456Y235661D01*
X215410Y235654D01*
X215364Y235656D01*
X215290Y235634D01*
X215213Y235622D01*
X215172Y235600D01*
X215128Y235587D01*
X215064Y235543D01*
X214995Y235506D01*
X214964Y235473D01*
X214926Y235447D01*
X214880Y235384D01*
X214826Y235328D01*
X214807Y235286D01*
X214779Y235250D01*
X214755Y235176D01*
X214722Y235105D01*
X214717Y235059D01*
X214703Y235016D01*
X214704Y234938D01*
X214695Y234861D01*
X214705Y234816D01*
X214706Y234770D01*
X214744Y234638D01*
X214748Y234620D01*
X214750Y234616D01*
X214752Y234609D01*
X215581Y232609D01*
X215581Y229891D01*
X214541Y227381D01*
X212619Y225459D01*
X210109Y224419D01*
X209420Y224419D01*
X209330Y224405D01*
X209239Y224397D01*
X209209Y224385D01*
X209177Y224380D01*
X209096Y224337D01*
X209013Y224301D01*
X208980Y224275D01*
X208960Y224264D01*
X208942Y224246D01*
X208940Y224245D01*
X208933Y224238D01*
X208882Y224196D01*
X176065Y191380D01*
X176024Y191322D01*
X175974Y191270D01*
X175952Y191223D01*
X175922Y191181D01*
X175901Y191112D01*
X175871Y191047D01*
X175865Y190995D01*
X175850Y190945D01*
X175851Y190874D01*
X175844Y190803D01*
X175855Y190752D01*
X175856Y190700D01*
X175881Y190632D01*
X175896Y190562D01*
X175923Y190517D01*
X175940Y190469D01*
X175985Y190413D01*
X176022Y190351D01*
X176062Y190317D01*
X176094Y190277D01*
X176154Y190238D01*
X176209Y190191D01*
X176257Y190172D01*
X176301Y190144D01*
X176370Y190126D01*
X176437Y190099D01*
X176508Y190091D01*
X176540Y190083D01*
X176563Y190085D01*
X176604Y190081D01*
X203355Y190081D01*
X211382Y182054D01*
X211455Y182001D01*
X211525Y181941D01*
X211555Y181929D01*
X211581Y181910D01*
X211668Y181883D01*
X211753Y181849D01*
X211794Y181845D01*
X211816Y181838D01*
X211849Y181839D01*
X211920Y181831D01*
X212609Y181831D01*
X215119Y180791D01*
X217041Y178869D01*
X218081Y176359D01*
X218081Y173641D01*
X217041Y171131D01*
X215119Y169209D01*
X212609Y168169D01*
X209891Y168169D01*
X207381Y169209D01*
X205459Y171131D01*
X204419Y173641D01*
X204419Y174330D01*
X204405Y174420D01*
X204397Y174511D01*
X204385Y174541D01*
X204380Y174573D01*
X204337Y174654D01*
X204301Y174737D01*
X204275Y174770D01*
X204264Y174790D01*
X204241Y174812D01*
X204196Y174868D01*
X199368Y179696D01*
X199295Y179749D01*
X199225Y179809D01*
X199195Y179821D01*
X199169Y179840D01*
X199082Y179867D01*
X198997Y179901D01*
X198956Y179905D01*
X198934Y179912D01*
X198901Y179911D01*
X198830Y179919D01*
X161495Y179919D01*
X161450Y179912D01*
X161404Y179914D01*
X161329Y179892D01*
X161252Y179880D01*
X161212Y179858D01*
X161168Y179845D01*
X161104Y179801D01*
X161035Y179764D01*
X161003Y179731D01*
X160966Y179705D01*
X160919Y179643D01*
X160866Y179586D01*
X160846Y179544D01*
X160819Y179508D01*
X160795Y179434D01*
X160762Y179363D01*
X160757Y179317D01*
X160743Y179274D01*
X160744Y179196D01*
X160735Y179119D01*
X160745Y179074D01*
X160745Y179028D01*
X160783Y178896D01*
X160787Y178878D01*
X160790Y178874D01*
X160792Y178867D01*
X161831Y176359D01*
X161831Y173641D01*
X160791Y171131D01*
X158869Y169209D01*
X156359Y168169D01*
X155670Y168169D01*
X155580Y168155D01*
X155489Y168147D01*
X155459Y168135D01*
X155427Y168130D01*
X155346Y168087D01*
X155262Y168051D01*
X155230Y168025D01*
X155210Y168014D01*
X155188Y167991D01*
X155131Y167946D01*
X154644Y167459D01*
X114935Y167459D01*
X114845Y167445D01*
X114754Y167437D01*
X114724Y167425D01*
X114692Y167420D01*
X114611Y167377D01*
X114527Y167341D01*
X114495Y167315D01*
X114475Y167304D01*
X114452Y167281D01*
X114396Y167236D01*
X113869Y166709D01*
X111359Y165669D01*
X110670Y165669D01*
X110580Y165655D01*
X110489Y165647D01*
X110459Y165635D01*
X110427Y165630D01*
X110346Y165587D01*
X110262Y165551D01*
X110230Y165525D01*
X110210Y165514D01*
X110187Y165491D01*
X110132Y165446D01*
X102804Y158118D01*
X102751Y158045D01*
X102691Y157975D01*
X102679Y157945D01*
X102660Y157919D01*
X102633Y157832D01*
X102599Y157747D01*
X102595Y157706D01*
X102588Y157684D01*
X102589Y157651D01*
X102581Y157580D01*
X102581Y117420D01*
X102595Y117330D01*
X102603Y117239D01*
X102615Y117209D01*
X102620Y117177D01*
X102663Y117096D01*
X102699Y117013D01*
X102725Y116980D01*
X102736Y116960D01*
X102759Y116938D01*
X102804Y116882D01*
X105632Y114054D01*
X105705Y114001D01*
X105775Y113941D01*
X105805Y113929D01*
X105831Y113910D01*
X105918Y113883D01*
X106003Y113849D01*
X106044Y113845D01*
X106066Y113838D01*
X106099Y113839D01*
X106170Y113831D01*
X145080Y113831D01*
X145170Y113845D01*
X145261Y113853D01*
X145291Y113865D01*
X145323Y113870D01*
X145404Y113913D01*
X145487Y113949D01*
X145520Y113975D01*
X145540Y113986D01*
X145562Y114009D01*
X145618Y114054D01*
X154208Y122644D01*
X154255Y122708D01*
X154271Y122725D01*
X154274Y122733D01*
X154321Y122787D01*
X154333Y122817D01*
X154352Y122843D01*
X154379Y122930D01*
X154413Y123015D01*
X154417Y123056D01*
X154424Y123078D01*
X154423Y123111D01*
X154431Y123182D01*
X154431Y131419D01*
X160681Y137669D01*
X169519Y137669D01*
X175769Y131419D01*
X175769Y122581D01*
X169519Y116331D01*
X162582Y116331D01*
X162492Y116317D01*
X162401Y116309D01*
X162371Y116297D01*
X162339Y116292D01*
X162258Y116249D01*
X162175Y116213D01*
X162142Y116187D01*
X162122Y116176D01*
X162100Y116153D01*
X162044Y116108D01*
X153565Y107630D01*
X153524Y107572D01*
X153474Y107520D01*
X153452Y107473D01*
X153422Y107431D01*
X153401Y107362D01*
X153371Y107297D01*
X153365Y107245D01*
X153350Y107195D01*
X153351Y107124D01*
X153344Y107053D01*
X153355Y107002D01*
X153356Y106950D01*
X153381Y106882D01*
X153396Y106812D01*
X153423Y106767D01*
X153440Y106719D01*
X153485Y106663D01*
X153522Y106601D01*
X153562Y106567D01*
X153594Y106527D01*
X153654Y106488D01*
X153709Y106441D01*
X153757Y106422D01*
X153801Y106394D01*
X153870Y106376D01*
X153937Y106349D01*
X154008Y106341D01*
X154040Y106333D01*
X154063Y106335D01*
X154104Y106331D01*
X162580Y106331D01*
X162670Y106345D01*
X162761Y106353D01*
X162791Y106365D01*
X162823Y106370D01*
X162904Y106413D01*
X162987Y106449D01*
X163020Y106475D01*
X163040Y106486D01*
X163062Y106509D01*
X163118Y106554D01*
X179608Y123044D01*
X179661Y123117D01*
X179721Y123187D01*
X179733Y123217D01*
X179752Y123243D01*
X179779Y123330D01*
X179813Y123415D01*
X179817Y123456D01*
X179824Y123478D01*
X179823Y123511D01*
X179831Y123582D01*
X179831Y131419D01*
X186081Y137669D01*
X194919Y137669D01*
X201169Y131419D01*
X201169Y122581D01*
X194919Y116331D01*
X187582Y116331D01*
X187492Y116317D01*
X187401Y116309D01*
X187371Y116297D01*
X187339Y116292D01*
X187258Y116249D01*
X187174Y116213D01*
X187142Y116187D01*
X187122Y116176D01*
X187099Y116153D01*
X187044Y116108D01*
X170998Y100063D01*
X170955Y100003D01*
X170904Y99949D01*
X170884Y99904D01*
X170855Y99863D01*
X170833Y99793D01*
X170802Y99725D01*
X170797Y99676D01*
X170782Y99628D01*
X170784Y99554D01*
X170777Y99481D01*
X170787Y99432D01*
X170789Y99382D01*
X170814Y99313D01*
X170830Y99241D01*
X170856Y99198D01*
X170873Y99151D01*
X170919Y99093D01*
X170958Y99030D01*
X170996Y98998D01*
X171027Y98959D01*
X171089Y98919D01*
X171146Y98871D01*
X171192Y98853D01*
X171234Y98826D01*
X171306Y98808D01*
X171374Y98781D01*
X171442Y98774D01*
X171472Y98766D01*
X171497Y98768D01*
X171541Y98763D01*
X180070Y98816D01*
X180158Y98831D01*
X180246Y98838D01*
X180278Y98851D01*
X180312Y98857D01*
X180391Y98899D01*
X180473Y98934D01*
X180507Y98962D01*
X180529Y98973D01*
X180551Y98997D01*
X180604Y99039D01*
X205008Y123444D01*
X205061Y123517D01*
X205121Y123587D01*
X205133Y123617D01*
X205152Y123643D01*
X205179Y123730D01*
X205213Y123815D01*
X205217Y123856D01*
X205224Y123878D01*
X205223Y123911D01*
X205231Y123982D01*
X205231Y131419D01*
X211481Y137669D01*
X220319Y137669D01*
X226569Y131419D01*
X226569Y122581D01*
X220319Y116331D01*
X212582Y116331D01*
X212492Y116317D01*
X212401Y116309D01*
X212371Y116297D01*
X212339Y116292D01*
X212258Y116249D01*
X212175Y116213D01*
X212142Y116187D01*
X212122Y116176D01*
X212100Y116153D01*
X212044Y116108D01*
X186105Y90170D01*
X186104Y90169D01*
X186102Y90167D01*
X184623Y88669D01*
X182519Y88669D01*
X182517Y88669D01*
X182514Y88669D01*
X92829Y88118D01*
X92741Y88103D01*
X92734Y88103D01*
X90416Y88103D01*
X90415Y88103D01*
X90412Y88103D01*
X88308Y88091D01*
X86819Y89580D01*
G37*
%LPD*%
%LPC*%
G36*
X262281Y141731D02*
X262281Y141731D01*
X256031Y147981D01*
X256031Y156819D01*
X262281Y163069D01*
X270568Y163069D01*
X270658Y163083D01*
X270749Y163091D01*
X270779Y163103D01*
X270811Y163108D01*
X270892Y163151D01*
X270976Y163187D01*
X271008Y163213D01*
X271028Y163224D01*
X271051Y163247D01*
X271106Y163292D01*
X279696Y171882D01*
X282895Y175081D01*
X327105Y175081D01*
X338894Y163292D01*
X338967Y163239D01*
X339037Y163179D01*
X339067Y163167D01*
X339093Y163148D01*
X339180Y163121D01*
X339265Y163087D01*
X339306Y163083D01*
X339328Y163076D01*
X339361Y163077D01*
X339432Y163069D01*
X347319Y163069D01*
X353569Y156819D01*
X353569Y147981D01*
X347319Y141731D01*
X338481Y141731D01*
X332231Y147981D01*
X332231Y155268D01*
X332217Y155358D01*
X332209Y155449D01*
X332197Y155479D01*
X332192Y155511D01*
X332149Y155592D01*
X332113Y155675D01*
X332087Y155708D01*
X332076Y155728D01*
X332053Y155750D01*
X332008Y155806D01*
X323118Y164696D01*
X323045Y164749D01*
X322975Y164809D01*
X322945Y164821D01*
X322919Y164840D01*
X322832Y164867D01*
X322747Y164901D01*
X322706Y164905D01*
X322684Y164912D01*
X322651Y164911D01*
X322580Y164919D01*
X287420Y164919D01*
X287330Y164905D01*
X287239Y164897D01*
X287209Y164885D01*
X287177Y164880D01*
X287096Y164837D01*
X287013Y164801D01*
X286980Y164775D01*
X286960Y164764D01*
X286938Y164741D01*
X286882Y164696D01*
X277592Y155406D01*
X277539Y155332D01*
X277479Y155263D01*
X277467Y155233D01*
X277448Y155207D01*
X277421Y155120D01*
X277387Y155035D01*
X277383Y154994D01*
X277376Y154972D01*
X277377Y154939D01*
X277369Y154868D01*
X277369Y147981D01*
X271119Y141731D01*
X262281Y141731D01*
G37*
%LPD*%
%LPC*%
G36*
X518578Y278891D02*
X518578Y278891D01*
X514657Y280515D01*
X511655Y283517D01*
X510031Y287438D01*
X510031Y291682D01*
X511655Y295603D01*
X514657Y298605D01*
X518578Y300229D01*
X538062Y300229D01*
X538280Y300139D01*
X538343Y300124D01*
X538404Y300099D01*
X538487Y300090D01*
X538519Y300083D01*
X538538Y300084D01*
X538571Y300081D01*
X538830Y300081D01*
X538920Y300095D01*
X539011Y300103D01*
X539041Y300115D01*
X539073Y300120D01*
X539154Y300163D01*
X539237Y300199D01*
X539270Y300225D01*
X539290Y300236D01*
X539312Y300259D01*
X539368Y300304D01*
X574196Y335132D01*
X574249Y335205D01*
X574309Y335275D01*
X574321Y335305D01*
X574340Y335331D01*
X574367Y335418D01*
X574401Y335503D01*
X574405Y335544D01*
X574412Y335566D01*
X574411Y335599D01*
X574419Y335670D01*
X574419Y336359D01*
X575459Y338869D01*
X577381Y340791D01*
X579891Y341831D01*
X582609Y341831D01*
X585119Y340791D01*
X587041Y338869D01*
X588081Y336359D01*
X588081Y333641D01*
X587041Y331131D01*
X585119Y329209D01*
X582609Y328169D01*
X581920Y328169D01*
X581830Y328155D01*
X581739Y328147D01*
X581709Y328135D01*
X581677Y328130D01*
X581596Y328087D01*
X581513Y328051D01*
X581480Y328025D01*
X581460Y328014D01*
X581438Y327991D01*
X581382Y327946D01*
X546532Y293096D01*
X546464Y293002D01*
X546394Y292908D01*
X546392Y292902D01*
X546388Y292897D01*
X546354Y292785D01*
X546317Y292674D01*
X546318Y292668D01*
X546316Y292662D01*
X546319Y292545D01*
X546320Y292428D01*
X546322Y292421D01*
X546322Y292416D01*
X546328Y292398D01*
X546367Y292267D01*
X546609Y291682D01*
X546609Y287438D01*
X544985Y283517D01*
X541983Y280515D01*
X538062Y278891D01*
X518578Y278891D01*
G37*
%LPD*%
%LPC*%
G36*
X518578Y355091D02*
X518578Y355091D01*
X514657Y356715D01*
X511655Y359717D01*
X510031Y363638D01*
X510031Y367882D01*
X511655Y371803D01*
X514657Y374805D01*
X518578Y376429D01*
X538062Y376429D01*
X541983Y374805D01*
X544985Y371803D01*
X546609Y367882D01*
X546609Y363638D01*
X544985Y359717D01*
X541983Y356715D01*
X538062Y355091D01*
X518578Y355091D01*
G37*
%LPD*%
%LPC*%
G36*
X518578Y329691D02*
X518578Y329691D01*
X514657Y331315D01*
X511655Y334317D01*
X510031Y338238D01*
X510031Y342482D01*
X511655Y346403D01*
X514657Y349405D01*
X518578Y351029D01*
X538062Y351029D01*
X541983Y349405D01*
X544985Y346403D01*
X546609Y342482D01*
X546609Y338238D01*
X544985Y334317D01*
X541983Y331315D01*
X538062Y329691D01*
X518578Y329691D01*
G37*
%LPD*%
%LPC*%
G36*
X379121Y370331D02*
X379121Y370331D01*
X372871Y376581D01*
X372871Y385419D01*
X379121Y391669D01*
X387959Y391669D01*
X394209Y385419D01*
X394209Y376581D01*
X387959Y370331D01*
X379121Y370331D01*
G37*
%LPD*%
%LPC*%
G36*
X262281Y116331D02*
X262281Y116331D01*
X256031Y122581D01*
X256031Y131419D01*
X262281Y137669D01*
X271119Y137669D01*
X277369Y131419D01*
X277369Y122581D01*
X271119Y116331D01*
X262281Y116331D01*
G37*
%LPD*%
%LPC*%
G36*
X313081Y116331D02*
X313081Y116331D01*
X306831Y122581D01*
X306831Y131419D01*
X313081Y137669D01*
X321919Y137669D01*
X328169Y131419D01*
X328169Y122581D01*
X321919Y116331D01*
X313081Y116331D01*
G37*
%LPD*%
%LPC*%
G36*
X135281Y116331D02*
X135281Y116331D01*
X129031Y122581D01*
X129031Y131419D01*
X135281Y137669D01*
X144119Y137669D01*
X150369Y131419D01*
X150369Y122581D01*
X144119Y116331D01*
X135281Y116331D01*
G37*
%LPD*%
%LPC*%
G36*
X338481Y116331D02*
X338481Y116331D01*
X332231Y122581D01*
X332231Y131419D01*
X338481Y137669D01*
X347319Y137669D01*
X353569Y131419D01*
X353569Y122581D01*
X347319Y116331D01*
X338481Y116331D01*
G37*
%LPD*%
%LPC*%
G36*
X567081Y141731D02*
X567081Y141731D01*
X560831Y147981D01*
X560831Y156819D01*
X567081Y163069D01*
X575919Y163069D01*
X582169Y156819D01*
X582169Y147981D01*
X575919Y141731D01*
X567081Y141731D01*
G37*
%LPD*%
%LPC*%
G36*
X516281Y116331D02*
X516281Y116331D01*
X510031Y122581D01*
X510031Y131419D01*
X516281Y137669D01*
X525119Y137669D01*
X531369Y131419D01*
X531369Y122581D01*
X525119Y116331D01*
X516281Y116331D01*
G37*
%LPD*%
%LPC*%
G36*
X160681Y141731D02*
X160681Y141731D01*
X154431Y147981D01*
X154431Y156819D01*
X160681Y163069D01*
X169519Y163069D01*
X175769Y156819D01*
X175769Y147981D01*
X169519Y141731D01*
X160681Y141731D01*
G37*
%LPD*%
%LPC*%
G36*
X567081Y116331D02*
X567081Y116331D01*
X560831Y122581D01*
X560831Y131419D01*
X567081Y137669D01*
X575919Y137669D01*
X582169Y131419D01*
X582169Y122581D01*
X575919Y116331D01*
X567081Y116331D01*
G37*
%LPD*%
%LPC*%
G36*
X541681Y141731D02*
X541681Y141731D01*
X535431Y147981D01*
X535431Y156819D01*
X541681Y163069D01*
X550519Y163069D01*
X556769Y156819D01*
X556769Y147981D01*
X550519Y141731D01*
X541681Y141731D01*
G37*
%LPD*%
%LPC*%
G36*
X135281Y141731D02*
X135281Y141731D01*
X129031Y147981D01*
X129031Y156819D01*
X135281Y163069D01*
X144119Y163069D01*
X150369Y156819D01*
X150369Y147981D01*
X144119Y141731D01*
X135281Y141731D01*
G37*
%LPD*%
%LPC*%
G36*
X592481Y116331D02*
X592481Y116331D01*
X586231Y122581D01*
X586231Y131419D01*
X592481Y137669D01*
X601319Y137669D01*
X607569Y131419D01*
X607569Y122581D01*
X601319Y116331D01*
X592481Y116331D01*
G37*
%LPD*%
%LPC*%
G36*
X313081Y141731D02*
X313081Y141731D01*
X306831Y147981D01*
X306831Y156819D01*
X313081Y163069D01*
X321919Y163069D01*
X328169Y156819D01*
X328169Y147981D01*
X321919Y141731D01*
X313081Y141731D01*
G37*
%LPD*%
%LPC*%
G36*
X287681Y141731D02*
X287681Y141731D01*
X281431Y147981D01*
X281431Y156819D01*
X287681Y163069D01*
X296519Y163069D01*
X302769Y156819D01*
X302769Y147981D01*
X296519Y141731D01*
X287681Y141731D01*
G37*
%LPD*%
%LPC*%
G36*
X186081Y141731D02*
X186081Y141731D01*
X179831Y147981D01*
X179831Y156819D01*
X186081Y163069D01*
X194919Y163069D01*
X201169Y156819D01*
X201169Y147981D01*
X194919Y141731D01*
X186081Y141731D01*
G37*
%LPD*%
%LPC*%
G36*
X124713Y291083D02*
X124713Y291083D01*
X124713Y299721D01*
X131610Y299721D01*
X133189Y299471D01*
X134710Y298976D01*
X136135Y298250D01*
X137429Y297310D01*
X138560Y296179D01*
X139500Y294885D01*
X140226Y293460D01*
X140721Y291939D01*
X140856Y291083D01*
X124713Y291083D01*
G37*
%LPD*%
%LPC*%
G36*
X529843Y265683D02*
X529843Y265683D01*
X529843Y274321D01*
X536740Y274321D01*
X538319Y274071D01*
X539840Y273576D01*
X541265Y272850D01*
X542559Y271910D01*
X543690Y270779D01*
X544630Y269485D01*
X545356Y268060D01*
X545851Y266539D01*
X545986Y265683D01*
X529843Y265683D01*
G37*
%LPD*%
%LPC*%
G36*
X510654Y265683D02*
X510654Y265683D01*
X510789Y266539D01*
X511284Y268060D01*
X512010Y269485D01*
X512950Y270779D01*
X514081Y271910D01*
X515375Y272850D01*
X516800Y273576D01*
X518321Y274071D01*
X519900Y274321D01*
X526797Y274321D01*
X526797Y265683D01*
X510654Y265683D01*
G37*
%LPD*%
%LPC*%
G36*
X105524Y291083D02*
X105524Y291083D01*
X105659Y291939D01*
X106154Y293460D01*
X106880Y294885D01*
X107820Y296179D01*
X108951Y297310D01*
X110245Y298250D01*
X111670Y298976D01*
X113191Y299471D01*
X114770Y299721D01*
X121667Y299721D01*
X121667Y291083D01*
X105524Y291083D01*
G37*
%LPD*%
%LPC*%
G36*
X124713Y279399D02*
X124713Y279399D01*
X124713Y288037D01*
X140856Y288037D01*
X140721Y287181D01*
X140226Y285660D01*
X139500Y284235D01*
X138560Y282941D01*
X137429Y281810D01*
X136135Y280870D01*
X134710Y280144D01*
X133189Y279649D01*
X131610Y279399D01*
X124713Y279399D01*
G37*
%LPD*%
%LPC*%
G36*
X529843Y253999D02*
X529843Y253999D01*
X529843Y262637D01*
X545986Y262637D01*
X545851Y261781D01*
X545356Y260260D01*
X544630Y258835D01*
X543690Y257541D01*
X542559Y256410D01*
X541265Y255470D01*
X539840Y254744D01*
X538319Y254249D01*
X536740Y253999D01*
X529843Y253999D01*
G37*
%LPD*%
%LPC*%
G36*
X114770Y279399D02*
X114770Y279399D01*
X113191Y279649D01*
X111670Y280144D01*
X110245Y280870D01*
X108951Y281810D01*
X107820Y282941D01*
X106880Y284235D01*
X106154Y285660D01*
X105659Y287181D01*
X105524Y288037D01*
X121667Y288037D01*
X121667Y279399D01*
X114770Y279399D01*
G37*
%LPD*%
%LPC*%
G36*
X519900Y253999D02*
X519900Y253999D01*
X518321Y254249D01*
X516800Y254744D01*
X515375Y255470D01*
X514081Y256410D01*
X512950Y257541D01*
X512010Y258835D01*
X511284Y260260D01*
X510789Y261781D01*
X510654Y262637D01*
X526797Y262637D01*
X526797Y253999D01*
X519900Y253999D01*
G37*
%LPD*%
%LPC*%
G36*
X410463Y255523D02*
X410463Y255523D01*
X410463Y264161D01*
X413149Y264161D01*
X419101Y258209D01*
X419101Y255523D01*
X410463Y255523D01*
G37*
%LPD*%
%LPC*%
G36*
X385063Y255523D02*
X385063Y255523D01*
X385063Y264161D01*
X387749Y264161D01*
X393701Y258209D01*
X393701Y255523D01*
X385063Y255523D01*
G37*
%LPD*%
%LPC*%
G36*
X496823Y153923D02*
X496823Y153923D01*
X496823Y162561D01*
X499509Y162561D01*
X505461Y156609D01*
X505461Y153923D01*
X496823Y153923D01*
G37*
%LPD*%
%LPC*%
G36*
X369823Y128523D02*
X369823Y128523D01*
X369823Y137161D01*
X372509Y137161D01*
X378461Y131209D01*
X378461Y128523D01*
X369823Y128523D01*
G37*
%LPD*%
%LPC*%
G36*
X242823Y153923D02*
X242823Y153923D01*
X242823Y162561D01*
X245509Y162561D01*
X251461Y156609D01*
X251461Y153923D01*
X242823Y153923D01*
G37*
%LPD*%
%LPC*%
G36*
X623823Y153923D02*
X623823Y153923D01*
X623823Y162561D01*
X626509Y162561D01*
X632461Y156609D01*
X632461Y153923D01*
X623823Y153923D01*
G37*
%LPD*%
%LPC*%
G36*
X369823Y153923D02*
X369823Y153923D01*
X369823Y162561D01*
X372509Y162561D01*
X378461Y156609D01*
X378461Y153923D01*
X369823Y153923D01*
G37*
%LPD*%
%LPC*%
G36*
X115823Y153923D02*
X115823Y153923D01*
X115823Y162561D01*
X118509Y162561D01*
X124461Y156609D01*
X124461Y153923D01*
X115823Y153923D01*
G37*
%LPD*%
%LPC*%
G36*
X217423Y153923D02*
X217423Y153923D01*
X217423Y162561D01*
X220109Y162561D01*
X226061Y156609D01*
X226061Y153923D01*
X217423Y153923D01*
G37*
%LPD*%
%LPC*%
G36*
X496823Y128523D02*
X496823Y128523D01*
X496823Y137161D01*
X499509Y137161D01*
X505461Y131209D01*
X505461Y128523D01*
X496823Y128523D01*
G37*
%LPD*%
%LPC*%
G36*
X623823Y128523D02*
X623823Y128523D01*
X623823Y137161D01*
X626509Y137161D01*
X632461Y131209D01*
X632461Y128523D01*
X623823Y128523D01*
G37*
%LPD*%
%LPC*%
G36*
X115823Y128523D02*
X115823Y128523D01*
X115823Y137161D01*
X118509Y137161D01*
X124461Y131209D01*
X124461Y128523D01*
X115823Y128523D01*
G37*
%LPD*%
%LPC*%
G36*
X242823Y128523D02*
X242823Y128523D01*
X242823Y137161D01*
X245509Y137161D01*
X251461Y131209D01*
X251461Y128523D01*
X242823Y128523D01*
G37*
%LPD*%
%LPC*%
G36*
X104139Y153923D02*
X104139Y153923D01*
X104139Y156609D01*
X110091Y162561D01*
X112777Y162561D01*
X112777Y153923D01*
X104139Y153923D01*
G37*
%LPD*%
%LPC*%
G36*
X358139Y153923D02*
X358139Y153923D01*
X358139Y156609D01*
X364091Y162561D01*
X366777Y162561D01*
X366777Y153923D01*
X358139Y153923D01*
G37*
%LPD*%
%LPC*%
G36*
X485139Y153923D02*
X485139Y153923D01*
X485139Y156609D01*
X491091Y162561D01*
X493777Y162561D01*
X493777Y153923D01*
X485139Y153923D01*
G37*
%LPD*%
%LPC*%
G36*
X231139Y153923D02*
X231139Y153923D01*
X231139Y156609D01*
X237091Y162561D01*
X239777Y162561D01*
X239777Y153923D01*
X231139Y153923D01*
G37*
%LPD*%
%LPC*%
G36*
X485139Y128523D02*
X485139Y128523D01*
X485139Y131209D01*
X491091Y137161D01*
X493777Y137161D01*
X493777Y128523D01*
X485139Y128523D01*
G37*
%LPD*%
%LPC*%
G36*
X358139Y128523D02*
X358139Y128523D01*
X358139Y131209D01*
X364091Y137161D01*
X366777Y137161D01*
X366777Y128523D01*
X358139Y128523D01*
G37*
%LPD*%
%LPC*%
G36*
X231139Y128523D02*
X231139Y128523D01*
X231139Y131209D01*
X237091Y137161D01*
X239777Y137161D01*
X239777Y128523D01*
X231139Y128523D01*
G37*
%LPD*%
%LPC*%
G36*
X104139Y128523D02*
X104139Y128523D01*
X104139Y131209D01*
X110091Y137161D01*
X112777Y137161D01*
X112777Y128523D01*
X104139Y128523D01*
G37*
%LPD*%
%LPC*%
G36*
X205739Y153923D02*
X205739Y153923D01*
X205739Y156609D01*
X211691Y162561D01*
X214377Y162561D01*
X214377Y153923D01*
X205739Y153923D01*
G37*
%LPD*%
%LPC*%
G36*
X612139Y153923D02*
X612139Y153923D01*
X612139Y156609D01*
X618091Y162561D01*
X620777Y162561D01*
X620777Y153923D01*
X612139Y153923D01*
G37*
%LPD*%
%LPC*%
G36*
X612139Y128523D02*
X612139Y128523D01*
X612139Y131209D01*
X618091Y137161D01*
X620777Y137161D01*
X620777Y128523D01*
X612139Y128523D01*
G37*
%LPD*%
%LPC*%
G36*
X385063Y252477D02*
X385063Y252477D01*
X393701Y252477D01*
X393701Y249791D01*
X387749Y243839D01*
X385063Y243839D01*
X385063Y252477D01*
G37*
%LPD*%
%LPC*%
G36*
X410463Y252477D02*
X410463Y252477D01*
X419101Y252477D01*
X419101Y249791D01*
X413149Y243839D01*
X410463Y243839D01*
X410463Y252477D01*
G37*
%LPD*%
%LPC*%
G36*
X242823Y142239D02*
X242823Y142239D01*
X242823Y150877D01*
X251461Y150877D01*
X251461Y148191D01*
X245509Y142239D01*
X242823Y142239D01*
G37*
%LPD*%
%LPC*%
G36*
X623823Y142239D02*
X623823Y142239D01*
X623823Y150877D01*
X632461Y150877D01*
X632461Y148191D01*
X626509Y142239D01*
X623823Y142239D01*
G37*
%LPD*%
%LPC*%
G36*
X496823Y142239D02*
X496823Y142239D01*
X496823Y150877D01*
X505461Y150877D01*
X505461Y148191D01*
X499509Y142239D01*
X496823Y142239D01*
G37*
%LPD*%
%LPC*%
G36*
X369823Y142239D02*
X369823Y142239D01*
X369823Y150877D01*
X378461Y150877D01*
X378461Y148191D01*
X372509Y142239D01*
X369823Y142239D01*
G37*
%LPD*%
%LPC*%
G36*
X217423Y142239D02*
X217423Y142239D01*
X217423Y150877D01*
X226061Y150877D01*
X226061Y148191D01*
X220109Y142239D01*
X217423Y142239D01*
G37*
%LPD*%
%LPC*%
G36*
X115823Y142239D02*
X115823Y142239D01*
X115823Y150877D01*
X124461Y150877D01*
X124461Y148191D01*
X118509Y142239D01*
X115823Y142239D01*
G37*
%LPD*%
%LPC*%
G36*
X398779Y255523D02*
X398779Y255523D01*
X398779Y258209D01*
X404731Y264161D01*
X407417Y264161D01*
X407417Y255523D01*
X398779Y255523D01*
G37*
%LPD*%
%LPC*%
G36*
X373379Y255523D02*
X373379Y255523D01*
X373379Y258209D01*
X379331Y264161D01*
X382017Y264161D01*
X382017Y255523D01*
X373379Y255523D01*
G37*
%LPD*%
%LPC*%
G36*
X623823Y116839D02*
X623823Y116839D01*
X623823Y125477D01*
X632461Y125477D01*
X632461Y122791D01*
X626509Y116839D01*
X623823Y116839D01*
G37*
%LPD*%
%LPC*%
G36*
X496823Y116839D02*
X496823Y116839D01*
X496823Y125477D01*
X505461Y125477D01*
X505461Y122791D01*
X499509Y116839D01*
X496823Y116839D01*
G37*
%LPD*%
%LPC*%
G36*
X369823Y116839D02*
X369823Y116839D01*
X369823Y125477D01*
X378461Y125477D01*
X378461Y122791D01*
X372509Y116839D01*
X369823Y116839D01*
G37*
%LPD*%
%LPC*%
G36*
X242823Y116839D02*
X242823Y116839D01*
X242823Y125477D01*
X251461Y125477D01*
X251461Y122791D01*
X245509Y116839D01*
X242823Y116839D01*
G37*
%LPD*%
%LPC*%
G36*
X115823Y116839D02*
X115823Y116839D01*
X115823Y125477D01*
X124461Y125477D01*
X124461Y122791D01*
X118509Y116839D01*
X115823Y116839D01*
G37*
%LPD*%
%LPC*%
G36*
X364091Y142239D02*
X364091Y142239D01*
X358139Y148191D01*
X358139Y150877D01*
X366777Y150877D01*
X366777Y142239D01*
X364091Y142239D01*
G37*
%LPD*%
%LPC*%
G36*
X237091Y142239D02*
X237091Y142239D01*
X231139Y148191D01*
X231139Y150877D01*
X239777Y150877D01*
X239777Y142239D01*
X237091Y142239D01*
G37*
%LPD*%
%LPC*%
G36*
X211691Y142239D02*
X211691Y142239D01*
X205739Y148191D01*
X205739Y150877D01*
X214377Y150877D01*
X214377Y142239D01*
X211691Y142239D01*
G37*
%LPD*%
%LPC*%
G36*
X110091Y116839D02*
X110091Y116839D01*
X104139Y122791D01*
X104139Y125477D01*
X112777Y125477D01*
X112777Y116839D01*
X110091Y116839D01*
G37*
%LPD*%
%LPC*%
G36*
X110091Y142239D02*
X110091Y142239D01*
X104139Y148191D01*
X104139Y150877D01*
X112777Y150877D01*
X112777Y142239D01*
X110091Y142239D01*
G37*
%LPD*%
%LPC*%
G36*
X404731Y243839D02*
X404731Y243839D01*
X398779Y249791D01*
X398779Y252477D01*
X407417Y252477D01*
X407417Y243839D01*
X404731Y243839D01*
G37*
%LPD*%
%LPC*%
G36*
X364091Y116839D02*
X364091Y116839D01*
X358139Y122791D01*
X358139Y125477D01*
X366777Y125477D01*
X366777Y116839D01*
X364091Y116839D01*
G37*
%LPD*%
%LPC*%
G36*
X379331Y243839D02*
X379331Y243839D01*
X373379Y249791D01*
X373379Y252477D01*
X382017Y252477D01*
X382017Y243839D01*
X379331Y243839D01*
G37*
%LPD*%
%LPC*%
G36*
X237091Y116839D02*
X237091Y116839D01*
X231139Y122791D01*
X231139Y125477D01*
X239777Y125477D01*
X239777Y116839D01*
X237091Y116839D01*
G37*
%LPD*%
%LPC*%
G36*
X618091Y142239D02*
X618091Y142239D01*
X612139Y148191D01*
X612139Y150877D01*
X620777Y150877D01*
X620777Y142239D01*
X618091Y142239D01*
G37*
%LPD*%
%LPC*%
G36*
X491091Y142239D02*
X491091Y142239D01*
X485139Y148191D01*
X485139Y150877D01*
X493777Y150877D01*
X493777Y142239D01*
X491091Y142239D01*
G37*
%LPD*%
%LPC*%
G36*
X618091Y116839D02*
X618091Y116839D01*
X612139Y122791D01*
X612139Y125477D01*
X620777Y125477D01*
X620777Y116839D01*
X618091Y116839D01*
G37*
%LPD*%
%LPC*%
G36*
X491091Y116839D02*
X491091Y116839D01*
X485139Y122791D01*
X485139Y125477D01*
X493777Y125477D01*
X493777Y116839D01*
X491091Y116839D01*
G37*
%LPD*%
%LPC*%
G36*
X383539Y253999D02*
X383539Y253999D01*
X383539Y254001D01*
X383541Y254001D01*
X383541Y253999D01*
X383539Y253999D01*
G37*
%LPD*%
%LPC*%
G36*
X528319Y264159D02*
X528319Y264159D01*
X528319Y264161D01*
X528321Y264161D01*
X528321Y264159D01*
X528319Y264159D01*
G37*
%LPD*%
%LPC*%
G36*
X123189Y289559D02*
X123189Y289559D01*
X123189Y289561D01*
X123191Y289561D01*
X123191Y289559D01*
X123189Y289559D01*
G37*
%LPD*%
%LPC*%
G36*
X622299Y152399D02*
X622299Y152399D01*
X622299Y152401D01*
X622301Y152401D01*
X622301Y152399D01*
X622299Y152399D01*
G37*
%LPD*%
%LPC*%
G36*
X114299Y152399D02*
X114299Y152399D01*
X114299Y152401D01*
X114301Y152401D01*
X114301Y152399D01*
X114299Y152399D01*
G37*
%LPD*%
%LPC*%
G36*
X368299Y152399D02*
X368299Y152399D01*
X368299Y152401D01*
X368301Y152401D01*
X368301Y152399D01*
X368299Y152399D01*
G37*
%LPD*%
%LPC*%
G36*
X495299Y152399D02*
X495299Y152399D01*
X495299Y152401D01*
X495301Y152401D01*
X495301Y152399D01*
X495299Y152399D01*
G37*
%LPD*%
%LPC*%
G36*
X241299Y152399D02*
X241299Y152399D01*
X241299Y152401D01*
X241301Y152401D01*
X241301Y152399D01*
X241299Y152399D01*
G37*
%LPD*%
%LPC*%
G36*
X622299Y126999D02*
X622299Y126999D01*
X622299Y127001D01*
X622301Y127001D01*
X622301Y126999D01*
X622299Y126999D01*
G37*
%LPD*%
%LPC*%
G36*
X495299Y126999D02*
X495299Y126999D01*
X495299Y127001D01*
X495301Y127001D01*
X495301Y126999D01*
X495299Y126999D01*
G37*
%LPD*%
%LPC*%
G36*
X241299Y126999D02*
X241299Y126999D01*
X241299Y127001D01*
X241301Y127001D01*
X241301Y126999D01*
X241299Y126999D01*
G37*
%LPD*%
%LPC*%
G36*
X114299Y126999D02*
X114299Y126999D01*
X114299Y127001D01*
X114301Y127001D01*
X114301Y126999D01*
X114299Y126999D01*
G37*
%LPD*%
%LPC*%
G36*
X215899Y152399D02*
X215899Y152399D01*
X215899Y152401D01*
X215901Y152401D01*
X215901Y152399D01*
X215899Y152399D01*
G37*
%LPD*%
%LPC*%
G36*
X408939Y253999D02*
X408939Y253999D01*
X408939Y254001D01*
X408941Y254001D01*
X408941Y253999D01*
X408939Y253999D01*
G37*
%LPD*%
%LPC*%
G36*
X368299Y126999D02*
X368299Y126999D01*
X368299Y127001D01*
X368301Y127001D01*
X368301Y126999D01*
X368299Y126999D01*
G37*
%LPD*%
D10*
X520700Y365760D02*
X535940Y365760D01*
X535940Y340360D02*
X520700Y340360D01*
X520700Y314960D02*
X535940Y314960D01*
X535940Y289560D02*
X520700Y289560D01*
X520700Y264160D02*
X535940Y264160D01*
X130810Y314960D02*
X115570Y314960D01*
X115570Y289560D02*
X130810Y289560D01*
D11*
X571500Y127000D03*
X596900Y127000D03*
X622300Y127000D03*
X571500Y152400D03*
X596900Y152400D03*
X622300Y152400D03*
D12*
X546100Y127000D03*
X520700Y127000D03*
X495300Y127000D03*
X546100Y152400D03*
X520700Y152400D03*
X495300Y152400D03*
X215900Y127000D03*
X190500Y127000D03*
X165100Y127000D03*
X139700Y127000D03*
X114300Y127000D03*
X215900Y152400D03*
X190500Y152400D03*
X165100Y152400D03*
X139700Y152400D03*
X114300Y152400D03*
D13*
X383540Y381000D03*
X408940Y381000D03*
X383540Y355600D03*
X408940Y355600D03*
X383540Y330200D03*
X408940Y330200D03*
X383540Y304800D03*
X408940Y304800D03*
X383540Y279400D03*
X408940Y279400D03*
X383540Y254000D03*
X408940Y254000D03*
X383540Y228600D03*
X408940Y228600D03*
D12*
X292100Y127000D03*
X266700Y127000D03*
X241300Y127000D03*
X292100Y152400D03*
X266700Y152400D03*
X241300Y152400D03*
D11*
X317500Y127000D03*
X342900Y127000D03*
X368300Y127000D03*
X317500Y152400D03*
X342900Y152400D03*
X368300Y152400D03*
D14*
X141250Y206250D02*
X81250Y206250D01*
D15*
X81250Y206250D03*
X141250Y206250D03*
D14*
X155000Y175000D02*
X152540Y172540D01*
X110000Y171270D02*
X108770Y171270D01*
X110000Y172500D02*
X110040Y172540D01*
X152540Y172540D01*
X108770Y171270D02*
X97500Y160000D01*
X97500Y115000D01*
X103750Y108750D01*
X147500Y108750D01*
X165000Y126250D01*
X165100Y127000D01*
X110000Y171270D02*
X110000Y172500D01*
D15*
X155000Y175000D03*
X110000Y172500D03*
D14*
X201250Y185000D02*
X211250Y175000D01*
X201250Y185000D02*
X108750Y185000D01*
X90000Y166250D01*
X90000Y107500D01*
X96250Y101250D01*
X165000Y101250D01*
X190000Y126250D01*
X190500Y127000D01*
D15*
X211250Y175000D03*
D14*
X382500Y356250D02*
X352500Y386250D01*
X333750Y386250D01*
X320000Y400000D01*
X320000Y450990D01*
X325000Y455990D01*
X382500Y356250D02*
X383540Y355600D01*
D15*
X325000Y455990D03*
D14*
X546250Y126250D02*
X563750Y108750D01*
X628750Y108750D01*
X640000Y120000D01*
X640000Y172500D01*
X633750Y178750D01*
X591250Y407500D02*
X485000Y513750D01*
X223750Y513750D01*
X546100Y127000D02*
X546250Y126250D01*
D15*
X633750Y178750D03*
X591250Y407500D03*
X223750Y513750D03*
D14*
X215000Y126250D02*
X182500Y93750D01*
X90400Y93184D01*
X80173Y103417D01*
X80131Y175381D02*
X101000Y196250D01*
X80131Y175381D02*
X80173Y103417D01*
X101000Y196250D02*
X173750Y196250D01*
X208750Y231250D01*
X215900Y127000D02*
X215000Y126250D01*
D15*
X208750Y231250D03*
D14*
X410000Y356250D02*
X426250Y372500D01*
X426250Y390000D01*
X421250Y390000D01*
X410000Y356250D02*
X408940Y355600D01*
D15*
X421250Y390000D03*
D14*
X383750Y330000D02*
X396250Y317500D01*
X415000Y317500D01*
X467500Y370000D01*
X383750Y330000D02*
X383540Y330200D01*
D15*
X380000Y490000D03*
D14*
X457388Y412612D02*
X461171Y412612D01*
X467500Y406283D01*
X467500Y370000D01*
X457388Y412612D02*
X380000Y490000D01*
X455000Y376250D02*
X410000Y331250D01*
X455000Y376250D02*
X455000Y388750D01*
X458750Y392500D01*
X458750Y403750D01*
X457500Y403750D01*
X452500Y432500D02*
X395000Y490000D01*
X410000Y331250D02*
X408940Y330200D01*
D15*
X457500Y403750D03*
X452500Y432500D03*
X395000Y490000D03*
D14*
X380000Y307500D02*
X382500Y305000D01*
X380000Y307500D02*
X370040Y307500D01*
X309900Y367640D01*
X330000Y411330D02*
X361170Y442500D01*
X401250Y442500D01*
X382500Y305000D02*
X383540Y304800D01*
D15*
X309900Y367640D03*
X330000Y411330D03*
X401250Y442500D03*
D14*
X313750Y348750D02*
X382500Y280000D01*
X313750Y348750D02*
X312500Y348750D01*
X296250Y365000D01*
X296250Y482500D01*
X332500Y482500D01*
X350000Y500000D01*
X403750Y500000D01*
X427500Y476250D01*
X382500Y280000D02*
X383540Y279400D01*
D15*
X427500Y476250D03*
D14*
X500000Y260000D02*
X542500Y217500D01*
X500000Y260000D02*
X500000Y410000D01*
D15*
X542500Y217500D03*
X500000Y410000D03*
D14*
X533750Y320000D02*
X528750Y315000D01*
X533750Y320000D02*
X541250Y320000D01*
X562500Y341250D01*
X563750Y341250D01*
X603790Y381290D01*
X603790Y448710D01*
X563750Y488750D01*
X528750Y315000D02*
X528320Y314960D01*
D15*
X563750Y488750D03*
D14*
X533750Y295000D02*
X528750Y290000D01*
X533750Y295000D02*
X541250Y295000D01*
X581250Y335000D01*
X528750Y290000D02*
X528320Y289560D01*
D15*
X581250Y335000D03*
D14*
X369900Y211250D02*
X356290Y224860D01*
X369900Y211250D02*
X416250Y211250D01*
X480000Y343750D02*
X480000Y386250D01*
X480000Y343750D02*
X435000Y298750D01*
X430000Y298750D01*
X411250Y280000D01*
X410000Y280000D01*
X408940Y279400D01*
D15*
X356290Y224860D03*
X416250Y211250D03*
X480000Y386250D03*
D14*
X490000Y342500D02*
X436250Y288750D01*
X490000Y342500D02*
X490000Y488750D01*
X442500Y488750D01*
D15*
X436250Y288750D03*
X442500Y488750D03*
D14*
X538750Y170000D02*
X521250Y152500D01*
X538750Y170000D02*
X578750Y170000D01*
X596250Y152500D01*
X521250Y152500D02*
X520700Y152400D01*
X596250Y152500D02*
X596900Y152400D01*
X385000Y230000D02*
X383750Y228750D01*
X385000Y230000D02*
X407500Y230000D01*
X408750Y228750D01*
X383750Y228750D02*
X383540Y228600D01*
X408750Y228750D02*
X408940Y228600D01*
X285000Y170000D02*
X267500Y152500D01*
X285000Y170000D02*
X325000Y170000D01*
X342500Y152500D01*
X267500Y152500D02*
X266700Y152400D01*
X342500Y152500D02*
X342900Y152400D01*
X446250Y230000D02*
X521250Y155000D01*
X446250Y230000D02*
X410000Y230000D01*
X521250Y155000D02*
X520700Y152400D01*
X410000Y230000D02*
X408940Y228600D01*
X127500Y310000D02*
X123750Y313750D01*
X127500Y310000D02*
X135000Y310000D01*
X195000Y250000D01*
X355000Y250000D01*
X376250Y228750D01*
X382500Y228750D01*
X123750Y313750D02*
X123190Y314960D01*
X382500Y228750D02*
X383540Y228600D01*
D16*
X275000Y460000D02*
X96250Y460000D01*
X302480Y237480D02*
X340140Y237480D01*
X302480Y237480D02*
X296250Y231250D01*
X205000Y241250D02*
X195000Y231250D01*
X205000Y241250D02*
X283750Y241250D01*
X293750Y231250D01*
X296250Y231250D01*
X447500Y396250D02*
X443750Y400000D01*
X341250Y400000D01*
X337500Y396250D01*
D15*
X96250Y460000D03*
X275000Y460000D03*
X296250Y231250D03*
X340140Y237480D03*
X195000Y231250D03*
X447500Y396250D03*
X337500Y396250D03*
D14*
X542500Y442500D02*
X570000Y415000D01*
X542500Y442500D02*
X502500Y442500D01*
D15*
X570000Y415000D03*
X502500Y442500D03*
D14*
X560000Y413750D02*
X560000Y351250D01*
X560000Y413750D02*
X542500Y431250D01*
X517500Y431250D01*
D15*
X560000Y351250D03*
X517500Y431250D03*
D14*
X286250Y349800D02*
X248750Y387300D01*
X248750Y450000D01*
D15*
X286250Y349800D03*
X248750Y450000D03*
D14*
X292500Y126250D02*
X315080Y103670D01*
X381172Y103670D01*
X393930Y116059D01*
X393979Y183871D02*
X380350Y197500D01*
X393979Y183871D02*
X393930Y116059D01*
X380350Y197500D02*
X248750Y197500D01*
X243750Y192500D01*
X292100Y127000D02*
X292500Y126250D01*
D15*
X243750Y192500D03*
D14*
X233750Y208750D02*
X256250Y231250D01*
X233750Y208750D02*
X233750Y185000D01*
D15*
X256250Y231250D03*
X233750Y185000D03*
D14*
X346250Y187500D02*
X358670Y175080D01*
X378810Y175080D01*
X287500Y448750D02*
X287500Y487500D01*
X287500Y448750D02*
X285000Y448750D01*
X267500Y431250D01*
X267500Y395000D01*
D15*
X346250Y187500D03*
X378810Y175080D03*
X287500Y487500D03*
X267500Y395000D03*
M02*
