G04 EAGLE Gerber RS-274X export*
G75*
%MOMM*%
%FSLAX34Y34*%
%LPD*%
%INSilkscreen Top*%
%IPPOS*%
%AMOC8*
5,1,8,0,0,1.08239X$1,22.5*%
G01*
%ADD10C,0.152400*%
%ADD11C,0.762000*%
%ADD12R,0.508000X0.762000*%
%ADD13R,1.016000X0.762000*%
%ADD14C,0.127000*%
%ADD15R,0.762000X0.508000*%
%ADD16R,0.762000X1.016000*%
%ADD17R,0.762000X0.762000*%
%ADD18C,0.203200*%


D10*
X547370Y378460D02*
X547370Y353060D01*
X572770Y353060D01*
X572770Y378460D01*
X547370Y378460D01*
D11*
X579120Y365760D02*
X636270Y365760D01*
D10*
X547370Y353060D02*
X547370Y327660D01*
X572770Y327660D01*
X572770Y353060D01*
D11*
X579120Y340360D02*
X636270Y340360D01*
D10*
X547370Y327660D02*
X547370Y302260D01*
X572770Y302260D01*
X572770Y327660D01*
D11*
X579120Y314960D02*
X636270Y314960D01*
D10*
X547370Y302260D02*
X547370Y276860D01*
X572770Y276860D01*
X572770Y302260D01*
D11*
X579120Y289560D02*
X636270Y289560D01*
D10*
X547370Y276860D02*
X547370Y251460D01*
X572770Y251460D01*
X572770Y276860D01*
D11*
X579120Y264160D02*
X636270Y264160D01*
D12*
X575310Y365760D03*
X575310Y340360D03*
X575310Y314960D03*
X575310Y289560D03*
X575310Y264160D03*
D13*
X542290Y365760D03*
X542290Y340360D03*
X542290Y314960D03*
X542290Y289560D03*
X542290Y264160D03*
D14*
X532765Y387985D02*
X532765Y396875D01*
X532765Y387985D02*
X532763Y387885D01*
X532757Y387786D01*
X532747Y387686D01*
X532734Y387588D01*
X532716Y387489D01*
X532695Y387392D01*
X532670Y387296D01*
X532641Y387200D01*
X532608Y387106D01*
X532572Y387013D01*
X532532Y386922D01*
X532488Y386832D01*
X532441Y386744D01*
X532391Y386658D01*
X532337Y386574D01*
X532280Y386492D01*
X532220Y386413D01*
X532156Y386335D01*
X532090Y386261D01*
X532021Y386189D01*
X531949Y386120D01*
X531875Y386054D01*
X531797Y385990D01*
X531718Y385930D01*
X531636Y385873D01*
X531552Y385819D01*
X531466Y385769D01*
X531378Y385722D01*
X531288Y385678D01*
X531197Y385638D01*
X531104Y385602D01*
X531010Y385569D01*
X530914Y385540D01*
X530818Y385515D01*
X530721Y385494D01*
X530622Y385476D01*
X530524Y385463D01*
X530424Y385453D01*
X530325Y385447D01*
X530225Y385445D01*
X528955Y385445D01*
X538745Y385445D02*
X538745Y396875D01*
X541920Y396875D01*
X542031Y396873D01*
X542141Y396867D01*
X542252Y396858D01*
X542362Y396844D01*
X542471Y396827D01*
X542580Y396806D01*
X542688Y396781D01*
X542795Y396752D01*
X542901Y396720D01*
X543006Y396684D01*
X543109Y396644D01*
X543211Y396601D01*
X543312Y396554D01*
X543411Y396503D01*
X543508Y396450D01*
X543602Y396393D01*
X543695Y396332D01*
X543786Y396269D01*
X543875Y396202D01*
X543961Y396132D01*
X544044Y396059D01*
X544126Y395984D01*
X544204Y395906D01*
X544279Y395824D01*
X544352Y395741D01*
X544422Y395655D01*
X544489Y395566D01*
X544552Y395475D01*
X544613Y395382D01*
X544670Y395287D01*
X544723Y395191D01*
X544774Y395092D01*
X544821Y394991D01*
X544864Y394889D01*
X544904Y394786D01*
X544940Y394681D01*
X544972Y394575D01*
X545001Y394468D01*
X545026Y394360D01*
X545047Y394251D01*
X545064Y394142D01*
X545078Y394032D01*
X545087Y393921D01*
X545093Y393811D01*
X545095Y393700D01*
X545093Y393589D01*
X545087Y393479D01*
X545078Y393368D01*
X545064Y393258D01*
X545047Y393149D01*
X545026Y393040D01*
X545001Y392932D01*
X544972Y392825D01*
X544940Y392719D01*
X544904Y392614D01*
X544864Y392511D01*
X544821Y392409D01*
X544774Y392308D01*
X544723Y392209D01*
X544670Y392112D01*
X544613Y392018D01*
X544552Y391925D01*
X544489Y391834D01*
X544422Y391745D01*
X544352Y391659D01*
X544279Y391576D01*
X544204Y391494D01*
X544126Y391416D01*
X544044Y391341D01*
X543961Y391268D01*
X543875Y391198D01*
X543786Y391131D01*
X543695Y391068D01*
X543602Y391007D01*
X543508Y390950D01*
X543411Y390897D01*
X543312Y390846D01*
X543211Y390799D01*
X543109Y390756D01*
X543006Y390716D01*
X542901Y390680D01*
X542795Y390648D01*
X542688Y390619D01*
X542580Y390594D01*
X542471Y390573D01*
X542362Y390556D01*
X542252Y390542D01*
X542141Y390533D01*
X542031Y390527D01*
X541920Y390525D01*
X538745Y390525D01*
X549604Y387985D02*
X552144Y396875D01*
X549604Y387985D02*
X555954Y387985D01*
X554049Y390525D02*
X554049Y385445D01*
D10*
X558800Y107950D02*
X533400Y107950D01*
X533400Y82550D01*
X558800Y82550D01*
X558800Y107950D01*
D11*
X546100Y76200D02*
X546100Y19050D01*
D10*
X533400Y107950D02*
X508000Y107950D01*
X508000Y82550D01*
X533400Y82550D01*
D11*
X520700Y76200D02*
X520700Y19050D01*
D10*
X508000Y107950D02*
X482600Y107950D01*
X482600Y82550D01*
X508000Y82550D01*
D11*
X495300Y76200D02*
X495300Y19050D01*
D15*
X546100Y80010D03*
X520700Y80010D03*
X495300Y80010D03*
D16*
X546100Y113030D03*
X520700Y113030D03*
D17*
X546100Y139700D03*
X520700Y139700D03*
D16*
X495300Y113030D03*
D17*
X495300Y139700D03*
D14*
X565785Y103176D02*
X574675Y103176D01*
X574775Y103174D01*
X574874Y103168D01*
X574974Y103158D01*
X575072Y103145D01*
X575171Y103127D01*
X575268Y103106D01*
X575364Y103081D01*
X575460Y103052D01*
X575554Y103019D01*
X575647Y102983D01*
X575738Y102943D01*
X575828Y102899D01*
X575916Y102852D01*
X576002Y102802D01*
X576086Y102748D01*
X576168Y102691D01*
X576247Y102631D01*
X576325Y102567D01*
X576399Y102501D01*
X576471Y102432D01*
X576540Y102360D01*
X576606Y102286D01*
X576670Y102208D01*
X576730Y102129D01*
X576787Y102047D01*
X576841Y101963D01*
X576891Y101877D01*
X576938Y101789D01*
X576982Y101699D01*
X577022Y101608D01*
X577058Y101515D01*
X577091Y101421D01*
X577120Y101325D01*
X577145Y101229D01*
X577166Y101132D01*
X577184Y101033D01*
X577197Y100935D01*
X577207Y100835D01*
X577213Y100736D01*
X577215Y100636D01*
X577215Y99366D01*
X577215Y109157D02*
X565785Y109157D01*
X565785Y112332D01*
X565787Y112443D01*
X565793Y112553D01*
X565802Y112664D01*
X565816Y112774D01*
X565833Y112883D01*
X565854Y112992D01*
X565879Y113100D01*
X565908Y113207D01*
X565940Y113313D01*
X565976Y113418D01*
X566016Y113521D01*
X566059Y113623D01*
X566106Y113724D01*
X566157Y113823D01*
X566210Y113919D01*
X566267Y114014D01*
X566328Y114107D01*
X566391Y114198D01*
X566458Y114287D01*
X566528Y114373D01*
X566601Y114456D01*
X566676Y114538D01*
X566754Y114616D01*
X566836Y114691D01*
X566919Y114764D01*
X567005Y114834D01*
X567094Y114901D01*
X567185Y114964D01*
X567278Y115025D01*
X567373Y115082D01*
X567469Y115135D01*
X567568Y115186D01*
X567669Y115233D01*
X567771Y115276D01*
X567874Y115316D01*
X567979Y115352D01*
X568085Y115384D01*
X568192Y115413D01*
X568300Y115438D01*
X568409Y115459D01*
X568518Y115476D01*
X568628Y115490D01*
X568739Y115499D01*
X568849Y115505D01*
X568960Y115507D01*
X569071Y115505D01*
X569181Y115499D01*
X569292Y115490D01*
X569402Y115476D01*
X569511Y115459D01*
X569620Y115438D01*
X569728Y115413D01*
X569835Y115384D01*
X569941Y115352D01*
X570046Y115316D01*
X570149Y115276D01*
X570251Y115233D01*
X570352Y115186D01*
X570451Y115135D01*
X570548Y115082D01*
X570642Y115025D01*
X570735Y114964D01*
X570826Y114901D01*
X570915Y114834D01*
X571001Y114764D01*
X571084Y114691D01*
X571166Y114616D01*
X571244Y114538D01*
X571319Y114456D01*
X571392Y114373D01*
X571462Y114287D01*
X571529Y114198D01*
X571592Y114107D01*
X571653Y114014D01*
X571710Y113920D01*
X571763Y113823D01*
X571814Y113724D01*
X571861Y113623D01*
X571904Y113521D01*
X571944Y113418D01*
X571980Y113313D01*
X572012Y113207D01*
X572041Y113100D01*
X572066Y112992D01*
X572087Y112883D01*
X572104Y112774D01*
X572118Y112664D01*
X572127Y112553D01*
X572133Y112443D01*
X572135Y112332D01*
X572135Y109157D01*
X577215Y120015D02*
X577215Y123825D01*
X577213Y123925D01*
X577207Y124024D01*
X577197Y124124D01*
X577184Y124222D01*
X577166Y124321D01*
X577145Y124418D01*
X577120Y124514D01*
X577091Y124610D01*
X577058Y124704D01*
X577022Y124797D01*
X576982Y124888D01*
X576938Y124978D01*
X576891Y125066D01*
X576841Y125152D01*
X576787Y125236D01*
X576730Y125318D01*
X576670Y125397D01*
X576606Y125475D01*
X576540Y125549D01*
X576471Y125621D01*
X576399Y125690D01*
X576325Y125756D01*
X576247Y125820D01*
X576168Y125880D01*
X576086Y125937D01*
X576002Y125991D01*
X575916Y126041D01*
X575828Y126088D01*
X575738Y126132D01*
X575647Y126172D01*
X575554Y126208D01*
X575460Y126241D01*
X575364Y126270D01*
X575268Y126295D01*
X575171Y126316D01*
X575072Y126334D01*
X574974Y126347D01*
X574874Y126357D01*
X574775Y126363D01*
X574675Y126365D01*
X573405Y126365D01*
X573305Y126363D01*
X573206Y126357D01*
X573106Y126347D01*
X573008Y126334D01*
X572909Y126316D01*
X572812Y126295D01*
X572716Y126270D01*
X572620Y126241D01*
X572526Y126208D01*
X572433Y126172D01*
X572342Y126132D01*
X572252Y126088D01*
X572164Y126041D01*
X572078Y125991D01*
X571994Y125937D01*
X571912Y125880D01*
X571833Y125820D01*
X571755Y125756D01*
X571681Y125690D01*
X571609Y125621D01*
X571540Y125549D01*
X571474Y125475D01*
X571410Y125397D01*
X571350Y125318D01*
X571293Y125236D01*
X571239Y125152D01*
X571189Y125066D01*
X571142Y124978D01*
X571098Y124888D01*
X571058Y124797D01*
X571022Y124704D01*
X570989Y124610D01*
X570960Y124514D01*
X570935Y124418D01*
X570914Y124321D01*
X570896Y124222D01*
X570883Y124124D01*
X570873Y124024D01*
X570867Y123925D01*
X570865Y123825D01*
X570865Y120015D01*
X565785Y120015D01*
X565785Y126365D01*
D10*
X228600Y107950D02*
X203200Y107950D01*
X203200Y82550D01*
X228600Y82550D01*
X228600Y107950D01*
D11*
X215900Y76200D02*
X215900Y19050D01*
D10*
X203200Y107950D02*
X177800Y107950D01*
X177800Y82550D01*
X203200Y82550D01*
D11*
X190500Y76200D02*
X190500Y19050D01*
D10*
X177800Y107950D02*
X152400Y107950D01*
X152400Y82550D01*
X177800Y82550D01*
D11*
X165100Y76200D02*
X165100Y19050D01*
D10*
X152400Y107950D02*
X127000Y107950D01*
X127000Y82550D01*
X152400Y82550D01*
D11*
X139700Y76200D02*
X139700Y19050D01*
D10*
X127000Y107950D02*
X101600Y107950D01*
X101600Y82550D01*
X127000Y82550D01*
D11*
X114300Y76200D02*
X114300Y19050D01*
D15*
X215900Y80010D03*
X190500Y80010D03*
X165100Y80010D03*
X139700Y80010D03*
X114300Y80010D03*
D16*
X215900Y113030D03*
X190500Y113030D03*
D17*
X215900Y139700D03*
X190500Y139700D03*
D16*
X165100Y113030D03*
X139700Y113030D03*
D17*
X165100Y139700D03*
X139700Y139700D03*
D16*
X114300Y113030D03*
D17*
X114300Y139700D03*
D14*
X235585Y103176D02*
X244475Y103176D01*
X244575Y103174D01*
X244674Y103168D01*
X244774Y103158D01*
X244872Y103145D01*
X244971Y103127D01*
X245068Y103106D01*
X245164Y103081D01*
X245260Y103052D01*
X245354Y103019D01*
X245447Y102983D01*
X245538Y102943D01*
X245628Y102899D01*
X245716Y102852D01*
X245802Y102802D01*
X245886Y102748D01*
X245968Y102691D01*
X246047Y102631D01*
X246125Y102567D01*
X246199Y102501D01*
X246271Y102432D01*
X246340Y102360D01*
X246406Y102286D01*
X246470Y102208D01*
X246530Y102129D01*
X246587Y102047D01*
X246641Y101963D01*
X246691Y101877D01*
X246738Y101789D01*
X246782Y101699D01*
X246822Y101608D01*
X246858Y101515D01*
X246891Y101421D01*
X246920Y101325D01*
X246945Y101229D01*
X246966Y101132D01*
X246984Y101033D01*
X246997Y100935D01*
X247007Y100835D01*
X247013Y100736D01*
X247015Y100636D01*
X247015Y99366D01*
X247015Y109157D02*
X235585Y109157D01*
X235585Y112332D01*
X235587Y112443D01*
X235593Y112553D01*
X235602Y112664D01*
X235616Y112774D01*
X235633Y112883D01*
X235654Y112992D01*
X235679Y113100D01*
X235708Y113207D01*
X235740Y113313D01*
X235776Y113418D01*
X235816Y113521D01*
X235859Y113623D01*
X235906Y113724D01*
X235957Y113823D01*
X236010Y113919D01*
X236067Y114014D01*
X236128Y114107D01*
X236191Y114198D01*
X236258Y114287D01*
X236328Y114373D01*
X236401Y114456D01*
X236476Y114538D01*
X236554Y114616D01*
X236636Y114691D01*
X236719Y114764D01*
X236805Y114834D01*
X236894Y114901D01*
X236985Y114964D01*
X237078Y115025D01*
X237173Y115082D01*
X237269Y115135D01*
X237368Y115186D01*
X237469Y115233D01*
X237571Y115276D01*
X237674Y115316D01*
X237779Y115352D01*
X237885Y115384D01*
X237992Y115413D01*
X238100Y115438D01*
X238209Y115459D01*
X238318Y115476D01*
X238428Y115490D01*
X238539Y115499D01*
X238649Y115505D01*
X238760Y115507D01*
X238871Y115505D01*
X238981Y115499D01*
X239092Y115490D01*
X239202Y115476D01*
X239311Y115459D01*
X239420Y115438D01*
X239528Y115413D01*
X239635Y115384D01*
X239741Y115352D01*
X239846Y115316D01*
X239949Y115276D01*
X240051Y115233D01*
X240152Y115186D01*
X240251Y115135D01*
X240348Y115082D01*
X240442Y115025D01*
X240535Y114964D01*
X240626Y114901D01*
X240715Y114834D01*
X240801Y114764D01*
X240884Y114691D01*
X240966Y114616D01*
X241044Y114538D01*
X241119Y114456D01*
X241192Y114373D01*
X241262Y114287D01*
X241329Y114198D01*
X241392Y114107D01*
X241453Y114014D01*
X241510Y113920D01*
X241563Y113823D01*
X241614Y113724D01*
X241661Y113623D01*
X241704Y113521D01*
X241744Y113418D01*
X241780Y113313D01*
X241812Y113207D01*
X241841Y113100D01*
X241866Y112992D01*
X241887Y112883D01*
X241904Y112774D01*
X241918Y112664D01*
X241927Y112553D01*
X241933Y112443D01*
X241935Y112332D01*
X241935Y109157D01*
X238125Y120015D02*
X235585Y123190D01*
X247015Y123190D01*
X247015Y120015D02*
X247015Y126365D01*
D10*
X370840Y387350D02*
X377190Y393700D01*
X370840Y374650D02*
X377190Y368300D01*
X370840Y361950D01*
X370840Y349250D02*
X377190Y342900D01*
X370840Y336550D01*
X370840Y323850D02*
X377190Y317500D01*
X370840Y311150D01*
X370840Y298450D02*
X377190Y292100D01*
X370840Y285750D01*
X370840Y273050D02*
X377190Y266700D01*
X370840Y260350D01*
X370840Y247650D02*
X377190Y241300D01*
X377190Y393700D02*
X415290Y393700D01*
X421640Y387350D01*
X421640Y374650D01*
X415290Y368300D01*
X421640Y361950D01*
X421640Y349250D01*
X415290Y342900D01*
X421640Y336550D01*
X421640Y323850D01*
X415290Y317500D01*
X421640Y311150D01*
X421640Y298450D01*
X415290Y292100D01*
X421640Y285750D01*
X421640Y273050D01*
X415290Y266700D01*
X421640Y260350D01*
X421640Y247650D01*
X415290Y241300D01*
X415290Y368300D02*
X377190Y368300D01*
X377190Y342900D02*
X415290Y342900D01*
X415290Y317500D02*
X377190Y317500D01*
X377190Y292100D02*
X415290Y292100D01*
X415290Y266700D02*
X377190Y266700D01*
X377190Y241300D02*
X415290Y241300D01*
X370840Y247650D02*
X370840Y260350D01*
X370840Y273050D02*
X370840Y285750D01*
X370840Y298450D02*
X370840Y311150D01*
X370840Y323850D02*
X370840Y336550D01*
X370840Y349250D02*
X370840Y361950D01*
X370840Y374650D02*
X370840Y387350D01*
X377190Y241300D02*
X370840Y234950D01*
X370840Y222250D02*
X377190Y215900D01*
X415290Y241300D02*
X421640Y234950D01*
X421640Y222250D01*
X415290Y215900D01*
X377190Y215900D01*
X370840Y222250D02*
X370840Y234950D01*
D14*
X362585Y403225D02*
X362585Y412115D01*
X362585Y403225D02*
X362583Y403125D01*
X362577Y403026D01*
X362567Y402926D01*
X362554Y402828D01*
X362536Y402729D01*
X362515Y402632D01*
X362490Y402536D01*
X362461Y402440D01*
X362428Y402346D01*
X362392Y402253D01*
X362352Y402162D01*
X362308Y402072D01*
X362261Y401984D01*
X362211Y401898D01*
X362157Y401814D01*
X362100Y401732D01*
X362040Y401653D01*
X361976Y401575D01*
X361910Y401501D01*
X361841Y401429D01*
X361769Y401360D01*
X361695Y401294D01*
X361617Y401230D01*
X361538Y401170D01*
X361456Y401113D01*
X361372Y401059D01*
X361286Y401009D01*
X361198Y400962D01*
X361108Y400918D01*
X361017Y400878D01*
X360924Y400842D01*
X360830Y400809D01*
X360734Y400780D01*
X360638Y400755D01*
X360541Y400734D01*
X360442Y400716D01*
X360344Y400703D01*
X360244Y400693D01*
X360145Y400687D01*
X360045Y400685D01*
X358775Y400685D01*
X368565Y400685D02*
X368565Y412115D01*
X371740Y412115D01*
X371851Y412113D01*
X371961Y412107D01*
X372072Y412098D01*
X372182Y412084D01*
X372291Y412067D01*
X372400Y412046D01*
X372508Y412021D01*
X372615Y411992D01*
X372721Y411960D01*
X372826Y411924D01*
X372929Y411884D01*
X373031Y411841D01*
X373132Y411794D01*
X373231Y411743D01*
X373328Y411690D01*
X373422Y411633D01*
X373515Y411572D01*
X373606Y411509D01*
X373695Y411442D01*
X373781Y411372D01*
X373864Y411299D01*
X373946Y411224D01*
X374024Y411146D01*
X374099Y411064D01*
X374172Y410981D01*
X374242Y410895D01*
X374309Y410806D01*
X374372Y410715D01*
X374433Y410622D01*
X374490Y410527D01*
X374543Y410431D01*
X374594Y410332D01*
X374641Y410231D01*
X374684Y410129D01*
X374724Y410026D01*
X374760Y409921D01*
X374792Y409815D01*
X374821Y409708D01*
X374846Y409600D01*
X374867Y409491D01*
X374884Y409382D01*
X374898Y409272D01*
X374907Y409161D01*
X374913Y409051D01*
X374915Y408940D01*
X374913Y408829D01*
X374907Y408719D01*
X374898Y408608D01*
X374884Y408498D01*
X374867Y408389D01*
X374846Y408280D01*
X374821Y408172D01*
X374792Y408065D01*
X374760Y407959D01*
X374724Y407854D01*
X374684Y407751D01*
X374641Y407649D01*
X374594Y407548D01*
X374543Y407449D01*
X374490Y407352D01*
X374433Y407258D01*
X374372Y407165D01*
X374309Y407074D01*
X374242Y406985D01*
X374172Y406899D01*
X374099Y406816D01*
X374024Y406734D01*
X373946Y406656D01*
X373864Y406581D01*
X373781Y406508D01*
X373695Y406438D01*
X373606Y406371D01*
X373515Y406308D01*
X373422Y406247D01*
X373328Y406190D01*
X373231Y406137D01*
X373132Y406086D01*
X373031Y406039D01*
X372929Y405996D01*
X372826Y405956D01*
X372721Y405920D01*
X372615Y405888D01*
X372508Y405859D01*
X372400Y405834D01*
X372291Y405813D01*
X372182Y405796D01*
X372072Y405782D01*
X371961Y405773D01*
X371851Y405767D01*
X371740Y405765D01*
X368565Y405765D01*
X379424Y400685D02*
X382599Y400685D01*
X382710Y400687D01*
X382820Y400693D01*
X382931Y400702D01*
X383041Y400716D01*
X383150Y400733D01*
X383259Y400754D01*
X383367Y400779D01*
X383474Y400808D01*
X383580Y400840D01*
X383685Y400876D01*
X383788Y400916D01*
X383890Y400959D01*
X383991Y401006D01*
X384090Y401057D01*
X384187Y401110D01*
X384281Y401167D01*
X384374Y401228D01*
X384465Y401291D01*
X384554Y401358D01*
X384640Y401428D01*
X384723Y401501D01*
X384805Y401576D01*
X384883Y401654D01*
X384958Y401736D01*
X385031Y401819D01*
X385101Y401905D01*
X385168Y401994D01*
X385231Y402085D01*
X385292Y402178D01*
X385349Y402272D01*
X385402Y402369D01*
X385453Y402468D01*
X385500Y402569D01*
X385543Y402671D01*
X385583Y402774D01*
X385619Y402879D01*
X385651Y402985D01*
X385680Y403092D01*
X385705Y403200D01*
X385726Y403309D01*
X385743Y403418D01*
X385757Y403528D01*
X385766Y403639D01*
X385772Y403749D01*
X385774Y403860D01*
X385772Y403971D01*
X385766Y404081D01*
X385757Y404192D01*
X385743Y404302D01*
X385726Y404411D01*
X385705Y404520D01*
X385680Y404628D01*
X385651Y404735D01*
X385619Y404841D01*
X385583Y404946D01*
X385543Y405049D01*
X385500Y405151D01*
X385453Y405252D01*
X385402Y405351D01*
X385349Y405447D01*
X385292Y405542D01*
X385231Y405635D01*
X385168Y405726D01*
X385101Y405815D01*
X385031Y405901D01*
X384958Y405984D01*
X384883Y406066D01*
X384805Y406144D01*
X384723Y406219D01*
X384640Y406292D01*
X384554Y406362D01*
X384465Y406429D01*
X384374Y406492D01*
X384281Y406553D01*
X384187Y406610D01*
X384090Y406663D01*
X383991Y406714D01*
X383890Y406761D01*
X383788Y406804D01*
X383685Y406844D01*
X383580Y406880D01*
X383474Y406912D01*
X383367Y406941D01*
X383259Y406966D01*
X383150Y406987D01*
X383041Y407004D01*
X382931Y407018D01*
X382820Y407027D01*
X382710Y407033D01*
X382599Y407035D01*
X383234Y412115D02*
X379424Y412115D01*
X383234Y412115D02*
X383334Y412113D01*
X383433Y412107D01*
X383533Y412097D01*
X383631Y412084D01*
X383730Y412066D01*
X383827Y412045D01*
X383923Y412020D01*
X384019Y411991D01*
X384113Y411958D01*
X384206Y411922D01*
X384297Y411882D01*
X384387Y411838D01*
X384475Y411791D01*
X384561Y411741D01*
X384645Y411687D01*
X384727Y411630D01*
X384806Y411570D01*
X384884Y411506D01*
X384958Y411440D01*
X385030Y411371D01*
X385099Y411299D01*
X385165Y411225D01*
X385229Y411147D01*
X385289Y411068D01*
X385346Y410986D01*
X385400Y410902D01*
X385450Y410816D01*
X385497Y410728D01*
X385541Y410638D01*
X385581Y410547D01*
X385617Y410454D01*
X385650Y410360D01*
X385679Y410264D01*
X385704Y410168D01*
X385725Y410071D01*
X385743Y409972D01*
X385756Y409874D01*
X385766Y409774D01*
X385772Y409675D01*
X385774Y409575D01*
X385772Y409475D01*
X385766Y409376D01*
X385756Y409276D01*
X385743Y409178D01*
X385725Y409079D01*
X385704Y408982D01*
X385679Y408886D01*
X385650Y408790D01*
X385617Y408696D01*
X385581Y408603D01*
X385541Y408512D01*
X385497Y408422D01*
X385450Y408334D01*
X385400Y408248D01*
X385346Y408164D01*
X385289Y408082D01*
X385229Y408003D01*
X385165Y407925D01*
X385099Y407851D01*
X385030Y407779D01*
X384958Y407710D01*
X384884Y407644D01*
X384806Y407580D01*
X384727Y407520D01*
X384645Y407463D01*
X384561Y407409D01*
X384475Y407359D01*
X384387Y407312D01*
X384297Y407268D01*
X384206Y407228D01*
X384113Y407192D01*
X384019Y407159D01*
X383923Y407130D01*
X383827Y407105D01*
X383730Y407084D01*
X383631Y407066D01*
X383533Y407053D01*
X383433Y407043D01*
X383334Y407037D01*
X383234Y407035D01*
X380694Y407035D01*
D10*
X304800Y107950D02*
X279400Y107950D01*
X279400Y82550D01*
X304800Y82550D01*
X304800Y107950D01*
D11*
X292100Y76200D02*
X292100Y19050D01*
D10*
X279400Y107950D02*
X254000Y107950D01*
X254000Y82550D01*
X279400Y82550D01*
D11*
X266700Y76200D02*
X266700Y19050D01*
D10*
X254000Y107950D02*
X228600Y107950D01*
X228600Y82550D01*
X254000Y82550D01*
D11*
X241300Y76200D02*
X241300Y19050D01*
D15*
X292100Y80010D03*
X266700Y80010D03*
X241300Y80010D03*
D16*
X292100Y113030D03*
X266700Y113030D03*
D17*
X292100Y139700D03*
X266700Y139700D03*
D16*
X241300Y113030D03*
D17*
X241300Y139700D03*
D14*
X311785Y103176D02*
X320675Y103176D01*
X320775Y103174D01*
X320874Y103168D01*
X320974Y103158D01*
X321072Y103145D01*
X321171Y103127D01*
X321268Y103106D01*
X321364Y103081D01*
X321460Y103052D01*
X321554Y103019D01*
X321647Y102983D01*
X321738Y102943D01*
X321828Y102899D01*
X321916Y102852D01*
X322002Y102802D01*
X322086Y102748D01*
X322168Y102691D01*
X322247Y102631D01*
X322325Y102567D01*
X322399Y102501D01*
X322471Y102432D01*
X322540Y102360D01*
X322606Y102286D01*
X322670Y102208D01*
X322730Y102129D01*
X322787Y102047D01*
X322841Y101963D01*
X322891Y101877D01*
X322938Y101789D01*
X322982Y101699D01*
X323022Y101608D01*
X323058Y101515D01*
X323091Y101421D01*
X323120Y101325D01*
X323145Y101229D01*
X323166Y101132D01*
X323184Y101033D01*
X323197Y100935D01*
X323207Y100835D01*
X323213Y100736D01*
X323215Y100636D01*
X323215Y99366D01*
X323215Y109157D02*
X311785Y109157D01*
X311785Y112332D01*
X311787Y112443D01*
X311793Y112553D01*
X311802Y112664D01*
X311816Y112774D01*
X311833Y112883D01*
X311854Y112992D01*
X311879Y113100D01*
X311908Y113207D01*
X311940Y113313D01*
X311976Y113418D01*
X312016Y113521D01*
X312059Y113623D01*
X312106Y113724D01*
X312157Y113823D01*
X312210Y113919D01*
X312267Y114014D01*
X312328Y114107D01*
X312391Y114198D01*
X312458Y114287D01*
X312528Y114373D01*
X312601Y114456D01*
X312676Y114538D01*
X312754Y114616D01*
X312836Y114691D01*
X312919Y114764D01*
X313005Y114834D01*
X313094Y114901D01*
X313185Y114964D01*
X313278Y115025D01*
X313373Y115082D01*
X313469Y115135D01*
X313568Y115186D01*
X313669Y115233D01*
X313771Y115276D01*
X313874Y115316D01*
X313979Y115352D01*
X314085Y115384D01*
X314192Y115413D01*
X314300Y115438D01*
X314409Y115459D01*
X314518Y115476D01*
X314628Y115490D01*
X314739Y115499D01*
X314849Y115505D01*
X314960Y115507D01*
X315071Y115505D01*
X315181Y115499D01*
X315292Y115490D01*
X315402Y115476D01*
X315511Y115459D01*
X315620Y115438D01*
X315728Y115413D01*
X315835Y115384D01*
X315941Y115352D01*
X316046Y115316D01*
X316149Y115276D01*
X316251Y115233D01*
X316352Y115186D01*
X316451Y115135D01*
X316548Y115082D01*
X316642Y115025D01*
X316735Y114964D01*
X316826Y114901D01*
X316915Y114834D01*
X317001Y114764D01*
X317084Y114691D01*
X317166Y114616D01*
X317244Y114538D01*
X317319Y114456D01*
X317392Y114373D01*
X317462Y114287D01*
X317529Y114198D01*
X317592Y114107D01*
X317653Y114014D01*
X317710Y113920D01*
X317763Y113823D01*
X317814Y113724D01*
X317861Y113623D01*
X317904Y113521D01*
X317944Y113418D01*
X317980Y113313D01*
X318012Y113207D01*
X318041Y113100D01*
X318066Y112992D01*
X318087Y112883D01*
X318104Y112774D01*
X318118Y112664D01*
X318127Y112553D01*
X318133Y112443D01*
X318135Y112332D01*
X318135Y109157D01*
X316865Y120015D02*
X316865Y123825D01*
X316867Y123925D01*
X316873Y124024D01*
X316883Y124124D01*
X316896Y124222D01*
X316914Y124321D01*
X316935Y124418D01*
X316960Y124514D01*
X316989Y124610D01*
X317022Y124704D01*
X317058Y124797D01*
X317098Y124888D01*
X317142Y124978D01*
X317189Y125066D01*
X317239Y125152D01*
X317293Y125236D01*
X317350Y125318D01*
X317410Y125397D01*
X317474Y125475D01*
X317540Y125549D01*
X317609Y125621D01*
X317681Y125690D01*
X317755Y125756D01*
X317833Y125820D01*
X317912Y125880D01*
X317994Y125937D01*
X318078Y125991D01*
X318164Y126041D01*
X318252Y126088D01*
X318342Y126132D01*
X318433Y126172D01*
X318526Y126208D01*
X318620Y126241D01*
X318716Y126270D01*
X318812Y126295D01*
X318909Y126316D01*
X319008Y126334D01*
X319106Y126347D01*
X319206Y126357D01*
X319305Y126363D01*
X319405Y126365D01*
X320040Y126365D01*
X320151Y126363D01*
X320261Y126357D01*
X320372Y126348D01*
X320482Y126334D01*
X320591Y126317D01*
X320700Y126296D01*
X320808Y126271D01*
X320915Y126242D01*
X321021Y126210D01*
X321126Y126174D01*
X321229Y126134D01*
X321331Y126091D01*
X321432Y126044D01*
X321531Y125993D01*
X321628Y125940D01*
X321722Y125883D01*
X321815Y125822D01*
X321906Y125759D01*
X321995Y125692D01*
X322081Y125622D01*
X322164Y125549D01*
X322246Y125474D01*
X322324Y125396D01*
X322399Y125314D01*
X322472Y125231D01*
X322542Y125145D01*
X322609Y125056D01*
X322672Y124965D01*
X322733Y124872D01*
X322790Y124777D01*
X322843Y124681D01*
X322894Y124582D01*
X322941Y124481D01*
X322984Y124379D01*
X323024Y124276D01*
X323060Y124171D01*
X323092Y124065D01*
X323121Y123958D01*
X323146Y123850D01*
X323167Y123741D01*
X323184Y123632D01*
X323198Y123522D01*
X323207Y123411D01*
X323213Y123301D01*
X323215Y123190D01*
X323213Y123079D01*
X323207Y122969D01*
X323198Y122858D01*
X323184Y122748D01*
X323167Y122639D01*
X323146Y122530D01*
X323121Y122422D01*
X323092Y122315D01*
X323060Y122209D01*
X323024Y122104D01*
X322984Y122001D01*
X322941Y121899D01*
X322894Y121798D01*
X322843Y121699D01*
X322790Y121602D01*
X322733Y121508D01*
X322672Y121415D01*
X322609Y121324D01*
X322542Y121235D01*
X322472Y121149D01*
X322399Y121066D01*
X322324Y120984D01*
X322246Y120906D01*
X322164Y120831D01*
X322081Y120758D01*
X321995Y120688D01*
X321906Y120621D01*
X321815Y120558D01*
X321722Y120497D01*
X321628Y120440D01*
X321531Y120387D01*
X321432Y120336D01*
X321331Y120289D01*
X321229Y120246D01*
X321126Y120206D01*
X321021Y120170D01*
X320915Y120138D01*
X320808Y120109D01*
X320700Y120084D01*
X320591Y120063D01*
X320482Y120046D01*
X320372Y120032D01*
X320261Y120023D01*
X320151Y120017D01*
X320040Y120015D01*
X316865Y120015D01*
X316725Y120017D01*
X316585Y120023D01*
X316445Y120032D01*
X316306Y120046D01*
X316167Y120063D01*
X316029Y120084D01*
X315891Y120109D01*
X315754Y120138D01*
X315618Y120170D01*
X315483Y120207D01*
X315349Y120247D01*
X315216Y120290D01*
X315084Y120338D01*
X314953Y120388D01*
X314824Y120443D01*
X314697Y120501D01*
X314571Y120562D01*
X314447Y120627D01*
X314325Y120696D01*
X314205Y120767D01*
X314087Y120842D01*
X313970Y120920D01*
X313856Y121002D01*
X313745Y121086D01*
X313636Y121174D01*
X313529Y121264D01*
X313424Y121358D01*
X313323Y121454D01*
X313224Y121553D01*
X313128Y121654D01*
X313034Y121759D01*
X312944Y121866D01*
X312856Y121975D01*
X312772Y122086D01*
X312690Y122200D01*
X312612Y122317D01*
X312537Y122435D01*
X312466Y122555D01*
X312397Y122677D01*
X312332Y122801D01*
X312271Y122927D01*
X312213Y123054D01*
X312158Y123183D01*
X312108Y123314D01*
X312060Y123446D01*
X312017Y123579D01*
X311977Y123713D01*
X311940Y123848D01*
X311908Y123984D01*
X311879Y124121D01*
X311854Y124259D01*
X311833Y124397D01*
X311816Y124536D01*
X311802Y124675D01*
X311793Y124815D01*
X311787Y124955D01*
X311785Y125095D01*
D18*
X90170Y555180D02*
X77470Y555180D01*
M02*
