G04 EAGLE Gerber RS-274X export*
G75*
%MOMM*%
%FSLAX34Y34*%
%LPD*%
%INSolderpaste Bottom*%
%IPPOS*%
%AMOC8*
5,1,8,0,0,1.08239X$1,22.5*%
G01*
%ADD10R,0.990600X4.140200*%
%ADD11R,1.300000X1.600000*%


D10*
X83820Y530987D03*
X83820Y459613D03*
X109220Y530987D03*
X109220Y459613D03*
X134620Y530987D03*
X134620Y459613D03*
X160020Y530987D03*
X160020Y459613D03*
X185420Y530987D03*
X185420Y459613D03*
X210820Y530987D03*
X210820Y459613D03*
X236220Y530987D03*
X236220Y459613D03*
X261620Y530987D03*
X261620Y459613D03*
X287020Y530987D03*
X287020Y459613D03*
X312420Y530987D03*
X312420Y459613D03*
X337820Y530987D03*
X337820Y459613D03*
X363220Y530987D03*
X363220Y459613D03*
X388620Y530987D03*
X388620Y459613D03*
X414020Y530987D03*
X414020Y459613D03*
X439420Y530987D03*
X439420Y459613D03*
X464820Y530987D03*
X464820Y459613D03*
X490220Y530987D03*
X490220Y459613D03*
X515620Y530987D03*
X515620Y459613D03*
X541020Y530987D03*
X541020Y459613D03*
X566420Y530987D03*
X566420Y459613D03*
D11*
X492100Y368300D03*
X473100Y368300D03*
X492100Y342900D03*
X473100Y342900D03*
X492100Y317500D03*
X473100Y317500D03*
X492100Y292100D03*
X473100Y292100D03*
X257200Y215900D03*
X276200Y215900D03*
X257200Y190500D03*
X276200Y190500D03*
X314300Y190500D03*
X295300Y190500D03*
X295300Y215900D03*
X314300Y215900D03*
X212700Y215900D03*
X193700Y215900D03*
X212700Y190500D03*
X193700Y190500D03*
X155600Y190500D03*
X174600Y190500D03*
X155600Y215900D03*
X174600Y215900D03*
X352400Y355600D03*
X333400Y355600D03*
X352400Y330200D03*
X333400Y330200D03*
X352400Y304800D03*
X333400Y304800D03*
X352400Y279400D03*
X333400Y279400D03*
X352400Y254000D03*
X333400Y254000D03*
X435000Y304800D03*
X454000Y304800D03*
X435000Y330200D03*
X454000Y330200D03*
X435000Y355600D03*
X454000Y355600D03*
X352400Y381000D03*
X333400Y381000D03*
X435000Y381000D03*
X454000Y381000D03*
M02*
