G04 EAGLE Gerber RS-274X export*
G75*
%MOMM*%
%FSLAX34Y34*%
%LPD*%
%INSoldermask Bottom*%
%IPPOS*%
%AMOC8*
5,1,8,0,0,1.08239X$1,22.5*%
G01*
%ADD10C,1.727200*%
%ADD11P,1.869504X8X22.500000*%
%ADD12P,1.869504X8X202.500000*%
%ADD13P,1.869504X8X292.500000*%
%ADD14R,1.193800X4.343400*%
%ADD15R,1.503200X1.803200*%
%ADD16C,0.959600*%


D10*
X520700Y365760D02*
X535940Y365760D01*
X535940Y340360D02*
X520700Y340360D01*
X520700Y314960D02*
X535940Y314960D01*
X535940Y289560D02*
X520700Y289560D01*
X520700Y264160D02*
X535940Y264160D01*
X130810Y314960D02*
X115570Y314960D01*
X115570Y289560D02*
X130810Y289560D01*
D11*
X571500Y127000D03*
X596900Y127000D03*
X622300Y127000D03*
X571500Y152400D03*
X596900Y152400D03*
X622300Y152400D03*
D12*
X546100Y127000D03*
X520700Y127000D03*
X495300Y127000D03*
X546100Y152400D03*
X520700Y152400D03*
X495300Y152400D03*
X215900Y127000D03*
X190500Y127000D03*
X165100Y127000D03*
X139700Y127000D03*
X114300Y127000D03*
X215900Y152400D03*
X190500Y152400D03*
X165100Y152400D03*
X139700Y152400D03*
X114300Y152400D03*
D13*
X383540Y381000D03*
X408940Y381000D03*
X383540Y355600D03*
X408940Y355600D03*
X383540Y330200D03*
X408940Y330200D03*
X383540Y304800D03*
X408940Y304800D03*
X383540Y279400D03*
X408940Y279400D03*
X383540Y254000D03*
X408940Y254000D03*
X383540Y228600D03*
X408940Y228600D03*
D12*
X292100Y127000D03*
X266700Y127000D03*
X241300Y127000D03*
X292100Y152400D03*
X266700Y152400D03*
X241300Y152400D03*
D11*
X317500Y127000D03*
X342900Y127000D03*
X368300Y127000D03*
X317500Y152400D03*
X342900Y152400D03*
X368300Y152400D03*
D14*
X83820Y530987D03*
X83820Y459613D03*
X109220Y530987D03*
X109220Y459613D03*
X134620Y530987D03*
X134620Y459613D03*
X160020Y530987D03*
X160020Y459613D03*
X185420Y530987D03*
X185420Y459613D03*
X210820Y530987D03*
X210820Y459613D03*
X236220Y530987D03*
X236220Y459613D03*
X261620Y530987D03*
X261620Y459613D03*
X287020Y530987D03*
X287020Y459613D03*
X312420Y530987D03*
X312420Y459613D03*
X337820Y530987D03*
X337820Y459613D03*
X363220Y530987D03*
X363220Y459613D03*
X388620Y530987D03*
X388620Y459613D03*
X414020Y530987D03*
X414020Y459613D03*
X439420Y530987D03*
X439420Y459613D03*
X464820Y530987D03*
X464820Y459613D03*
X490220Y530987D03*
X490220Y459613D03*
X515620Y530987D03*
X515620Y459613D03*
X541020Y530987D03*
X541020Y459613D03*
X566420Y530987D03*
X566420Y459613D03*
D15*
X492100Y368300D03*
X473100Y368300D03*
X492100Y342900D03*
X473100Y342900D03*
X492100Y317500D03*
X473100Y317500D03*
X492100Y292100D03*
X473100Y292100D03*
X257200Y215900D03*
X276200Y215900D03*
X257200Y190500D03*
X276200Y190500D03*
X314300Y190500D03*
X295300Y190500D03*
X295300Y215900D03*
X314300Y215900D03*
X212700Y215900D03*
X193700Y215900D03*
X212700Y190500D03*
X193700Y190500D03*
X155600Y190500D03*
X174600Y190500D03*
X155600Y215900D03*
X174600Y215900D03*
X352400Y355600D03*
X333400Y355600D03*
X352400Y330200D03*
X333400Y330200D03*
X352400Y304800D03*
X333400Y304800D03*
X352400Y279400D03*
X333400Y279400D03*
X352400Y254000D03*
X333400Y254000D03*
X435000Y304800D03*
X454000Y304800D03*
X435000Y330200D03*
X454000Y330200D03*
X435000Y355600D03*
X454000Y355600D03*
X352400Y381000D03*
X333400Y381000D03*
X435000Y381000D03*
X454000Y381000D03*
D16*
X81250Y206250D03*
X141250Y206250D03*
X155000Y175000D03*
X110000Y172500D03*
X211250Y175000D03*
X325000Y455990D03*
X633750Y178750D03*
X591250Y407500D03*
X223750Y513750D03*
X208750Y231250D03*
X421250Y390000D03*
X380000Y490000D03*
X457500Y403750D03*
X452500Y432500D03*
X395000Y490000D03*
X309900Y367640D03*
X330000Y411330D03*
X401250Y442500D03*
X427500Y476250D03*
X542500Y217500D03*
X500000Y410000D03*
X563750Y488750D03*
X581250Y335000D03*
X356290Y224860D03*
X416250Y211250D03*
X480000Y386250D03*
X436250Y288750D03*
X442500Y488750D03*
X96250Y460000D03*
X275000Y460000D03*
X296250Y231250D03*
X340140Y237480D03*
X195000Y231250D03*
X447500Y396250D03*
X337500Y396250D03*
X570000Y415000D03*
X502500Y442500D03*
X560000Y351250D03*
X517500Y431250D03*
X286250Y349800D03*
X248750Y450000D03*
X243750Y192500D03*
X256250Y231250D03*
X233750Y185000D03*
X346250Y187500D03*
X378810Y175080D03*
X287500Y487500D03*
X267500Y395000D03*
M02*
